<svg width="170" height="129" viewBox="0 0 170 129" fill="none" xmlns="http://www.w3.org/2000/svg">
<g clip-path="url(#clip0_4021_8621)">
<path d="M119.754 115.108L168.013 66.8482C169.26 65.602 169.26 63.5791 168.013 62.3149L110.326 4.64533L88.7788 26.1924L124.919 62.3329C126.166 63.5791 126.166 65.602 124.919 66.8663L98.2249 93.5608L119.772 115.108H119.754Z" fill="#2231EF"/>
<path d="M106.28 128.6L44.5468 66.8663C43.3006 65.6201 43.3006 63.5972 44.5468 62.3329L106.28 0.599609H64.5045C63.6556 0.599609 62.8429 0.942773 62.2469 1.53879L1.43467 62.3329C0.188444 63.5791 0.188444 65.602 1.43467 66.8663L62.2288 127.66C62.8248 128.256 63.6376 128.6 64.4865 128.6H106.28Z" fill="#2231EF"/>
</g>
<defs>
<clipPath id="clip0_4021_8621">
<rect width="169" height="128" fill="white" transform="translate(0.5 0.599609)"/>
</clipPath>
</defs>
</svg>
