<svg width="240" height="68" viewBox="0 0 120 34" fill="none" xmlns="http://www.w3.org/2000/svg">
  <path fill="#111114" d="M30.408 19.495a11.17 11.17 0 0 1-6.65 3.298 12.87 12.87 0 0 0-1.986-7.021c.67.1 1.353.042 1.996-.17a4.4 4.4 0 0 0 1.715-1.06c1.749-1.744 1.725-4.657-.004-6.422L22.41 4.99 27.298 0l3.108 3.172c3.314 3.382 4.14 8.341 2.481 12.511a11.5 11.5 0 0 1-2.48 3.812M11.307 29.01 6.42 34l-3.108-3.172C-.002 27.445-.829 22.487.831 18.317a11.53 11.53 0 0 1 3.615-4.824 11.2 11.2 0 0 1 5.513-2.286 12.87 12.87 0 0 0 1.987 7.021 4.3 4.3 0 0 0-1.996.17 4.4 4.4 0 0 0-1.715 1.06c-1.749 1.744-1.725 4.657.004 6.422z"/>
  <path fill="#111114" d="M19.303 30.828 16.195 34l-4.888-4.99 3.108-3.172a4.53 4.53 0 0 0 1.287-3.171c0-1.19-.463-2.331-1.287-3.172a11.66 11.66 0 0 1-3.313-8.161c0-3.061 1.192-5.997 3.313-8.162L17.523 0l4.888 4.99-3.108 3.171a4.53 4.53 0 0 0-1.287 3.172c0 1.19.463 2.331 1.287 3.172a11.66 11.66 0 0 1 3.313 8.161c0 3.061-1.192 5.997-3.313 8.162M46.776 27.493V6.516h8.135q3.771 0 5.441 1.704 1.266 1.293 1.266 3.547 0 1.814-.808 3.08-.78 1.236-2.236 1.621 1.967.33 3.017 1.622 1.078 1.265 1.078 3.3 0 1.43-.512 2.584-.484 1.155-1.32 1.87a6.65 6.65 0 0 1-2.72 1.319q-1.509.33-2.856.33zm7.892-12.262q1.482 0 2.263-.66.781-.687.781-1.952 0-1.238-.727-1.814-.43-.385-1.158-.55-.7-.193-1.778-.193h-3.394v5.17zm.108 8.715q1.024 0 1.832-.165.836-.165 1.4-.66.755-.632.755-2.034 0-1.622-.97-2.117-.969-.522-2.586-.522h-4.552v5.498zM72.48 27.795q-2.29 0-4.04-1.017a7.1 7.1 0 0 1-2.72-2.804q-.944-1.814-.943-4.097 0-2.115.835-3.959a7.3 7.3 0 0 1 2.559-3.024q1.725-1.155 4.202-1.155 2.047 0 3.771.88 1.725.852 2.775 2.667 1.05 1.787 1.05 4.454v.797H68.549q.08.963.566 1.815.539 1.073 1.427 1.677.916.577 2.075.577 1.239 0 2.128-.632a3.6 3.6 0 0 0 1.266-1.677h3.717q-.728 2.447-2.559 3.986-1.832 1.512-4.687 1.512m3.772-10.035q-.108-.88-.565-1.43a3.3 3.3 0 0 0-1.347-1.209 3.9 3.9 0 0 0-1.86-.44 4.14 4.14 0 0 0-1.858.413 3.3 3.3 0 0 0-1.32 1.237q-.484.605-.592 1.43zM89.577 33.349q-2.694 0-4.633-1.155-1.913-1.127-2.37-3.876h3.663q.35 1.127 1.158 1.622.808.522 2.155.522 1.777 0 2.64-.825.862-.825.862-2.254V25.21q-.889 1.265-1.913 1.76-.996.494-2.397.494-1.94 0-3.448-.99-1.509-1.017-2.344-2.804-.834-1.786-.835-4.014 0-2.28.835-4.068.835-1.815 2.344-2.832 1.509-1.018 3.448-1.018 1.401 0 2.397.523 1.024.495 1.913 1.76v-1.953h3.637v14.434q0 3.711-1.913 5.279-1.885 1.567-5.199 1.567m.027-9.073q1.132 0 2.02-.605.89-.605 1.374-1.677.512-1.072.512-2.392t-.512-2.392q-.484-1.071-1.374-1.677a3.5 3.5 0 0 0-2.02-.604q-1.724 0-2.775 1.347-1.05 1.32-1.05 3.326t1.05 3.355q1.05 1.32 2.775 1.32M103.6 27.493h-3.637V12.069h3.637zm-1.805-17.128q-.943 0-1.589-.578-.647-.576-.647-1.54 0-.906.647-1.511.646-.605 1.589-.605.916 0 1.562.605.674.604.674 1.512 0 .934-.647 1.54-.646.577-1.589.577M106.908 27.493V12.069h3.637v1.952q.861-1.236 1.858-1.76.997-.52 2.263-.521 3.502-.001 4.714 2.584.404.908.512 1.842.108.935.108 2.447v8.88h-3.61v-8.935q0-2.227-.754-3.08-.646-.687-1.913-.687-1.534 0-2.289.935-.458.55-.674 1.484-.215.908-.215 2.42v7.863z"/>
</svg>
