<svg width="52" height="52" viewBox="0 0 52 52" fill="none" xmlns="http://www.w3.org/2000/svg">
<rect width="52" height="52" rx="6" fill="#1E2026"/>
<path d="M16.789 26.0172L12.8773 29.8597L9 26.0172L12.9117 22.1746L16.789 26.0172ZM26.3108 16.6509L32.9846 23.2896L36.8963 19.447L30.2225 12.8083L26.3108 9L22.4335 12.8426L15.7253 19.4813L19.637 23.3239L26.3108 16.6509ZM39.7443 22.1746L35.8326 26.0172L39.7443 29.8597L43.6559 26.0172L39.7443 22.1746ZM26.3108 35.3148L19.637 28.7275L15.691 32.5701L22.3648 39.1574L26.2765 43L30.1882 39.1574L36.8963 32.5701L32.9846 28.7275L26.3108 35.3148ZM26.3108 29.8254L30.2225 25.9828L26.3108 22.1403L22.4335 26.0343L26.3108 29.8426V29.8254Z" fill="#F0B90B"/>
</svg>
