<svg width="52" height="52" viewBox="0 0 52 52" fill="none" xmlns="http://www.w3.org/2000/svg">
<g clip-path="url(#clip0_4240_667)">
<path d="M0 6C0 2.68629 2.68629 0 6 0H46C49.3137 0 52 2.68629 52 6V46C52 49.3137 49.3137 52 46 52H6C2.68629 52 0 49.3137 0 46V6Z" fill="white"/>
<rect width="52" height="52" fill="#072440"/>
<g clip-path="url(#clip1_4240_667)">
<path d="M31.3674 37.5828C37.9912 37.5828 43.3608 32.2139 43.3608 25.5909C43.3608 18.968 37.9912 13.599 31.3674 13.599C24.7436 13.599 19.374 18.968 19.374 25.5909C19.374 32.2139 24.7436 37.5828 31.3674 37.5828Z" fill="url(#paint0_linear_4240_667)"/>
<path d="M21.8122 39.194C29.1007 39.194 35.0092 33.2868 35.0092 25.9999C35.0092 18.7131 29.1007 12.8059 21.8122 12.8059C14.5237 12.8059 8.61523 18.7131 8.61523 25.9999C8.61523 33.2868 14.5237 39.194 21.8122 39.194Z" fill="url(#paint1_linear_4240_667)"/>
<path d="M24.3245 20.7561L24.8933 18.4324L23.4727 18.0352L22.9039 20.3588C22.5066 20.2459 22.1665 20.1887 21.7106 20.0758L22.2794 17.7522L20.8589 17.4121L20.2901 19.7929C19.9485 19.7357 19.6641 19.6228 19.3811 19.5657L17.4489 19.1127L17.0516 20.6432L18.1321 20.9261C18.7009 21.0962 18.8138 21.4363 18.8138 21.7764L17.2217 28.2385C17.1088 28.4086 16.9388 28.6358 16.54 28.5787L15.4596 28.2957L14.7207 29.9391L16.5957 30.3921L17.6175 30.675L17.0487 33.0558L18.4693 33.4531L19.0381 31.0723C19.4354 31.1852 19.7769 31.2996 20.2314 31.4124L19.7212 33.7361L21.1418 34.1333L21.7106 31.7526C24.1544 32.2056 26.0295 32.0355 26.824 29.7691C27.45 27.9556 26.7669 26.991 25.5164 26.2536C26.4839 26.0263 27.1641 25.4033 27.3914 24.1557C27.5057 22.2851 26.1423 21.3205 24.323 20.7546L24.3245 20.7561ZM23.9272 28.6358C23.5299 30.4493 20.4601 29.4289 19.494 29.2032L20.2901 26.0278C21.2561 26.3108 24.3802 26.7652 23.9257 28.6358H23.9272ZM24.3817 23.9871C23.9844 25.6305 21.4848 24.7802 20.6888 24.5545L21.4277 21.7192C22.1665 21.8893 24.779 22.2866 24.3817 23.9871Z" fill="url(#paint2_linear_4240_667)"/>
</g>
</g>
<path d="M6 0.5H46C49.0376 0.5 51.5 2.96243 51.5 6V46C51.5 49.0376 49.0376 51.5 46 51.5H6C2.96244 51.5 0.5 49.0376 0.5 46V6C0.5 2.96244 2.96243 0.5 6 0.5Z" stroke="white" stroke-opacity="0.3"/>
<defs>
<linearGradient id="paint0_linear_4240_667" x1="41.468" y1="20.3726" x2="20.1475" y2="31.3674" gradientUnits="userSpaceOnUse">
<stop stop-color="#F5516C"/>
<stop offset="0.12" stop-color="#BA4561"/>
<stop offset="0.24" stop-color="#873C57"/>
<stop offset="0.35" stop-color="#603450"/>
<stop offset="0.45" stop-color="#442F4B"/>
<stop offset="0.54" stop-color="#332C48"/>
<stop offset="0.61" stop-color="#2D2B47"/>
</linearGradient>
<linearGradient id="paint1_linear_4240_667" x1="29.8606" y1="16.4079" x2="12.896" y2="36.6241" gradientUnits="userSpaceOnUse">
<stop offset="0.12" stop-color="#F5516C"/>
<stop offset="0.36" stop-color="#CC4964"/>
<stop offset="0.8" stop-color="#863C57"/>
<stop offset="1" stop-color="#6B3753"/>
</linearGradient>
<linearGradient id="paint2_linear_4240_667" x1="26.3344" y1="19.6404" x2="15.892" y2="32.0853" gradientUnits="userSpaceOnUse">
<stop offset="0.5" stop-color="white"/>
<stop offset="1" stop-color="#9AA5B8"/>
</linearGradient>
<clipPath id="clip0_4240_667">
<path d="M0 6C0 2.68629 2.68629 0 6 0H46C49.3137 0 52 2.68629 52 6V46C52 49.3137 49.3137 52 46 52H6C2.68629 52 0 49.3137 0 46V6Z" fill="white"/>
</clipPath>
<clipPath id="clip1_4240_667">
<rect width="34.7701" height="26.3881" fill="white" transform="translate(8.61523 12.8059)"/>
</clipPath>
</defs>
</svg>
