<svg width="42" height="42" viewBox="0 0 42 42" fill="none" xmlns="http://www.w3.org/2000/svg">
<rect x="0.175" y="0.175" width="41.65" height="41.65" rx="3.825" fill="white"/>
<rect x="0.175" y="0.175" width="41.65" height="41.65" rx="3.825" stroke="#CED1DA" stroke-width="0.35"/>
<g clip-path="url(#clip0_4264_721)">
<path d="M29.1941 20.5046C28.9065 20.7913 28.6672 21.0861 28.5054 21.5182C28.3437 21.9502 28.2636 22.4206 28.1484 23.1646C27.9833 24.2239 27.6614 24.6404 27.4066 24.9034C26.8862 25.4399 26.1468 25.4097 25.2456 25.2317C24.6795 25.1198 24.5324 25.2545 23.8592 25.836L20.3102 29.3494L20.3086 34.6832C20.3086 34.7788 20.4246 34.827 20.4924 34.7592L30.9744 24.2982C31.1157 24.1569 31.1957 23.9658 31.1957 23.7657L31.2088 18.4792L29.1941 20.5038V20.5046Z" fill="#FF630F"/>
<path d="M29.1941 20.5046C28.9065 20.7913 28.6672 21.0861 28.5054 21.5182C28.3437 21.9502 28.2636 22.4206 28.1484 23.1646C27.9833 24.2239 27.6614 24.6404 27.4066 24.9034C26.8862 25.4399 26.1468 25.4097 25.2456 25.2317C24.6795 25.1198 24.5324 25.2545 23.8592 25.836L20.3102 29.3494L20.3086 34.6832C20.3086 34.7788 20.4246 34.827 20.4924 34.7592L30.9744 24.2982C31.1157 24.1569 31.1957 23.9658 31.1957 23.7657L31.2088 18.4792L29.1941 20.5038V20.5046Z" fill="url(#paint0_linear_4264_721)"/>
<path d="M24.9646 23.8416C25.6476 23.8611 26.1239 24.3552 26.686 24.0008C27.2481 23.6464 27.2325 23.2519 27.3412 22.6002C27.4507 21.9476 27.6672 21.1889 27.86 20.7316C28.0536 20.2734 28.4858 19.6879 28.9253 19.2607L31.1908 16.9046L31.2056 14.5304C31.2056 14.3851 31.0307 14.3116 30.9278 14.4145L20.6248 24.7138C20.4221 24.9163 20.3086 25.1907 20.3086 25.4766V27.8139L23.789 24.3218C23.789 24.3218 24.2808 23.8228 24.9638 23.8424L24.9646 23.8416Z" fill="#61C5FF"/>
<path d="M24.9646 23.8416C25.6476 23.8611 26.1239 24.3552 26.686 24.0008C27.2481 23.6464 27.2325 23.2519 27.3412 22.6002C27.4507 21.9476 27.6672 21.1889 27.86 20.7316C28.0536 20.2734 28.4858 19.6879 28.9253 19.2607L31.1908 16.9046L31.2056 14.5304C31.2056 14.3851 31.0307 14.3116 30.9278 14.4145L20.6248 24.7138C20.4221 24.9163 20.3086 25.1907 20.3086 25.4766V27.8139L23.789 24.3218C23.789 24.3218 24.2808 23.8228 24.9638 23.8424L24.9646 23.8416Z" fill="url(#paint1_linear_4264_721)"/>
<path d="M31.2088 12.5837L20.3086 23.5086V21.1761C20.3086 20.8903 20.4221 20.6159 20.6248 20.4134L30.9303 10.1116C31.0324 10.0095 31.208 10.0814 31.208 10.2268V12.5837H31.2088Z" fill="#FFC414"/>
<path d="M31.2088 12.5837L20.3086 23.5086V21.1761C20.3086 20.8903 20.4221 20.6159 20.6248 20.4134L30.9303 10.1116C31.0324 10.0095 31.208 10.0814 31.208 10.2268V12.5837H31.2088Z" fill="url(#paint2_linear_4264_721)"/>
<path d="M30.3708 8.43223L11.9175 12.4512C11.2566 12.5949 10.7852 13.1797 10.7852 13.8559V27.3256C10.7852 27.5257 10.8644 27.7176 11.0066 27.8597L18.7712 35.6216C18.9297 35.78 19.2009 35.6681 19.2009 35.4435V21.0077C19.2018 20.5315 19.3913 20.0742 19.7279 19.7377L30.6028 8.85609C30.7801 8.67888 30.6167 8.37917 30.3716 8.43223H30.3708Z" fill="url(#paint3_linear_4264_721)"/>
<path d="M30.3708 8.43223L11.9175 12.4512C11.2566 12.5949 10.7852 13.1797 10.7852 13.8559V27.3256C10.7852 27.5257 10.8644 27.7176 11.0066 27.8597L18.7712 35.6216C18.9297 35.78 19.2009 35.6681 19.2009 35.4435V21.0077C19.2018 20.5315 19.3913 20.0742 19.7279 19.7377L30.6028 8.85609C30.7801 8.67888 30.6167 8.37917 30.3716 8.43223H30.3708Z" fill="url(#paint4_linear_4264_721)"/>
</g>
<defs>
<linearGradient id="paint0_linear_4264_721" x1="30.9237" y1="21.5337" x2="20.3476" y2="32.4403" gradientUnits="userSpaceOnUse">
<stop stop-color="#FF7D38"/>
<stop offset="0.61" stop-color="#FE6412"/>
<stop offset="1" stop-color="#EB4600"/>
</linearGradient>
<linearGradient id="paint1_linear_4264_721" x1="28.5281" y1="18.4816" x2="20.0582" y2="27.391" gradientUnits="userSpaceOnUse">
<stop stop-color="#61C5FF"/>
<stop offset="1" stop-color="#2A92FA"/>
</linearGradient>
<linearGradient id="paint2_linear_4264_721" x1="31.2088" y1="11.7744" x2="21.0707" y2="22.7377" gradientUnits="userSpaceOnUse">
<stop stop-color="#FFC414"/>
<stop offset="1" stop-color="#FF9447"/>
</linearGradient>
<linearGradient id="paint3_linear_4264_721" x1="30.6379" y1="8.42604" x2="12.014" y2="19.0896" gradientUnits="userSpaceOnUse">
<stop stop-color="#403649"/>
<stop offset="0.15" stop-color="#403649"/>
<stop offset="1" stop-color="#312938"/>
</linearGradient>
<linearGradient id="paint4_linear_4264_721" x1="34.3246" y1="-6.75936" x2="10.2617" y2="33.4448" gradientUnits="userSpaceOnUse">
<stop stop-color="#776A83"/>
<stop offset="0.11" stop-color="#776A83"/>
<stop offset="0.57" stop-color="#312938"/>
<stop offset="0.96" stop-color="#19151D"/>
<stop offset="1" stop-color="#19151D"/>
</linearGradient>
<clipPath id="clip0_4264_721">
<rect width="27.3" height="27.3" fill="white" transform="translate(7.35156 8.3999)"/>
</clipPath>
</defs>
</svg>
