<svg width="52" height="52" viewBox="0 0 52 52" fill="none" xmlns="http://www.w3.org/2000/svg">
<rect width="52" height="52" rx="6" fill="white"/>
<g clip-path="url(#clip0_4264_709)">
<path d="M36.1427 25.3865C35.7867 25.7415 35.4903 26.1065 35.29 26.6414C35.0898 27.1763 34.9906 27.7587 34.848 28.6799C34.6437 29.9913 34.2451 30.507 33.9296 30.8326C33.2853 31.4969 32.3698 31.4595 31.2541 31.2391C30.5531 31.1005 30.3711 31.2673 29.5376 31.9873L25.1436 36.3372L25.1416 42.941C25.1416 43.0593 25.2853 43.119 25.3692 43.0351L38.3468 30.0833C38.5218 29.9084 38.6209 29.6718 38.6209 29.424L38.6371 22.8789L36.1427 25.3855V25.3865Z" fill="#FF630F"/>
<path d="M36.1427 25.3865C35.7867 25.7415 35.4903 26.1065 35.29 26.6414C35.0898 27.1763 34.9906 27.7587 34.848 28.6799C34.6437 29.9913 34.2451 30.507 33.9296 30.8326C33.2853 31.4969 32.3698 31.4595 31.2541 31.2391C30.5531 31.1005 30.3711 31.2673 29.5376 31.9873L25.1436 36.3372L25.1416 42.941C25.1416 43.0593 25.2853 43.119 25.3692 43.0351L38.3468 30.0833C38.5218 29.9084 38.6209 29.6718 38.6209 29.424L38.6371 22.8789L36.1427 25.3855V25.3865Z" fill="url(#paint0_linear_4264_709)"/>
<path d="M30.9081 29.5181C31.7537 29.5423 32.3434 30.1541 33.0394 29.7152C33.7353 29.2764 33.7161 28.788 33.8506 27.9811C33.9861 27.1732 34.2542 26.2338 34.4929 25.6676C34.7326 25.1003 35.2677 24.3754 35.8119 23.8466L38.6168 20.9294L38.635 17.99C38.635 17.8101 38.4186 17.719 38.2911 17.8464L25.535 30.5979C25.2841 30.8487 25.1436 31.1885 25.1436 31.5424V34.4362L29.4526 30.1126C29.4526 30.1126 30.0615 29.4948 30.9071 29.5191L30.9081 29.5181Z" fill="#61C5FF"/>
<path d="M30.9081 29.5181C31.7537 29.5423 32.3434 30.1541 33.0394 29.7152C33.7353 29.2764 33.7161 28.788 33.8506 27.9811C33.9861 27.1732 34.2542 26.2338 34.4929 25.6676C34.7326 25.1003 35.2677 24.3754 35.8119 23.8466L38.6168 20.9294L38.635 17.99C38.635 17.8101 38.4186 17.719 38.2911 17.8464L25.535 30.5979C25.2841 30.8487 25.1436 31.1885 25.1436 31.5424V34.4362L29.4526 30.1126C29.4526 30.1126 30.0615 29.4948 30.9071 29.5191L30.9081 29.5181Z" fill="url(#paint1_linear_4264_709)"/>
<path d="M38.6391 15.5797L25.1436 29.1057V26.2179C25.1436 25.864 25.2841 25.5243 25.535 25.2736L38.2942 12.519C38.4206 12.3926 38.6381 12.4816 38.6381 12.6616V15.5797H38.6391Z" fill="#FFC414"/>
<path d="M38.6391 15.5797L25.1436 29.1057V26.2179C25.1436 25.864 25.2841 25.5243 25.535 25.2736L38.2942 12.519C38.4206 12.3926 38.6381 12.4816 38.6381 12.6616V15.5797H38.6391Z" fill="url(#paint2_linear_4264_709)"/>
<path d="M37.5995 10.4399L14.7525 15.4158C13.9342 15.5937 13.3506 16.3177 13.3506 17.155V33.8318C13.3506 34.0795 13.4487 34.3171 13.6247 34.493L23.238 44.1029C23.4343 44.2991 23.7701 44.1606 23.7701 43.8825V26.0095C23.7711 25.42 24.0058 24.8538 24.4225 24.4372L37.8867 10.9647C38.1062 10.7453 37.9039 10.3742 37.6004 10.4399H37.5995Z" fill="url(#paint3_linear_4264_709)"/>
<path d="M37.5995 10.4399L14.7525 15.4158C13.9342 15.5937 13.3506 16.3177 13.3506 17.155V33.8318C13.3506 34.0795 13.4487 34.3171 13.6247 34.493L23.238 44.1029C23.4343 44.2991 23.7701 44.1606 23.7701 43.8825V26.0095C23.7711 25.42 24.0058 24.8538 24.4225 24.4372L37.8867 10.9647C38.1062 10.7453 37.9039 10.3742 37.6004 10.4399H37.5995Z" fill="url(#paint4_linear_4264_709)"/>
</g>
<defs>
<linearGradient id="paint0_linear_4264_709" x1="38.2841" y1="26.6606" x2="25.1899" y2="40.1641" gradientUnits="userSpaceOnUse">
<stop stop-color="#FF7D38"/>
<stop offset="0.61" stop-color="#FE6412"/>
<stop offset="1" stop-color="#EB4600"/>
</linearGradient>
<linearGradient id="paint1_linear_4264_709" x1="35.3201" y1="22.8819" x2="24.8335" y2="33.9126" gradientUnits="userSpaceOnUse">
<stop stop-color="#61C5FF"/>
<stop offset="1" stop-color="#2A92FA"/>
</linearGradient>
<linearGradient id="paint2_linear_4264_709" x1="38.6391" y1="14.5777" x2="26.0871" y2="28.1513" gradientUnits="userSpaceOnUse">
<stop stop-color="#FFC414"/>
<stop offset="1" stop-color="#FF9447"/>
</linearGradient>
<linearGradient id="paint3_linear_4264_709" x1="37.9302" y1="10.4323" x2="14.872" y2="23.6348" gradientUnits="userSpaceOnUse">
<stop stop-color="#403649"/>
<stop offset="0.15" stop-color="#403649"/>
<stop offset="1" stop-color="#312938"/>
</linearGradient>
<linearGradient id="paint4_linear_4264_709" x1="42.4947" y1="-8.3687" x2="12.7025" y2="41.4079" gradientUnits="userSpaceOnUse">
<stop stop-color="#776A83"/>
<stop offset="0.11" stop-color="#776A83"/>
<stop offset="0.57" stop-color="#312938"/>
<stop offset="0.96" stop-color="#19151D"/>
<stop offset="1" stop-color="#19151D"/>
</linearGradient>
<clipPath id="clip0_4264_709">
<rect width="33.8" height="33.8" fill="white" transform="translate(9.09961 10.4)"/>
</clipPath>
</defs>
</svg>
