<svg xmlns="http://www.w3.org/2000/svg" width="42" height="42" fill="none"><g clip-path="url(#a)"><path fill="#B3B8C7" d="M0 4a4 4 0 0 1 4-4h34a4 4 0 0 1 4 4v34a4 4 0 0 1-4 4H4a4 4 0 0 1-4-4z"/><g clip-path="url(#b)"><path fill="#0052FF" d="M42 0H0v42h42z"/><path fill="#fff" fill-rule="evenodd" d="M6.234 21c0 8.155 6.611 14.766 14.766 14.766S35.766 29.155 35.766 21 29.155 6.234 21 6.234 6.234 12.845 6.234 21m10.993-4.758a.984.984 0 0 0-.985.985v7.546c0 .544.44.985.985.985h7.546c.544 0 .985-.44.985-.985v-7.546a.984.984 0 0 0-.985-.985z" clip-rule="evenodd"/></g></g><defs><clipPath id="a"><path fill="#fff" d="M0 4a4 4 0 0 1 4-4h34a4 4 0 0 1 4 4v34a4 4 0 0 1-4 4H4a4 4 0 0 1-4-4z"/></clipPath><clipPath id="b"><path fill="#fff" d="M0 0h42v42H0z"/></clipPath></defs></svg>