<svg width="266" height="72" viewBox="0 0 266 72" fill="none" xmlns="http://www.w3.org/2000/svg">
<path fill-rule="evenodd" clip-rule="evenodd" d="M250.969 53.388H229.405C228.766 53.388 228.244 52.866 228.244 52.227V37.008C228.244 36.369 228.766 35.847 229.405 35.847H250.969C251.608 35.847 252.13 36.369 252.13 37.008V52.227C252.13 52.866 251.608 53.388 250.969 53.388ZM215.212 0H200.407C198.544 0 196.357 0.927 195.961 2.772L193.216 15.525C192.793 17.478 193.432 18.936 195.205 19.935C197.581 21.285 200.524 22.014 203.26 22.014C205.834 22.014 208.651 21.573 211 20.682C212.818 19.998 214.339 19.044 215.221 17.847V0H215.212ZM246.19 22.554C244.372 21.87 242.77 20.925 241.609 19.737C238.657 22.788 233.689 24.345 229.495 24.345C225.301 24.345 219.424 23.175 216.373 20.061C213.322 23.175 207.526 24.345 203.251 24.345C201.874 24.345 200.461 24.183 199.102 23.877V63.954H205.834V37.008C205.834 36.369 206.356 35.847 206.995 35.847H220.603C221.242 35.847 221.764 36.369 221.764 37.008V63.954H258.871V23.58C257.521 23.886 256.126 24.048 254.758 24.048C251.932 24.048 248.827 23.553 246.199 22.563L246.19 22.554ZM240.466 17.532C238.108 20.538 233.23 22.014 229.495 22.014C226.921 22.014 224.113 21.573 221.755 20.682C219.937 19.998 218.416 19.044 217.534 17.847V0H240.466V17.532ZM242.788 0H257.62C259.474 0 261.661 0.909 262.057 2.754L264.766 15.219C265.198 17.19 264.568 18.648 262.777 19.665C261.634 20.313 260.275 20.844 258.943 21.186C257.593 21.537 256.171 21.726 254.749 21.726C252.175 21.726 249.367 21.285 247.009 20.394C245.191 19.71 243.67 18.765 242.788 17.559V0ZM264.982 66.267H192.982V72H264.982V66.267Z" fill="white"/>
<path d="M141.926 59.6707L164.543 37.0536C165.128 36.4686 165.128 35.5163 164.543 34.9313L137.502 7.89722L127.4 17.9985L144.341 34.9388C144.926 35.5238 144.926 36.4761 144.341 37.0611L131.825 49.577L141.926 59.6782V59.6707Z" fill="white"/>
<path d="M135.602 65.9925L106.663 37.0536C106.078 36.4687 106.078 35.5163 106.663 34.9314L135.602 6H116.014C115.617 6 115.234 6.15748 114.957 6.44244L86.4602 34.9389C85.8753 35.5238 85.8753 36.4762 86.4602 37.0611L114.957 65.5576C115.242 65.8425 115.617 66 116.014 66H135.602V65.9925Z" fill="white"/>
<path fill-rule="evenodd" clip-rule="evenodd" d="M58.0208 65.565C57.2738 51.03 45.3218 39.267 29.6438 39.267C13.9658 39.267 1.25781 51.03 1.25781 65.565C2.00481 69.021 4.24581 71.1 7.23381 71.1H52.0448C55.7798 70.407 58.0208 68.328 58.0208 65.565Z" fill="white"/>
<path fill-rule="evenodd" clip-rule="evenodd" d="M29.634 0.900024C20.517 0.900024 13.218 8.63102 13.218 18.288C13.218 26.982 20.517 34.713 29.634 34.713C37.842 34.713 46.05 27.954 46.05 18.288C46.05 8.62202 38.76 0.900024 29.634 0.900024Z" fill="white"/>
</svg>
