<svg width="100" height="40" viewBox="0 0 100 40" fill="none" xmlns="http://www.w3.org/2000/svg">
<g clip-path="url(#clip0_7407_25941)">
<g clip-path="url(#clip1_7407_25941)">
<g clip-path="url(#clip2_7407_25941)">
<path fill-rule="evenodd" clip-rule="evenodd" d="M8.98984 0H17.4673C23.7368 0 28.8199 4.93749 28.8199 11.355C28.8199 17.7726 23.6179 22.9721 17.2028 22.9721H8.98984V18.3088H16.0892C19.8426 18.3088 22.9119 15.2395 22.9119 11.486C22.9119 7.73258 19.8426 4.66332 16.0892 4.66332H8.98984V0ZM36.6544 4.26541V10.336H46.3887V14.6014H36.6544V22.9697H31.3384V0H48.6985V4.26541H36.6544ZM67.6648 22.9697L62.1183 14.9945L56.6713 22.9697H50.5667L59.066 11.2871L50.9962 0H57.0328L62.3173 7.4487L67.5022 0H73.2453L65.2385 11.0906L73.8033 22.9697H67.6672H67.6648Z" fill="#072440"/>
<path d="M12.3211 17.0618C15.5184 17.0618 18.1103 14.4699 18.1103 11.2726C18.1103 8.0754 15.5184 5.48352 12.3211 5.48352C9.12389 5.48352 6.53201 8.0754 6.53201 11.2726C6.53201 14.4699 9.12389 17.0618 12.3211 17.0618Z" fill="url(#paint0_linear_7407_25941)"/>
<path d="M7.04882 17.8551C10.5663 17.8551 13.4178 15.0036 13.4178 11.4861C13.4178 7.96857 10.5663 5.11707 7.04882 5.11707C3.53131 5.11707 0.67981 7.96857 0.67981 11.4861C0.67981 15.0036 3.53131 17.8551 7.04882 17.8551Z" fill="url(#paint1_linear_7407_25941)"/>
</g>
</g>
<path d="M8.67667 28.7934L11.2421 36.0676H11.3433L13.9087 28.7934H15.0058L11.8328 37.4347H10.7526L7.57962 28.7934H8.67667Z" fill="#072440"/>
<path d="M18.0931 37.5697C17.4686 37.5697 16.9299 37.4319 16.477 37.1562C16.027 36.8778 15.6796 36.4896 15.4348 35.9917C15.1929 35.491 15.072 34.9087 15.072 34.2448C15.072 33.581 15.1929 32.9959 15.4348 32.4896C15.6796 31.9804 16.0199 31.5838 16.4559 31.2997C16.8947 31.0128 17.4067 30.8693 17.9918 30.8693C18.3293 30.8693 18.6627 30.9256 18.9918 31.0381C19.3209 31.1506 19.6205 31.3334 19.8905 31.5866C20.1606 31.837 20.3758 32.1689 20.5361 32.5824C20.6964 32.9959 20.7766 33.505 20.7766 34.1098V34.5318H15.7808V33.671H19.764C19.764 33.3053 19.6908 32.979 19.5445 32.6921C19.4011 32.4052 19.1957 32.1787 18.9285 32.0128C18.6641 31.8468 18.3519 31.7638 17.9918 31.7638C17.5952 31.7638 17.252 31.8623 16.9623 32.0592C16.6753 32.2533 16.4545 32.5064 16.2998 32.8187C16.1451 33.1309 16.0677 33.4657 16.0677 33.8229V34.3967C16.0677 34.8862 16.1521 35.3011 16.3209 35.6415C16.4925 35.979 16.7302 36.2364 17.034 36.4136C17.3378 36.588 17.6908 36.6752 18.0931 36.6752C18.3547 36.6752 18.591 36.6387 18.8019 36.5655C19.0157 36.4896 19.2 36.3771 19.3547 36.228C19.5094 36.0761 19.6289 35.8876 19.7133 35.6626L20.6753 35.9326C20.5741 36.2589 20.4039 36.5458 20.1648 36.7934C19.9257 37.0381 19.6303 37.2294 19.2787 37.3672C18.9271 37.5022 18.5319 37.5697 18.0931 37.5697Z" fill="#072440"/>
<path d="M23.0495 33.536V37.4347H22.0537V30.9537H23.0158V31.9664H23.1002C23.2521 31.6372 23.4827 31.3728 23.7921 31.1731C24.1016 30.9706 24.501 30.8693 24.9905 30.8693C25.4293 30.8693 25.8132 30.9593 26.1424 31.1394C26.4715 31.3166 26.7275 31.5866 26.9103 31.9495C27.0931 32.3095 27.1846 32.7652 27.1846 33.3166V37.4347H26.1888V33.3841C26.1888 32.8749 26.0566 32.4783 25.7922 32.1942C25.5277 31.9073 25.1649 31.7638 24.7035 31.7638C24.3857 31.7638 24.1016 31.8327 23.8512 31.9706C23.6037 32.1084 23.4082 32.3095 23.2647 32.574C23.1213 32.8384 23.0495 33.1591 23.0495 33.536Z" fill="#072440"/>
<path d="M31.2138 37.5697C30.6737 37.5697 30.1969 37.4333 29.7834 37.1605C29.3699 36.8848 29.0464 36.4966 28.813 35.9959C28.5795 35.4924 28.4627 34.8975 28.4627 34.2111C28.4627 33.5304 28.5795 32.9396 28.813 32.4389C29.0464 31.9382 29.3713 31.5515 29.7876 31.2786C30.204 31.0057 30.685 30.8693 31.2307 30.8693C31.6526 30.8693 31.986 30.9396 32.2307 31.0803C32.4782 31.2181 32.6667 31.3756 32.7961 31.5529C32.9283 31.7273 33.031 31.8707 33.1041 31.9832H33.1885V28.7934H34.1843V37.4347H33.2223V36.4389H33.1041C33.031 36.5571 32.9269 36.7062 32.7919 36.8862C32.6569 37.0634 32.4642 37.2224 32.2138 37.363C31.9635 37.5008 31.6301 37.5697 31.2138 37.5697ZM31.3488 36.6752C31.7483 36.6752 32.0858 36.5712 32.3615 36.363C32.6372 36.152 32.8467 35.8609 32.9902 35.4896C33.1336 35.1155 33.2054 34.6837 33.2054 34.1942C33.2054 33.7104 33.1351 33.287 32.9944 32.9242C32.8538 32.5585 32.6456 32.2744 32.3699 32.0718C32.0943 31.8665 31.7539 31.7638 31.3488 31.7638C30.9269 31.7638 30.5753 31.8721 30.294 32.0887C30.0155 32.3025 29.8059 32.5936 29.6653 32.9621C29.5274 33.3278 29.4585 33.7385 29.4585 34.1942C29.4585 34.6555 29.5289 35.0747 29.6695 35.4516C29.813 35.8257 30.0239 36.1239 30.3024 36.3461C30.5837 36.5655 30.9325 36.6752 31.3488 36.6752Z" fill="#072440"/>
<path d="M35.9087 37.4347V30.9537H36.9045V37.4347H35.9087ZM36.415 29.8735C36.2209 29.8735 36.0535 29.8074 35.9129 29.6752C35.7751 29.543 35.7061 29.3841 35.7061 29.1984C35.7061 29.0128 35.7751 28.8538 35.9129 28.7216C36.0535 28.5894 36.2209 28.5233 36.415 28.5233C36.6091 28.5233 36.7751 28.5894 36.9129 28.7216C37.0535 28.8538 37.1239 29.0128 37.1239 29.1984C37.1239 29.3841 37.0535 29.543 36.9129 29.6752C36.7751 29.8074 36.6091 29.8735 36.415 29.8735Z" fill="#072440"/>
<path d="M39.4864 33.536V37.4347H38.4907V30.9537H39.4527V31.9664H39.5371C39.689 31.6372 39.9196 31.3728 40.2291 31.1731C40.5385 30.9706 40.9379 30.8693 41.4274 30.8693C41.8662 30.8693 42.2502 30.9593 42.5793 31.1394C42.9084 31.3166 43.1644 31.5866 43.3472 31.9495C43.5301 32.3095 43.6215 32.7652 43.6215 33.3166V37.4347H42.6257V33.3841C42.6257 32.8749 42.4935 32.4783 42.2291 32.1942C41.9646 31.9073 41.6018 31.7638 41.1405 31.7638C40.8226 31.7638 40.5385 31.8327 40.2881 31.9706C40.0406 32.1084 39.8451 32.3095 39.7016 32.574C39.5582 32.8384 39.4864 33.1591 39.4864 33.536Z" fill="#072440"/>
<path d="M47.8195 40.0001C47.3385 40.0001 46.925 39.9383 46.579 39.8145C46.233 39.6935 45.9447 39.5332 45.714 39.3335C45.4862 39.1366 45.3047 38.9256 45.1697 38.7006L45.963 38.1436C46.053 38.2617 46.1669 38.3968 46.3047 38.5487C46.4426 38.7034 46.631 38.837 46.8701 38.9495C47.112 39.0648 47.4285 39.1225 47.8195 39.1225C48.3427 39.1225 48.7745 38.9959 49.1149 38.7427C49.4552 38.4896 49.6254 38.093 49.6254 37.5529V36.2364H49.541C49.4679 36.3546 49.3638 36.5008 49.2288 36.6752C49.0966 36.8468 48.9053 37.0001 48.6549 37.1351C48.4074 37.2674 48.0727 37.3335 47.6507 37.3335C47.1275 37.3335 46.6578 37.2097 46.2414 36.9622C45.8279 36.7146 45.5002 36.3546 45.2583 35.882C45.0192 35.4094 44.8997 34.8356 44.8997 34.1605C44.8997 33.4966 45.0164 32.9185 45.2499 32.4263C45.4834 31.9312 45.8082 31.5486 46.2246 31.2786C46.6409 31.0057 47.1219 30.8693 47.6676 30.8693C48.0895 30.8693 48.4243 30.9396 48.6718 31.0803C48.9222 31.2181 49.1135 31.3756 49.2457 31.5529C49.3807 31.7273 49.4848 31.8707 49.5579 31.9832H49.6592V30.9537H50.6212V37.6204C50.6212 38.1773 50.4946 38.6302 50.2414 38.979C49.9911 39.3307 49.6535 39.588 49.2288 39.7512C48.8068 39.9172 48.3371 40.0001 47.8195 40.0001ZM47.7857 36.4389C48.1852 36.4389 48.5227 36.3475 48.7984 36.1647C49.0741 35.9818 49.2836 35.7188 49.4271 35.3757C49.5706 35.0325 49.6423 34.6218 49.6423 34.1436C49.6423 33.6766 49.572 33.2645 49.4313 32.9073C49.2907 32.55 49.0825 32.2702 48.8068 32.0676C48.5312 31.8651 48.1908 31.7638 47.7857 31.7638C47.3638 31.7638 47.0122 31.8707 46.7309 32.0845C46.4524 32.2983 46.2428 32.5852 46.1022 32.9453C45.9644 33.3053 45.8954 33.7048 45.8954 34.1436C45.8954 34.5937 45.9658 34.9917 46.1064 35.3377C46.2499 35.6809 46.4608 35.9509 46.7393 36.1478C47.0206 36.3419 47.3694 36.4389 47.7857 36.4389Z" fill="#072440"/>
<path d="M55.4455 28.7934H56.6945L59.6312 35.9664H59.7324L62.6692 28.7934H63.9181V37.4347H62.9392V30.8693H62.8548L60.1544 37.4347H59.2092L56.5088 30.8693H56.4244V37.4347H55.4455V28.7934Z" fill="#072440"/>
<path d="M67.5507 37.5866C67.14 37.5866 66.7673 37.5093 66.4326 37.3546C66.0978 37.197 65.832 36.9706 65.6351 36.6752C65.4382 36.3771 65.3398 36.017 65.3398 35.5951C65.3398 35.2238 65.4129 34.9228 65.5592 34.6921C65.7054 34.4586 65.9009 34.2758 66.1457 34.1436C66.3904 34.0114 66.6604 33.9129 66.9558 33.8482C67.254 33.7807 67.5535 33.7273 67.8545 33.6879C68.2483 33.6373 68.5676 33.5993 68.8123 33.574C69.0599 33.5458 69.2399 33.4994 69.3524 33.4347C69.4678 33.37 69.5254 33.2575 69.5254 33.0972V33.0634C69.5254 32.6471 69.4115 32.3236 69.1836 32.0929C68.9586 31.8623 68.6168 31.747 68.1583 31.747C67.6829 31.747 67.3102 31.851 67.0402 32.0592C66.7701 32.2673 66.5803 32.4896 66.4706 32.7259L65.5254 32.3883C65.6942 31.9945 65.9192 31.6879 66.2005 31.4685C66.4846 31.2462 66.794 31.0915 67.1288 31.0043C67.4663 30.9143 67.7983 30.8693 68.1246 30.8693C68.3327 30.8693 68.5718 30.8946 68.8419 30.9453C69.1147 30.9931 69.3777 31.0929 69.6309 31.2448C69.8869 31.3967 70.0993 31.626 70.268 31.9326C70.4368 32.2392 70.5212 32.6499 70.5212 33.1647V37.4347H69.5254V36.5571H69.4748C69.4073 36.6977 69.2948 36.8482 69.1372 37.0086C68.9797 37.1689 68.7701 37.3053 68.5085 37.4179C68.2469 37.5304 67.9277 37.5866 67.5507 37.5866ZM67.7026 36.6921C68.0964 36.6921 68.4284 36.6148 68.6984 36.46C68.9713 36.3053 69.1766 36.1056 69.3144 35.8609C69.4551 35.6162 69.5254 35.3588 69.5254 35.0887V34.1773C69.4832 34.228 69.3904 34.2744 69.2469 34.3166C69.1063 34.356 68.9431 34.3911 68.7575 34.4221C68.5746 34.4502 68.396 34.4755 68.2216 34.498C68.05 34.5177 67.9108 34.5346 67.8039 34.5486C67.5451 34.5824 67.3032 34.6373 67.0782 34.7132C66.8559 34.7863 66.6759 34.8975 66.5381 35.0465C66.403 35.1928 66.3355 35.3925 66.3355 35.6457C66.3355 35.9917 66.4635 36.2533 66.7195 36.4305C66.9783 36.6049 67.306 36.6921 67.7026 36.6921Z" fill="#072440"/>
<path d="M74.734 37.5697C74.1264 37.5697 73.6032 37.4263 73.1644 37.1394C72.7256 36.8524 72.388 36.4572 72.1517 35.9537C71.9154 35.4502 71.7973 34.8749 71.7973 34.228C71.7973 33.5697 71.9182 32.9889 72.1601 32.4853C72.4049 31.979 72.7452 31.5838 73.1813 31.2997C73.6201 31.0128 74.132 30.8693 74.7171 30.8693C75.1728 30.8693 75.5835 30.9537 75.9492 31.1225C76.3149 31.2913 76.6145 31.5275 76.8479 31.8313C77.0814 32.1351 77.2263 32.4896 77.2825 32.8946H76.2867C76.2108 32.5993 76.042 32.3377 75.7804 32.1098C75.5216 31.8792 75.1728 31.7638 74.734 31.7638C74.3458 31.7638 74.0054 31.8651 73.7129 32.0676C73.4232 32.2673 73.1967 32.55 73.0336 32.9157C72.8732 33.2786 72.7931 33.7048 72.7931 34.1942C72.7931 34.6949 72.8718 35.1309 73.0294 35.5022C73.1897 35.8735 73.4147 36.1619 73.7045 36.3672C73.997 36.5726 74.3402 36.6752 74.734 36.6752C74.9928 36.6752 75.2277 36.6302 75.4386 36.5402C75.6496 36.4502 75.8282 36.3208 75.9745 36.152C76.1208 35.9832 76.2249 35.7807 76.2867 35.5444H77.2825C77.2263 35.927 77.087 36.2716 76.8648 36.5782C76.6454 36.882 76.3542 37.1239 75.9914 37.3039C75.6313 37.4811 75.2122 37.5697 74.734 37.5697Z" fill="#072440"/>
<path d="M79.4964 33.536V37.4347H78.5006V28.7934H79.4964V31.9664H79.5808C79.7327 31.6316 79.9605 31.3658 80.2643 31.1689C80.5709 30.9692 80.9788 30.8693 81.4879 30.8693C81.9296 30.8693 82.3163 30.9579 82.6483 31.1351C82.9802 31.3095 83.2376 31.5782 83.4204 31.941C83.6061 32.3011 83.6989 32.7596 83.6989 33.3166V37.4347H82.7031V33.3841C82.7031 32.8693 82.5695 32.4713 82.3023 32.19C82.0379 31.9059 81.6708 31.7638 81.201 31.7638C80.8747 31.7638 80.5822 31.8327 80.3234 31.9706C80.0674 32.1084 79.8649 32.3095 79.7158 32.574C79.5695 32.8384 79.4964 33.1591 79.4964 33.536Z" fill="#072440"/>
<path d="M85.283 37.4347V30.9537H86.2788V37.4347H85.283ZM85.7893 29.8735C85.5952 29.8735 85.4279 29.8074 85.2872 29.6752C85.1494 29.543 85.0805 29.3841 85.0805 29.1984C85.0805 29.0128 85.1494 28.8538 85.2872 28.7216C85.4279 28.5894 85.5952 28.5233 85.7893 28.5233C85.9834 28.5233 86.1494 28.5894 86.2872 28.7216C86.4279 28.8538 86.4982 29.0128 86.4982 29.1984C86.4982 29.3841 86.4279 29.543 86.2872 29.6752C86.1494 29.8074 85.9834 29.8735 85.7893 29.8735Z" fill="#072440"/>
<path d="M88.8608 33.536V37.4347H87.865V30.9537H88.827V31.9664H88.9114C89.0633 31.6372 89.294 31.3728 89.6034 31.1731C89.9128 30.9706 90.3123 30.8693 90.8017 30.8693C91.2405 30.8693 91.6245 30.9593 91.9536 31.1394C92.2827 31.3166 92.5387 31.5866 92.7215 31.9495C92.9044 32.3095 92.9958 32.7652 92.9958 33.3166V37.4347H92V33.3841C92 32.8749 91.8678 32.4783 91.6034 32.1942C91.339 31.9073 90.9761 31.7638 90.5148 31.7638C90.1969 31.7638 89.9128 31.8327 89.6625 31.9706C89.4149 32.1084 89.2194 32.3095 89.076 32.574C88.9325 32.8384 88.8608 33.1591 88.8608 33.536Z" fill="#072440"/>
<path d="M97.2951 37.5697C96.6706 37.5697 96.1319 37.4319 95.6791 37.1562C95.229 36.8778 94.8816 36.4896 94.6369 35.9917C94.395 35.491 94.274 34.9087 94.274 34.2448C94.274 33.581 94.395 32.9959 94.6369 32.4896C94.8816 31.9804 95.222 31.5838 95.658 31.2997C96.0968 31.0128 96.6087 30.8693 97.1938 30.8693C97.5314 30.8693 97.8647 30.9256 98.1938 31.0381C98.5229 31.1506 98.8225 31.3334 99.0926 31.5866C99.3626 31.837 99.5778 32.1689 99.7381 32.5824C99.8985 32.9959 99.9786 33.505 99.9786 34.1098V34.5318H94.9829V33.671H98.966C98.966 33.3053 98.8929 32.979 98.7466 32.6921C98.6031 32.4052 98.3978 32.1787 98.1305 32.0128C97.8661 31.8468 97.5539 31.7638 97.1938 31.7638C96.7972 31.7638 96.454 31.8623 96.1643 32.0592C95.8774 32.2533 95.6566 32.5064 95.5018 32.8187C95.3471 33.1309 95.2698 33.4657 95.2698 33.8229V34.3967C95.2698 34.8862 95.3542 35.3011 95.5229 35.6415C95.6945 35.979 95.9322 36.2364 96.236 36.4136C96.5398 36.588 96.8929 36.6752 97.2951 36.6752C97.5567 36.6752 97.793 36.6387 98.004 36.5655C98.2178 36.4896 98.402 36.3771 98.5567 36.228C98.7114 36.0761 98.831 35.8876 98.9154 35.6626L99.8774 35.9326C99.7761 36.2589 99.6059 36.5458 99.3668 36.7934C99.1277 37.0381 98.8324 37.2294 98.4808 37.3672C98.1291 37.5022 97.7339 37.5697 97.2951 37.5697Z" fill="#072440"/>
</g>
<defs>
<linearGradient id="paint0_linear_7407_25941" x1="17.1789" y1="8.73909" x2="6.88996" y2="14.0453" gradientUnits="userSpaceOnUse">
<stop offset="0.04" stop-color="#F5516C"/>
<stop offset="0.14" stop-color="#C74863"/>
<stop offset="0.31" stop-color="#853B57"/>
<stop offset="0.44" stop-color="#55324E"/>
<stop offset="0.55" stop-color="#382D49"/>
<stop offset="0.61" stop-color="#2D2B47"/>
</linearGradient>
<linearGradient id="paint1_linear_7407_25941" x1="10.9333" y1="6.85671" x2="2.74459" y2="16.6128" gradientUnits="userSpaceOnUse">
<stop offset="0.2" stop-color="#F5516C"/>
<stop offset="1" stop-color="#6B3753"/>
</linearGradient>
<clipPath id="clip0_7407_25941">
<rect width="99.2988" height="40" fill="white" transform="translate(0.67981)"/>
</clipPath>
<clipPath id="clip1_7407_25941">
<rect width="73.503" height="22.9697" fill="white" transform="translate(0.67981)"/>
</clipPath>
<clipPath id="clip2_7407_25941">
<rect width="73.1211" height="22.9697" fill="white" transform="translate(0.67981)"/>
</clipPath>
</defs>
</svg>
