<svg width="129" height="40" viewBox="0 0 129 40" fill="none" xmlns="http://www.w3.org/2000/svg">
<g clip-path="url(#clip0_7722_14336)">
<g clip-path="url(#clip1_7722_14336)">
<path fill-rule="evenodd" clip-rule="evenodd" d="M15.4499 0H30.2127C41.1307 0 49.9825 8.59829 49.9825 19.774C49.9825 30.9496 40.9236 40.0042 29.7522 40.0042H15.4499V31.8834H27.8128C34.3492 31.8834 39.6941 26.5385 39.6941 20.0021C39.6941 13.4657 34.3492 8.12084 27.8128 8.12084H15.4499V0ZM63.6257 7.42791V17.9994H80.5772V25.4273H63.6257V40H54.3682V0H84.5996V7.42791H63.6257ZM117.628 40L107.969 26.1118L98.4836 40H87.853L102.654 19.6556L88.6009 0H99.1132L108.316 12.9714L117.345 0H127.346L113.403 19.3134L128.318 40H117.632H117.628Z" fill="#072440"/>
<path d="M21.2511 29.7116C26.8188 29.7116 31.3324 25.1981 31.3324 19.6303C31.3324 14.0625 26.8188 9.54895 21.2511 9.54895C15.6833 9.54895 11.1697 14.0625 11.1697 19.6303C11.1697 25.1981 15.6833 29.7116 21.2511 29.7116Z" fill="url(#paint0_linear_7722_14336)"/>
<path d="M12.0697 31.0932C18.1952 31.0932 23.1608 26.1275 23.1608 20.002C23.1608 13.8766 18.1952 8.91089 12.0697 8.91089C5.9442 8.91089 0.978516 13.8766 0.978516 20.002C0.978516 26.1275 5.9442 31.0932 12.0697 31.0932Z" fill="url(#paint1_linear_7722_14336)"/>
</g>
</g>
<defs>
<linearGradient id="paint0_linear_7722_14336" x1="29.7105" y1="15.2183" x2="11.7931" y2="24.4586" gradientUnits="userSpaceOnUse">
<stop offset="0.04" stop-color="#F5516C"/>
<stop offset="0.14" stop-color="#C74863"/>
<stop offset="0.31" stop-color="#853B57"/>
<stop offset="0.44" stop-color="#55324E"/>
<stop offset="0.55" stop-color="#382D49"/>
<stop offset="0.61" stop-color="#2D2B47"/>
</linearGradient>
<linearGradient id="paint1_linear_7722_14336" x1="18.8342" y1="11.9404" x2="4.57418" y2="28.9299" gradientUnits="userSpaceOnUse">
<stop offset="0.2" stop-color="#F5516C"/>
<stop offset="1" stop-color="#6B3753"/>
</linearGradient>
<clipPath id="clip0_7722_14336">
<rect width="128" height="40" fill="white" transform="translate(0.978516)"/>
</clipPath>
<clipPath id="clip1_7722_14336">
<rect width="127.335" height="40" fill="white" transform="translate(0.978516)"/>
</clipPath>
</defs>
</svg>
