<svg width="120" height="41" viewBox="0 0 120 41" fill="none" xmlns="http://www.w3.org/2000/svg">
<path d="M0 3.43718C0 1.96442 1.19391 0.770508 2.66667 0.770508H37.3333C38.8061 0.770508 40 1.96442 40 3.43717V38.1038C40 39.5766 38.8061 40.7705 37.3333 40.7705H2.66667C1.19391 40.7705 0 39.5766 0 38.1038V3.43718Z" fill="#00C7F9"/>
<path fill-rule="evenodd" clip-rule="evenodd" d="M5.16797 25.4221L20.0013 8.604L34.8346 25.4221L25.7816 32.9373H14.2328L5.16797 25.4221ZM20.0013 29.9501H20.1661C23.1446 29.8677 25.711 27.6096 25.711 24.7165C25.711 23.7521 25.2518 22.4113 24.7809 21.6233C24.5219 21.1411 22.9797 18.4126 20.1308 13.4613C20.0837 13.3437 19.9071 13.3437 19.8718 13.4613C19.8718 13.4613 15.7161 20.6942 15.2217 21.6233C14.7508 22.3996 14.2916 23.7521 14.2916 24.7165C14.2916 27.6096 16.8698 29.8677 19.8483 29.9501H20.0013Z" fill="white"/>
<path d="M54.8295 29.7705H52.6136L59.0227 12.316H61.2045L67.6136 29.7705H65.3977L60.1818 15.0773H60.0455L54.8295 29.7705ZM55.6477 22.9523H64.5795V24.8273H55.6477V22.9523ZM75.853 24.316H78.1712L80.1143 26.8728L80.6257 27.5546L83.5234 31.4069H81.2053L79.2962 28.8501L78.8189 28.2023L75.853 24.316ZM84.2393 21.0432C84.2393 22.8841 83.907 24.4751 83.2422 25.816C82.5774 27.1569 81.6655 28.191 80.5064 28.9182C79.3473 29.6455 78.0234 30.0091 76.5348 30.0091C75.0462 30.0091 73.7223 29.6455 72.5632 28.9182C71.4041 28.191 70.4922 27.1569 69.8274 25.816C69.1626 24.4751 68.8303 22.8841 68.8303 21.0432C68.8303 19.2023 69.1626 17.6114 69.8274 16.2705C70.4922 14.9296 71.4041 13.8955 72.5632 13.1682C73.7223 12.441 75.0462 12.0773 76.5348 12.0773C78.0234 12.0773 79.3473 12.441 80.5064 13.1682C81.6655 13.8955 82.5774 14.9296 83.2422 16.2705C83.907 17.6114 84.2393 19.2023 84.2393 21.0432ZM82.1939 21.0432C82.1939 19.5319 81.9411 18.2563 81.4354 17.2165C80.9354 16.1768 80.2564 15.3898 79.3984 14.8557C78.5462 14.3216 77.5916 14.0546 76.5348 14.0546C75.478 14.0546 74.5206 14.3216 73.6626 14.8557C72.8104 15.3898 72.1314 16.1768 71.6257 17.2165C71.1257 18.2563 70.8757 19.5319 70.8757 21.0432C70.8757 22.5546 71.1257 23.8302 71.6257 24.8699C72.1314 25.9097 72.8104 26.6966 73.6626 27.2307C74.5206 27.7648 75.478 28.0319 76.5348 28.0319C77.5916 28.0319 78.5462 27.7648 79.3984 27.2307C80.2564 26.6966 80.9354 25.9097 81.4354 24.8699C81.9411 23.8302 82.1939 22.5546 82.1939 21.0432ZM99.2479 12.316H101.362V23.8728C101.362 25.066 101.08 26.1313 100.518 27.0688C99.9609 28.0006 99.174 28.7364 98.157 29.2762C97.1399 29.8103 95.9467 30.0773 94.5774 30.0773C93.2081 30.0773 92.0149 29.8103 90.9979 29.2762C89.9808 28.7364 89.1911 28.0006 88.6286 27.0688C88.0717 26.1313 87.7933 25.066 87.7933 23.8728V12.316H89.907V23.7023C89.907 24.5546 90.0945 25.3131 90.4695 25.9779C90.8445 26.637 91.3786 27.1569 92.0717 27.5376C92.7706 27.9126 93.6058 28.1001 94.5774 28.1001C95.549 28.1001 96.3842 27.9126 97.0831 27.5376C97.782 27.1569 98.3161 26.637 98.6854 25.9779C99.0604 25.3131 99.2479 24.5546 99.2479 23.7023V12.316ZM106.298 29.7705H104.082L110.491 12.316H112.673L119.082 29.7705H116.866L111.651 15.0773H111.514L106.298 29.7705ZM107.116 22.9523H116.048V24.8273H107.116V22.9523Z" fill="#272B38"/>
</svg>
