<svg width="267" height="41" viewBox="0 0 267 41" fill="none" xmlns="http://www.w3.org/2000/svg">
<g clip-path="url(#clip0_4166_491)">
<path d="M0 4.77051C0 2.56137 1.79086 0.770508 4 0.770508H36C38.2091 0.770508 40 2.56137 40 4.77051V36.7705C40 38.9796 38.2091 40.7705 36 40.7705H4C1.79086 40.7705 0 38.9796 0 36.7705V4.77051Z" fill="white"/>
<rect width="40" height="40" transform="translate(0 0.770508)" fill="#E95353"/>
<path d="M34.0625 19.8196C34.0625 18.0518 34.0625 17.168 33.5133 16.6188C32.9642 16.0696 32.0803 16.0696 30.3125 16.0696H28.4509C26.6831 16.0696 25.7992 16.0696 25.2501 15.5204C24.7009 14.9713 24.7009 14.0874 24.7009 12.3196V10.458C24.7009 8.69024 24.7009 7.80636 24.1517 7.25718C23.6025 6.70801 22.7187 6.70801 20.9509 6.70801H19.0491C17.2813 6.70801 16.3975 6.70801 15.8483 7.25718C15.2991 7.80636 15.2991 8.69024 15.2991 10.458V12.3196C15.2991 14.0874 15.2991 14.9713 14.7499 15.5204C14.2008 16.0696 13.3169 16.0696 11.5491 16.0696H9.6875C7.91973 16.0696 7.03585 16.0696 6.48667 16.6188C5.9375 17.168 5.9375 18.0518 5.9375 19.8196V21.7214C5.9375 23.4892 5.9375 24.3731 6.48667 24.9222C7.03585 25.4714 7.91973 25.4714 9.6875 25.4714H11.5491C13.3169 25.4714 14.2008 25.4714 14.7499 26.0206C15.2991 26.5698 15.2991 27.4536 15.2991 29.2214V31.083C15.2991 32.8508 15.2991 33.7347 15.8483 34.2838C16.3975 34.833 17.2813 34.833 19.0491 34.833H20.9509C22.7187 34.833 23.6025 34.833 24.1517 34.2838C24.7009 33.7347 24.7009 32.8508 24.7009 31.083V29.2214C24.7009 27.4536 24.7009 26.5698 25.2501 26.0206C25.7992 25.4714 26.6831 25.4714 28.4509 25.4714H30.3125C32.0803 25.4714 32.9642 25.4714 33.5133 24.9222C34.0625 24.3731 34.0625 23.4892 34.0625 21.7214V19.8196ZM20.9107 16.1098C22.6785 16.1098 23.5624 16.1098 24.1115 16.659C24.6607 17.2081 24.6607 18.092 24.6607 19.8598V21.6812C24.6607 23.449 24.6607 24.3329 24.1115 24.882C23.5624 25.4312 22.6785 25.4312 20.9107 25.4312H19.0893C17.3215 25.4312 16.4376 25.4312 15.8885 24.882C15.3393 24.3329 15.3393 23.449 15.3393 21.6812V19.8598C15.3393 18.092 15.3393 17.2081 15.8885 16.659C16.4376 16.1098 17.3215 16.1098 19.0893 16.1098H20.9107Z" fill="white"/>
</g>
<path d="M54.1136 29.7705V12.316H64.5795V14.191H56.2273V20.0887H63.7955V21.9637H56.2273V29.7705H54.1136ZM67.7862 29.7705V16.6796H69.7294V18.6569H69.8658C70.1044 18.0091 70.5362 17.4836 71.1612 17.0802C71.7862 16.6768 72.4908 16.4751 73.2749 16.4751C73.4226 16.4751 73.6072 16.4779 73.8288 16.4836C74.0504 16.4893 74.218 16.4978 74.3317 16.5091V18.5546C74.2635 18.5376 74.1072 18.512 73.8629 18.4779C73.6243 18.4381 73.3714 18.4182 73.1044 18.4182C72.468 18.4182 71.8999 18.5518 71.3999 18.8188C70.9055 19.0802 70.5135 19.4438 70.2237 19.9097C69.9396 20.3699 69.7976 20.8955 69.7976 21.4864V29.7705H67.7862ZM80.5682 30.0773C79.7386 30.0773 78.9858 29.9211 78.3097 29.6086C77.6335 29.2904 77.0966 28.833 76.6989 28.2364C76.3011 27.6341 76.1023 26.9069 76.1023 26.0546C76.1023 25.3046 76.25 24.6966 76.5455 24.2307C76.8409 23.7591 77.2358 23.3898 77.7301 23.1228C78.2244 22.8557 78.7699 22.6569 79.3665 22.5262C79.9688 22.3898 80.5739 22.2819 81.1818 22.2023C81.9773 22.1001 82.6222 22.0233 83.1165 21.9722C83.6165 21.9154 83.9801 21.8216 84.2074 21.691C84.4403 21.5603 84.5568 21.333 84.5568 21.0091V20.941C84.5568 20.1001 84.3267 19.4466 83.8665 18.9807C83.4119 18.5148 82.7216 18.2819 81.7955 18.2819C80.8352 18.2819 80.0824 18.4921 79.5369 18.9126C78.9915 19.333 78.608 19.7819 78.3864 20.2591L76.4773 19.5773C76.8182 18.7819 77.2727 18.1626 77.8409 17.7194C78.4148 17.2705 79.0398 16.958 79.7159 16.7819C80.3977 16.6001 81.0682 16.5091 81.7273 16.5091C82.1477 16.5091 82.6307 16.5603 83.1761 16.6626C83.7273 16.7591 84.2585 16.9608 84.7699 17.2677C85.2869 17.5745 85.7159 18.0376 86.0568 18.6569C86.3977 19.2762 86.5682 20.1057 86.5682 21.1455V29.7705H84.5568V27.9978H84.4545C84.3182 28.2819 84.0909 28.5858 83.7727 28.9097C83.4545 29.2336 83.0313 29.5091 82.5028 29.7364C81.9744 29.9637 81.3295 30.0773 80.5682 30.0773ZM80.875 28.2705C81.6705 28.2705 82.3409 28.1143 82.8864 27.8018C83.4375 27.4893 83.8523 27.0858 84.1307 26.5915C84.4148 26.0972 84.5568 25.5773 84.5568 25.0319V23.191C84.4716 23.2932 84.2841 23.387 83.9943 23.4722C83.7102 23.5518 83.3807 23.6228 83.0057 23.6853C82.6364 23.7421 82.2756 23.7932 81.9233 23.8387C81.5767 23.8785 81.2955 23.9126 81.0795 23.941C80.5568 24.0091 80.0682 24.1199 79.6136 24.2733C79.1648 24.4211 78.8011 24.6455 78.5227 24.9466C78.25 25.2421 78.1136 25.6455 78.1136 26.1569C78.1136 26.8557 78.3722 27.3841 78.8892 27.7421C79.4119 28.0944 80.0739 28.2705 80.875 28.2705ZM92.2507 21.8955V29.7705H90.2393V16.6796H92.1825V18.7251H92.353C92.6598 18.0603 93.1257 17.5262 93.7507 17.1228C94.3757 16.7137 95.1825 16.5091 96.1712 16.5091C97.0575 16.5091 97.8331 16.691 98.4979 17.0546C99.1626 17.4126 99.6797 17.958 100.049 18.691C100.418 19.4182 100.603 20.3387 100.603 21.4523V29.7705H98.5916V21.5887C98.5916 20.5603 98.3246 19.7591 97.7905 19.1853C97.2564 18.6057 96.5234 18.316 95.5916 18.316C94.9496 18.316 94.3757 18.4552 93.87 18.7336C93.37 19.012 92.9751 19.4182 92.6854 19.9523C92.3956 20.4864 92.2507 21.1341 92.2507 21.8955ZM106.153 24.9978L106.119 22.5091H106.528L112.256 16.6796H114.744L108.642 22.8501H108.472L106.153 24.9978ZM104.278 29.7705V12.316H106.29V29.7705H104.278ZM112.597 29.7705L107.483 23.2932L108.915 21.8955L115.153 29.7705H112.597ZM122.283 30.0432C121.021 30.0432 119.933 29.7648 119.018 29.208C118.109 28.6455 117.408 27.8614 116.913 26.8557C116.425 25.8444 116.18 24.6682 116.18 23.3273C116.18 21.9864 116.425 20.8046 116.913 19.7819C117.408 18.7535 118.095 17.9523 118.976 17.3785C119.862 16.7989 120.896 16.5091 122.078 16.5091C122.76 16.5091 123.433 16.6228 124.098 16.8501C124.763 17.0773 125.368 17.4466 125.913 17.958C126.459 18.4637 126.893 19.1341 127.217 19.9694C127.541 20.8046 127.703 21.833 127.703 23.0546V23.9069H117.612V22.1682H125.658C125.658 21.4296 125.51 20.7705 125.214 20.191C124.925 19.6114 124.51 19.154 123.97 18.8188C123.436 18.4836 122.805 18.316 122.078 18.316C121.277 18.316 120.584 18.5148 119.999 18.9126C119.419 19.3046 118.973 19.816 118.661 20.4466C118.348 21.0773 118.192 21.7535 118.192 22.4751V23.6341C118.192 24.6228 118.362 25.4608 118.703 26.1483C119.05 26.8302 119.53 27.3501 120.143 27.708C120.757 28.0603 121.47 28.2364 122.283 28.2364C122.811 28.2364 123.288 28.1626 123.714 28.0148C124.146 27.8614 124.518 27.6341 124.831 27.333C125.143 27.0262 125.385 26.6455 125.555 26.191L127.499 26.7364C127.294 27.3955 126.95 27.9751 126.467 28.4751C125.984 28.9694 125.388 29.3557 124.678 29.6341C123.967 29.9069 123.169 30.0432 122.283 30.0432ZM132.774 21.8955V29.7705H130.763V16.6796H132.706V18.7251H132.876C133.183 18.0603 133.649 17.5262 134.274 17.1228C134.899 16.7137 135.706 16.5091 136.695 16.5091C137.581 16.5091 138.357 16.691 139.021 17.0546C139.686 17.4126 140.203 17.958 140.572 18.691C140.942 19.4182 141.126 20.3387 141.126 21.4523V29.7705H139.115V21.5887C139.115 20.5603 138.848 19.7591 138.314 19.1853C137.78 18.6057 137.047 18.316 136.115 18.316C135.473 18.316 134.899 18.4552 134.393 18.7336C133.893 19.012 133.499 19.4182 133.209 19.9523C132.919 20.4864 132.774 21.1341 132.774 21.8955ZM150.12 30.0432C148.893 30.0432 147.836 29.7535 146.95 29.1739C146.063 28.5944 145.381 27.7961 144.904 26.779C144.427 25.762 144.188 24.6001 144.188 23.2932C144.188 21.9637 144.433 20.7904 144.921 19.7733C145.415 18.7506 146.103 17.9523 146.984 17.3785C147.87 16.7989 148.904 16.5091 150.086 16.5091C151.006 16.5091 151.836 16.6796 152.575 17.0205C153.313 17.3614 153.918 17.8387 154.39 18.4523C154.862 19.066 155.154 19.7819 155.268 20.6001H153.256C153.103 20.0035 152.762 19.4751 152.234 19.0148C151.711 18.5489 151.006 18.316 150.12 18.316C149.336 18.316 148.648 18.5205 148.058 18.9296C147.472 19.333 147.015 19.904 146.685 20.6427C146.362 21.3756 146.2 22.2364 146.2 23.2251C146.2 24.2364 146.359 25.1171 146.677 25.8671C147.001 26.6171 147.455 27.1995 148.04 27.6143C148.631 28.029 149.325 28.2364 150.12 28.2364C150.643 28.2364 151.117 28.1455 151.543 27.9637C151.969 27.7819 152.33 27.5205 152.626 27.1796C152.921 26.8387 153.131 26.4296 153.256 25.9523H155.268C155.154 26.7251 154.873 27.4211 154.424 28.0404C153.981 28.654 153.393 29.1427 152.66 29.5063C151.933 29.8643 151.086 30.0432 150.12 30.0432ZM163.526 30.0432C162.344 30.0432 161.308 29.762 160.415 29.1995C159.529 28.637 158.836 27.8501 158.336 26.8387C157.842 25.8273 157.594 24.6455 157.594 23.2932C157.594 21.9296 157.842 20.7393 158.336 19.7222C158.836 18.7052 159.529 17.9154 160.415 17.3529C161.308 16.7904 162.344 16.5091 163.526 16.5091C164.708 16.5091 165.742 16.7904 166.629 17.3529C167.521 17.9154 168.214 18.7052 168.708 19.7222C169.208 20.7393 169.458 21.9296 169.458 23.2932C169.458 24.6455 169.208 25.8273 168.708 26.8387C168.214 27.8501 167.521 28.637 166.629 29.1995C165.742 29.762 164.708 30.0432 163.526 30.0432ZM163.526 28.2364C164.424 28.2364 165.163 28.0063 165.742 27.5461C166.322 27.0858 166.751 26.4807 167.029 25.7307C167.308 24.9807 167.447 24.1682 167.447 23.2932C167.447 22.4182 167.308 21.6029 167.029 20.8472C166.751 20.0915 166.322 19.4807 165.742 19.0148C165.163 18.5489 164.424 18.316 163.526 18.316C162.629 18.316 161.89 18.5489 161.31 19.0148C160.731 19.4807 160.302 20.0915 160.023 20.8472C159.745 21.6029 159.606 22.4182 159.606 23.2932C159.606 24.1682 159.745 24.9807 160.023 25.7307C160.302 26.4807 160.731 27.0858 161.31 27.5461C161.89 28.0063 162.629 28.2364 163.526 28.2364ZM172.528 29.7705V16.6796H174.54V29.7705H172.528ZM173.551 14.4978C173.159 14.4978 172.821 14.3643 172.537 14.0972C172.259 13.8302 172.119 13.5091 172.119 13.1341C172.119 12.7591 172.259 12.4381 172.537 12.1711C172.821 11.904 173.159 11.7705 173.551 11.7705C173.943 11.7705 174.278 11.904 174.557 12.1711C174.841 12.4381 174.983 12.7591 174.983 13.1341C174.983 13.5091 174.841 13.8302 174.557 14.0972C174.278 14.3643 173.943 14.4978 173.551 14.4978ZM180.235 21.8955V29.7705H178.224V16.6796H180.167V18.7251H180.337C180.644 18.0603 181.11 17.5262 181.735 17.1228C182.36 16.7137 183.167 16.5091 184.156 16.5091C185.042 16.5091 185.817 16.691 186.482 17.0546C187.147 17.4126 187.664 17.958 188.033 18.691C188.403 19.4182 188.587 20.3387 188.587 21.4523V29.7705H186.576V21.5887C186.576 20.5603 186.309 19.7591 185.775 19.1853C185.241 18.6057 184.508 18.316 183.576 18.316C182.934 18.316 182.36 18.4552 181.854 18.7336C181.354 19.012 180.96 19.4182 180.67 19.9523C180.38 20.4864 180.235 21.1341 180.235 21.8955ZM202.456 29.7705L197.683 12.316H199.831L203.479 26.5319H203.649L207.365 12.316H209.751L213.467 26.5319H213.638L217.286 12.316H219.433L214.661 29.7705H212.479L208.626 15.8614H208.49L204.638 29.7705H202.456ZM224.428 30.0773C223.598 30.0773 222.845 29.9211 222.169 29.6086C221.493 29.2904 220.956 28.833 220.558 28.2364C220.161 27.6341 219.962 26.9069 219.962 26.0546C219.962 25.3046 220.109 24.6966 220.405 24.2307C220.7 23.7591 221.095 23.3898 221.589 23.1228C222.084 22.8557 222.629 22.6569 223.226 22.5262C223.828 22.3898 224.433 22.2819 225.041 22.2023C225.837 22.1001 226.482 22.0233 226.976 21.9722C227.476 21.9154 227.839 21.8216 228.067 21.691C228.3 21.5603 228.416 21.333 228.416 21.0091V20.941C228.416 20.1001 228.186 19.4466 227.726 18.9807C227.271 18.5148 226.581 18.2819 225.655 18.2819C224.695 18.2819 223.942 18.4921 223.396 18.9126C222.851 19.333 222.467 19.7819 222.246 20.2591L220.337 19.5773C220.678 18.7819 221.132 18.1626 221.7 17.7194C222.274 17.2705 222.899 16.958 223.575 16.7819C224.257 16.6001 224.928 16.5091 225.587 16.5091C226.007 16.5091 226.49 16.5603 227.036 16.6626C227.587 16.7591 228.118 16.9608 228.629 17.2677C229.146 17.5745 229.575 18.0376 229.916 18.6569C230.257 19.2762 230.428 20.1057 230.428 21.1455V29.7705H228.416V27.9978H228.314C228.178 28.2819 227.95 28.5858 227.632 28.9097C227.314 29.2336 226.891 29.5091 226.362 29.7364C225.834 29.9637 225.189 30.0773 224.428 30.0773ZM224.734 28.2705C225.53 28.2705 226.2 28.1143 226.746 27.8018C227.297 27.4893 227.712 27.0858 227.99 26.5915C228.274 26.0972 228.416 25.5773 228.416 25.0319V23.191C228.331 23.2932 228.143 23.387 227.854 23.4722C227.57 23.5518 227.24 23.6228 226.865 23.6853C226.496 23.7421 226.135 23.7932 225.783 23.8387C225.436 23.8785 225.155 23.9126 224.939 23.941C224.416 24.0091 223.928 24.1199 223.473 24.2733C223.024 24.4211 222.661 24.6455 222.382 24.9466C222.109 25.2421 221.973 25.6455 221.973 26.1569C221.973 26.8557 222.232 27.3841 222.749 27.7421C223.271 28.0944 223.933 28.2705 224.734 28.2705ZM236.11 12.316V29.7705H234.099V12.316H236.11ZM241.805 12.316V29.7705H239.794V12.316H241.805ZM250.978 30.0432C249.717 30.0432 248.629 29.7648 247.714 29.208C246.805 28.6455 246.103 27.8614 245.609 26.8557C245.12 25.8444 244.876 24.6682 244.876 23.3273C244.876 21.9864 245.12 20.8046 245.609 19.7819C246.103 18.7535 246.79 17.9523 247.671 17.3785C248.558 16.7989 249.592 16.5091 250.773 16.5091C251.455 16.5091 252.129 16.6228 252.793 16.8501C253.458 17.0773 254.063 17.4466 254.609 17.958C255.154 18.4637 255.589 19.1341 255.913 19.9694C256.237 20.8046 256.398 21.833 256.398 23.0546V23.9069H246.308V22.1682H254.353C254.353 21.4296 254.205 20.7705 253.91 20.191C253.62 19.6114 253.205 19.154 252.665 18.8188C252.131 18.4836 251.501 18.316 250.773 18.316C249.972 18.316 249.279 18.5148 248.694 18.9126C248.114 19.3046 247.668 19.816 247.356 20.4466C247.043 21.0773 246.887 21.7535 246.887 22.4751V23.6341C246.887 24.6228 247.058 25.4608 247.398 26.1483C247.745 26.8302 248.225 27.3501 248.839 27.708C249.452 28.0603 250.165 28.2364 250.978 28.2364C251.506 28.2364 251.984 28.1626 252.41 28.0148C252.842 27.8614 253.214 27.6341 253.526 27.333C253.839 27.0262 254.08 26.6455 254.251 26.191L256.194 26.7364C255.989 27.3955 255.646 27.9751 255.163 28.4751C254.68 28.9694 254.083 29.3557 253.373 29.6341C252.663 29.9069 251.864 30.0432 250.978 30.0432ZM265.151 16.6796V18.3841H258.367V16.6796H265.151ZM260.344 13.5432H262.356V26.0205C262.356 26.5887 262.438 27.0148 262.603 27.2989C262.773 27.5773 262.989 27.7648 263.251 27.8614C263.518 27.9523 263.799 27.9978 264.094 27.9978C264.316 27.9978 264.498 27.9864 264.64 27.9637C264.782 27.9353 264.896 27.9126 264.981 27.8955L265.39 29.7023C265.254 29.7535 265.063 29.8046 264.819 29.8557C264.575 29.9126 264.265 29.941 263.89 29.941C263.322 29.941 262.765 29.8188 262.219 29.5745C261.68 29.3302 261.231 28.958 260.873 28.458C260.521 27.958 260.344 27.3273 260.344 26.566V13.5432Z" fill="#272B38"/>
<defs>
<clipPath id="clip0_4166_491">
<path d="M0 4.77051C0 2.56137 1.79086 0.770508 4 0.770508H36C38.2091 0.770508 40 2.56137 40 4.77051V36.7705C40 38.9796 38.2091 40.7705 36 40.7705H4C1.79086 40.7705 0 38.9796 0 36.7705V4.77051Z" fill="white"/>
</clipPath>
</defs>
</svg>
