<svg xmlns="http://www.w3.org/2000/svg" width="42" height="43" fill="none"><g clip-path="url(#a)"><path fill="#fff" d="M0 4.5a4 4 0 0 1 4-4h34a4 4 0 0 1 4 4v34a4 4 0 0 1-4 4H4a4 4 0 0 1-4-4z"/><path fill="#072440" d="M0 .5h42v42H0z"/><g clip-path="url(#b)"><path fill="url(#c)" d="M25.335 30.855c5.35 0 9.687-4.336 9.687-9.685s-4.337-9.686-9.687-9.686-9.687 4.336-9.687 9.686 4.337 9.685 9.687 9.685"/><path fill="url(#d)" d="M17.616 32.157c5.887 0 10.66-4.771 10.66-10.657s-4.773-10.657-10.66-10.657S6.957 15.614 6.957 21.5s4.772 10.657 10.66 10.657"/><path fill="url(#e)" d="m19.648 17.265.459-1.877-1.147-.321-.46 1.877c-.32-.092-.595-.138-.964-.229l.46-1.877-1.148-.274-.46 1.922c-.275-.046-.505-.137-.733-.183l-1.56-.366-.322 1.236.873.229c.46.137.55.412.55.687l-1.285 5.219c-.091.137-.229.32-.55.275l-.874-.229-.596 1.328 1.514.365.825.229-.46 1.923 1.148.32.46-1.922c.32.091.597.183.964.275l-.412 1.876 1.147.321.46-1.923c1.973.366 3.488.229 4.13-1.602.505-1.465-.047-2.244-1.057-2.84.782-.183 1.331-.686 1.515-1.694.092-1.51-1.01-2.29-2.479-2.747zm-.321 6.364c-.321 1.465-2.8.64-3.581.458l.643-2.565c.78.229 3.303.596 2.937 2.107m.367-3.755c-.321 1.328-2.34.64-2.983.458l.597-2.29c.597.138 2.707.459 2.386 1.832"/></g></g><defs><linearGradient id="c" x1="33.493" x2="16.273" y1="16.955" y2="25.835" gradientUnits="userSpaceOnUse"><stop stop-color="#F5516C"/><stop offset=".12" stop-color="#BA4561"/><stop offset=".24" stop-color="#873C57"/><stop offset=".35" stop-color="#603450"/><stop offset=".45" stop-color="#442F4B"/><stop offset=".54" stop-color="#332C48"/><stop offset=".61" stop-color="#2D2B47"/></linearGradient><linearGradient id="d" x1="24.117" x2="10.415" y1="13.752" y2="30.081" gradientUnits="userSpaceOnUse"><stop offset=".12" stop-color="#F5516C"/><stop offset=".36" stop-color="#CC4964"/><stop offset=".8" stop-color="#863C57"/><stop offset="1" stop-color="#6B3753"/></linearGradient><linearGradient id="e" x1="21.271" x2="12.837" y1="16.363" y2="26.415" gradientUnits="userSpaceOnUse"><stop offset=".5" stop-color="#fff"/><stop offset="1" stop-color="#9AA5B8"/></linearGradient><clipPath id="a"><path fill="#fff" d="M0 4.5a4 4 0 0 1 4-4h34a4 4 0 0 1 4 4v34a4 4 0 0 1-4 4H4a4 4 0 0 1-4-4z"/></clipPath><clipPath id="b"><path fill="#fff" d="M6.957 10.843h28.084v21.313H6.957z"/></clipPath></defs></svg>