<svg xmlns="http://www.w3.org/2000/svg" width="42" height="43" fill="none"><g clip-path="url(#a)"><path fill="#fff" d="M0 4.5a4 4 0 0 1 4-4h34a4 4 0 0 1 4 4v34a4 4 0 0 1-4 4H4a4 4 0 0 1-4-4z"/><g fill-rule="evenodd" clip-path="url(#b)" clip-rule="evenodd"><path fill="#EFBB30" d="M0 21.5v21h42V.5H0zM23.693 6.846c-.044.102-.34.714-.657 1.361a280 280 0 0 0-.797 1.638c-.122.254-.424.878-.672 1.386l-.735 1.512-.693 1.428a1129 1129 0 0 0-2.584 5.33c0 .008.278.027.62.04l1.606.069c.543.023 1.724.07 2.625.103 2.918.11 4.095.164 4.095.191 0 .015-.269.068-.599.12-.328.052-.75.122-.934.155-.185.034-.752.126-1.26.207s-1.028.166-1.155.189-.58.099-1.008.167a439 439 0 0 0-3.486.569c-.196.035-.707.119-1.134.187s-1.24.2-1.806.293-1.558.254-2.205.358c-.647.105-1.241.201-1.32.215l-.144.024.077-.118a7 7 0 0 1 .315-.413c.131-.162.502-.634.825-1.05.59-.758 1.721-2.207 3.164-4.053l1.067-1.365.741-.947c.246-.313.776-.993 1.18-1.512s.94-1.208 1.195-1.531c.672-.856 1.186-1.513 1.446-1.848.242-.313.696-.893 1.445-1.848l.649-.83c.217-.279.25-.285.137-.027m6.927 13.888c0 .017-.09.145-.2.285l-3.968 5.076-.903 1.156-.791 1.008-1.593 2.04c-.667.855-1.375 1.762-1.575 2.016l-.725.924c-2.091 2.676-2.52 3.217-2.536 3.2-.01-.01.08-.213.2-.453l.52-1.067c.168-.346.498-1.027.735-1.512s.548-1.128.693-1.428a949 949 0 0 1 1.323-2.73l.714-1.47.693-1.428.776-1.596c.594-1.22.567-1.15.451-1.173a32 32 0 0 0-1.311-.065c-2.317-.086-7.25-.28-7.518-.295-.087-.005.09-.076.252-.1a821 821 0 0 0 3.549-.575c.566-.093 1.379-.224 1.806-.293.427-.07.938-.153 1.134-.188s.773-.128 1.281-.209 1.028-.166 1.155-.189.58-.099 1.008-.167c1.98-.318 4.152-.677 4.799-.794a.026.026 0 0 1 .031.026"/><path fill="#FCFBFB" d="M23.557 6.873a570 570 0 0 0-2.094 2.677c-.26.336-.774.993-1.446 1.849l-1.195 1.53c-.403.52-.934 1.2-1.18 1.513l-.741.947-1.067 1.365a1622 1622 0 0 0-3.164 4.053 97 97 0 0 1-.825 1.05 8 8 0 0 0-.315.413l-.077.118.144-.024c.079-.014.673-.11 1.32-.215l2.205-.358c.566-.093 1.378-.224 1.806-.293.427-.068.938-.153 1.134-.187a538 538 0 0 1 3.486-.57c.427-.067.88-.143 1.008-.166.127-.023.647-.108 1.155-.19.508-.08 1.075-.172 1.26-.206.185-.032.605-.103.934-.154s.599-.106.599-.121c0-.027-1.177-.082-4.095-.191a748 748 0 0 1-2.625-.103l-1.607-.068a7 7 0 0 1-.62-.04c0-.008.183-.389.405-.845.223-.458.54-1.116.709-1.462.29-.599.53-1.094 1.47-3.024.226-.462.539-1.105.694-1.428.156-.323.486-1.004.735-1.512.248-.508.55-1.132.672-1.386s.48-.991.797-1.638c.826-1.686.859-1.77.52-1.334m6.199 13.977c-.776.133-2.39.398-3.97.651-.427.068-.88.144-1.007.167s-.647.108-1.155.189c-.508.08-1.085.175-1.281.209-.197.035-.707.119-1.134.188-.428.07-1.24.2-1.806.293-1.793.293-3.376.549-3.55.575-.16.024-.338.095-.251.1.269.016 5.2.209 7.518.295.67.025 1.26.055 1.311.065.117.024.144-.047-.451 1.173l-.776 1.596-2.1 4.326-.63 1.302-.693 1.428-.735 1.512c-.168.347-.402.826-.521 1.067-.119.24-.209.444-.2.453.017.017.446-.524 2.537-3.2l.725-.924c.2-.254.908-1.161 1.575-2.016l1.593-2.04.79-1.008.903-1.156c.389-.5 2.84-3.634 3.97-5.076.191-.246.233-.323.167-.312z"/></g></g><defs><clipPath id="a"><path fill="#fff" d="M0 4.5a4 4 0 0 1 4-4h34a4 4 0 0 1 4 4v34a4 4 0 0 1-4 4H4a4 4 0 0 1-4-4z"/></clipPath><clipPath id="b"><path fill="#fff" d="M0 .5h42v42H0z"/></clipPath></defs></svg>