<svg xmlns="http://www.w3.org/2000/svg" width="42" height="43" fill="none"><path fill="#00C7F9" d="M0 4.667a4 4 0 0 1 4-4h34a4 4 0 0 1 4 4v34a4 4 0 0 1-4 4H4a4 4 0 0 1-4-4z"/><path fill="#fff" fill-rule="evenodd" d="M5.426 26.55 21 8.893 36.576 26.55l-9.506 7.89H14.944zM21 31.306h.173c3.127-.087 5.822-2.457 5.822-5.495 0-1.013-.482-2.42-.977-3.248-.272-.506-1.89-3.371-4.882-8.57-.05-.124-.235-.124-.272 0 0 0-4.364 7.594-4.883 8.57-.494.815-.976 2.235-.976 3.248 0 3.038 2.707 5.409 5.834 5.495z" clip-rule="evenodd"/></svg>