<svg xmlns="http://www.w3.org/2000/svg" width="42" height="43" fill="none"><g clip-path="url(#a)"><path fill="#fff" d="M0 4.5a4 4 0 0 1 4-4h34a4 4 0 0 1 4 4v34a4 4 0 0 1-4 4H4a4 4 0 0 1-4-4z"/><path fill="url(#b)" d="M42 .5H0v41.46h42z"/><path fill="url(#c)" d="M32.727 10.193H9.273A9.273 9.273 0 0 0 0 19.465v12.688a9.273 9.273 0 0 0 9.273 9.273h23.454A9.273 9.273 0 0 0 42 32.153V19.466a9.273 9.273 0 0 0-9.273-9.273"/><path fill="url(#d)" d="M9.273 20.425h23.454c5.117 0 9.273 4.157 9.273 9.273V42.5H0V29.698c0-5.116 4.156-9.273 9.273-9.273"/><path fill="#fff" d="M22.881 32.911q.002.622-.136 1.124a2.6 2.6 0 0 1-.398.85 1.75 1.75 0 0 1-.644.54c-.256.126-.54.191-.867.191-.158 0-.311-.016-.447-.043a1.4 1.4 0 0 1-.399-.148 2.2 2.2 0 0 1-.37-.25 5 5 0 0 1-.377-.366v.513q0 .056-.027.098a.2.2 0 0 1-.098.066 1 1 0 0 1-.18.038c-.077.005-.164.01-.273.01s-.202 0-.273-.01a.6.6 0 0 1-.174-.038q-.068-.026-.093-.066a.2.2 0 0 1-.027-.098v-6.917q0-.05.032-.092a.3.3 0 0 1 .11-.071.8.8 0 0 1 .207-.044c.087-.01.19-.016.327-.016.136 0 .24 0 .327.016.088.011.153.027.208.044a.3.3 0 0 1 .109.07q.032.043.032.093v2.591c.12-.12.24-.218.36-.305s.24-.153.36-.207q.182-.081.371-.12a2.4 2.4 0 0 1 .404-.038q.525 0 .895.207c.245.136.447.327.6.562q.23.35.338.823c.07.317.109.644.109.993zm-1.39.098q-.002-.302-.044-.578a1.7 1.7 0 0 0-.158-.496.95.95 0 0 0-.29-.344.74.74 0 0 0-.452-.13 1 1 0 0 0-.262.037.8.8 0 0 0-.262.126q-.139.09-.278.229a3 3 0 0 0-.306.354v1.555a3 3 0 0 0 .54.545.9.9 0 0 0 .54.186.73.73 0 0 0 .442-.131c.12-.087.224-.202.3-.344q.117-.211.175-.48.055-.272.054-.534zm3.758 2.313q0 .05-.033.093a.23.23 0 0 1-.11.065.8.8 0 0 1-.207.038c-.087.011-.19.011-.327.011-.136 0-.24 0-.327-.01a1.3 1.3 0 0 1-.207-.039.23.23 0 0 1-.11-.065.14.14 0 0 1-.032-.093v-6.917q0-.05.033-.092a.3.3 0 0 1 .109-.071.8.8 0 0 1 .207-.044c.087-.01.19-.016.327-.016s.24 0 .328.016c.087.011.152.027.207.044a.3.3 0 0 1 .109.07q.033.043.033.093zm5.792 0q0 .05-.027.093c-.016.027-.05.049-.093.065a.6.6 0 0 1-.174.038q-.108.01-.273.011c-.114 0-.213 0-.284-.01a1 1 0 0 1-.174-.039.2.2 0 0 1-.093-.065c-.022-.028-.027-.055-.027-.093v-.54q-.394.418-.802.633a1.8 1.8 0 0 1-.845.212q-.49-.001-.824-.158a1.4 1.4 0 0 1-.54-.43 1.7 1.7 0 0 1-.295-.633q-.088-.361-.087-.895v-2.87q.001-.05.027-.092.027-.04.11-.065a1 1 0 0 1 .207-.039 5 5 0 0 1 .649 0c.087.011.153.022.207.039a.2.2 0 0 1 .11.065.14.14 0 0 1 .032.093v2.65q0 .368.049.563.05.194.147.332a.7.7 0 0 0 .251.219.8.8 0 0 0 .355.076.86.86 0 0 0 .513-.186c.169-.125.354-.3.55-.534v-3.12q.001-.051.028-.093.025-.04.109-.065a1 1 0 0 1 .207-.039 5 5 0 0 1 .655 0q.129.015.201.039.076.024.11.065a.14.14 0 0 1 .032.093v4.69zm5.695-2.482c0 .164-.038.278-.11.36a.4.4 0 0 1-.3.115h-2.89q-.001.3.07.545.074.244.23.415t.404.261c.163.06.365.088.594.088a3.5 3.5 0 0 0 1.075-.159 5 5 0 0 0 .321-.109.6.6 0 0 1 .208-.049q.049 0 .081.017.032.015.055.065a.4.4 0 0 1 .027.136q.008.089.006.219v.196c0 .055-.011.098-.017.142a.3.3 0 0 1-.032.098 1 1 0 0 1-.055.076.6.6 0 0 1-.19.099 3 3 0 0 1-.394.125 5 5 0 0 1-1.21.147q-.63-.001-1.113-.158a2 2 0 0 1-.797-.48 2 2 0 0 1-.474-.807 3.8 3.8 0 0 1-.158-1.146c0-.436.054-.79.163-1.129a2.3 2.3 0 0 1 .48-.85c.208-.235.464-.41.764-.535.3-.12.638-.186 1.015-.186q.595.001 1.02.175c.283.114.512.278.692.48.18.207.317.447.398.73.088.28.126.585.126.917v.213zm-1.304-.382q.017-.557-.229-.878c-.164-.213-.409-.316-.747-.316q-.254.001-.447.092a1 1 0 0 0-.317.257q-.124.163-.19.376-.068.22-.077.464h2.002z"/></g><defs><linearGradient id="b" x1="21.06" x2="21.06" y1="2.281" y2="42.497" gradientUnits="userSpaceOnUse"><stop stop-color="#174697"/><stop offset="1" stop-color="#0C2550"/></linearGradient><linearGradient id="c" x1="21.06" x2="21.06" y1="9.386" y2="39.994" gradientUnits="userSpaceOnUse"><stop stop-color="#3F78DC"/><stop offset="1" stop-color="#2F5FB3"/></linearGradient><linearGradient id="d" x1="21.06" x2="21.06" y1="21.701" y2="43.113" gradientUnits="userSpaceOnUse"><stop stop-color="#8BD7F9"/><stop offset="1" stop-color="#68BBE1"/></linearGradient><clipPath id="a"><path fill="#fff" d="M0 4.5a4 4 0 0 1 4-4h34a4 4 0 0 1 4 4v34a4 4 0 0 1-4 4H4a4 4 0 0 1-4-4z"/></clipPath></defs></svg>