<svg width="200" height="30" viewBox="0 0 200 30" fill="none" xmlns="http://www.w3.org/2000/svg">
<path d="M18.8519 3.81481L20.4815 5.43386L22.9048 5.61376C23.0159 5.62434 23.1482 5.70899 23.1693 5.85714L26.4497 28.0635L17.5767 29.9841L18.8571 3.81481H18.8519ZM16.7407 29.9947L0 26.8571L2.28571 9.2381C2.39683 8.44444 2.42328 8.41799 3.26455 8.15344L5.97884 7.31217C6.55556 4.84656 8.4127 0 12.291 0C12.7989 0 13.3862 0.269841 13.8571 0.899471C15.6296 0.814815 16.6085 2.31217 17.1429 3.85714L18.0318 3.58201L16.7407 30V29.9947ZM13.3333 2.13228C12.3862 2.53968 11.3069 3.61376 10.7302 5.84127L13.7249 4.91534C13.7355 3.60847 13.5714 2.73016 13.3333 2.13228ZM7.1746 6.9418L9.54498 6.20635C10.1058 3.26455 11.4392 1.79365 12.6825 1.20635C12.5238 1.09524 12.3545 1.03704 12.1852 1.03704C9.39683 1.03704 7.83598 4.69312 7.1746 6.93651V6.9418ZM13.9947 10.746C13.9947 10.746 13.2222 10.2963 11.6508 10.2963C7.58201 10.2963 5.56614 13.0159 5.56614 15.8201C5.56614 19.1587 8.89418 19.2487 8.89418 21.2804C8.89418 21.7725 8.54498 22.4444 7.69312 22.4444C6.38624 22.4444 4.84127 21.1164 4.84127 21.1164L4.05291 23.7196C4.05291 23.7196 5.56085 25.5503 8.50265 25.5503C10.9577 25.5503 12.7778 23.7037 12.7778 20.836C12.7778 17.1905 8.71958 16.5926 8.71958 15.037C8.71958 14.7513 8.80953 13.619 10.6138 13.619C11.8466 13.619 12.8466 14.1534 12.8466 14.1534L13.9947 10.746ZM14.746 4.59788L16.1958 4.14815C15.8307 3.02646 15.2593 2.04762 14.3968 1.9418C14.6614 2.7037 14.7566 3.60317 14.7407 4.59788H14.746Z" fill="#1E2129"/>
<path d="M48.1083 10.9091C48.006 10.0455 47.5913 9.375 46.864 8.89773C46.1367 8.42045 45.2447 8.18182 44.1879 8.18182C43.4151 8.18182 42.739 8.30682 42.1594 8.55682C41.5856 8.80682 41.1367 9.15057 40.8129 9.58807C40.4947 10.0256 40.3356 10.5227 40.3356 11.0795C40.3356 11.5455 40.4464 11.946 40.668 12.2812C40.8952 12.6108 41.185 12.8864 41.5373 13.108C41.8896 13.3239 42.2589 13.5028 42.6452 13.6449C43.0316 13.7812 43.3867 13.892 43.7106 13.9773L45.4833 14.4545C45.9379 14.5739 46.4435 14.7386 47.0004 14.9489C47.5629 15.1591 48.0998 15.446 48.6112 15.8097C49.1282 16.1676 49.5543 16.6278 49.8896 17.1903C50.2248 17.7528 50.3924 18.4432 50.3924 19.2614C50.3924 20.2045 50.1452 21.0568 49.6509 21.8182C49.1623 22.5795 48.4464 23.1847 47.5032 23.6335C46.5657 24.0824 45.4265 24.3068 44.0856 24.3068C42.8356 24.3068 41.7532 24.1051 40.8384 23.7017C39.9293 23.2983 39.2134 22.7358 38.6907 22.0142C38.1737 21.2926 37.881 20.4545 37.8129 19.5H39.9947C40.0515 20.1591 40.2731 20.7045 40.6594 21.1364C41.0515 21.5625 41.5458 21.8807 42.1424 22.0909C42.7447 22.2955 43.3924 22.3977 44.0856 22.3977C44.8924 22.3977 45.6168 22.267 46.2589 22.0057C46.9009 21.7386 47.4094 21.3693 47.7844 20.8977C48.1594 20.4205 48.3469 19.8636 48.3469 19.2273C48.3469 18.6477 48.185 18.1761 47.8612 17.8125C47.5373 17.4489 47.1112 17.1534 46.5827 16.9261C46.0543 16.6989 45.4833 16.5 44.8697 16.3295L42.7219 15.7159C41.3583 15.3239 40.2788 14.7642 39.4833 14.0369C38.6879 13.3097 38.2901 12.358 38.2901 11.1818C38.2901 10.2045 38.5543 9.35227 39.0827 8.625C39.6168 7.89205 40.3327 7.32386 41.2305 6.92045C42.1339 6.51136 43.1424 6.30682 44.256 6.30682C45.381 6.30682 46.381 6.50852 47.256 6.91193C48.131 7.30966 48.8242 7.85511 49.3356 8.54829C49.8526 9.24148 50.1254 10.0284 50.1538 10.9091H48.1083ZM55.6062 16.125V24H53.5948V6.54545H55.6062V12.9545H55.7766C56.0835 12.2784 56.5437 11.7415 57.1573 11.3438C57.7766 10.9403 58.6005 10.7386 59.6289 10.7386C60.521 10.7386 61.3022 10.9176 61.9727 11.2756C62.6431 11.6278 63.163 12.1705 63.5323 12.9034C63.9073 13.6307 64.0948 14.5568 64.0948 15.6818V24H62.0835V15.8182C62.0835 14.7784 61.8136 13.9744 61.2738 13.4062C60.7397 12.8324 59.9982 12.5455 59.0494 12.5455C58.3903 12.5455 57.7994 12.6847 57.2766 12.9631C56.7596 13.2415 56.3505 13.6477 56.0494 14.1818C55.7539 14.7159 55.6062 15.3636 55.6062 16.125ZM73.0927 24.2727C71.9109 24.2727 70.8739 23.9915 69.9819 23.429C69.0955 22.8665 68.4023 22.0795 67.9023 21.0682C67.408 20.0568 67.1609 18.875 67.1609 17.5227C67.1609 16.1591 67.408 14.9687 67.9023 13.9517C68.4023 12.9347 69.0955 12.1449 69.9819 11.5824C70.8739 11.0199 71.9109 10.7386 73.0927 10.7386C74.2745 10.7386 75.3086 11.0199 76.195 11.5824C77.087 12.1449 77.7802 12.9347 78.2745 13.9517C78.7745 14.9687 79.0245 16.1591 79.0245 17.5227C79.0245 18.875 78.7745 20.0568 78.2745 21.0682C77.7802 22.0795 77.087 22.8665 76.195 23.429C75.3086 23.9915 74.2745 24.2727 73.0927 24.2727ZM73.0927 22.4659C73.9904 22.4659 74.729 22.2358 75.3086 21.7756C75.8881 21.3153 76.3171 20.7102 76.5955 19.9602C76.8739 19.2102 77.0131 18.3977 77.0131 17.5227C77.0131 16.6477 76.8739 15.8324 76.5955 15.0767C76.3171 14.321 75.8881 13.7102 75.3086 13.2443C74.729 12.7784 73.9904 12.5455 73.0927 12.5455C72.195 12.5455 71.4563 12.7784 70.8768 13.2443C70.2972 13.7102 69.8683 14.321 69.5898 15.0767C69.3114 15.8324 69.1722 16.6477 69.1722 17.5227C69.1722 18.3977 69.3114 19.2102 69.5898 19.9602C69.8683 20.7102 70.2972 21.3153 70.8768 21.7756C71.4563 22.2358 72.195 22.4659 73.0927 22.4659ZM82.0948 28.9091V10.9091H84.038V12.9886H84.2766C84.4244 12.7614 84.6289 12.4716 84.8903 12.1193C85.1573 11.7614 85.538 11.4432 86.0323 11.1648C86.5323 10.8807 87.2085 10.7386 88.0607 10.7386C89.163 10.7386 90.1346 11.0142 90.9755 11.5653C91.8164 12.1165 92.4727 12.8977 92.9442 13.9091C93.4158 14.9205 93.6516 16.1136 93.6516 17.4886C93.6516 18.875 93.4158 20.0767 92.9442 21.0938C92.4727 22.1051 91.8192 22.8892 90.984 23.446C90.1488 23.9972 89.1857 24.2727 88.0948 24.2727C87.2539 24.2727 86.5806 24.1335 86.0749 23.8551C85.5692 23.571 85.18 23.25 84.9073 22.892C84.6346 22.5284 84.4244 22.2273 84.2766 21.9886H84.1062V28.9091H82.0948ZM84.0721 17.4545C84.0721 18.4432 84.217 19.3153 84.5067 20.071C84.7965 20.821 85.2198 21.4091 85.7766 21.8352C86.3335 22.2557 87.0153 22.4659 87.8221 22.4659C88.663 22.4659 89.3647 22.2443 89.9272 21.8011C90.4954 21.3523 90.9215 20.75 91.2056 19.9943C91.4954 19.233 91.6403 18.3864 91.6403 17.4545C91.6403 16.5341 91.4982 15.7045 91.2141 14.9659C90.9357 14.2216 90.5124 13.6335 89.9442 13.2017C89.3817 12.7642 88.6744 12.5455 87.8221 12.5455C87.0039 12.5455 86.3164 12.7528 85.7596 13.1676C85.2028 13.5767 84.7823 14.1506 84.4982 14.8892C84.2141 15.6222 84.0721 16.4773 84.0721 17.4545ZM96.7198 24V10.9091H98.7312V24H96.7198ZM97.7425 8.72727C97.3505 8.72727 97.0124 8.59375 96.7283 8.3267C96.4499 8.05966 96.3107 7.73864 96.3107 7.36364C96.3107 6.98864 96.4499 6.66761 96.7283 6.40057C97.0124 6.13352 97.3505 6 97.7425 6C98.1346 6 98.4698 6.13352 98.7482 6.40057C99.0323 6.66761 99.1744 6.98864 99.1744 7.36364C99.1744 7.73864 99.0323 8.05966 98.7482 8.3267C98.4698 8.59375 98.1346 8.72727 97.7425 8.72727ZM108.245 10.9091V12.6136H101.188V10.9091H108.245ZM103.301 24V9.10227C103.301 8.35227 103.478 7.72727 103.83 7.22727C104.182 6.72727 104.64 6.35227 105.202 6.10227C105.765 5.85227 106.358 5.72727 106.983 5.72727C107.478 5.72727 107.881 5.76704 108.194 5.84659C108.506 5.92614 108.739 6 108.892 6.06818L108.313 7.80682C108.211 7.77273 108.069 7.73011 107.887 7.67898C107.711 7.62784 107.478 7.60227 107.188 7.60227C106.523 7.60227 106.043 7.76989 105.748 8.10511C105.458 8.44034 105.313 8.93182 105.313 9.57954V24H103.301ZM112.359 28.9091C112.018 28.9091 111.714 28.8807 111.447 28.8239C111.18 28.7727 110.995 28.7216 110.893 28.6705L111.404 26.8977C111.893 27.0227 112.325 27.0682 112.7 27.0341C113.075 27 113.407 26.8324 113.697 26.5312C113.993 26.2358 114.262 25.7557 114.507 25.0909L114.882 24.0682L110.041 10.9091H112.223L115.836 21.3409H115.973L119.586 10.9091H121.768L116.211 25.9091C115.961 26.5852 115.652 27.1449 115.282 27.5881C114.913 28.0369 114.484 28.3693 113.995 28.5852C113.512 28.8011 112.967 28.9091 112.359 28.9091ZM131.446 24V6.54545H137.343C138.713 6.54545 139.832 6.79261 140.701 7.28693C141.576 7.77557 142.224 8.4375 142.645 9.27273C143.065 10.108 143.275 11.0398 143.275 12.0682C143.275 13.0966 143.065 14.0312 142.645 14.8722C142.23 15.7131 141.588 16.3835 140.718 16.8835C139.849 17.3778 138.735 17.625 137.377 17.625H133.15V15.75H137.309C138.247 15.75 139 15.5881 139.568 15.2642C140.136 14.9403 140.548 14.5028 140.804 13.9517C141.065 13.3949 141.196 12.767 141.196 12.0682C141.196 11.3693 141.065 10.7443 140.804 10.1932C140.548 9.64205 140.133 9.21023 139.559 8.89773C138.985 8.57955 138.224 8.42045 137.275 8.42045H133.559V24H131.446ZM148.419 6.54545V24H146.407V6.54545H148.419ZM160.353 18.6477V10.9091H162.364V24H160.353V21.7841H160.216C159.909 22.4489 159.432 23.0142 158.784 23.4801C158.137 23.9403 157.319 24.1705 156.33 24.1705C155.512 24.1705 154.784 23.9915 154.148 23.6335C153.512 23.2699 153.012 22.7244 152.648 21.9972C152.284 21.2642 152.103 20.3409 152.103 19.2273V10.9091H154.114V19.0909C154.114 20.0455 154.381 20.8068 154.915 21.375C155.455 21.9432 156.142 22.2273 156.978 22.2273C157.478 22.2273 157.986 22.0994 158.503 21.8438C159.026 21.5881 159.463 21.196 159.816 20.6676C160.174 20.1392 160.353 19.4659 160.353 18.6477ZM171.332 29.1818C170.36 29.1818 169.525 29.0568 168.826 28.8068C168.127 28.5625 167.545 28.2386 167.079 27.8352C166.619 27.4375 166.252 27.0114 165.98 26.5568L167.582 25.4318C167.764 25.6705 167.994 25.9432 168.272 26.25C168.551 26.5625 168.931 26.8324 169.414 27.0597C169.903 27.2926 170.542 27.4091 171.332 27.4091C172.389 27.4091 173.261 27.1534 173.949 26.642C174.636 26.1307 174.98 25.3295 174.98 24.2386V21.5795H174.809C174.662 21.8182 174.451 22.1136 174.179 22.4659C173.912 22.8125 173.525 23.1222 173.02 23.3949C172.52 23.6619 171.843 23.7955 170.991 23.7955C169.934 23.7955 168.985 23.5455 168.145 23.0455C167.309 22.5455 166.647 21.8182 166.159 20.8636C165.676 19.9091 165.434 18.75 165.434 17.3864C165.434 16.0455 165.67 14.8778 166.142 13.8835C166.613 12.8835 167.27 12.1108 168.11 11.5653C168.951 11.0142 169.923 10.7386 171.025 10.7386C171.877 10.7386 172.554 10.8807 173.054 11.1648C173.559 11.4432 173.946 11.7614 174.213 12.1193C174.485 12.4716 174.696 12.7614 174.843 12.9886H175.048V10.9091H176.991V24.375C176.991 25.5 176.735 26.4148 176.224 27.1193C175.718 27.8295 175.037 28.3494 174.179 28.679C173.326 29.0142 172.377 29.1818 171.332 29.1818ZM171.264 21.9886C172.071 21.9886 172.752 21.804 173.309 21.4347C173.866 21.0653 174.289 20.5341 174.579 19.8409C174.869 19.1477 175.014 18.3182 175.014 17.3523C175.014 16.4091 174.872 15.5767 174.588 14.8551C174.304 14.1335 173.883 13.5682 173.326 13.1591C172.77 12.75 172.082 12.5455 171.264 12.5455C170.412 12.5455 169.701 12.7614 169.133 13.1932C168.571 13.625 168.147 14.2045 167.863 14.9318C167.585 15.6591 167.446 16.4659 167.446 17.3523C167.446 18.2614 167.588 19.0653 167.872 19.7642C168.162 20.4574 168.588 21.0028 169.15 21.4006C169.718 21.7926 170.423 21.9886 171.264 21.9886ZM180.673 24V10.9091H182.684V24H180.673ZM181.696 8.72727C181.304 8.72727 180.966 8.59375 180.681 8.3267C180.403 8.05966 180.264 7.73864 180.264 7.36364C180.264 6.98864 180.403 6.66761 180.681 6.40057C180.966 6.13352 181.304 6 181.696 6C182.088 6 182.423 6.13352 182.701 6.40057C182.985 6.66761 183.127 6.98864 183.127 7.36364C183.127 7.73864 182.985 8.05966 182.701 8.3267C182.423 8.59375 182.088 8.72727 181.696 8.72727ZM188.38 16.125V24H186.368V10.9091H188.311V12.9545H188.482C188.789 12.2898 189.255 11.7557 189.88 11.3523C190.505 10.9432 191.311 10.7386 192.3 10.7386C193.186 10.7386 193.962 10.9205 194.627 11.2841C195.292 11.642 195.809 12.1875 196.178 12.9205C196.547 13.6477 196.732 14.5682 196.732 15.6818V24H194.721V15.8182C194.721 14.7898 194.453 13.9886 193.919 13.4148C193.385 12.8352 192.652 12.5455 191.721 12.5455C191.078 12.5455 190.505 12.6847 189.999 12.9631C189.499 13.2415 189.104 13.6477 188.814 14.1818C188.525 14.7159 188.38 15.3636 188.38 16.125Z" fill="#272B38"/>
</svg>
