<svg width="170" height="41" viewBox="0 0 170 41" fill="none" xmlns="http://www.w3.org/2000/svg">
<g clip-path="url(#clip0_4166_443)">
<path d="M0 4.77051C0 2.56137 1.79086 0.770508 4 0.770508H36C38.2091 0.770508 40 2.56137 40 4.77051V36.7705C40 38.9796 38.2091 40.7705 36 40.7705H4C1.79086 40.7705 0 38.9796 0 36.7705V4.77051Z" fill="white"/>
<path d="M40 0.770508H0V40.2562H40V0.770508Z" fill="url(#paint0_linear_4166_443)"/>
<path d="M31.1688 10.0017H8.83117C3.95385 10.0017 0 13.9556 0 18.8329V30.916C0 35.7933 3.95385 39.7472 8.83117 39.7472H31.1688C36.0462 39.7472 40 35.7933 40 30.916V18.8329C40 13.9556 36.0462 10.0017 31.1688 10.0017Z" fill="url(#paint1_linear_4166_443)"/>
<path d="M8.83117 19.7471H31.1688C36.0416 19.7471 40 23.7055 40 28.5782V40.7704H0V28.5782C0 23.7055 3.95844 19.7471 8.83117 19.7471Z" fill="url(#paint2_linear_4166_443)"/>
<path d="M21.7941 31.6382C21.7941 32.033 21.7526 32.3914 21.6643 32.7083C21.5759 33.0252 21.4513 33.2953 21.285 33.5187C21.1188 33.7421 20.9162 33.9135 20.672 34.033C20.4279 34.1525 20.1578 34.2148 19.8461 34.2148C19.6954 34.2148 19.55 34.1992 19.4201 34.1732C19.2902 34.1473 19.1604 34.1005 19.0409 34.033C18.9214 33.9706 18.8019 33.8875 18.6876 33.794C18.5733 33.6953 18.4539 33.581 18.3292 33.446V33.9343C18.3292 33.9706 18.3188 34.0018 18.3032 34.0278C18.2824 34.0538 18.2565 34.0745 18.2097 34.0901C18.1682 34.1057 18.111 34.1161 18.0383 34.1265C17.9656 34.1317 17.8824 34.1369 17.7785 34.1369C17.6746 34.1369 17.5863 34.1369 17.5188 34.1265C17.4513 34.1213 17.3941 34.1057 17.3526 34.0901C17.311 34.0745 17.2798 34.0538 17.2643 34.0278C17.2487 34.0018 17.2383 33.9706 17.2383 33.9343V27.3473C17.2383 27.3161 17.2487 27.2849 17.2695 27.259C17.2902 27.233 17.3266 27.2122 17.3733 27.1914C17.4201 27.1706 17.4876 27.1603 17.5707 27.1499C17.6539 27.1395 17.7526 27.1343 17.8824 27.1343C18.0123 27.1343 18.111 27.1343 18.1941 27.1499C18.2772 27.1603 18.3396 27.1758 18.3915 27.1914C18.4383 27.2122 18.4746 27.233 18.4954 27.259C18.5162 27.2849 18.5266 27.3161 18.5266 27.3473V29.8148C18.6409 29.7005 18.7552 29.607 18.8694 29.5239C18.9837 29.4408 19.098 29.3784 19.2123 29.3265C19.3266 29.2745 19.4461 29.2382 19.5656 29.2122C19.685 29.1914 19.8149 29.1758 19.95 29.1758C20.2824 29.1758 20.5682 29.2434 20.8019 29.3732C21.0357 29.5031 21.2279 29.6849 21.3733 29.9083C21.5188 30.1317 21.6279 30.3914 21.6954 30.6927C21.763 30.994 21.7993 31.3057 21.7993 31.6382H21.7941ZM20.4695 31.7317C20.4695 31.5395 20.4539 31.3577 20.4279 31.181C20.3967 31.0044 20.35 30.8486 20.2772 30.7083C20.2045 30.568 20.1162 30.4641 20.0019 30.381C19.8876 30.2979 19.7474 30.2564 19.5707 30.2564C19.4876 30.2564 19.4045 30.2667 19.3214 30.2927C19.2383 30.3135 19.1552 30.3551 19.072 30.4122C18.9837 30.4693 18.8954 30.5421 18.8071 30.6304C18.7136 30.7187 18.6201 30.833 18.5162 30.968V32.4486C18.698 32.6771 18.8695 32.8486 19.0305 32.968C19.1967 33.0875 19.3682 33.1447 19.5448 33.1447C19.711 33.1447 19.8513 33.1031 19.9656 33.02C20.0798 32.9369 20.1785 32.8278 20.2513 32.6927C20.324 32.5577 20.3811 32.407 20.4175 32.2356C20.4539 32.0641 20.4695 31.8927 20.4695 31.7265V31.7317ZM24.0487 33.9343C24.0487 33.9654 24.0383 33.9966 24.0175 34.0226C23.9967 34.0486 23.9604 34.0693 23.9136 34.0849C23.8669 34.1005 23.7993 34.1161 23.7162 34.1213C23.6331 34.1317 23.5344 34.1317 23.4045 34.1317C23.2746 34.1317 23.1759 34.1317 23.0928 34.1213C23.0097 34.1109 22.9474 34.1005 22.8954 34.0849C22.8487 34.0693 22.8123 34.0486 22.7915 34.0226C22.7707 33.9966 22.7604 33.9706 22.7604 33.9343V27.3473C22.7604 27.3161 22.7707 27.2849 22.7915 27.259C22.8123 27.233 22.8487 27.2122 22.8954 27.1914C22.9422 27.1706 23.0097 27.1603 23.0928 27.1499C23.1759 27.1395 23.2746 27.1343 23.4045 27.1343C23.5344 27.1343 23.6331 27.1343 23.7162 27.1499C23.7993 27.1603 23.8617 27.1758 23.9136 27.1914C23.9604 27.2122 23.9967 27.233 24.0175 27.259C24.0383 27.2849 24.0487 27.3161 24.0487 27.3473V33.9343ZM29.5656 33.9343C29.5656 33.9654 29.5552 33.9966 29.5396 34.0226C29.524 34.0486 29.4928 34.0693 29.4513 34.0849C29.4097 34.1005 29.3526 34.1161 29.285 34.1213C29.2175 34.1265 29.1292 34.1317 29.0253 34.1317C28.9162 34.1317 28.8227 34.1317 28.7552 34.1213C28.6876 34.1109 28.6305 34.1005 28.5889 34.0849C28.5474 34.0693 28.5214 34.0486 28.5006 34.0226C28.4798 33.9966 28.4746 33.9706 28.4746 33.9343V33.42C28.2253 33.6849 27.9707 33.8875 27.711 34.0226C27.4513 34.1577 27.1863 34.2252 26.9058 34.2252C26.5941 34.2252 26.3344 34.1732 26.1214 34.0745C25.9084 33.9758 25.737 33.8356 25.6071 33.6641C25.4772 33.4927 25.3837 33.2901 25.3266 33.0616C25.2694 32.833 25.2435 32.5473 25.2435 32.2096V29.4771C25.2435 29.446 25.2539 29.4148 25.2694 29.3888C25.285 29.3628 25.3214 29.3421 25.3733 29.3265C25.4253 29.3109 25.4876 29.2953 25.5707 29.2901C25.6539 29.2849 25.7578 29.2797 25.8772 29.2797C25.9967 29.2797 26.1058 29.2797 26.1889 29.2901C26.272 29.3005 26.3344 29.3109 26.3863 29.3265C26.4383 29.3421 26.4694 29.3628 26.4902 29.3888C26.511 29.4148 26.5214 29.4408 26.5214 29.4771V32.0018C26.5214 32.2356 26.537 32.4122 26.5681 32.5369C26.5993 32.6616 26.6461 32.7654 26.7084 32.8538C26.7707 32.9421 26.8487 33.0096 26.9474 33.0616C27.0461 33.1083 27.1552 33.1343 27.285 33.1343C27.4461 33.1343 27.6123 33.0771 27.7733 32.9577C27.9344 32.8382 28.111 32.6719 28.298 32.4486V29.4771C28.298 29.446 28.3084 29.4148 28.324 29.3888C28.3396 29.3628 28.3759 29.3421 28.4279 29.3265C28.4798 29.3109 28.5422 29.2953 28.6253 29.2901C28.7084 29.2849 28.8071 29.2797 28.937 29.2797C29.0669 29.2797 29.1656 29.2797 29.2487 29.2901C29.3318 29.3005 29.3941 29.3109 29.4409 29.3265C29.4876 29.3421 29.524 29.3628 29.5448 29.3888C29.5656 29.4148 29.5759 29.4408 29.5759 29.4771V33.9447L29.5656 33.9343ZM34.9889 31.5706C34.9889 31.7265 34.9526 31.8356 34.885 31.9135C34.8175 31.9862 34.7188 32.0226 34.5993 32.0226H31.8461C31.8461 32.2148 31.8669 32.3862 31.9136 32.5421C31.9604 32.6979 32.0331 32.8278 32.1318 32.9369C32.2305 33.046 32.3604 33.1291 32.5162 33.1862C32.672 33.2434 32.8643 33.2693 33.0824 33.2693C33.3006 33.2693 33.5032 33.2538 33.6694 33.2226C33.8409 33.1914 33.9863 33.1551 34.1058 33.1187C34.2253 33.0823 34.3292 33.046 34.4123 33.0148C34.4954 32.9836 34.5578 32.968 34.6097 32.968C34.6409 32.968 34.6668 32.9732 34.6876 32.9836C34.7084 32.994 34.724 33.0148 34.7396 33.046C34.7552 33.0771 34.7604 33.1187 34.7656 33.1758C34.7707 33.233 34.7707 33.3005 34.7707 33.3836C34.7707 33.4564 34.7707 33.5187 34.7707 33.5706C34.7707 33.6226 34.7604 33.6641 34.7552 33.7057C34.75 33.7421 34.7396 33.7732 34.724 33.7992C34.7084 33.8252 34.6928 33.846 34.672 33.8719C34.6513 33.8927 34.5889 33.9291 34.4902 33.9654C34.3915 34.007 34.2668 34.0434 34.1162 34.0849C33.9656 34.1213 33.7889 34.1577 33.5915 34.1836C33.3941 34.2096 33.1863 34.2252 32.963 34.2252C32.563 34.2252 32.2097 34.1732 31.9032 34.0745C31.6019 33.9758 31.3474 33.82 31.1448 33.6174C30.9422 33.4148 30.7915 33.1551 30.6928 32.8486C30.5941 32.5369 30.5422 32.1732 30.5422 31.7577C30.5422 31.3421 30.5941 31.0044 30.698 30.6823C30.8019 30.3603 30.9526 30.0953 31.1552 29.8719C31.3526 29.6486 31.5967 29.4823 31.8824 29.3628C32.1681 29.2486 32.4902 29.1862 32.8487 29.1862C33.2279 29.1862 33.55 29.2434 33.8201 29.3525C34.0902 29.4616 34.3084 29.6174 34.4798 29.8096C34.6513 30.007 34.7811 30.2356 34.8591 30.5057C34.9422 30.7706 34.9785 31.0615 34.9785 31.3784V31.581L34.9889 31.5706ZM33.7474 31.207C33.7578 30.8538 33.685 30.5732 33.5292 30.3706C33.3733 30.168 33.1396 30.0693 32.8175 30.0693C32.6565 30.0693 32.5162 30.1005 32.3915 30.1577C32.272 30.22 32.1733 30.2979 32.0902 30.4018C32.0123 30.5057 31.95 30.6252 31.9084 30.7603C31.8669 30.9005 31.8409 31.046 31.8357 31.2018H33.7422L33.7474 31.207Z" fill="white"/>
</g>
<path d="M54.1136 29.7705V12.316H60.2159C61.4318 12.316 62.4347 12.5262 63.2244 12.9466C64.0142 13.3614 64.6023 13.9211 64.9886 14.6256C65.375 15.3245 65.5682 16.1001 65.5682 16.9523C65.5682 17.7023 65.4347 18.3216 65.1676 18.8103C64.9063 19.2989 64.5597 19.6853 64.1278 19.9694C63.7017 20.2535 63.2386 20.4637 62.7386 20.6001V20.7705C63.2727 20.8046 63.8097 20.9921 64.3494 21.333C64.8892 21.6739 65.3409 22.1626 65.7045 22.7989C66.0682 23.4353 66.25 24.2137 66.25 25.1341C66.25 26.0091 66.0511 26.7961 65.6534 27.4949C65.2557 28.1938 64.6278 28.7478 63.7699 29.1569C62.9119 29.566 61.7955 29.7705 60.4205 29.7705H54.1136ZM56.2273 27.8955H60.4205C61.8011 27.8955 62.7813 27.6285 63.3608 27.0944C63.946 26.5546 64.2386 25.9012 64.2386 25.1341C64.2386 24.5432 64.0881 23.9978 63.7869 23.4978C63.4858 22.9921 63.0568 22.5887 62.5 22.2876C61.9432 21.9807 61.2841 21.8273 60.5227 21.8273H56.2273V27.8955ZM56.2273 19.9864H60.1477C60.7841 19.9864 61.358 19.8614 61.8693 19.6114C62.3864 19.3614 62.7955 19.0091 63.0966 18.5546C63.4034 18.1001 63.5568 17.566 63.5568 16.9523C63.5568 16.1853 63.2898 15.5347 62.7557 15.0006C62.2216 14.4608 61.375 14.191 60.2159 14.191H56.2273V19.9864ZM71.4616 12.316V29.7705H69.4503V12.316H71.4616ZM83.3956 24.4182V16.6796H85.407V29.7705H83.3956V27.5546H83.2592C82.9524 28.2194 82.4751 28.7847 81.8274 29.2506C81.1797 29.7108 80.3615 29.941 79.3729 29.941C78.5547 29.941 77.8274 29.762 77.1911 29.404C76.5547 29.0404 76.0547 28.4949 75.6911 27.7677C75.3274 27.0347 75.1456 26.1114 75.1456 24.9978V16.6796H77.157V24.8614C77.157 25.816 77.424 26.5773 77.9581 27.1455C78.4979 27.7137 79.1854 27.9978 80.0206 27.9978C80.5206 27.9978 81.0291 27.8699 81.5462 27.6143C82.0689 27.3586 82.5064 26.9665 82.8587 26.4381C83.2166 25.9097 83.3956 25.2364 83.3956 24.4182ZM94.5795 30.0432C93.3182 30.0432 92.2301 29.7648 91.3153 29.208C90.4062 28.6455 89.7045 27.8614 89.2102 26.8557C88.7216 25.8444 88.4773 24.6682 88.4773 23.3273C88.4773 21.9864 88.7216 20.8046 89.2102 19.7819C89.7045 18.7535 90.392 17.9523 91.2727 17.3785C92.1591 16.7989 93.1932 16.5091 94.375 16.5091C95.0568 16.5091 95.7301 16.6228 96.3949 16.8501C97.0597 17.0773 97.6648 17.4466 98.2102 17.958C98.7557 18.4637 99.1903 19.1341 99.5142 19.9694C99.8381 20.8046 100 21.833 100 23.0546V23.9069H89.9091V22.1682H97.9545C97.9545 21.4296 97.8068 20.7705 97.5114 20.191C97.2216 19.6114 96.8068 19.154 96.267 18.8188C95.733 18.4836 95.1023 18.316 94.375 18.316C93.5739 18.316 92.8807 18.5148 92.2955 18.9126C91.7159 19.3046 91.2699 19.816 90.9574 20.4466C90.6449 21.0773 90.4886 21.7535 90.4886 22.4751V23.6341C90.4886 24.6228 90.6591 25.4608 91 26.1483C91.3466 26.8302 91.8267 27.3501 92.4403 27.708C93.054 28.0603 93.767 28.2364 94.5795 28.2364C95.108 28.2364 95.5852 28.1626 96.0114 28.0148C96.4432 27.8614 96.8153 27.6341 97.1278 27.333C97.4403 27.0262 97.6818 26.6455 97.8523 26.191L99.7955 26.7364C99.5909 27.3955 99.2472 27.9751 98.7642 28.4751C98.2813 28.9694 97.6847 29.3557 96.9744 29.6341C96.2642 29.9069 95.4659 30.0432 94.5795 30.0432ZM105.284 29.7705L100.511 12.316H102.659L106.307 26.5319H106.477L110.193 12.316H112.58L116.295 26.5319H116.466L120.114 12.316H122.261L117.489 29.7705H115.307L111.455 15.8614H111.318L107.466 29.7705H105.284ZM127.256 30.0773C126.426 30.0773 125.673 29.9211 124.997 29.6086C124.321 29.2904 123.784 28.833 123.386 28.2364C122.989 27.6341 122.79 26.9069 122.79 26.0546C122.79 25.3046 122.938 24.6966 123.233 24.2307C123.528 23.7591 123.923 23.3898 124.418 23.1228C124.912 22.8557 125.457 22.6569 126.054 22.5262C126.656 22.3898 127.261 22.2819 127.869 22.2023C128.665 22.1001 129.31 22.0233 129.804 21.9722C130.304 21.9154 130.668 21.8216 130.895 21.691C131.128 21.5603 131.244 21.333 131.244 21.0091V20.941C131.244 20.1001 131.014 19.4466 130.554 18.9807C130.099 18.5148 129.409 18.2819 128.483 18.2819C127.523 18.2819 126.77 18.4921 126.224 18.9126C125.679 19.333 125.295 19.7819 125.074 20.2591L123.165 19.5773C123.506 18.7819 123.96 18.1626 124.528 17.7194C125.102 17.2705 125.727 16.958 126.403 16.7819C127.085 16.6001 127.756 16.5091 128.415 16.5091C128.835 16.5091 129.318 16.5603 129.864 16.6626C130.415 16.7591 130.946 16.9608 131.457 17.2677C131.974 17.5745 132.403 18.0376 132.744 18.6569C133.085 19.2762 133.256 20.1057 133.256 21.1455V29.7705H131.244V27.9978H131.142C131.006 28.2819 130.778 28.5858 130.46 28.9097C130.142 29.2336 129.719 29.5091 129.19 29.7364C128.662 29.9637 128.017 30.0773 127.256 30.0773ZM127.562 28.2705C128.358 28.2705 129.028 28.1143 129.574 27.8018C130.125 27.4893 130.54 27.0858 130.818 26.5915C131.102 26.0972 131.244 25.5773 131.244 25.0319V23.191C131.159 23.2932 130.972 23.387 130.682 23.4722C130.398 23.5518 130.068 23.6228 129.693 23.6853C129.324 23.7421 128.963 23.7932 128.611 23.8387C128.264 23.8785 127.983 23.9126 127.767 23.941C127.244 24.0091 126.756 24.1199 126.301 24.2733C125.852 24.4211 125.489 24.6455 125.21 24.9466C124.938 25.2421 124.801 25.6455 124.801 26.1569C124.801 26.8557 125.06 27.3841 125.577 27.7421C126.099 28.0944 126.761 28.2705 127.562 28.2705ZM138.938 12.316V29.7705H136.927V12.316H138.938ZM144.634 12.316V29.7705H142.622V12.316H144.634ZM153.806 30.0432C152.545 30.0432 151.457 29.7648 150.542 29.208C149.633 28.6455 148.931 27.8614 148.437 26.8557C147.948 25.8444 147.704 24.6682 147.704 23.3273C147.704 21.9864 147.948 20.8046 148.437 19.7819C148.931 18.7535 149.619 17.9523 150.499 17.3785C151.386 16.7989 152.42 16.5091 153.602 16.5091C154.283 16.5091 154.957 16.6228 155.621 16.8501C156.286 17.0773 156.891 17.4466 157.437 17.958C157.982 18.4637 158.417 19.1341 158.741 19.9694C159.065 20.8046 159.227 21.833 159.227 23.0546V23.9069H149.136V22.1682H157.181C157.181 21.4296 157.033 20.7705 156.738 20.191C156.448 19.6114 156.033 19.154 155.494 18.8188C154.96 18.4836 154.329 18.316 153.602 18.316C152.8 18.316 152.107 18.5148 151.522 18.9126C150.942 19.3046 150.496 19.816 150.184 20.4466C149.871 21.0773 149.715 21.7535 149.715 22.4751V23.6341C149.715 24.6228 149.886 25.4608 150.227 26.1483C150.573 26.8302 151.053 27.3501 151.667 27.708C152.281 28.0603 152.994 28.2364 153.806 28.2364C154.335 28.2364 154.812 28.1626 155.238 28.0148C155.67 27.8614 156.042 27.6341 156.354 27.333C156.667 27.0262 156.908 26.6455 157.079 26.191L159.022 26.7364C158.817 27.3955 158.474 27.9751 157.991 28.4751C157.508 28.9694 156.911 29.3557 156.201 29.6341C155.491 29.9069 154.692 30.0432 153.806 30.0432ZM167.979 16.6796V18.3841H161.195V16.6796H167.979ZM163.173 13.5432H165.184V26.0205C165.184 26.5887 165.266 27.0148 165.431 27.2989C165.602 27.5773 165.817 27.7648 166.079 27.8614C166.346 27.9523 166.627 27.9978 166.923 27.9978C167.144 27.9978 167.326 27.9864 167.468 27.9637C167.61 27.9353 167.724 27.9126 167.809 27.8955L168.218 29.7023C168.082 29.7535 167.891 29.8046 167.647 29.8557C167.403 29.9126 167.093 29.941 166.718 29.941C166.15 29.941 165.593 29.8188 165.048 29.5745C164.508 29.3302 164.059 28.958 163.701 28.458C163.349 27.958 163.173 27.3273 163.173 26.566V13.5432Z" fill="#272B38"/>
<defs>
<linearGradient id="paint0_linear_4166_443" x1="20.0571" y1="2.46666" x2="20.0571" y2="40.7678" gradientUnits="userSpaceOnUse">
<stop stop-color="#174697"/>
<stop offset="1" stop-color="#0C2550"/>
</linearGradient>
<linearGradient id="paint1_linear_4166_443" x1="20.0571" y1="9.2335" x2="20.0571" y2="38.384" gradientUnits="userSpaceOnUse">
<stop stop-color="#3F78DC"/>
<stop offset="1" stop-color="#2F5FB3"/>
</linearGradient>
<linearGradient id="paint2_linear_4166_443" x1="20.0571" y1="20.9616" x2="20.0571" y2="41.3542" gradientUnits="userSpaceOnUse">
<stop stop-color="#8BD7F9"/>
<stop offset="1" stop-color="#68BBE1"/>
</linearGradient>
<clipPath id="clip0_4166_443">
<path d="M0 4.77051C0 2.56137 1.79086 0.770508 4 0.770508H36C38.2091 0.770508 40 2.56137 40 4.77051V36.7705C40 38.9796 38.2091 40.7705 36 40.7705H4C1.79086 40.7705 0 38.9796 0 36.7705V4.77051Z" fill="white"/>
</clipPath>
</defs>
</svg>
