<svg width="101" height="41" viewBox="0 0 101 41" fill="none" xmlns="http://www.w3.org/2000/svg">
<g clip-path="url(#clip0_4166_427)">
<path d="M0 4.77051C0 2.56137 1.79086 0.770508 4 0.770508H36C38.2091 0.770508 40 2.56137 40 4.77051V36.7705C40 38.9796 38.2091 40.7705 36 40.7705H4C1.79086 40.7705 0 38.9796 0 36.7705V4.77051Z" fill="white"/>
<g clip-path="url(#clip1_4166_427)">
<path fill-rule="evenodd" clip-rule="evenodd" d="M0 20.7705V40.7705H40V0.770508H0V20.7705ZM22.565 6.81451C22.523 6.91151 22.241 7.49451 21.939 8.11051C21.637 8.72651 21.296 9.42851 21.18 9.67051C21.064 9.91251 20.776 10.5065 20.54 10.9905C20.304 11.4745 19.989 12.1225 19.84 12.4305C19.691 12.7385 19.394 13.3505 19.18 13.7905C18.284 15.6285 18.055 16.1005 17.779 16.6705C17.62 17.0005 17.316 17.6265 17.104 18.0625C16.892 18.4985 16.719 18.8605 16.719 18.8675C16.719 18.8745 16.984 18.8925 17.309 18.9055C17.633 18.9195 18.322 18.9485 18.839 18.9705C19.356 18.9925 20.481 19.0365 21.339 19.0685C24.118 19.1725 25.239 19.2245 25.239 19.2505C25.239 19.2645 24.983 19.3155 24.669 19.3655C24.356 19.4145 23.955 19.4815 23.779 19.5125C23.603 19.5445 23.063 19.6325 22.579 19.7095C22.095 19.7865 21.6 19.8675 21.479 19.8895C21.358 19.9115 20.926 19.9835 20.519 20.0485C19.144 20.2685 17.541 20.5305 17.199 20.5905C17.012 20.6235 16.526 20.7035 16.119 20.7685C15.712 20.8335 14.938 20.9595 14.399 21.0475C13.86 21.1355 12.915 21.2895 12.299 21.3885C11.683 21.4885 11.117 21.5805 11.042 21.5935L10.905 21.6165L10.978 21.5035C11.018 21.4415 11.153 21.2645 11.278 21.1105C11.403 20.9565 11.756 20.5065 12.064 20.1105C12.625 19.3885 13.703 18.0085 15.077 16.2505C15.481 15.7335 15.939 15.1485 16.093 14.9505C16.248 14.7525 16.565 14.3465 16.799 14.0485C17.033 13.7505 17.538 13.1025 17.923 12.6085C18.307 12.1145 18.819 11.4585 19.061 11.1505C19.701 10.3355 20.19 9.70951 20.438 9.39051C20.669 9.09251 21.101 8.54051 21.814 7.63051C22.055 7.32251 22.334 6.96651 22.432 6.84051C22.639 6.57451 22.671 6.56851 22.563 6.81451M29.16 20.0405C29.16 20.0575 29.074 20.1795 28.97 20.3125C27.895 21.6855 25.561 24.6705 25.19 25.1465C24.931 25.4785 24.544 25.9745 24.33 26.2475C24.115 26.5215 23.777 26.9535 23.577 27.2075C23.378 27.4625 22.695 28.3365 22.06 29.1505C21.425 29.9645 20.75 30.8285 20.56 31.0705C20.37 31.3125 20.059 31.7085 19.87 31.9505C17.878 34.4995 17.47 35.0145 17.454 34.9985C17.445 34.9895 17.53 34.7955 17.644 34.5665C17.757 34.3375 17.98 33.8805 18.14 33.5505C18.3 33.2205 18.614 32.5725 18.84 32.1105C19.066 31.6485 19.362 31.0365 19.5 30.7505C19.638 30.4645 19.908 29.9065 20.1 29.5105C20.292 29.1145 20.589 28.5025 20.76 28.1505C20.931 27.7985 21.236 27.1685 21.44 26.7505C21.643 26.3325 21.94 25.7205 22.1 25.3905C22.26 25.0605 22.593 24.3765 22.839 23.8705C23.405 22.7085 23.379 22.7755 23.269 22.7535C23.22 22.7435 22.658 22.7155 22.02 22.6915C19.813 22.6095 15.116 22.4245 14.86 22.4105C14.777 22.4055 14.946 22.3385 15.1 22.3155C15.265 22.2905 16.773 22.0465 18.48 21.7675C19.019 21.6795 19.793 21.5545 20.2 21.4885C20.607 21.4225 21.093 21.3425 21.28 21.3095C21.467 21.2765 22.016 21.1875 22.5 21.1105C22.984 21.0335 23.479 20.9525 23.6 20.9305C23.721 20.9085 24.153 20.8365 24.56 20.7715C26.445 20.4685 28.514 20.1265 29.13 20.0155C29.147 20.0125 29.16 20.0235 29.16 20.0405Z" fill="#EFBB30"/>
<path fill-rule="evenodd" clip-rule="evenodd" d="M22.4332 6.84048C22.3352 6.96648 22.0573 7.32248 21.8153 7.63048C21.1023 8.54048 20.6702 9.09248 20.4392 9.39048C20.1922 9.70948 19.7023 10.3355 19.0623 11.1505C18.8203 11.4585 18.3083 12.1145 17.9243 12.6085C17.5403 13.1025 17.0342 13.7505 16.8002 14.0485C16.5662 14.3465 16.2492 14.7525 16.0942 14.9505C15.9392 15.1485 15.4822 15.7335 15.0782 16.2505C13.7032 18.0085 12.6253 19.3885 12.0653 20.1105C11.7573 20.5065 11.4043 20.9565 11.2793 21.1105C11.1543 21.2645 11.0203 21.4415 10.9793 21.5035L10.9062 21.6165L11.0433 21.5935C11.1183 21.5805 11.6843 21.4885 12.3003 21.3885C12.9163 21.2885 13.8612 21.1345 14.4002 21.0475C14.9392 20.9595 15.7133 20.8345 16.1203 20.7685C16.5273 20.7035 17.0132 20.6225 17.2002 20.5905C17.5422 20.5305 19.1453 20.2695 20.5203 20.0485C20.9273 19.9835 21.3592 19.9115 21.4802 19.8895C21.6012 19.8675 22.0962 19.7865 22.5802 19.7095C23.0642 19.6325 23.6042 19.5445 23.7802 19.5125C23.9562 19.4815 24.3563 19.4145 24.6703 19.3655C24.9843 19.3165 25.2402 19.2645 25.2402 19.2505C25.2402 19.2245 24.1193 19.1725 21.3403 19.0685C20.4823 19.0365 19.3573 18.9925 18.8403 18.9705C18.3233 18.9485 17.6353 18.9195 17.3103 18.9055C16.9853 18.8915 16.7203 18.8745 16.7203 18.8675C16.7203 18.8605 16.8932 18.4975 17.1052 18.0625C17.3172 17.6265 17.6202 17.0005 17.7802 16.6705C18.0562 16.1005 18.2853 15.6285 19.1813 13.7905C19.3953 13.3505 19.6932 12.7385 19.8412 12.4305C19.9902 12.1225 20.3042 11.4745 20.5412 10.9905C20.7772 10.5065 21.0653 9.91248 21.1813 9.67048C21.2973 9.42848 21.6393 8.72648 21.9403 8.11048C22.7273 6.50448 22.7583 6.42448 22.4353 6.84048M28.3392 20.1515C27.6002 20.2785 26.0633 20.5305 24.5593 20.7715C24.1523 20.8365 23.7203 20.9085 23.5993 20.9305C23.4783 20.9525 22.9833 21.0335 22.4993 21.1105C22.0153 21.1875 21.4663 21.2775 21.2793 21.3095C21.0923 21.3425 20.6063 21.4225 20.1993 21.4885C19.7923 21.5545 19.0183 21.6795 18.4793 21.7675C16.7723 22.0465 15.2643 22.2905 15.0993 22.3155C14.9453 22.3385 14.7763 22.4055 14.8593 22.4105C15.1153 22.4255 19.8112 22.6095 22.0192 22.6915C22.6572 22.7155 23.2193 22.7435 23.2683 22.7535C23.3793 22.7765 23.4053 22.7085 22.8383 23.8705C22.5923 24.3765 22.2593 25.0605 22.0993 25.3905C21.9393 25.7205 21.6422 26.3325 21.4392 26.7505C21.2362 27.1685 20.9303 27.7985 20.7593 28.1505C20.5883 28.5025 20.2913 29.1145 20.0993 29.5105C19.9073 29.9065 19.6373 30.4645 19.4993 30.7505C19.3613 31.0365 19.0642 31.6485 18.8392 32.1105C18.6142 32.5725 18.2992 33.2205 18.1392 33.5505C17.9792 33.8805 17.7563 34.3375 17.6433 34.5665C17.5303 34.7955 17.4442 34.9895 17.4532 34.9985C17.4692 35.0145 17.8772 34.4995 19.8692 31.9505C20.0582 31.7085 20.3693 31.3125 20.5593 31.0705C20.7493 30.8285 21.4243 29.9645 22.0593 29.1505C22.6943 28.3365 23.3773 27.4625 23.5763 27.2075C23.7763 26.9535 24.1143 26.5215 24.3293 26.2475C24.5433 25.9735 24.9302 25.4785 25.1892 25.1465C25.5592 24.6705 27.8933 21.6855 28.9693 20.3125C29.1523 20.0785 29.1922 20.0045 29.1292 20.0155C29.1132 20.0185 28.7572 20.0795 28.3392 20.1515Z" fill="#FCFBFB"/>
</g>
</g>
<path d="M54.1136 29.7705V12.316H60.2159C61.4318 12.316 62.4347 12.5262 63.2244 12.9466C64.0142 13.3614 64.6023 13.9211 64.9886 14.6256C65.375 15.3245 65.5682 16.1001 65.5682 16.9523C65.5682 17.7023 65.4347 18.3216 65.1676 18.8103C64.9063 19.2989 64.5597 19.6853 64.1278 19.9694C63.7017 20.2535 63.2386 20.4637 62.7386 20.6001V20.7705C63.2727 20.8046 63.8097 20.9921 64.3494 21.333C64.8892 21.6739 65.3409 22.1626 65.7045 22.7989C66.0682 23.4353 66.25 24.2137 66.25 25.1341C66.25 26.0091 66.0511 26.7961 65.6534 27.4949C65.2557 28.1938 64.6278 28.7478 63.7699 29.1569C62.9119 29.566 61.7955 29.7705 60.4205 29.7705H54.1136ZM56.2273 27.8955H60.4205C61.8011 27.8955 62.7813 27.6285 63.3608 27.0944C63.946 26.5546 64.2386 25.9012 64.2386 25.1341C64.2386 24.5432 64.0881 23.9978 63.7869 23.4978C63.4858 22.9921 63.0568 22.5887 62.5 22.2876C61.9432 21.9807 61.2841 21.8273 60.5227 21.8273H56.2273V27.8955ZM56.2273 19.9864H60.1477C60.7841 19.9864 61.358 19.8614 61.8693 19.6114C62.3864 19.3614 62.7955 19.0091 63.0966 18.5546C63.4034 18.1001 63.5568 17.566 63.5568 16.9523C63.5568 16.1853 63.2898 15.5347 62.7557 15.0006C62.2216 14.4608 61.375 14.191 60.2159 14.191H56.2273V19.9864ZM71.4616 12.316V29.7705H69.4503V12.316H71.4616ZM75.1456 29.7705V16.6796H77.157V29.7705H75.1456ZM76.1683 14.4978C75.7763 14.4978 75.4382 14.3643 75.1541 14.0972C74.8757 13.8302 74.7365 13.5091 74.7365 13.1341C74.7365 12.7591 74.8757 12.4381 75.1541 12.1711C75.4382 11.904 75.7763 11.7705 76.1683 11.7705C76.5604 11.7705 76.8956 11.904 77.174 12.1711C77.4581 12.4381 77.6001 12.7591 77.6001 13.1341C77.6001 13.5091 77.4581 13.8302 77.174 14.0972C76.8956 14.3643 76.5604 14.4978 76.1683 14.4978ZM82.3409 16.6796L85.4773 22.0319L88.6136 16.6796H90.9318L86.7045 23.2251L90.9318 29.7705H88.6136L85.4773 24.691L82.3409 29.7705H80.0227L84.1818 23.2251L80.0227 16.6796H82.3409ZM99.495 16.6796V18.3841H92.7109V16.6796H99.495ZM94.6882 13.5432H96.6996V26.0205C96.6996 26.5887 96.782 27.0148 96.9467 27.2989C97.1172 27.5773 97.3331 27.7648 97.5945 27.8614C97.8615 27.9523 98.1428 27.9978 98.4382 27.9978C98.6598 27.9978 98.8416 27.9864 98.9837 27.9637C99.1257 27.9353 99.2393 27.9126 99.3246 27.8955L99.7337 29.7023C99.5973 29.7535 99.407 29.8046 99.1626 29.8557C98.9183 29.9126 98.6087 29.941 98.2337 29.941C97.6655 29.941 97.1087 29.8188 96.5632 29.5745C96.0234 29.3302 95.5746 28.958 95.2166 28.458C94.8643 27.958 94.6882 27.3273 94.6882 26.566V13.5432Z" fill="#272B38"/>
<defs>
<clipPath id="clip0_4166_427">
<path d="M0 4.77051C0 2.56137 1.79086 0.770508 4 0.770508H36C38.2091 0.770508 40 2.56137 40 4.77051V36.7705C40 38.9796 38.2091 40.7705 36 40.7705H4C1.79086 40.7705 0 38.9796 0 36.7705V4.77051Z" fill="white"/>
</clipPath>
<clipPath id="clip1_4166_427">
<rect width="40" height="40" fill="white" transform="translate(0 0.770508)"/>
</clipPath>
</defs>
</svg>
