<svg xmlns="http://www.w3.org/2000/svg" width="42" height="43" fill="none"><g clip-path="url(#a)"><path fill="#fff" d="M0 4.667a4 4 0 0 1 4-4h34a4 4 0 0 1 4 4v34a4 4 0 0 1-4 4H4a4 4 0 0 1-4-4z"/><path fill="#E95353" d="M0 .667h42v42H0z"/><path fill="#fff" d="M35.766 20.668c0-1.856 0-2.784-.577-3.36s-1.505-.577-3.36-.577h-1.956c-1.856 0-2.784 0-3.36-.577s-.577-1.505-.577-3.36v-1.956c0-1.856 0-2.784-.577-3.36C24.783 6.9 23.855 6.9 22 6.9h-1.997c-1.857 0-2.785 0-3.361.577-.577.576-.577 1.504-.577 3.36v1.955c0 1.856 0 2.784-.577 3.361-.576.577-1.504.577-3.36.577h-1.955c-1.856 0-2.784 0-3.361.576-.577.577-.577 1.505-.577 3.361v1.997c0 1.856 0 2.784.577 3.36.577.578 1.505.578 3.36.578h1.956c1.856 0 2.784 0 3.36.576.577.577.577 1.505.577 3.361v1.955c0 1.856 0 2.784.577 3.36.576.577 1.504.577 3.36.577h1.997c1.857 0 2.785 0 3.361-.576.577-.577.577-1.505.577-3.361V30.54c0-1.856 0-2.784.577-3.36.576-.577 1.504-.577 3.36-.577h1.955c1.856 0 2.784 0 3.361-.577s.577-1.505.577-3.36zm-13.81-3.895c1.856 0 2.785 0 3.361.576.577.577.577 1.505.577 3.361v1.913c0 1.856 0 2.784-.577 3.36-.576.577-1.505.577-3.36.577h-1.913c-1.856 0-2.785 0-3.361-.576-.577-.577-.577-1.505-.577-3.361V20.71c0-1.856 0-2.784.577-3.36.576-.577 1.505-.577 3.36-.577z"/></g><defs><clipPath id="a"><path fill="#fff" d="M0 4.667a4 4 0 0 1 4-4h34a4 4 0 0 1 4 4v34a4 4 0 0 1-4 4H4a4 4 0 0 1-4-4z"/></clipPath></defs></svg>