<svg width="233" height="41" viewBox="0 0 233 41" fill="none" xmlns="http://www.w3.org/2000/svg">
<g clip-path="url(#clip0_4166_554)">
<path d="M0 4.77051C0 2.56137 1.79086 0.770508 4 0.770508H36C38.2091 0.770508 40 2.56137 40 4.77051V36.7705C40 38.9796 38.2091 40.7705 36 40.7705H4C1.79086 40.7705 0 38.9796 0 36.7705V4.77051Z" fill="white"/>
<rect y="0.770508" width="40" height="40" fill="#072440"/>
<g clip-path="url(#clip1_4166_554)">
<path d="M24.128 29.68C29.2232 29.68 33.3537 25.5501 33.3537 20.4555C33.3537 15.3609 29.2232 11.231 24.128 11.231C19.0328 11.231 14.9023 15.3609 14.9023 20.4555C14.9023 25.5501 19.0328 29.68 24.128 29.68Z" fill="url(#paint0_linear_4166_554)"/>
<path d="M16.7765 30.9196C22.383 30.9196 26.928 26.3756 26.928 20.7703C26.928 15.1651 22.383 10.6211 16.7765 10.6211C11.17 10.6211 6.625 15.1651 6.625 20.7703C6.625 26.3756 11.17 30.9196 16.7765 30.9196Z" fill="url(#paint1_linear_4166_554)"/>
<path d="M18.7078 16.7368L19.1454 14.9494L18.0527 14.6438L17.6151 16.4312C17.3095 16.3444 17.0479 16.3004 16.6972 16.2136L17.1347 14.4262L16.042 14.1646L15.6044 15.9959C15.3417 15.9519 15.1229 15.8651 14.9053 15.8211L13.419 15.4727L13.1133 16.65L13.9445 16.8676C14.382 16.9984 14.4688 17.2601 14.4688 17.5217L13.2442 22.4926C13.1573 22.6234 13.0265 22.7982 12.7198 22.7542L11.8887 22.5366L11.3203 23.8007L12.7626 24.1492L13.5486 24.3668L13.1111 26.1982L14.2038 26.5038L14.6414 24.6724C14.947 24.7592 15.2097 24.8472 15.5593 24.934L15.1669 26.7214L16.2596 27.027L16.6972 25.1957C18.577 25.5441 20.0194 25.4133 20.6306 23.6699C21.1121 22.2749 20.5866 21.5329 19.6247 20.9657C20.3689 20.7909 20.8922 20.3116 21.067 19.3519C21.1549 17.913 20.1062 17.171 18.7067 16.7357L18.7078 16.7368ZM18.4022 22.7982C18.0966 24.1931 15.7352 23.4083 14.9921 23.2346L15.6044 20.792C16.3476 21.0097 18.7507 21.3592 18.4011 22.7982H18.4022ZM18.7518 19.2223C18.4462 20.4864 16.5235 19.8323 15.9112 19.6587L16.4795 17.4777C17.0479 17.6085 19.0574 17.9141 18.7518 19.2223Z" fill="url(#paint2_linear_4166_554)"/>
</g>
</g>
<path d="M54.1136 29.7705V12.316H60.2159C61.4318 12.316 62.4347 12.5262 63.2244 12.9466C64.0142 13.3614 64.6023 13.9211 64.9886 14.6256C65.375 15.3245 65.5682 16.1001 65.5682 16.9523C65.5682 17.7023 65.4347 18.3216 65.1676 18.8103C64.9063 19.2989 64.5597 19.6853 64.1278 19.9694C63.7017 20.2535 63.2386 20.4637 62.7386 20.6001V20.7705C63.2727 20.8046 63.8097 20.9921 64.3494 21.333C64.8892 21.6739 65.3409 22.1626 65.7045 22.7989C66.0682 23.4353 66.25 24.2137 66.25 25.1341C66.25 26.0091 66.0511 26.7961 65.6534 27.4949C65.2557 28.1938 64.6278 28.7478 63.7699 29.1569C62.9119 29.566 61.7955 29.7705 60.4205 29.7705H54.1136ZM56.2273 27.8955H60.4205C61.8011 27.8955 62.7813 27.6285 63.3608 27.0944C63.946 26.5546 64.2386 25.9012 64.2386 25.1341C64.2386 24.5432 64.0881 23.9978 63.7869 23.4978C63.4858 22.9921 63.0568 22.5887 62.5 22.2876C61.9432 21.9807 61.2841 21.8273 60.5227 21.8273H56.2273V27.8955ZM56.2273 19.9864H60.1477C60.7841 19.9864 61.358 19.8614 61.8693 19.6114C62.3864 19.3614 62.7955 19.0091 63.0966 18.5546C63.4034 18.1001 63.5568 17.566 63.5568 16.9523C63.5568 16.1853 63.2898 15.5347 62.7557 15.0006C62.2216 14.4608 61.375 14.191 60.2159 14.191H56.2273V19.9864ZM68.7685 14.191V12.316H81.8594V14.191H76.3707V29.7705H74.2571V14.191H68.7685ZM98.4403 17.7705H96.3267C96.2017 17.1626 95.983 16.6285 95.6705 16.1682C95.3636 15.708 94.9886 15.3216 94.5455 15.0091C94.108 14.691 93.6222 14.4523 93.0881 14.2932C92.554 14.1341 91.9972 14.0546 91.4176 14.0546C90.3608 14.0546 89.4034 14.3216 88.5455 14.8557C87.6932 15.3898 87.0142 16.1768 86.5085 17.2165C86.0085 18.2563 85.7585 19.5319 85.7585 21.0432C85.7585 22.5546 86.0085 23.8302 86.5085 24.8699C87.0142 25.9097 87.6932 26.6966 88.5455 27.2307C89.4034 27.7648 90.3608 28.0319 91.4176 28.0319C91.9972 28.0319 92.554 27.9523 93.0881 27.7932C93.6222 27.6341 94.108 27.3983 94.5455 27.0858C94.9886 26.7677 95.3636 26.3785 95.6705 25.9182C95.983 25.4523 96.2017 24.9182 96.3267 24.316H98.4403C98.2813 25.208 97.9915 26.0063 97.571 26.7108C97.1506 27.4154 96.6278 28.0148 96.0028 28.5091C95.3778 28.9978 94.6761 29.3699 93.8977 29.6256C93.125 29.8813 92.2983 30.0091 91.4176 30.0091C89.929 30.0091 88.6051 29.6455 87.446 28.9182C86.2869 28.191 85.375 27.1569 84.7102 25.816C84.0455 24.4751 83.7131 22.8841 83.7131 21.0432C83.7131 19.2023 84.0455 17.6114 84.7102 16.2705C85.375 14.9296 86.2869 13.8955 87.446 13.1682C88.6051 12.441 89.929 12.0773 91.4176 12.0773C92.2983 12.0773 93.125 12.2052 93.8977 12.4608C94.6761 12.7165 95.3778 13.0915 96.0028 13.5858C96.6278 14.0745 97.1506 14.6711 97.571 15.3756C97.9915 16.0745 98.2813 16.8728 98.4403 17.7705ZM107.651 14.191V12.316H120.742V14.191H115.254V29.7705H113.14V14.191H107.651ZM125.803 30.0773C124.973 30.0773 124.22 29.9211 123.544 29.6086C122.868 29.2904 122.331 28.833 121.933 28.2364C121.536 27.6341 121.337 26.9069 121.337 26.0546C121.337 25.3046 121.484 24.6966 121.78 24.2307C122.075 23.7591 122.47 23.3898 122.964 23.1228C123.459 22.8557 124.004 22.6569 124.601 22.5262C125.203 22.3898 125.808 22.2819 126.416 22.2023C127.212 22.1001 127.857 22.0233 128.351 21.9722C128.851 21.9154 129.214 21.8216 129.442 21.691C129.675 21.5603 129.791 21.333 129.791 21.0091V20.941C129.791 20.1001 129.561 19.4466 129.101 18.9807C128.646 18.5148 127.956 18.2819 127.03 18.2819C126.07 18.2819 125.317 18.4921 124.771 18.9126C124.226 19.333 123.842 19.7819 123.621 20.2591L121.712 19.5773C122.053 18.7819 122.507 18.1626 123.075 17.7194C123.649 17.2705 124.274 16.958 124.95 16.7819C125.632 16.6001 126.303 16.5091 126.962 16.5091C127.382 16.5091 127.865 16.5603 128.411 16.6626C128.962 16.7591 129.493 16.9608 130.004 17.2677C130.521 17.5745 130.95 18.0376 131.291 18.6569C131.632 19.2762 131.803 20.1057 131.803 21.1455V29.7705H129.791V27.9978H129.689C129.553 28.2819 129.325 28.5858 129.007 28.9097C128.689 29.2336 128.266 29.5091 127.737 29.7364C127.209 29.9637 126.564 30.0773 125.803 30.0773ZM126.109 28.2705C126.905 28.2705 127.575 28.1143 128.121 27.8018C128.672 27.4893 129.087 27.0858 129.365 26.5915C129.649 26.0972 129.791 25.5773 129.791 25.0319V23.191C129.706 23.2932 129.518 23.387 129.229 23.4722C128.945 23.5518 128.615 23.6228 128.24 23.6853C127.871 23.7421 127.51 23.7932 127.158 23.8387C126.811 23.8785 126.53 23.9126 126.314 23.941C125.791 24.0091 125.303 24.1199 124.848 24.2733C124.399 24.4211 124.036 24.6455 123.757 24.9466C123.484 25.2421 123.348 25.6455 123.348 26.1569C123.348 26.8557 123.607 27.3841 124.124 27.7421C124.646 28.0944 125.308 28.2705 126.109 28.2705ZM135.474 29.7705V16.6796H137.417V18.6569H137.553C137.792 18.0091 138.224 17.4836 138.849 17.0802C139.474 16.6768 140.178 16.4751 140.962 16.4751C141.11 16.4751 141.295 16.4779 141.516 16.4836C141.738 16.4893 141.906 16.4978 142.019 16.5091V18.5546C141.951 18.5376 141.795 18.512 141.55 18.4779C141.312 18.4381 141.059 18.4182 140.792 18.4182C140.156 18.4182 139.587 18.5518 139.087 18.8188C138.593 19.0802 138.201 19.4438 137.911 19.9097C137.627 20.3699 137.485 20.8955 137.485 21.4864V29.7705H135.474ZM149.323 30.0432C148.141 30.0432 147.104 29.762 146.212 29.1995C145.326 28.637 144.633 27.8501 144.133 26.8387C143.638 25.8273 143.391 24.6455 143.391 23.2932C143.391 21.9296 143.638 20.7393 144.133 19.7222C144.633 18.7052 145.326 17.9154 146.212 17.3529C147.104 16.7904 148.141 16.5091 149.323 16.5091C150.505 16.5091 151.539 16.7904 152.425 17.3529C153.317 17.9154 154.011 18.7052 154.505 19.7222C155.005 20.7393 155.255 21.9296 155.255 23.2932C155.255 24.6455 155.005 25.8273 154.505 26.8387C154.011 27.8501 153.317 28.637 152.425 29.1995C151.539 29.762 150.505 30.0432 149.323 30.0432ZM149.323 28.2364C150.221 28.2364 150.96 28.0063 151.539 27.5461C152.119 27.0858 152.548 26.4807 152.826 25.7307C153.104 24.9807 153.244 24.1682 153.244 23.2932C153.244 22.4182 153.104 21.6029 152.826 20.8472C152.548 20.0915 152.119 19.4807 151.539 19.0148C150.96 18.5489 150.221 18.316 149.323 18.316C148.425 18.316 147.687 18.5489 147.107 19.0148C146.528 19.4807 146.099 20.0915 145.82 20.8472C145.542 21.6029 145.403 22.4182 145.403 23.2932C145.403 24.1682 145.542 24.9807 145.82 25.7307C146.099 26.4807 146.528 27.0858 147.107 27.5461C147.687 28.0063 148.425 28.2364 149.323 28.2364ZM168.518 29.7705L163.746 12.316H165.893L169.541 26.5319H169.712L173.428 12.316H175.814L179.53 26.5319H179.7L183.348 12.316H185.496L180.723 29.7705H178.541L174.689 15.8614H174.553L170.7 29.7705H168.518ZM190.49 30.0773C189.661 30.0773 188.908 29.9211 188.232 29.6086C187.555 29.2904 187.018 28.833 186.621 28.2364C186.223 27.6341 186.024 26.9069 186.024 26.0546C186.024 25.3046 186.172 24.6966 186.467 24.2307C186.763 23.7591 187.158 23.3898 187.652 23.1228C188.146 22.8557 188.692 22.6569 189.288 22.5262C189.891 22.3898 190.496 22.2819 191.104 22.2023C191.899 22.1001 192.544 22.0233 193.038 21.9722C193.538 21.9154 193.902 21.8216 194.129 21.691C194.362 21.5603 194.479 21.333 194.479 21.0091V20.941C194.479 20.1001 194.249 19.4466 193.788 18.9807C193.334 18.5148 192.643 18.2819 191.717 18.2819C190.757 18.2819 190.004 18.4921 189.459 18.9126C188.913 19.333 188.53 19.7819 188.308 20.2591L186.399 19.5773C186.74 18.7819 187.195 18.1626 187.763 17.7194C188.337 17.2705 188.962 16.958 189.638 16.7819C190.32 16.6001 190.99 16.5091 191.649 16.5091C192.07 16.5091 192.553 16.5603 193.098 16.6626C193.649 16.7591 194.18 16.9608 194.692 17.2677C195.209 17.5745 195.638 18.0376 195.979 18.6569C196.32 19.2762 196.49 20.1057 196.49 21.1455V29.7705H194.479V27.9978H194.376C194.24 28.2819 194.013 28.5858 193.695 28.9097C193.376 29.2336 192.953 29.5091 192.425 29.7364C191.896 29.9637 191.251 30.0773 190.49 30.0773ZM190.797 28.2705C191.592 28.2705 192.263 28.1143 192.808 27.8018C193.359 27.4893 193.774 27.0858 194.053 26.5915C194.337 26.0972 194.479 25.5773 194.479 25.0319V23.191C194.393 23.2932 194.206 23.387 193.916 23.4722C193.632 23.5518 193.303 23.6228 192.928 23.6853C192.558 23.7421 192.197 23.7932 191.845 23.8387C191.499 23.8785 191.217 23.9126 191.001 23.941C190.479 24.0091 189.99 24.1199 189.536 24.2733C189.087 24.4211 188.723 24.6455 188.445 24.9466C188.172 25.2421 188.036 25.6455 188.036 26.1569C188.036 26.8557 188.294 27.3841 188.811 27.7421C189.334 28.0944 189.996 28.2705 190.797 28.2705ZM202.173 12.316V29.7705H200.161V12.316H202.173ZM207.868 12.316V29.7705H205.857V12.316H207.868ZM217.04 30.0432C215.779 30.0432 214.691 29.7648 213.776 29.208C212.867 28.6455 212.165 27.8614 211.671 26.8557C211.183 25.8444 210.938 24.6682 210.938 23.3273C210.938 21.9864 211.183 20.8046 211.671 19.7819C212.165 18.7535 212.853 17.9523 213.734 17.3785C214.62 16.7989 215.654 16.5091 216.836 16.5091C217.518 16.5091 218.191 16.6228 218.856 16.8501C219.521 17.0773 220.126 17.4466 220.671 17.958C221.217 18.4637 221.651 19.1341 221.975 19.9694C222.299 20.8046 222.461 21.833 222.461 23.0546V23.9069H212.37V22.1682H220.415C220.415 21.4296 220.268 20.7705 219.972 20.191C219.683 19.6114 219.268 19.154 218.728 18.8188C218.194 18.4836 217.563 18.316 216.836 18.316C216.035 18.316 215.342 18.5148 214.756 18.9126C214.177 19.3046 213.731 19.816 213.418 20.4466C213.106 21.0773 212.95 21.7535 212.95 22.4751V23.6341C212.95 24.6228 213.12 25.4608 213.461 26.1483C213.808 26.8302 214.288 27.3501 214.901 27.708C215.515 28.0603 216.228 28.2364 217.04 28.2364C217.569 28.2364 218.046 28.1626 218.472 28.0148C218.904 27.8614 219.276 27.6341 219.589 27.333C219.901 27.0262 220.143 26.6455 220.313 26.191L222.256 26.7364C222.052 27.3955 221.708 27.9751 221.225 28.4751C220.742 28.9694 220.146 29.3557 219.435 29.6341C218.725 29.9069 217.927 30.0432 217.04 30.0432ZM231.214 16.6796V18.3841H224.43V16.6796H231.214ZM226.407 13.5432H228.418V26.0205C228.418 26.5887 228.501 27.0148 228.665 27.2989C228.836 27.5773 229.052 27.7648 229.313 27.8614C229.58 27.9523 229.862 27.9978 230.157 27.9978C230.379 27.9978 230.56 27.9864 230.702 27.9637C230.844 27.9353 230.958 27.9126 231.043 27.8955L231.452 29.7023C231.316 29.7535 231.126 29.8046 230.881 29.8557C230.637 29.9126 230.327 29.941 229.952 29.941C229.384 29.941 228.827 29.8188 228.282 29.5745C227.742 29.3302 227.293 28.958 226.935 28.458C226.583 27.958 226.407 27.3273 226.407 26.566V13.5432Z" fill="#272B38"/>
<defs>
<linearGradient id="paint0_linear_4166_554" x1="31.8977" y1="16.4414" x2="15.4973" y2="24.899" gradientUnits="userSpaceOnUse">
<stop stop-color="#F5516C"/>
<stop offset="0.12" stop-color="#BA4561"/>
<stop offset="0.24" stop-color="#873C57"/>
<stop offset="0.35" stop-color="#603450"/>
<stop offset="0.45" stop-color="#442F4B"/>
<stop offset="0.54" stop-color="#332C48"/>
<stop offset="0.61" stop-color="#2D2B47"/>
</linearGradient>
<linearGradient id="paint1_linear_4166_554" x1="22.9676" y1="13.3918" x2="9.91787" y2="28.9428" gradientUnits="userSpaceOnUse">
<stop offset="0.12" stop-color="#F5516C"/>
<stop offset="0.36" stop-color="#CC4964"/>
<stop offset="0.8" stop-color="#863C57"/>
<stop offset="1" stop-color="#6B3753"/>
</linearGradient>
<linearGradient id="paint2_linear_4166_554" x1="20.2539" y1="15.8786" x2="12.2213" y2="25.4516" gradientUnits="userSpaceOnUse">
<stop offset="0.5" stop-color="white"/>
<stop offset="1" stop-color="#9AA5B8"/>
</linearGradient>
<clipPath id="clip0_4166_554">
<path d="M0 4.77051C0 2.56137 1.79086 0.770508 4 0.770508H36C38.2091 0.770508 40 2.56137 40 4.77051V36.7705C40 38.9796 38.2091 40.7705 36 40.7705H4C1.79086 40.7705 0 38.9796 0 36.7705V4.77051Z" fill="white"/>
</clipPath>
<clipPath id="clip1_4166_554">
<rect width="26.7463" height="20.2985" fill="white" transform="translate(6.625 10.6211)"/>
</clipPath>
</defs>
</svg>
