<svg width="148" height="40" viewBox="0 0 148 40" fill="none" xmlns="http://www.w3.org/2000/svg">
<path d="M0.978577 1.28241H13.6911V5.14079H5.16034V8.99916H13.0555V12.8575H5.16034V20.2509H0.978577V1.28241Z" fill="#272B38"/>
<path d="M15.3973 7.22609H19.4118V9.3114H19.4676C19.8913 8.5085 20.4043 7.90633 20.9953 7.50488C21.5863 7.10343 22.3223 6.9027 23.2144 6.9027C23.4486 6.9027 23.6828 6.9027 23.9058 6.92501C24.14 6.94731 24.3519 6.98076 24.5526 7.03652V10.7053C24.2627 10.6161 23.9839 10.5492 23.7051 10.5046C23.4263 10.46 23.1364 10.4377 22.8353 10.4377C22.0658 10.4377 21.4637 10.5492 21.0176 10.7611C20.5715 10.973 20.2259 11.274 19.9917 11.6532C19.7463 12.0323 19.5902 12.5007 19.5233 13.036C19.4564 13.5712 19.4118 14.1623 19.4118 14.7979V20.2286H15.3973V7.22609Z" fill="#272B38"/>
<path d="M34.1985 18.6117H34.1428C33.6967 19.303 33.1057 19.8049 32.3586 20.1059C31.6114 20.407 30.842 20.5631 30.0168 20.5631C29.4146 20.5631 28.8236 20.4739 28.266 20.3067C27.7084 20.1394 27.2066 19.8829 26.7829 19.5484C26.3591 19.2138 26.0134 18.7901 25.7681 18.2883C25.5228 17.7865 25.3889 17.2066 25.3889 16.5486C25.3889 15.8015 25.5228 15.1659 25.8015 14.6529C26.0803 14.14 26.4483 13.705 26.9278 13.3705C27.3962 13.036 27.9426 12.7683 28.5448 12.5788C29.147 12.3892 29.7826 12.2554 30.4294 12.1662C31.0761 12.0769 31.7341 12.0212 32.3809 12.01C33.0276 11.9877 33.6298 11.9877 34.1874 11.9877C34.1874 11.274 33.9309 10.7053 33.4291 10.2927C32.9161 9.86897 32.314 9.66825 31.6226 9.66825C30.9646 9.66825 30.3625 9.80206 29.816 10.0808C29.2696 10.3596 28.7901 10.7388 28.3552 11.2183L26.2141 9.02147C26.9613 8.33008 27.8422 7.80597 28.8347 7.46027C29.8383 7.11458 30.8643 6.93616 31.946 6.93616C33.128 6.93616 34.087 7.08113 34.8565 7.38221C35.6148 7.67215 36.2169 8.10705 36.6741 8.67577C37.1313 9.24449 37.4436 9.94703 37.622 10.7722C37.8004 11.5974 37.8896 12.5565 37.8896 13.6493V20.2621H34.1985V18.6117ZM33.2061 14.5414C32.905 14.5414 32.5258 14.5526 32.0686 14.586C31.6114 14.6195 31.1765 14.6864 30.7528 14.809C30.329 14.9317 29.9722 15.1213 29.6822 15.3666C29.3923 15.6119 29.2362 15.9688 29.2362 16.4148C29.2362 16.8943 29.4369 17.2512 29.8495 17.4854C30.2621 17.7195 30.6859 17.8311 31.1319 17.8311C31.5222 17.8311 31.9014 17.7753 32.2693 17.6749C32.6373 17.5634 32.9607 17.4185 33.2507 17.2177C33.5406 17.017 33.7636 16.7717 33.9309 16.4706C34.0982 16.1695 34.1874 15.8127 34.1874 15.4001V14.5414H33.1949H33.2061Z" fill="#272B38"/>
<path d="M40.6106 7.22609H44.469V8.98801H44.5247C44.6474 8.74268 44.8258 8.4862 45.06 8.24087C45.2942 7.99554 45.5729 7.77251 45.8852 7.57179C46.2086 7.37106 46.5766 7.21494 46.978 7.09228C47.3906 6.96961 47.8367 6.9027 48.3162 6.9027C49.331 6.9027 50.1562 7.05882 50.7806 7.37106C51.4051 7.6833 51.8958 8.11821 52.2415 8.66462C52.5872 9.21104 52.8213 9.86897 52.9552 10.6161C53.0778 11.3633 53.1447 12.1773 53.1447 13.0471V20.2175H49.1302V13.85C49.1302 13.4709 49.1191 13.0917 49.0856 12.6903C49.0633 12.2888 48.9741 11.9208 48.8403 11.5751C48.7065 11.2406 48.5058 10.9618 48.227 10.7499C47.9482 10.5381 47.5579 10.4265 47.0338 10.4265C46.5097 10.4265 46.0971 10.5158 45.7737 10.7053C45.4503 10.8949 45.2049 11.1402 45.0377 11.4525C44.8704 11.7647 44.7589 12.1216 44.7031 12.5118C44.6474 12.9021 44.6251 13.3147 44.6251 13.7385V20.2175H40.6106V7.22609Z" fill="#272B38"/>
<path d="M60.0251 0V12.3669L64.4634 7.22609H69.3923L64.2292 13.0917L69.5261 20.2398H64.4634L60.0697 13.6493H60.014V20.2398H55.9995V0H60.0251Z" fill="#272B38"/>
<path d="M82.4394 17.9983C81.7926 18.8235 80.9897 19.448 80.0084 19.8941C79.0271 20.3401 78.0123 20.5631 76.9529 20.5631C75.8935 20.5631 75.0126 20.407 74.1316 20.0836C73.2507 19.7602 72.4812 19.303 71.8233 18.7009C71.1654 18.0987 70.6636 17.385 70.2844 16.5486C69.9053 15.7123 69.7268 14.7756 69.7268 13.7385C69.7268 12.7014 69.9164 11.7647 70.2844 10.9284C70.6636 10.092 71.1765 9.36716 71.8233 8.77614C72.4701 8.17396 73.2395 7.71676 74.1316 7.39337C75.0126 7.06998 75.9604 6.91386 76.9529 6.91386C77.8785 6.91386 78.726 7.06998 79.4843 7.39337C80.2426 7.71676 80.8894 8.17396 81.4135 8.77614C81.9376 9.37831 82.3502 10.092 82.629 10.9284C82.9189 11.7647 83.0527 12.7014 83.0527 13.7385V14.9986H73.7302C73.8863 15.7681 74.2431 16.3814 74.7784 16.8274C75.3137 17.2846 75.9716 17.5077 76.7634 17.5077C77.4213 17.5077 77.9789 17.3627 78.4361 17.0616C78.8933 16.7717 79.2836 16.3925 79.6293 15.9242L82.4394 17.9872V17.9983ZM79.0382 12.2665C79.0605 11.5863 78.8375 11.0064 78.3691 10.5269C77.9008 10.0474 77.3098 9.80206 76.5738 9.80206C76.1277 9.80206 75.7374 9.86897 75.3917 10.0139C75.0572 10.1589 74.7673 10.3373 74.5219 10.5604C74.2766 10.7834 74.0982 11.0399 73.9643 11.341C73.8305 11.6309 73.7525 11.9431 73.7413 12.2665H79.0382Z" fill="#272B38"/>
<path d="M85.2495 7.22609H89.1079V8.98801H89.1637C89.2864 8.74268 89.4648 8.4862 89.699 8.24087C89.9331 7.99554 90.2119 7.77251 90.5242 7.57179C90.8475 7.37106 91.2155 7.21494 91.617 7.09228C92.0296 6.96961 92.4756 6.9027 92.9552 6.9027C93.9699 6.9027 94.7951 7.05882 95.4196 7.37106C96.0441 7.6833 96.5347 8.11821 96.8804 8.66462C97.2261 9.22219 97.4603 9.86897 97.5941 10.6161C97.7168 11.3633 97.7837 12.1773 97.7837 13.0471V20.2175H93.7692V13.85C93.7692 13.4709 93.758 13.0917 93.7246 12.6903C93.7023 12.2888 93.6131 11.9208 93.4793 11.5751C93.3455 11.2406 93.1447 10.9618 92.8659 10.7499C92.5872 10.5381 92.1969 10.4265 91.6727 10.4265C91.1486 10.4265 90.736 10.5158 90.4126 10.7053C90.0892 10.8949 89.8439 11.1402 89.6767 11.4525C89.5094 11.7647 89.3979 12.1216 89.3421 12.5118C89.2863 12.9021 89.264 13.3147 89.264 13.7385V20.2175H85.2495V7.22609Z" fill="#272B38"/>
<path d="M108.812 11.4302C108.612 11.1402 108.344 10.906 107.987 10.7165C107.63 10.5269 107.251 10.4377 106.839 10.4377C105.824 10.4377 105.032 10.7388 104.475 11.3521C103.917 11.9543 103.627 12.7572 103.627 13.7385C103.627 14.7198 103.906 15.5116 104.475 16.1249C105.032 16.7271 105.824 17.0393 106.839 17.0393C107.285 17.0393 107.664 16.9389 107.987 16.7494C108.311 16.5486 108.589 16.3256 108.812 16.058L111.466 18.8458C110.842 19.4926 110.106 19.9387 109.258 20.1952C108.411 20.4516 107.597 20.5854 106.839 20.5854C105.835 20.5854 104.898 20.4293 104.017 20.1059C103.136 19.7825 102.367 19.3253 101.709 18.7232C101.051 18.121 100.549 17.4073 100.17 16.5709C99.7909 15.7346 99.6125 14.7979 99.6125 13.7608C99.6125 12.7237 99.8021 11.787 100.17 10.9507C100.549 10.1143 101.062 9.38946 101.709 8.79844C102.356 8.19626 103.125 7.73906 104.017 7.41567C104.898 7.09228 105.846 6.93616 106.839 6.93616C107.608 6.93616 108.411 7.06998 109.258 7.32646C110.106 7.58294 110.842 8.04015 111.466 8.67577L108.812 11.4636V11.4302Z" fill="#272B38"/>
<path d="M111.957 13.7385C111.957 12.7014 112.147 11.7647 112.515 10.9284C112.894 10.092 113.407 9.36716 114.054 8.77614C114.7 8.17396 115.47 7.71676 116.351 7.39337C117.232 7.06998 118.18 6.91386 119.172 6.91386C120.165 6.91386 121.112 7.06998 121.993 7.39337C122.874 7.71676 123.644 8.17396 124.302 8.77614C124.948 9.37831 125.461 10.092 125.841 10.9284C126.22 11.7647 126.398 12.7014 126.398 13.7385C126.398 14.7756 126.209 15.7123 125.841 16.5486C125.461 17.385 124.948 18.1098 124.302 18.7009C123.644 19.303 122.885 19.7602 121.993 20.0836C121.112 20.407 120.165 20.5631 119.172 20.5631C118.18 20.5631 117.232 20.407 116.351 20.0836C115.47 19.7602 114.7 19.303 114.054 18.7009C113.407 18.0987 112.894 17.385 112.515 16.5486C112.136 15.7123 111.957 14.7756 111.957 13.7385ZM115.972 13.7385C115.972 14.7198 116.25 15.5116 116.819 16.1249C117.377 16.7271 118.168 17.0393 119.183 17.0393C120.198 17.0393 120.99 16.7382 121.547 16.1249C122.105 15.5227 122.395 14.7198 122.395 13.7385C122.395 12.7572 122.116 11.9654 121.547 11.3521C120.99 10.7499 120.198 10.4377 119.183 10.4377C118.168 10.4377 117.377 10.7388 116.819 11.3521C116.262 11.9543 115.972 12.7572 115.972 13.7385Z" fill="#272B38"/>
<path d="M128.149 3.13354C128.149 2.48676 128.372 1.94034 128.829 1.48313C129.286 1.02593 129.833 0.802899 130.48 0.802899C131.126 0.802899 131.673 1.02593 132.13 1.48313C132.587 1.94034 132.81 2.48676 132.81 3.13354C132.81 3.78032 132.587 4.32674 132.13 4.78394C131.673 5.24115 131.126 5.46418 130.48 5.46418C129.833 5.46418 129.286 5.24115 128.829 4.78394C128.372 4.32674 128.149 3.78032 128.149 3.13354ZM128.472 7.2261H132.487V20.2398H128.472V7.2261Z" fill="#272B38"/>
<path d="M135.442 7.22609H139.3V8.98801H139.356C139.479 8.74268 139.657 8.4862 139.891 8.24087C140.125 7.99554 140.404 7.77251 140.717 7.57179C141.04 7.37106 141.408 7.21494 141.809 7.09228C142.222 6.96961 142.668 6.9027 143.148 6.9027C144.162 6.9027 144.987 7.05882 145.612 7.37106C146.236 7.6833 146.727 8.11821 147.073 8.66462C147.418 9.21104 147.653 9.86897 147.786 10.6161C147.909 11.3633 147.976 12.1773 147.976 13.0471V20.2175H143.962V13.85C143.962 13.4709 143.95 13.0917 143.917 12.6903C143.895 12.2888 143.805 11.9208 143.672 11.5751C143.538 11.2406 143.337 10.9618 143.058 10.7499C142.78 10.5381 142.389 10.4265 141.865 10.4265C141.341 10.4265 140.928 10.5158 140.605 10.7053C140.282 10.8949 140.036 11.1402 139.869 11.4525C139.702 11.7647 139.59 12.1216 139.534 12.5118C139.479 12.9021 139.456 13.3147 139.456 13.7385V20.2175H135.442V7.22609Z" fill="#272B38"/>
<path d="M5.651 34.3686L8.85145 26.663H10.3234V36.1416H9.36441V27.9565H9.34211L5.91864 36.1416H5.40567L1.9822 27.9565H1.9599V36.1416H1.00088V26.663H2.47286L5.67331 34.3686H5.651Z" fill="#272B38"/>
<path d="M13.1782 33.2423C13.2005 33.5545 13.2785 33.8444 13.4012 34.1232C13.5239 34.402 13.6911 34.6362 13.8919 34.8369C14.0926 35.0376 14.3379 35.1938 14.6056 35.3164C14.8732 35.4279 15.1631 35.4948 15.4754 35.4948C15.9437 35.4948 16.3563 35.3833 16.702 35.1715C17.0477 34.9484 17.3042 34.7031 17.4826 34.4132L18.1629 34.9707C17.7837 35.4391 17.3711 35.7848 16.925 35.9855C16.479 36.1862 15.9883 36.2977 15.4754 36.2977C15.007 36.2977 14.5833 36.2197 14.1818 36.0524C13.7804 35.8851 13.4458 35.6621 13.1559 35.361C12.8659 35.0711 12.6429 34.7142 12.4756 34.3128C12.3084 33.9114 12.2303 33.4764 12.2303 32.9969C12.2303 32.5174 12.3084 32.0825 12.4756 31.6811C12.6318 31.2796 12.8548 30.9339 13.1447 30.6328C13.4347 30.3318 13.7692 30.1087 14.1484 29.9415C14.5275 29.7742 14.9513 29.6961 15.3973 29.6961C15.8657 29.6961 16.2894 29.7853 16.6686 29.9526C17.0477 30.1199 17.36 30.3429 17.6164 30.6328C17.8729 30.9116 18.0625 31.2462 18.1963 31.6253C18.3301 32.0045 18.397 32.4059 18.397 32.8408V33.2423H13.1782ZM17.438 32.5174C17.438 31.9153 17.2596 31.4357 16.9027 31.0677C16.5459 30.6998 16.0441 30.5102 15.4085 30.5102C15.1185 30.5102 14.8509 30.5659 14.5833 30.6774C14.3156 30.789 14.0814 30.9339 13.8807 31.1235C13.68 31.3131 13.5239 31.525 13.4012 31.7703C13.2785 32.0156 13.2228 32.2609 13.2228 32.5174H17.4492H17.438Z" fill="#272B38"/>
<path d="M20.1032 31.826C20.1032 31.5473 20.1032 31.2685 20.0809 30.9785C20.0697 30.6886 20.0586 30.3206 20.0474 29.8634H20.9172V31.0231H20.9395C21.0065 30.8559 21.0957 30.6886 21.2072 30.5325C21.3187 30.3764 21.4637 30.2314 21.6309 30.1087C21.7982 29.9861 21.9878 29.8857 22.2108 29.8076C22.4338 29.7296 22.6792 29.6961 22.9579 29.6961C23.2033 29.6961 23.4263 29.7184 23.6159 29.7742L23.4375 30.644C23.3259 30.5994 23.1475 30.5771 22.9245 30.5771C22.59 30.5771 22.3 30.644 22.0547 30.7667C21.8094 30.8893 21.6086 31.0566 21.4525 31.2573C21.2964 31.458 21.1737 31.6699 21.0957 31.9041C21.0176 32.1383 20.9842 32.3613 20.9842 32.5732V36.1082H20.1032V31.8037V31.826Z" fill="#272B38"/>
<path d="M28.7678 31.3354C28.6117 31.1012 28.3998 30.9116 28.1322 30.7444C27.8646 30.5882 27.5523 30.499 27.2066 30.499C26.8386 30.499 26.5152 30.5436 26.2253 30.6774C25.9354 30.8113 25.69 30.9785 25.4782 31.2016C25.2663 31.4246 25.1213 31.6922 25.0098 31.9933C24.8983 32.3055 24.8537 32.6289 24.8537 32.9858C24.8537 33.3426 24.9094 33.6772 25.0098 33.9783C25.1102 34.2793 25.2774 34.547 25.4782 34.77C25.6789 34.993 25.9354 35.1715 26.2253 35.2941C26.5152 35.4168 26.8386 35.4725 27.2066 35.4725C27.5523 35.4725 27.8646 35.3945 28.1322 35.2272C28.3998 35.0599 28.6117 34.8704 28.7678 34.6362L29.4927 35.1826C29.1804 35.5506 28.8236 35.8182 28.4333 35.9967C28.043 36.1751 27.6304 36.2643 27.2066 36.2754C26.6937 36.2754 26.2365 36.2085 25.8239 36.0413C25.4112 35.874 25.0656 35.651 24.7756 35.3499C24.4857 35.0599 24.2627 34.7031 24.1177 34.3016C23.9616 33.9002 23.8947 33.4541 23.8947 32.9858C23.8947 32.5174 23.9727 32.0714 24.1177 31.6699C24.2738 31.2685 24.4857 30.9116 24.7756 30.6217C25.0656 30.3318 25.4112 30.0976 25.8239 29.9303C26.2365 29.763 26.6937 29.685 27.2066 29.6961C27.6304 29.6961 28.043 29.7965 28.4333 29.9749C28.8236 30.1533 29.1804 30.421 29.4927 30.789L28.7678 31.3354Z" fill="#272B38"/>
<path d="M30.6635 26.0162H31.5445V30.8782H31.5668C31.6672 30.7109 31.7898 30.5548 31.946 30.4098C32.1021 30.2648 32.2693 30.1422 32.4589 30.0418C32.6485 29.9415 32.8492 29.8634 33.0499 29.7965C33.2618 29.7407 33.4625 29.7073 33.6744 29.7073C34.4773 29.7073 35.0683 29.9192 35.4586 30.3429C35.8378 30.7667 36.0385 31.3688 36.0385 32.1606V36.1305H35.1576V32.6624C35.1576 31.971 35.0349 31.4357 34.8007 31.0677C34.5554 30.6998 34.1093 30.5102 33.4625 30.5102C33.4179 30.5102 33.2953 30.5325 33.0834 30.5659C32.8827 30.5994 32.6596 30.6998 32.4366 30.8559C32.2136 31.012 32.0017 31.2573 31.8233 31.5807C31.6449 31.9041 31.5557 32.3502 31.5557 32.9189V36.1305H30.6747V26.0162H30.6635Z" fill="#272B38"/>
<path d="M46.6212 28.2241C46.1974 27.6108 45.5952 27.2986 44.7923 27.2986C44.547 27.2986 44.3017 27.332 44.0564 27.3989C43.811 27.4659 43.5991 27.5662 43.4096 27.7112C43.22 27.8561 43.0639 28.0234 42.9524 28.2464C42.8409 28.4695 42.7739 28.726 42.7739 29.0159C42.7739 29.4396 42.8966 29.7742 43.1308 30.0084C43.365 30.2425 43.6661 30.4433 44.0229 30.5882C44.3797 30.7444 44.77 30.8782 45.1938 31.0008C45.6175 31.1235 46.0078 31.2796 46.3647 31.4803C46.7215 31.6811 47.0226 31.9487 47.2568 32.2721C47.491 32.5955 47.6136 33.0527 47.6136 33.6214C47.6136 34.0452 47.5244 34.4355 47.3349 34.7812C47.1564 35.1269 46.9111 35.4168 46.61 35.6398C46.3089 35.874 45.9744 36.0524 45.6064 36.1751C45.2384 36.2977 44.8593 36.3647 44.4913 36.3647C43.9114 36.3647 43.365 36.2531 42.8409 36.0413C42.3167 35.8294 41.8707 35.4614 41.5138 34.9596L42.3948 34.3351C42.5955 34.6808 42.8855 34.9596 43.2535 35.1715C43.6215 35.3833 44.0452 35.4837 44.547 35.4837C44.7923 35.4837 45.0265 35.4502 45.2719 35.3722C45.506 35.2941 45.7291 35.1826 45.9186 35.0376C46.1082 34.8927 46.2643 34.7142 46.387 34.4912C46.5097 34.2793 46.5766 34.034 46.5766 33.7552C46.5766 33.4207 46.5097 33.1531 46.3647 32.93C46.2309 32.707 46.0413 32.5286 45.8183 32.3836C45.5952 32.2386 45.3276 32.116 45.0377 32.0156C44.7477 31.9153 44.4467 31.8149 44.1456 31.7257C43.8445 31.6365 43.5434 31.5138 43.2535 31.3911C42.9635 31.2685 42.707 31.1124 42.4729 30.9116C42.2387 30.7109 42.0603 30.4767 41.9264 30.1868C41.7926 29.8969 41.7146 29.5289 41.7146 29.094C41.7146 28.659 41.8038 28.2464 41.971 27.9008C42.1495 27.5662 42.3725 27.2763 42.6624 27.0532C42.9524 26.8302 43.2758 26.663 43.6438 26.5626C44.0117 26.4511 44.3797 26.4065 44.77 26.4065C45.3053 26.4065 45.796 26.4957 46.2309 26.663C46.6658 26.8302 47.0784 27.1313 47.4464 27.5551L46.5989 28.213L46.6212 28.2241Z" fill="#272B38"/>
<path d="M49.264 26.0162H50.145V30.8782H50.1673C50.2677 30.7109 50.3903 30.5548 50.5465 30.4098C50.7026 30.2648 50.8698 30.1422 51.0594 30.0418C51.249 29.9415 51.4497 29.8634 51.6504 29.7965C51.8623 29.7407 52.063 29.7073 52.2749 29.7073C53.0778 29.7073 53.6688 29.9192 54.0591 30.3429C54.4383 30.7667 54.639 31.3688 54.639 32.1606V36.1305H53.7581V32.6624C53.7581 31.971 53.6354 31.4357 53.4012 31.0677C53.1559 30.6998 52.7098 30.5102 52.063 30.5102C52.0184 30.5102 51.8958 30.5325 51.6839 30.5659C51.4832 30.5994 51.2601 30.6998 51.0371 30.8559C50.8141 31.012 50.6022 31.2573 50.4238 31.5807C50.2454 31.9041 50.1562 32.3502 50.1562 32.9189V36.1305H49.2752V26.0162H49.264Z" fill="#272B38"/>
<path d="M63.0248 32.9969C63.0248 33.4653 62.9468 33.9114 62.7795 34.3128C62.6122 34.7142 62.3892 35.0599 62.0881 35.361C61.787 35.6621 61.4414 35.8851 61.0399 36.0524C60.6385 36.2197 60.1813 36.2977 59.6906 36.2977C59.1999 36.2977 58.765 36.2197 58.3636 36.0524C57.9621 35.8851 57.6053 35.6621 57.3153 35.361C57.0254 35.0711 56.7912 34.7142 56.624 34.3128C56.4567 33.9114 56.3786 33.4764 56.3786 32.9969C56.3786 32.5174 56.4567 32.0825 56.624 31.6811C56.7912 31.2796 57.0143 30.9339 57.3153 30.6328C57.6164 30.3318 57.9621 30.1087 58.3636 29.9415C58.765 29.7742 59.2111 29.6961 59.6906 29.6961C60.1701 29.6961 60.6273 29.7742 61.0399 29.9415C61.4414 30.1087 61.7982 30.3318 62.0881 30.6328C62.3781 30.9228 62.6122 31.2796 62.7795 31.6811C62.9468 32.0825 63.0248 32.5174 63.0248 32.9969ZM62.0658 32.9969C62.0658 32.6512 62.0101 32.3279 61.8986 32.0156C61.787 31.7145 61.6309 31.4469 61.4191 31.2239C61.2183 31.0008 60.9618 30.8224 60.6719 30.6998C60.382 30.5659 60.0586 30.5102 59.6906 30.5102C59.3226 30.5102 58.9992 30.5771 58.7093 30.6998C58.4193 30.8336 58.174 31.0008 57.9733 31.2239C57.7726 31.4469 57.6164 31.7145 57.5049 32.0156C57.3934 32.3167 57.3377 32.6401 57.3377 32.9969C57.3377 33.3538 57.3934 33.666 57.5049 33.9783C57.6164 34.2793 57.7726 34.547 57.9733 34.77C58.174 34.993 58.4193 35.1715 58.7093 35.2941C58.9992 35.4168 59.3226 35.4837 59.6906 35.4837C60.0586 35.4837 60.382 35.4168 60.6719 35.2941C60.9618 35.1603 61.2072 34.993 61.4191 34.77C61.6198 34.547 61.787 34.2793 61.8986 33.9783C62.0101 33.6772 62.0658 33.3538 62.0658 32.9969Z" fill="#272B38"/>
<path d="M64.6307 29.8634H65.5116V30.9116H65.5339C65.6789 30.6997 65.8461 30.5102 66.0469 30.3652C66.2476 30.2202 66.4483 30.0864 66.6602 29.9861C66.8721 29.8857 67.0951 29.8188 67.3181 29.7742C67.5412 29.7296 67.7642 29.7073 67.9649 29.7073C68.4556 29.7073 68.9016 29.7853 69.3142 29.9526C69.7157 30.1199 70.0725 30.3429 70.3625 30.644C70.6524 30.9339 70.8866 31.2908 71.0538 31.6922C71.2211 32.0937 71.2992 32.5286 71.2992 33.0081C71.2992 33.4876 71.2211 33.9225 71.0538 34.324C70.8866 34.7254 70.6636 35.0711 70.3625 35.3722C70.0725 35.6621 69.7157 35.8963 69.3142 36.0636C68.9128 36.2308 68.4556 36.3089 67.9649 36.3089C67.7642 36.3089 67.5412 36.2866 67.3181 36.242C67.0951 36.1974 66.8721 36.1305 66.6602 36.0301C66.4483 35.9297 66.2365 35.8071 66.0469 35.651C65.8461 35.4948 65.6789 35.3164 65.5339 35.1045H65.5116V40H64.6307V29.8634ZM70.3513 32.9969C70.3513 32.6512 70.2956 32.3279 70.184 32.0156C70.0725 31.7145 69.9164 31.4469 69.7045 31.2239C69.5038 31.0008 69.2473 30.8224 68.9574 30.6998C68.6674 30.5659 68.3441 30.5102 67.9761 30.5102C67.6081 30.5102 67.2735 30.5771 66.9724 30.6998C66.6714 30.8336 66.4037 31.0008 66.1807 31.2239C65.9577 31.4469 65.7792 31.7145 65.6566 32.0156C65.5339 32.3167 65.467 32.6401 65.467 32.9969C65.467 33.3538 65.5339 33.666 65.6566 33.9783C65.7792 34.2793 65.9577 34.547 66.1807 34.77C66.4037 34.993 66.6714 35.1715 66.9724 35.2941C67.2735 35.4279 67.6081 35.4837 67.9761 35.4837C68.3441 35.4837 68.6674 35.4168 68.9574 35.2941C69.2473 35.1715 69.4927 34.993 69.7045 34.77C69.9053 34.547 70.0725 34.2793 70.184 33.9783C70.2956 33.6772 70.3513 33.3538 70.3513 32.9969Z" fill="#272B38"/>
</svg>
