<svg width="83" height="40" viewBox="0 0 83 40" fill="none" xmlns="http://www.w3.org/2000/svg">
<path d="M9.73773 3.37426C9.59038 3.37426 9.4283 3.34479 9.24657 3.28585C8.42142 3.01572 7.41454 2.8831 6.22594 2.8831C5.83792 2.8831 5.38606 2.90766 4.88016 2.96169C4.36936 3.01081 3.80944 3.08939 3.18566 3.19253C3.2004 4.42043 3.2004 5.47642 3.18566 6.36051C4.15816 6.12475 4.96366 6.00688 5.60217 6.00688C6.79077 6.00688 7.82712 6.0609 8.7112 6.16896C9.53635 6.2721 9.94892 6.70432 9.94892 7.47544C9.94892 7.84872 9.81631 8.15815 9.556 8.40373C9.29568 8.65422 8.97152 8.77701 8.59824 8.77701C8.26425 8.77701 7.76818 8.75245 7.1002 8.69843C6.43714 8.64931 5.93615 8.61984 5.60217 8.61984C5.13557 8.61984 4.33006 8.76719 3.18566 9.06188V15.0786C3.18566 15.447 3.03832 15.7613 2.74853 16.0069C2.45875 16.2574 2.12476 16.3802 1.74657 16.3802C1.36838 16.3802 1.07368 16.2574 0.842835 16.0118C0.61199 15.7662 0.499023 15.4519 0.499023 15.0786V4.08644C0.499023 3.83595 0.499023 3.45776 0.513758 2.95678C0.523581 2.45088 0.528493 2.07269 0.528493 1.82711C0.528493 1.44401 0.656194 1.12967 0.906685 0.884086C1.15718 0.633595 1.47643 0.510805 1.85953 0.510805C2.1002 0.510805 2.31631 0.559921 2.50295 0.653242C3.2446 0.52554 3.92731 0.43222 4.54617 0.368369C5.16503 0.30943 5.72496 0.275049 6.22594 0.275049C6.95285 0.275049 7.87132 0.427308 8.98134 0.726915C10.3713 1.10511 11.0639 1.54224 11.0639 2.04322C11.0639 2.40668 10.9362 2.72102 10.6758 2.98134C10.4155 3.24165 10.1061 3.37426 9.74264 3.37426H9.73773Z" fill="#E37006"/>
<path d="M22.331 15.4813C21.9872 15.4813 21.668 15.3487 21.3831 15.0786C19.443 13.2613 17.3163 12.0039 14.9931 11.2967C15.0619 13.1582 15.0963 14.1896 15.0963 14.3959C15.0963 14.7593 14.9686 15.0688 14.7132 15.3193C14.4578 15.5697 14.1385 15.6974 13.7554 15.6974C13.3723 15.6974 13.053 15.5697 12.7976 15.3193C12.5422 15.0688 12.4145 14.7593 12.4145 14.3959C12.4145 13.9145 12.4195 13.1974 12.4342 12.2446C12.4489 11.2868 12.4538 10.5697 12.4538 10.0933L12.4735 2.35265C12.4735 1.93517 12.5963 1.56189 12.8468 1.22299C13.1709 0.785855 13.6228 0.594302 14.1974 0.638507C15.7495 0.751473 16.5501 0.815324 16.5845 0.820236C17.4784 0.928291 18.2397 1.1444 18.8684 1.46365C21.5992 2.8389 22.9646 4.54322 22.9646 6.57662C22.9646 7.4165 22.6798 8.15324 22.1051 8.79666C21.5305 9.44008 20.6758 9.98035 19.5314 10.4224C21.2259 11.3703 22.5029 12.333 23.3576 13.3202C23.5835 13.5756 23.6916 13.8605 23.6916 14.1749C23.6916 14.5334 23.5589 14.8428 23.2888 15.0982C23.0187 15.3536 22.6994 15.4862 22.331 15.4862V15.4813ZM16.1817 3.41356C16.1326 3.40864 15.7544 3.38409 15.057 3.33497V8.42829C15.2191 8.4332 15.3566 8.43811 15.4794 8.43811C17.0462 8.43811 18.2053 8.24165 18.9617 7.85363C19.2859 7.68664 19.5855 7.46562 19.8605 7.19057C20.1306 6.91552 20.2682 6.70923 20.2682 6.5668C20.2682 5.8497 19.8163 5.16208 18.9077 4.49411C18.0432 3.86542 17.1346 3.50688 16.1817 3.40864V3.41356Z" fill="#E37006"/>
<path d="M33.3625 15.8939C33.0678 15.8939 32.6012 15.609 31.9627 15.0393C31.3733 15.3193 30.8576 15.5354 30.4106 15.6778C29.9637 15.8202 29.5806 15.8939 29.2711 15.8939C27.7289 15.8939 26.5747 15.4813 25.8035 14.6562C25.0324 13.831 24.6493 12.5982 24.6493 10.9528C24.6493 9.41061 25.2191 8.0943 26.3585 6.99411C27.498 5.89882 28.8585 5.34872 30.445 5.34872C31.054 5.34872 31.7564 5.52063 32.557 5.85953C33.5246 6.2721 34.0059 6.74853 34.0059 7.29371C34.0059 7.51965 33.9322 7.72102 33.7849 7.89293C33.721 8.14833 33.6719 8.46267 33.6375 8.84578C33.6031 9.22888 33.5835 9.67583 33.5835 10.1916C33.5835 11.3998 33.6719 12.2692 33.8438 12.8045C33.8635 12.8635 34.0108 13.1925 34.2859 13.7917C34.5363 14.3369 34.6591 14.6464 34.6591 14.7249C34.6591 15.0589 34.5314 15.3389 34.2711 15.5599C34.0108 15.7809 33.7112 15.8939 33.3723 15.8939H33.3625ZM30.9853 9.42043C30.9853 9.21414 31 8.97839 31.0295 8.71316C31.0589 8.44794 31.1031 8.15324 31.1572 7.82416C31.0295 7.76031 30.9165 7.71611 30.8183 7.68664C30.72 7.65717 30.6365 7.64244 30.5629 7.64244C29.6935 7.64244 28.9322 7.98134 28.279 8.66405C27.6257 9.34676 27.3016 10.1326 27.3016 11.0265C27.3016 11.9204 27.4538 12.5295 27.7633 12.9617C28.0727 13.3939 28.5295 13.61 29.1434 13.61C29.5413 13.61 29.9145 13.5462 30.2682 13.4136C30.6218 13.2809 30.9558 13.0894 31.2701 12.834C31.0786 11.3114 30.9804 10.1719 30.9804 9.42043H30.9853Z" fill="#E37006"/>
<path d="M50.1896 13.0059C50.1896 13.3251 50.1356 13.831 50.0275 14.5236C49.8998 15.3487 49.4332 15.7613 48.6277 15.7613C48.1807 15.7613 47.6749 15.5108 47.11 15.0049C44.6493 12.7849 41.8694 9.67583 38.775 5.67289C38.7358 7.33792 38.7161 8.35462 38.7161 8.73281C38.7161 9.2387 38.7259 10 38.7505 11.0167C38.7751 12.0334 38.7849 12.7947 38.7849 13.3006C38.7849 15.1866 38.3232 16.1297 37.4047 16.1297C36.9381 16.1297 36.5648 15.9872 36.28 15.6974C36.0295 15.442 35.9067 15.1326 35.9067 14.7692C35.9067 14.5138 35.9263 14.1257 35.9705 13.61C36.0098 13.0943 36.0344 12.7063 36.0344 12.4509C36.0344 12.0727 36.0491 11.5079 36.0737 10.7515C36.0982 9.99509 36.113 9.43025 36.113 9.05206C36.113 8.64931 36.1031 8.04027 36.0835 7.22986C36.0639 6.41945 36.054 5.81041 36.054 5.40766C36.054 5.00491 36.0147 4.4499 35.9411 3.6886C35.8625 2.92731 35.8281 2.35756 35.8281 1.96955C35.8281 1.58153 35.9902 1.24263 36.3242 0.943025C36.6532 0.643418 37.0314 0.491159 37.4489 0.491159C37.9204 0.491159 38.446 0.898821 39.0206 1.71906C41.9234 5.86444 44.7868 9.24361 47.6159 11.8566C47.6208 11.6503 47.6257 11.164 47.6257 10.3978C47.6257 7.2446 47.5914 5.11788 47.5275 4.01768C47.5128 3.83104 47.4735 3.48723 47.4047 2.98134C47.3409 2.53438 47.3065 2.18075 47.3065 1.92534C47.3065 1.04126 47.7731 0.599214 48.7063 0.599214C49.7475 0.599214 50.2682 2.2053 50.2682 5.4224C50.2682 5.49116 50.2633 5.99705 50.2485 6.94008C50.2092 10.1866 50.1896 12.2102 50.1896 13.001V13.0059Z" fill="#E37006"/>
<path d="M60.0422 15.7613C59.5363 15.7613 59.1532 15.5157 58.8929 15.0344C58.5786 14.4548 58.1071 13.7672 57.4833 12.9715C56.5108 11.7387 55.9951 11.0805 55.9411 11.0069C55.4303 11.3851 55.0079 11.6699 54.6739 11.8713C54.61 12.7603 54.5756 13.61 54.5756 14.4253C54.5756 14.7986 54.4528 15.1031 54.2024 15.3487C53.9519 15.5943 53.6375 15.7122 53.2544 15.7122C52.3507 15.7122 51.9037 15.1768 51.9037 14.1012C51.9037 13.5953 51.9381 12.8389 52.0118 11.832C52.0855 10.8251 52.1198 10.0688 52.1198 9.56287C52.1198 8.63458 52.1346 7.57367 52.164 6.38507C52.1935 5.19155 52.2082 4.14047 52.2082 3.222C52.2082 2.94695 52.1935 2.62279 52.164 2.24951C52.1346 1.87623 52.1198 1.55206 52.1198 1.27701C52.1198 0.908644 52.2426 0.599214 52.4931 0.358546C52.7436 0.117878 53.058 0 53.4411 0C53.8242 0 54.1434 0.117878 54.389 0.358546C54.6346 0.599214 54.7623 0.903733 54.7623 1.27701C54.7623 1.55697 54.777 1.89096 54.8114 2.27407C54.8409 2.65717 54.8605 2.99116 54.8605 3.27112C54.8605 4.03242 54.8409 4.93615 54.8016 5.97741C54.7623 6.97446 54.7475 7.86346 54.7525 8.6444C55.6218 7.97151 56.9479 6.75344 58.7259 4.98035C59.0059 4.70039 59.3251 4.55796 59.6837 4.55796C60.0422 4.55796 60.3566 4.69057 60.6316 4.95088C60.9067 5.2112 61.0442 5.51572 61.0442 5.86444C61.0442 6.15914 60.9214 6.44401 60.6709 6.71906C59.9145 7.56385 59.0157 8.44794 57.9745 9.3664L59.9686 11.9352C60.9361 13.222 61.4175 14.0766 61.4175 14.5039C61.4175 14.8576 61.275 15.1572 60.9951 15.4027C60.7151 15.6483 60.3959 15.7711 60.0373 15.7711L60.0422 15.7613Z" fill="#E37006"/>
<path d="M81.3978 16.2672C80.9705 16.2672 80.612 16.056 80.332 15.6336C80.1405 15.3143 79.8507 14.833 79.4676 14.1847C78.1807 15.2407 76.7711 15.7662 75.2387 15.7662C73.9519 15.7662 72.8517 15.388 71.9283 14.6267C70.9509 13.8261 70.4597 12.8094 70.4597 11.5766C70.4597 10.3438 70.9411 9.35658 71.8988 8.47741C72.2033 8.18762 73.2102 7.5 74.9096 6.41454C74.5363 5.39293 74.3546 4.49411 74.3546 3.71807C74.3546 3.02554 74.6493 2.31336 75.2387 1.5668C75.8723 0.761297 76.5648 0.358546 77.3212 0.358546C78.1906 0.358546 78.9027 0.638507 79.4627 1.19352C79.9931 1.72397 80.2583 2.3723 80.2583 3.13851C80.2583 4.62181 79.497 5.93811 77.9745 7.08251C78.4214 7.99116 78.9126 8.86542 79.4528 9.70039L79.7672 8.19253C79.9833 7.5835 80.3467 7.27898 80.8625 7.27898C81.2407 7.27898 81.5452 7.45579 81.776 7.80452C81.9725 8.10413 82.0756 8.44302 82.0756 8.81139C82.0756 10 81.7613 11.1444 81.1375 12.2348C82.169 13.7574 82.6798 14.7102 82.6798 15.0933C82.6798 15.4273 82.5471 15.7024 82.2868 15.9234C82.0265 16.1444 81.7318 16.2525 81.4027 16.2525L81.3978 16.2672ZM75.9951 8.46267C75.332 8.88507 74.669 9.30746 74.0108 9.72986C73.2937 10.2947 72.9352 10.9086 72.9352 11.5815C72.9352 12.1267 73.166 12.5688 73.6277 12.9126C74.0697 13.2466 74.6051 13.4136 75.2387 13.4136C76.3143 13.4136 77.2672 13.0059 78.0973 12.1857C77.7092 11.6061 77.0069 10.3635 75.9951 8.46267ZM77.3212 2.73576C77.1444 2.7554 76.997 2.87819 76.8792 3.10904C76.7809 3.3055 76.7367 3.50688 76.7367 3.71316C76.7367 3.80157 76.7957 4.04715 76.9185 4.4499C77.0511 4.89686 77.1247 5.14244 77.1297 5.18664C77.3409 4.97544 77.5471 4.7053 77.7436 4.37132C77.9695 4.00295 78.0776 3.70825 78.0776 3.49705C78.0776 3.20727 78.0432 3.01572 77.9745 2.91257C77.8664 2.76031 77.6503 2.69646 77.3212 2.73084V2.73576Z" fill="#E37006"/>
<path d="M9.73773 26.9499C9.59038 26.9499 9.4283 26.9204 9.24657 26.8615C8.42142 26.5914 7.41454 26.4587 6.22594 26.4587C5.83792 26.4587 5.38606 26.4833 4.88016 26.5373C4.36936 26.5864 3.80944 26.665 3.18566 26.7682C3.2004 27.9961 3.2004 29.0521 3.18566 29.9361C4.15816 29.7004 4.96366 29.5825 5.60217 29.5825C6.79077 29.5825 7.82712 29.6365 8.7112 29.7446C9.53635 29.8477 9.94892 30.28 9.94892 31.0511C9.94892 31.4244 9.81631 31.7338 9.556 31.9794C9.29568 32.2299 8.97152 32.3527 8.59824 32.3527C8.26425 32.3527 7.76818 32.3281 7.1002 32.2741C6.43714 32.225 5.93615 32.1955 5.60217 32.1955C5.13557 32.1955 4.33006 32.3428 3.18566 32.6375V38.6542C3.18566 39.0226 3.03832 39.3369 2.74853 39.5825C2.45875 39.833 2.12476 39.9558 1.74657 39.9558C1.36838 39.9558 1.07368 39.833 0.842835 39.5874C0.61199 39.3418 0.499023 39.0275 0.499023 38.6542V27.6621C0.499023 27.4116 0.499023 27.0334 0.513758 26.5324C0.523581 26.0265 0.528493 25.6483 0.528493 25.4028C0.528493 25.0246 0.656194 24.7102 0.906685 24.4646C1.15718 24.2141 1.47643 24.0914 1.85953 24.0914C2.1002 24.0914 2.31631 24.1405 2.50295 24.2338C3.2446 24.1061 3.92731 24.0128 4.54617 23.9489C5.16503 23.89 5.72496 23.8556 6.22594 23.8556C6.95285 23.8556 7.87132 24.0079 8.98134 24.3075C10.3713 24.6857 11.0639 25.1228 11.0639 25.6238C11.0639 25.9872 10.9362 26.3016 10.6758 26.5619C10.4155 26.8222 10.1061 26.9548 9.74264 26.9548L9.73773 26.9499Z" fill="#E37006"/>
<path d="M20.5481 32.0285C20.4892 33.0059 20.0472 33.4971 19.2171 33.4971C18.387 33.4971 18.0088 33.0796 18.0088 32.2495L17.9597 31.2819C16.5206 31.5128 15.4892 32.2495 14.8703 33.4971L14.8802 38.3202C14.8802 38.6837 14.7574 38.9882 14.5069 39.2289C14.2564 39.4695 13.942 39.5874 13.5589 39.5874C13.1758 39.5874 12.8566 39.4597 12.6356 39.2043C12.4293 38.9735 12.331 38.6788 12.331 38.3202V32.0383C12.331 31.8418 12.336 31.5422 12.3507 31.1493C12.3654 30.7564 12.3703 30.4617 12.3703 30.2603C12.3703 29.9018 12.4784 29.6022 12.6896 29.3615C12.9057 29.1208 13.2102 29.0029 13.6081 29.0029C14.3202 29.0029 14.7377 29.3664 14.8752 30.0982C16.0049 29.2534 17.2623 28.831 18.6474 28.831C19.9244 28.831 20.5678 29.6807 20.5678 31.3851C20.5678 31.7092 20.5678 31.9253 20.558 32.0285H20.5481Z" fill="#E37006"/>
<path d="M32.9597 39.2289C32.4538 39.2092 31.9479 38.6149 31.4322 37.446C31.0933 36.6896 30.8035 35.8202 30.558 34.8379C30.0864 34.9067 29.3104 34.9804 28.2348 35.0491C27.223 35.1179 26.4519 35.2014 25.9116 35.2996C25.6169 36.002 25.1061 37.0629 24.3792 38.4725C24.0992 38.9342 23.7063 39.165 23.2102 39.165C22.8566 39.165 22.5422 39.0471 22.2623 38.8065C21.9823 38.5658 21.8399 38.2613 21.8399 37.888C21.8399 37.5639 22.3065 36.4538 23.2397 34.5678C23.1513 34.3713 23.112 34.1847 23.1267 34.0128C23.1513 33.7082 23.4607 33.4676 24.055 33.2957C24.9637 31.724 25.9754 30.0933 27.0855 28.4037C28.6817 25.9823 29.669 24.7692 30.0422 24.7692C30.7446 24.7692 31.2161 25.1965 31.4519 26.0462C31.5796 26.7289 31.7809 27.7554 32.056 29.1257C32.444 30.9676 32.9204 33.0747 33.4853 35.447C33.5295 35.6238 33.6916 36.0462 33.9764 36.7141C34.2073 37.2642 34.3202 37.6768 34.3202 37.9519C34.3202 38.3251 34.1827 38.6346 33.9028 38.8802C33.6228 39.1257 33.3084 39.2485 32.9597 39.2338V39.2289ZM29.3841 29.391C28.8831 30.2505 28.1955 31.4145 27.3212 32.8929C27.611 32.8291 28.058 32.78 28.6621 32.7407C29.3792 32.6965 29.831 32.6621 30.0128 32.6375C29.8605 31.8075 29.6493 30.7269 29.3792 29.3959L29.3841 29.391Z" fill="#E37006"/>
<path d="M43.8782 39.6267C43.0923 39.6267 42.6552 39.2387 42.5619 38.4676C42.4735 37.8094 42.3851 37.1464 42.2917 36.4833C42.1935 35.7809 42.1493 35.1179 42.1493 34.499C42.1493 34.332 42.1591 34.0471 42.1837 33.6444C42.2083 33.2416 42.2181 32.9568 42.2181 32.7898C42.2181 32.7456 42.223 32.6326 42.2377 32.4509C42.2525 32.2692 42.2574 32.1218 42.2574 32.0039C42.2574 31.4735 42.1297 31.2083 41.8743 31.2083C41.3242 31.2083 40.7888 31.5619 40.2633 32.2642C39.7377 32.9666 39.3251 33.8605 39.0255 34.9411C39.0157 35.1572 38.9862 35.447 38.947 35.8055C38.9126 36.1002 38.8929 36.39 38.8929 36.6699C38.8929 36.8517 38.8733 37.1316 38.8291 37.5C38.7898 37.8684 38.7652 38.1483 38.7652 38.3301C38.7652 38.7033 38.6375 39.0128 38.387 39.2584C38.1365 39.5039 37.8173 39.6267 37.4342 39.6267C37.0511 39.6267 36.7318 39.5039 36.4862 39.2584C36.2358 39.0128 36.113 38.7083 36.113 38.335C36.113 38.1532 36.0933 37.8782 36.054 37.5098C36.0147 37.1415 35.9951 36.8664 35.9951 36.6847C35.9951 36.0609 36.0393 35.1916 36.1277 34.0766C36.2161 32.9617 36.2603 32.0923 36.2603 31.4686C36.2603 31.2721 36.2505 30.9823 36.2259 30.5943C36.2014 30.2063 36.1916 29.9165 36.1916 29.7299C36.1916 29.3664 36.3193 29.0619 36.5796 28.8261C36.8399 28.5904 37.1542 28.4676 37.5324 28.4676C38.3723 28.4676 38.8193 28.9686 38.8733 29.9754L38.8831 30.0786C39.8163 29.1405 40.8035 28.669 41.8399 28.669C43.0481 28.669 43.8831 29.1749 44.3448 30.1866C44.6493 30.8644 44.8065 31.8762 44.8065 33.2269V33.9096C44.8016 34.2043 44.7967 34.4106 44.7967 34.5334C44.7967 35.0344 44.8654 35.6729 45.0029 36.4637C45.1405 37.2495 45.2092 37.888 45.2092 38.3841C45.2092 38.7426 45.0815 39.0373 44.8261 39.278C44.5707 39.5137 44.2515 39.6316 43.8782 39.6316V39.6267Z" fill="#E37006"/>
<path d="M49.4136 34.6955L49.4037 38.7328C49.4037 39.0128 49.3251 39.2731 49.1631 39.5088C48.9371 39.833 48.613 40 48.1857 40C47.6798 40 47.2819 39.7937 46.9971 39.386C46.7711 39.0668 46.6631 38.723 46.6631 38.3595C46.6631 36.9401 46.7073 34.8084 46.7957 31.9597C46.8841 29.1159 46.9283 26.9794 46.9283 25.5599C46.9283 25.2014 47.056 24.8969 47.3114 24.6365C47.5668 24.3762 47.8861 24.2534 48.2692 24.2534C48.6523 24.2534 48.9715 24.3811 49.222 24.6365C49.4725 24.8919 49.6002 25.2014 49.6002 25.5599C49.6002 26.1346 49.5707 26.9106 49.5118 27.8929C49.443 29.0324 49.3988 29.8084 49.389 30.2259C49.836 29.8035 51.4961 28.0255 54.3694 24.8919C54.664 24.5727 55.0029 24.4106 55.3861 24.4106C55.7692 24.4106 56.0688 24.5383 56.3389 24.7937C56.609 25.0491 56.7466 25.3585 56.7466 25.722C56.7466 26.1198 55.9853 27.1464 54.4627 28.8114C53.3379 30.0344 52.1493 31.2377 50.9018 32.4263C51.5992 33.0845 52.2967 33.7426 53.0039 34.4008C53.8242 35.1572 54.556 35.776 55.2092 36.2623C55.5334 36.498 55.887 36.6798 56.2652 36.7976C56.9479 37.0138 57.2917 37.4361 57.2917 38.055C57.2917 38.3301 57.2033 38.5953 57.0314 38.8507C56.7957 39.1945 56.4666 39.3664 56.0442 39.3664C55.1306 39.3664 53.942 38.7672 52.4833 37.5737C52.0462 37.2151 51.0196 36.2525 49.4037 34.6857L49.4136 34.6955Z" fill="#E37006"/>
<path d="M66.5943 27.6031C66.2898 27.6031 65.445 27.5147 64.0697 27.333C63.9813 28.5118 63.9371 30.0737 63.9371 32.0236L63.9273 36.331C64.777 36.3114 65.6464 36.3016 66.5255 36.3016C66.9086 36.3016 67.2279 36.4293 67.4784 36.6847C67.7289 36.9401 67.8566 37.2495 67.8566 37.6081C67.8566 37.9666 67.7289 38.2711 67.4686 38.5265C67.2083 38.777 66.8841 38.9047 66.4912 38.9047C66.1228 38.9047 65.5776 38.9145 64.8458 38.9293C64.1139 38.944 63.5639 38.9538 63.2004 38.9538C62.7682 38.9538 62.1198 39.0079 61.2603 39.1208C60.3959 39.2338 59.7525 39.2878 59.3202 39.2878C58.9273 39.2878 58.6031 39.1601 58.3428 38.9096C58.0825 38.6591 57.9548 38.3497 57.9548 37.9912C57.9548 37.6326 58.0874 37.3281 58.3576 37.0678C58.6277 36.8124 58.9666 36.6847 59.3792 36.6847C59.8458 36.6847 60.4548 36.6356 61.2161 36.5422C61.2014 35.7859 61.1965 34.3418 61.1965 32.2053C61.1965 30.4666 61.2603 28.8065 61.388 27.2249L59.3055 27.2839C58.9224 27.2839 58.5982 27.1611 58.3428 26.9106C58.0874 26.6601 57.9548 26.3507 57.9548 25.9823C57.9548 25.6139 58.0776 25.2996 58.3281 25.0589C58.5589 24.8428 58.8389 24.7151 59.1729 24.6857C59.7181 24.6365 60.666 24.6071 62.0167 24.6071C63.2299 24.6071 64.7967 24.7397 66.7122 25.0098C67.4735 25.1179 67.8566 25.5599 67.8566 26.336C67.8566 26.7436 67.7092 27.0678 67.4145 27.3035C67.1739 27.5 66.8988 27.6031 66.5894 27.6031H66.5943Z" fill="#E37006"/>
</svg>
