<svg width="52" height="52" viewBox="0 0 52 52" fill="none" xmlns="http://www.w3.org/2000/svg">
<g clip-path="url(#clip0_4214_2235)">
<rect width="52" height="52" fill="#E95353"/>
<path d="M44.2812 24.7638C44.2812 22.4657 44.2812 21.3167 43.5673 20.6028C42.8534 19.8888 41.7043 19.8888 39.4062 19.8888H36.9862C34.6881 19.8888 33.539 19.8888 32.8251 19.1749C32.1112 18.461 32.1112 17.3119 32.1112 15.0138V12.5937C32.1112 10.2957 32.1112 9.1466 31.3972 8.43268C30.6833 7.71875 29.5343 7.71875 27.2362 7.71875H24.7638C22.4657 7.71875 21.3167 7.71875 20.6028 8.43268C19.8888 9.1466 19.8888 10.2957 19.8888 12.5937V15.0138C19.8888 17.3119 19.8888 18.461 19.1749 19.1749C18.461 19.8888 17.3119 19.8888 15.0138 19.8888H12.5937C10.2957 19.8888 9.1466 19.8888 8.43268 20.6028C7.71875 21.3167 7.71875 22.4657 7.71875 24.7638V27.2362C7.71875 29.5343 7.71875 30.6833 8.43268 31.3972C9.1466 32.1112 10.2957 32.1112 12.5937 32.1112H15.0138C17.3119 32.1112 18.461 32.1112 19.1749 32.8251C19.8888 33.539 19.8888 34.6881 19.8888 36.9862V39.4063C19.8888 41.7043 19.8888 42.8534 20.6028 43.5673C21.3167 44.2812 22.4657 44.2812 24.7638 44.2812H27.2362C29.5343 44.2812 30.6833 44.2812 31.3972 43.5673C32.1112 42.8534 32.1112 41.7043 32.1112 39.4062V36.9862C32.1112 34.6881 32.1112 33.539 32.8251 32.8251C33.539 32.1112 34.6881 32.1112 36.9862 32.1112H39.4063C41.7043 32.1112 42.8534 32.1112 43.5673 31.3972C44.2812 30.6833 44.2812 29.5343 44.2812 27.2362V24.7638ZM27.1839 19.9411C29.482 19.9411 30.6311 19.9411 31.345 20.655C32.0589 21.3689 32.0589 22.518 32.0589 24.8161V27.1839C32.0589 29.482 32.0589 30.6311 31.345 31.345C30.6311 32.0589 29.482 32.0589 27.1839 32.0589H24.8161C22.518 32.0589 21.3689 32.0589 20.655 31.345C19.9411 30.6311 19.9411 29.482 19.9411 27.1839V24.8161C19.9411 22.518 19.9411 21.3689 20.655 20.655C21.3689 19.9411 22.518 19.9411 24.8161 19.9411H27.1839Z" fill="white"/>
</g>
<rect x="0.5" y="0.5" width="51" height="51" rx="5.5" stroke="white" stroke-opacity="0.5"/>
<defs>
<clipPath id="clip0_4214_2235">
<rect width="52" height="52" rx="6" fill="white"/>
</clipPath>
</defs>
</svg>
