<svg width="268" height="30" viewBox="0 0 268 30" fill="none" xmlns="http://www.w3.org/2000/svg">
<path d="M30.9761 13.9857C30.9761 12.1001 30.9761 11.1573 30.3903 10.5715C29.8045 9.98571 28.8617 9.98571 26.9761 9.98571H24.9904C23.1047 9.98571 22.1619 9.98571 21.5761 9.39993C20.9904 8.81414 20.9904 7.87133 20.9904 5.98571V4C20.9904 2.11438 20.9904 1.17157 20.4046 0.585786C19.8188 0 18.876 0 16.9904 0H14.9618C13.0762 0 12.1334 0 11.5476 0.585786C10.9618 1.17157 10.9618 2.11438 10.9618 4V5.98572C10.9618 7.87133 10.9618 8.81414 10.376 9.39993C9.79022 9.98571 8.84741 9.98571 6.96179 9.98571H4.97607C3.09046 9.98571 2.14765 9.98571 1.56186 10.5715C0.976074 11.1573 0.976074 12.1001 0.976074 13.9857V16.0143C0.976074 17.8999 0.976074 18.8427 1.56186 19.4285C2.14765 20.0143 3.09046 20.0143 4.97607 20.0143H6.96179C8.84741 20.0143 9.79022 20.0143 10.376 20.6001C10.9618 21.1859 10.9618 22.1287 10.9618 24.0143V26C10.9618 27.8856 10.9618 28.8284 11.5476 29.4142C12.1334 30 13.0762 30 14.9618 30H16.9904C18.876 30 19.8188 30 20.4046 29.4142C20.9904 28.8284 20.9904 27.8856 20.9904 26V24.0143C20.9904 22.1287 20.9904 21.1859 21.5761 20.6001C22.1619 20.0143 23.1047 20.0143 24.9904 20.0143H26.9761C28.8617 20.0143 29.8045 20.0143 30.3903 19.4285C30.9761 18.8427 30.9761 17.8999 30.9761 16.0143V13.9857ZM16.9475 10.0286C18.8331 10.0286 19.7759 10.0286 20.3617 10.6144C20.9475 11.2001 20.9475 12.143 20.9475 14.0286V15.9714C20.9475 17.857 20.9475 18.7999 20.3617 19.3856C19.7759 19.9714 18.8331 19.9714 16.9475 19.9714H15.0046C13.119 19.9714 12.1762 19.9714 11.5904 19.3856C11.0046 18.7999 11.0046 17.857 11.0046 15.9714V14.0286C11.0046 12.143 11.0046 11.2001 11.5904 10.6144C12.1762 10.0286 13.119 10.0286 15.0046 10.0286H16.9475Z" fill="#E95353"/>
<path d="M44.9512 10.1945V13.6031H51.7922V16.9919H44.9512V22.3065H40.5659V6.80563H52.7215V10.1945H44.9512Z" fill="#070915"/>
<path d="M60.0409 10.5148C60.7289 10.2419 61.5119 10.1035 62.3976 10.1035V13.8917C62.0141 13.8482 61.6977 13.8245 61.4447 13.8245C60.5431 13.8245 59.8392 14.0697 59.3291 14.5561C58.819 15.0424 58.5659 15.7898 58.5659 16.7942V22.3065H54.3585V10.3052H58.3682V11.7446C58.7953 11.1989 59.3528 10.7876 60.0409 10.5148Z" fill="#070915"/>
<path d="M73.7149 11.4678C74.7628 12.3772 75.2887 13.7692 75.2887 15.6435V22.3105H71.37V20.7604C70.765 21.9269 69.5826 22.5082 67.8269 22.5082C66.8976 22.5082 66.091 22.3461 65.4148 22.0218C64.7346 21.6975 64.2245 21.2586 63.8766 20.705C63.5286 20.1514 63.3546 19.5187 63.3546 18.8109C63.3546 17.676 63.7896 16.7942 64.6595 16.1655C65.5294 15.5367 66.8739 15.2243 68.6889 15.2243H71.0813C71.0062 13.955 70.1599 13.3184 68.5347 13.3184C67.9574 13.3184 67.3761 13.4093 66.7869 13.5952C66.1977 13.781 65.6955 14.0341 65.2803 14.3584L63.8647 11.5033C64.529 11.0605 65.3357 10.7164 66.2887 10.4752C67.2417 10.2301 68.1986 10.1114 69.1555 10.1114C71.1485 10.1114 72.667 10.5662 73.7188 11.4717L73.7149 11.4678ZM70.2825 19.495C70.6503 19.2577 70.9152 18.9137 71.0813 18.455V17.415H69.2663C68.0404 17.415 67.4275 17.8223 67.4275 18.633C67.4275 19.0007 67.5659 19.2973 67.8467 19.5187C68.1274 19.7402 68.511 19.8509 68.9974 19.8509C69.4838 19.8509 69.9108 19.7323 70.2825 19.495Z" fill="#070915"/>
<path d="M89.362 11.4361C90.2715 12.3219 90.7223 13.6584 90.7223 15.4458V22.3105H86.5149V16.1338C86.5149 14.4968 85.8585 13.6743 84.5457 13.6743C83.8221 13.6743 83.2447 13.9115 82.8058 14.3821C82.3708 14.8566 82.1534 15.5644 82.1534 16.5095V22.3105H77.946V10.3052H81.9556V11.6101C82.4262 11.1237 82.9877 10.752 83.6402 10.491C84.2887 10.234 84.9965 10.1035 85.7676 10.1035C87.2584 10.1035 88.4565 10.5464 89.366 11.4322L89.362 11.4361Z" fill="#070915"/>
<path d="M98.8049 18.0991L97.5633 19.3605V22.3065H93.3559V5.87637H97.5633V14.4888L101.858 10.3052H106.84L101.858 15.4418L107.259 22.3065H102.166L98.801 18.0991H98.8049Z" fill="#070915"/>
<path d="M120.217 17.3715H111.494C111.672 17.9924 112.016 18.4669 112.522 18.799C113.033 19.1312 113.669 19.2973 114.436 19.2973C115.014 19.2973 115.512 19.2182 115.931 19.0521C116.35 18.89 116.777 18.6251 117.204 18.2533L119.419 20.5548C118.252 21.8557 116.548 22.5042 114.302 22.5042C112.898 22.5042 111.668 22.2393 110.605 21.7055C109.541 21.1716 108.718 20.4361 108.137 19.491C107.556 18.546 107.263 17.4743 107.263 16.2801C107.263 15.0859 107.548 14.0381 108.117 13.1009C108.687 12.1637 109.47 11.4282 110.474 10.8983C111.478 10.3685 112.605 10.0996 113.863 10.0996C115.12 10.0996 116.145 10.3487 117.117 10.843C118.09 11.3373 118.865 12.053 119.431 12.9902C120 13.9273 120.285 15.0385 120.285 16.3236C120.285 16.3553 120.261 16.6993 120.217 17.3636V17.3715ZM112.257 13.6505C111.823 14.0183 111.546 14.5205 111.427 15.1571H116.342C116.224 14.5244 115.947 14.0222 115.512 13.6505C115.077 13.2828 114.535 13.0969 113.883 13.0969C113.23 13.0969 112.692 13.2828 112.254 13.6505H112.257Z" fill="#070915"/>
<path d="M133.65 11.4361C134.56 12.3219 135.011 13.6584 135.011 15.4458V22.3105H130.803V16.1338C130.803 14.4968 130.147 13.6743 128.834 13.6743C128.11 13.6743 127.533 13.9115 127.094 14.3821C126.659 14.8566 126.442 15.5644 126.442 16.5095V22.3105H122.234V10.3052H126.244V11.6101C126.714 11.1237 127.276 10.752 127.928 10.491C128.577 10.234 129.285 10.1035 130.056 10.1035C131.547 10.1035 132.745 10.5464 133.654 11.4322L133.65 11.4361Z" fill="#070915"/>
<path d="M140.392 21.7094C139.344 21.1795 138.53 20.4401 137.945 19.495C137.363 18.5499 137.071 17.4783 137.071 16.2841C137.071 15.0899 137.363 14.0222 137.945 13.0851C138.526 12.1479 139.344 11.4164 140.392 10.8944C141.44 10.3724 142.631 10.1075 143.959 10.1075C145.288 10.1075 146.49 10.4001 147.478 10.9814C148.467 11.5666 149.167 12.3733 149.582 13.4054L146.328 15.0662C145.782 13.9906 144.983 13.4489 143.935 13.4489C143.184 13.4489 142.559 13.7019 142.065 14.2002C141.571 14.7024 141.322 15.3944 141.322 16.2801C141.322 17.1659 141.567 17.8856 142.065 18.3957C142.559 18.9058 143.184 19.1589 143.935 19.1589C144.983 19.1589 145.782 18.6211 146.328 17.5416L149.582 19.2024C149.167 20.2345 148.467 21.0451 147.478 21.6264C146.49 22.2116 145.315 22.5003 143.959 22.5003C142.603 22.5003 141.44 22.2353 140.392 21.7015V21.7094Z" fill="#070915"/>
<path d="M153.588 21.7094C152.556 21.1795 151.745 20.4401 151.164 19.495C150.583 18.5499 150.29 17.4783 150.29 16.2841C150.29 15.0899 150.583 14.042 151.164 13.0969C151.745 12.1519 152.552 11.4164 153.576 10.8944C154.6 10.3724 155.763 10.1075 157.064 10.1075C158.365 10.1075 159.527 10.3685 160.563 10.8944C161.595 11.4203 162.402 12.1479 162.975 13.0851C163.553 14.0222 163.837 15.0899 163.837 16.2841C163.837 17.4783 163.549 18.5499 162.975 19.495C162.398 20.4401 161.595 21.1795 160.563 21.7094C159.531 22.2393 158.365 22.5082 157.064 22.5082C155.763 22.5082 154.62 22.2432 153.588 21.7094ZM158.883 18.3997C159.353 17.8895 159.591 17.1857 159.591 16.2841C159.591 15.3825 159.353 14.7063 158.883 14.2041C158.408 13.7019 157.803 13.4528 157.068 13.4528C156.332 13.4528 155.723 13.7059 155.253 14.2041C154.778 14.7063 154.545 15.3983 154.545 16.2841C154.545 17.1699 154.782 17.8895 155.253 18.3997C155.723 18.9098 156.328 19.1628 157.068 19.1628C157.807 19.1628 158.412 18.9098 158.883 18.3997Z" fill="#070915"/>
<path d="M166.032 8.33595C165.558 7.90888 165.324 7.37505 165.324 6.74236C165.324 6.10967 165.562 5.57584 166.032 5.14878C166.503 4.72171 167.123 4.50818 167.891 4.50818C168.658 4.50818 169.279 4.70985 169.749 5.11714C170.22 5.52444 170.457 6.04245 170.457 6.67909C170.457 7.31574 170.22 7.89306 169.749 8.32804C169.275 8.76301 168.658 8.9805 167.891 8.9805C167.123 8.9805 166.503 8.76697 166.032 8.3399V8.33595ZM165.791 10.3052H169.998V22.3065H165.791V10.3052Z" fill="#070915"/>
<path d="M184.135 11.4361C185.044 12.3219 185.495 13.6584 185.495 15.4458V22.3105H181.288V16.1338C181.288 14.4968 180.631 13.6743 179.319 13.6743C178.595 13.6743 178.018 13.9115 177.579 14.3821C177.144 14.8566 176.926 15.5644 176.926 16.5095V22.3105H172.719V10.3052H176.728V11.6101C177.199 11.1237 177.761 10.752 178.413 10.491C179.062 10.234 179.769 10.1035 180.54 10.1035C182.031 10.1035 183.229 10.5464 184.139 11.4322L184.135 11.4361Z" fill="#070915"/>
<path d="M216.533 6.80563L211.507 22.3065H206.813L203.847 12.8715L200.747 22.3065H196.053L191.027 6.80563H195.543L198.667 16.7033L201.945 6.80563H205.975L209.098 16.7942L212.353 6.80563H216.536H216.533Z" fill="#070915"/>
<path d="M226.695 11.4678C227.743 12.3772 228.269 13.7692 228.269 15.6435V22.3105H224.35V20.7604C223.745 21.9269 222.563 22.5082 220.807 22.5082C219.878 22.5082 219.071 22.3461 218.395 22.0218C217.715 21.6975 217.205 21.2586 216.857 20.705C216.509 20.1514 216.335 19.5187 216.335 18.8109C216.335 17.676 216.77 16.7942 217.64 16.1655C218.51 15.5367 219.854 15.2243 221.669 15.2243H224.062C223.986 13.955 223.14 13.3184 221.515 13.3184C220.938 13.3184 220.356 13.4093 219.767 13.5952C219.178 13.781 218.676 14.0341 218.261 14.3584L216.845 11.5033C217.509 11.0605 218.316 10.7164 219.269 10.4752C220.222 10.2301 221.179 10.1114 222.136 10.1114C224.129 10.1114 225.647 10.5662 226.699 11.4717L226.695 11.4678ZM223.263 19.495C223.63 19.2577 223.895 18.9137 224.062 18.455V17.415H222.246C221.021 17.415 220.408 17.8223 220.408 18.633C220.408 19.0007 220.546 19.2973 220.827 19.5187C221.108 19.7402 221.491 19.8509 221.978 19.8509C222.464 19.8509 222.891 19.7323 223.263 19.495Z" fill="#070915"/>
<path d="M230.926 5.87637H235.134V22.3065H230.926V5.87637Z" fill="#070915"/>
<path d="M237.854 5.87637H242.062V22.3065H237.854V5.87637Z" fill="#070915"/>
<path d="M256.989 17.3715H248.266C248.444 17.9924 248.788 18.4669 249.294 18.799C249.804 19.1312 250.441 19.2973 251.208 19.2973C251.785 19.2973 252.283 19.2182 252.703 19.0521C253.122 18.89 253.549 18.6251 253.976 18.2533L256.19 20.5548C255.024 21.8557 253.319 22.5042 251.073 22.5042C249.67 22.5042 248.44 22.2393 247.376 21.7055C246.312 21.1716 245.49 20.4361 244.909 19.491C244.327 18.546 244.035 17.4743 244.035 16.2801C244.035 15.0859 244.319 14.0381 244.889 13.1009C245.458 12.1637 246.241 11.4282 247.246 10.8983C248.25 10.3685 249.377 10.0996 250.634 10.0996C251.892 10.0996 252.916 10.3487 253.889 10.843C254.862 11.3373 255.637 12.053 256.202 12.9902C256.772 13.9273 257.056 15.0385 257.056 16.3236C257.056 16.3553 257.033 16.6993 256.989 17.3636V17.3715ZM249.025 13.6505C248.59 14.0183 248.313 14.5205 248.195 15.1571H253.11C252.991 14.5244 252.714 14.0222 252.279 13.6505C251.844 13.2828 251.303 13.0969 250.65 13.0969C249.998 13.0969 249.46 13.2828 249.021 13.6505H249.025Z" fill="#070915"/>
<path d="M267.286 21.8201C266.93 22.0416 266.499 22.2116 265.989 22.3302C265.479 22.4489 264.937 22.5082 264.36 22.5082C262.794 22.5082 261.592 22.1246 260.75 21.3575C259.907 20.5903 259.488 19.4475 259.488 17.9251V13.8957H257.74V10.752H259.488V7.62813H263.696V10.752H266.44V13.8957H263.696V17.8816C263.696 18.3087 263.81 18.6448 264.04 18.89C264.269 19.1352 264.573 19.2538 264.957 19.2538C265.443 19.2538 265.87 19.1272 266.242 18.8781L267.282 21.8241L267.286 21.8201Z" fill="#070915"/>
</svg>
