<svg width="72" height="72" viewBox="0 0 72 72" fill="none" xmlns="http://www.w3.org/2000/svg">
<path d="M0 2C0 0.895431 0.895431 0 2 0H70C71.1046 0 72 0.895431 72 2V70C72 71.1046 71.1046 72 70 72H2C0.895431 72 0 71.1046 0 70V2Z" fill="#2231EF"/>
<g clip-path="url(#clip0_4034_8382)">
<path d="M54.4134 21.5437H50.938L49.7877 23.1869H54.4134C55.8101 23.1869 56.9522 24.3208 56.9522 25.7257V28.1659H46.304L41.5551 34.9525H56.9522V46.2825C56.9522 47.6793 55.8183 48.8213 54.4134 48.8213H31.8436L30.6934 50.4645H54.4134C56.7221 50.4645 58.5954 48.5913 58.5954 46.2825V25.7257C58.5954 23.4252 56.7221 21.5437 54.4134 21.5437Z" fill="white"/>
<path d="M17.5883 50.4562H21.0637L22.214 48.813H17.5883C16.1915 48.813 15.0495 47.6792 15.0495 46.2742V34.9442H31.9172L36.6662 28.1576H15.0495V25.7174C15.0495 24.3207 16.1915 23.1786 17.5883 23.1786H40.158L41.3083 21.5354H17.5883C15.2795 21.5354 13.4062 23.4087 13.4062 25.7174V46.2742C13.4062 48.5747 15.2795 50.4562 17.5883 50.4562Z" fill="white"/>
<path d="M53.5506 10.9448L18.4512 61.0633" stroke="white" stroke-width="4" stroke-miterlimit="10"/>
</g>
<defs>
<clipPath id="clip0_4034_8382">
<rect width="45.1888" height="52" fill="white" transform="translate(13.4062 10)"/>
</clipPath>
</defs>
</svg>
