<svg width="72" height="72" viewBox="0 0 72 72" fill="none" xmlns="http://www.w3.org/2000/svg">
<path d="M0 2C0 0.895431 0.895431 0 2 0H70C71.1046 0 72 0.895431 72 2V70C72 71.1046 71.1046 72 70 72H2C0.895431 72 0 71.1046 0 70V2Z" fill="#2231EF"/>
<path d="M30.2968 29.8646C30.4324 29.8646 30.568 29.8646 30.568 29.729C32.127 28.17 33.8893 27.3566 35.855 27.3566C37.8207 27.3566 39.6509 28.17 41.1421 29.729C41.3454 29.9324 41.6843 29.9324 41.8877 29.729C42.091 29.5257 42.091 29.1868 41.8877 28.9834C40.2609 27.2889 38.0919 26.3399 35.9228 26.3399C33.7538 26.3399 31.6525 27.2889 29.9579 28.9834C29.7546 29.1868 29.7546 29.5257 29.9579 29.729C30.0257 29.7968 30.1613 29.8646 30.2968 29.8646Z" fill="white"/>
<path d="M35.9228 28.9834C34.3638 28.9834 32.8726 29.5935 31.7203 30.7458C31.5169 30.9491 31.5169 31.288 31.7203 31.4914C31.9236 31.6947 32.2625 31.6947 32.4659 31.4914C33.4148 30.5424 34.6349 30.0002 35.9228 30.0002C37.2107 30.0002 38.4308 30.5424 39.3797 31.4914C39.4475 31.5592 39.5831 31.627 39.7186 31.627C39.8542 31.627 39.9898 31.5592 40.1253 31.4914C40.3287 31.288 40.3287 30.9491 40.1253 30.7458C38.9052 29.5935 37.4818 28.9834 35.9228 28.9834Z" fill="white"/>
<path d="M35.855 31.4914C35.0416 31.4914 34.2282 31.8303 33.686 32.4404C33.4826 32.6437 33.4826 32.9826 33.686 33.186C33.8893 33.3893 34.2282 33.3893 34.4316 33.186C35.1772 32.3726 36.6006 32.3726 37.3462 33.186C37.4818 33.2537 37.6174 33.3215 37.7529 33.3215C37.8885 33.3215 37.9563 33.3215 38.0241 33.186C38.2274 32.9826 38.2274 32.6437 38.0241 32.4404C37.4818 31.8303 36.6684 31.4914 35.855 31.4914Z" fill="white"/>
<path d="M35.9228 34.3383C35.0416 34.3383 34.296 35.0839 34.296 35.9651C34.296 36.8462 35.0416 37.5918 35.9228 37.5918C36.804 37.5918 37.5496 36.914 37.5496 35.9651C37.5496 35.0839 36.804 34.3383 35.9228 34.3383Z" fill="white"/>
<path d="M48.266 15.9014V15.8878C47.8458 15.3117 47.2086 14.966 46.5579 14.966H41.2505V7.97078C41.2505 7.78099 41.1692 7.57764 41.0472 7.45563L39.8881 6.22877C39.6305 5.97119 39.1086 5.97119 38.851 6.22877L38.2884 6.79136L37.7258 6.22877C37.4683 5.97119 36.9192 5.99153 36.7091 6.20843L35.9364 6.8117L35.3534 6.22877C35.0484 5.92374 34.5536 5.92374 34.2486 6.22877L33.686 6.79136L33.1234 6.22877C32.8658 5.97119 32.3439 5.97119 32.0795 6.22877L30.934 7.44208C30.8052 7.57087 30.7239 7.77421 30.7239 7.96401V14.966H25.4165C24.6912 14.966 24.0879 15.2981 23.7151 15.8946C23.2949 16.5317 21.9121 18.8635 21.9121 22.2729C21.9121 23.3914 22.0409 26.9025 22.2104 31.3423C22.2849 33.4164 22.373 35.7278 22.4611 38.1409L22.6238 42.174C22.9153 49.4606 23.2203 56.998 23.2745 60.7668C23.2745 62.5223 24.7861 64 26.5823 64H45.4259C47.2154 64 48.7337 62.5156 48.7337 60.7668C48.788 56.9913 49.093 49.4606 49.3845 42.174L49.5471 38.1273C49.6353 35.721 49.7166 33.43 49.7912 31.3558C49.9538 26.8957 50.0894 23.3778 50.0894 22.2594C50.0894 19.3786 49.1133 17.2028 48.2864 15.8878L48.266 15.9014ZM32.1066 17.3451V8.28258L32.5269 7.86233L33.0895 8.42493C33.3945 8.72995 33.8893 8.72995 34.1943 8.42493L34.7569 7.86233L35.3195 8.42493C35.6246 8.72995 36.1194 8.72995 36.4244 8.42493L36.987 7.86233L37.5496 8.43171C37.8072 8.68928 38.3494 8.66895 38.5731 8.44526L39.278 7.84877L39.7186 8.28936V17.3519H32.0931L32.1066 17.3451ZM28.0532 17.4129C27.6601 17.4129 27.2602 17.7112 27.2602 18.206C27.2602 18.7008 27.5787 19.0058 28.0532 19.0058H43.711C44.1042 19.0058 44.5041 18.7076 44.5041 18.206C44.5041 17.7044 44.1855 17.4129 43.711 17.4129H41.1827V16.5656H46.4901C46.6596 16.5656 46.7884 16.6402 46.8833 16.7893C47.6085 17.9145 48.4694 19.7921 48.4694 22.3543C48.5372 23.8658 48.3406 30.3255 47.9949 38.0595C47.6628 46.4172 47.3239 56.1643 47.1815 60.7803C47.1815 61.7089 46.3681 62.4884 45.4056 62.4884H26.4332C25.4707 62.4884 24.6573 61.7022 24.6573 60.7735C24.6031 56.9913 24.2981 49.4538 24.0066 42.1672L23.8439 38.1273C23.7558 35.6668 23.6677 33.3215 23.5931 31.2203C23.4304 26.8483 23.3017 23.3981 23.3017 22.3407C23.3017 19.5549 24.4133 17.5282 24.8878 16.7893C24.9759 16.6538 25.1725 16.5656 25.2877 16.5656H30.5951V17.4129H28.0532Z" fill="white"/>
<path d="M27.0433 41.5571H44.8023C45.7039 41.5571 46.463 40.798 46.463 39.8965V24.0353C46.463 23.1338 45.7039 22.3746 44.8023 22.3746H27.0433C26.1418 22.3746 25.3826 23.1338 25.3826 24.0353V39.8965C25.3826 40.798 26.1418 41.5571 27.0433 41.5571ZM26.7382 39.8965V24.0353C26.7382 23.8591 26.867 23.7303 27.0433 23.7303H44.8023C44.9786 23.7303 45.1074 23.8591 45.1074 24.0353V39.8965C45.1074 40.0727 44.9786 40.2015 44.8023 40.2015H27.0433C26.867 40.2015 26.7382 40.0727 26.7382 39.8965Z" fill="white"/>
<path d="M30.3714 53.9275C31.2322 53.9275 31.9507 53.1887 31.9372 52.3143L31.9236 51.2975C31.9168 50.4096 31.1712 49.6572 30.3036 49.6572H27.2941C26.4264 49.6572 25.7079 50.4096 25.7351 51.2975L25.7622 52.3143C25.7825 53.1887 26.5349 53.9275 27.389 53.9275H30.3714ZM30.3172 50.6807C30.6493 50.6807 30.9204 50.9518 30.9272 51.2907L30.9408 52.3075C30.9408 52.6464 30.6832 52.9175 30.3511 52.9175H27.3686C27.0365 52.9175 26.7654 52.6464 26.7586 52.3075L26.7315 51.2907C26.7247 50.9518 26.9823 50.6807 27.3144 50.6807H30.3172Z" fill="white"/>
<path d="M38.9798 51.2907C38.9866 50.4028 38.2545 49.6504 37.3869 49.6504H34.3774C33.5097 49.6504 32.7777 50.4028 32.7845 51.2907V52.3075C32.798 53.1819 33.5301 53.9207 34.3909 53.9207H37.3666C38.2884 53.9207 38.9595 53.1819 38.9662 52.3075V51.2907H38.9798ZM38.0444 52.3075C38.0444 52.6464 37.7733 52.9175 37.4479 52.9175H34.4655C34.1333 52.9175 33.869 52.6464 33.869 52.3075V51.2907C33.8622 50.9518 34.1266 50.6807 34.4587 50.6807H37.4547C37.7868 50.6807 38.0512 50.9518 38.0512 51.2907V52.3075H38.0444Z" fill="white"/>
<path d="M44.538 49.6572H41.5284C40.6608 49.6572 39.9152 50.4096 39.9084 51.2975L39.8949 52.3143C39.8881 53.1887 40.6066 53.9275 41.4607 53.9275H44.4363C45.2972 53.9275 46.0428 53.1887 46.0631 52.3143L46.0902 51.2975C46.1173 50.4096 45.3988 49.6572 44.5312 49.6572H44.538ZM45.0802 52.3075C45.0735 52.6464 44.8023 52.9175 44.4702 52.9175H41.4878C41.1556 52.9175 40.8981 52.6464 40.8981 52.3075L40.9116 51.2907C40.9116 50.9518 41.1895 50.6807 41.5217 50.6807H44.5177C44.8498 50.6807 45.1141 50.9518 45.1006 51.2907L45.0735 52.3075H45.0802Z" fill="white"/>
<path d="M31.9914 57.4386L31.9778 56.449C31.9711 55.5882 31.239 54.8561 30.3782 54.8561H27.4093C26.5552 54.8561 25.8503 55.5882 25.8706 56.449L25.8977 57.4386C25.9181 58.2927 26.6569 59.0112 27.5042 59.0112H30.4392C31.2865 59.0112 31.9982 58.2927 31.9846 57.4386H31.9914ZM27.4906 58.0351C27.1653 58.0351 26.8941 57.7708 26.8874 57.4454L26.8602 56.4558C26.8535 56.1236 27.111 55.8593 27.4364 55.8593H30.3917C30.7171 55.8593 30.9882 56.1236 30.9882 56.4558L31.0018 57.4454C31.0018 57.7708 30.751 58.0351 30.4188 58.0351H27.4771H27.4906Z" fill="white"/>
<path d="M34.3977 54.8629C33.5436 54.8629 32.8251 55.5949 32.8319 56.4558V57.4454C32.8455 58.2995 33.5707 59.018 34.418 59.018H37.353C38.2681 59.018 38.9256 58.2995 38.9324 57.4454V56.4558C38.9459 55.5949 38.2274 54.8629 37.3734 54.8629H34.3977ZM38.0173 57.4386C38.0173 57.764 37.7529 58.0283 37.4276 58.0283H34.4858C34.1605 58.0283 33.8961 57.764 33.8961 57.4386V56.449C33.8893 56.1169 34.1537 55.8525 34.479 55.8525H37.4344C37.7597 55.8525 38.0241 56.1169 38.0241 56.449V57.4386H38.0173Z" fill="white"/>
<path d="M44.4228 54.8629H41.4539C40.5998 54.8629 39.861 55.5949 39.8542 56.4558L39.8406 57.4454C39.8339 58.2995 40.5388 59.018 41.3861 59.018H44.3211C45.1684 59.018 45.9072 58.2995 45.9275 57.4454L45.9547 56.4558C45.975 55.5949 45.27 54.8629 44.416 54.8629H44.4228ZM44.9515 57.4386C44.9447 57.764 44.6736 58.0283 44.3482 58.0283H41.4064C41.0811 58.0283 40.8235 57.764 40.8235 57.4386L40.8371 56.449C40.8371 56.1169 41.1082 55.8525 41.4335 55.8525H44.3889C44.7142 55.8525 44.9718 56.1169 44.965 56.449L44.9379 57.4386H44.9515Z" fill="white"/>
<path d="M27.2737 48.6743H30.2901C31.1645 48.6743 31.8897 47.9152 31.883 47.0136L31.8694 45.9698C31.8626 45.0615 31.1034 44.2888 30.2223 44.2888H27.1721C26.2909 44.2888 25.5656 45.0615 25.5927 45.9698L25.6198 47.0136C25.6469 47.9152 26.3993 48.6743 27.2737 48.6743ZM27.1992 45.3394H30.2426C30.5815 45.3394 30.8527 45.6173 30.8594 45.9698L30.873 47.0136C30.873 47.3593 30.6154 47.6372 30.2765 47.6372H27.2534C26.9145 47.6372 26.6433 47.3593 26.6366 47.0136L26.6095 45.9698C26.6027 45.6173 26.867 45.3394 27.1992 45.3394Z" fill="white"/>
<path d="M39.0273 45.9698C39.034 45.0615 38.2952 44.2888 37.414 44.2888H34.3638C33.4826 44.2888 32.7438 45.0615 32.7506 45.9698V47.0136C32.7641 47.9152 33.5097 48.6743 34.3841 48.6743H37.4005C38.3359 48.6743 39.0137 47.9152 39.0205 47.0136V45.9698H39.0273ZM38.0715 47.0136C38.0715 47.3593 37.8004 47.6372 37.4615 47.6372H34.4384C34.0994 47.6372 33.8351 47.3593 33.8283 47.0136V45.9698C33.8215 45.6173 34.0927 45.3394 34.4248 45.3394H37.4682C37.8072 45.3394 38.0783 45.6173 38.0715 45.9698V47.0136Z" fill="white"/>
<path d="M44.6668 44.282H41.6166C40.7354 44.282 39.983 45.0547 39.9694 45.963L39.9559 47.0069C39.9491 47.9084 40.6744 48.6675 41.5488 48.6675H44.5651C45.4395 48.6675 46.1919 47.9084 46.219 47.0069L46.2461 45.963C46.2732 45.0547 45.548 44.282 44.6668 44.282ZM45.209 47.0136C45.2023 47.3593 44.9244 47.6372 44.5922 47.6372H41.5691C41.2302 47.6372 40.9658 47.3593 40.9726 47.0136L40.9862 45.9698C40.9862 45.6173 41.2641 45.3394 41.603 45.3394H44.6464C44.9854 45.3394 45.2497 45.6173 45.2362 45.9698L45.209 47.0136Z" fill="white"/>
</svg>
