<svg width="72" height="72" viewBox="0 0 72 72" fill="none" xmlns="http://www.w3.org/2000/svg">
<path d="M0 2C0 0.895431 0.895431 0 2 0H70C71.1046 0 72 0.895431 72 2V70C72 71.1046 71.1046 72 70 72H2C0.895431 72 0 71.1046 0 70V2Z" fill="#2231EF"/>
<g clip-path="url(#clip0_4363_3573)">
<path d="M49.3856 53.6126C47.3964 52.1207 44.4955 51.0018 41.3874 49.8C37.6991 48.391 33.5135 46.7748 30.4054 44.2468C26.8414 41.4288 25.1009 37.8649 25.1009 33.3477C25.1009 29.2865 26.7586 25.8468 29.9496 23.3604C33.5135 20.5423 38.9009 19.0919 45.5315 19.0919C47.355 19.0919 49.1369 19.2162 50.7532 19.4234C50.8775 19.4234 51.0432 19.382 51.0847 19.2162C51.1676 19.0919 51.1261 18.9261 51.0018 18.8432C46.8577 15.0721 41.4288 13 35.7928 13C29.7009 13 23.982 15.3622 19.6721 19.6721C15.3622 23.982 13 29.7009 13 35.7928C13 41.8847 15.3622 47.6036 19.6721 51.9135C23.982 56.2234 29.7009 58.5856 35.7928 58.5856C40.7243 58.5856 45.4072 57.0523 49.3441 54.1099C49.427 54.027 49.4685 53.9441 49.4685 53.8613C49.5099 53.7784 49.4685 53.6955 49.3856 53.6126Z" fill="white"/>
<path d="M58.5024 33.6793C58.5024 33.5964 58.461 33.5135 58.3781 33.4721C53.6537 29.5352 49.7997 27.9189 45.1168 27.9189C42.6303 27.9189 40.724 28.4162 39.4393 29.4108C38.3204 30.2811 37.7402 31.4415 37.7402 32.8505C37.7402 36.746 42.5474 38.5694 48.0592 40.6415C50.9186 41.7189 53.861 42.7964 56.5961 44.3298C56.6375 44.3712 56.679 44.3712 56.7619 44.3712C56.8033 44.3712 56.8447 44.3712 56.8862 44.3298C56.9691 44.2883 57.0519 44.2469 57.0934 44.1225C58.1294 41.4703 58.6682 38.6523 58.6682 35.7928C58.6267 35.1298 58.5853 34.4253 58.5024 33.6793Z" fill="white"/>
</g>
<defs>
<clipPath id="clip0_4363_3573">
<rect width="46" height="45.5856" fill="white" transform="translate(13 13)"/>
</clipPath>
</defs>
</svg>
