<svg width="72" height="72" viewBox="0 0 72 72" fill="none" xmlns="http://www.w3.org/2000/svg">
<path d="M0 2C0 0.895431 0.895431 0 2 0H70C71.1046 0 72 0.895431 72 2V70C72 71.1046 71.1046 72 70 72H2C0.895431 72 0 71.1046 0 70V2Z" fill="#2231EF"/>
<path fill-rule="evenodd" clip-rule="evenodd" d="M53.8812 40.6318V45.3363H59.466C60.0183 45.3363 60.466 45.784 60.466 46.3363C60.466 46.8886 60.0183 47.3363 59.466 47.3363H53.8812V50.5996C53.8812 52.2564 52.5381 53.5996 50.8812 53.5996H46.4981V59.1868C46.4981 59.739 46.0503 60.1868 45.4981 60.1868C44.9458 60.1868 44.4981 59.739 44.4981 59.1868V53.5996L39.7902 53.5996V59.1868C39.7902 59.739 39.3425 60.1868 38.7902 60.1868C38.2379 60.1868 37.7902 59.739 37.7902 59.1868V53.5996L33.0918 53.5996V59.1868C33.0918 59.739 32.644 60.1868 32.0918 60.1868C31.5395 60.1868 31.0918 59.739 31.0918 59.1868V53.5996L26.385 53.5996V59.1868C26.385 59.739 25.9373 60.1868 25.385 60.1868C24.8327 60.1868 24.385 59.739 24.385 59.1868V53.5996L21.1235 53.5996C19.4667 53.5996 18.1235 52.2564 18.1235 50.5996V47.3363H12.5332C11.9809 47.3363 11.5332 46.8886 11.5332 46.3363C11.5332 45.784 11.9809 45.3363 12.5332 45.3363H18.1235V40.6318H12.5332C11.9809 40.6318 11.5332 40.1841 11.5332 39.6318C11.5332 39.0795 11.9809 38.6318 12.5332 38.6318H18.1235V33.9272H12.5332C11.9809 33.9272 11.5332 33.4795 11.5332 32.9272C11.5332 32.3749 11.9809 31.9272 12.5332 31.9272H18.1235V27.2226L12.5332 27.2226C11.9809 27.2226 11.5332 26.7749 11.5332 26.2226C11.5332 25.6703 11.9809 25.2226 12.5332 25.2226L18.1235 25.2226V20.8419C18.1235 19.185 19.4667 17.8419 21.1235 17.8419H24.9434V12.8135C24.9434 12.2612 25.3911 11.8135 25.9434 11.8135C26.4956 11.8135 26.9434 12.2612 26.9434 12.8135V17.8419H31.6504V12.8135C31.6504 12.2612 32.0981 11.8135 32.6504 11.8135C33.2027 11.8135 33.6504 12.2612 33.6504 12.8135V17.8419H38.3486V12.8135C38.3486 12.2612 38.7964 11.8135 39.3486 11.8135C39.9009 11.8135 40.3486 12.2612 40.3486 12.8135V17.8419H45.0566V12.8135C45.0566 12.2612 45.5044 11.8135 46.0566 11.8135C46.6089 11.8135 47.0566 12.2612 47.0566 12.8135V17.8419H50.8812C52.5381 17.8419 53.8812 19.185 53.8812 20.8419V25.2226L59.466 25.2226C60.0183 25.2226 60.466 25.6703 60.466 26.2226C60.466 26.7749 60.0183 27.2226 59.466 27.2226L53.8812 27.2226V31.9272H59.466C60.0183 31.9272 60.466 32.3749 60.466 32.9272C60.466 33.4795 60.0183 33.9272 59.466 33.9272H53.8812V38.6318H59.466C60.0183 38.6318 60.466 39.0795 60.466 39.6318C60.466 40.1841 60.0183 40.6318 59.466 40.6318H53.8812ZM21.1235 19.3419H50.8812C51.7096 19.3419 52.3812 20.0134 52.3812 20.8419V50.5996C52.3812 51.428 51.7096 52.0996 50.8812 52.0996H21.1235C20.2951 52.0996 19.6235 51.428 19.6235 50.5996V20.8419C19.6235 20.0134 20.2951 19.3419 21.1235 19.3419Z" fill="white"/>
<path d="M45.4805 36.0838C45.5974 36.0432 45.7104 36.0039 45.8255 35.9714C45.9367 35.9399 45.975 35.8722 45.9713 35.7663C45.9636 35.5697 45.9614 35.3723 45.9591 35.1749C45.9543 34.7524 45.9495 34.3298 45.8916 33.9145C45.528 31.3166 44.2689 29.2349 42.1451 27.6993C40.3857 26.4267 38.3993 25.8948 36.2365 26.0172C36.1741 26.021 36.0802 26.0623 36.0592 26.1119C36.0011 26.2447 35.9564 26.3835 35.9123 26.5207C35.8965 26.5698 35.8808 26.6188 35.8646 26.6671C40.4705 28.3792 43.6101 31.5262 45.3177 36.1397C45.3731 36.1211 45.4272 36.1023 45.4805 36.0838Z" fill="white"/>
<path d="M42.106 41.2205C42.1187 41.2235 42.1298 41.2268 42.1399 41.2298C42.1576 41.2351 42.1724 41.2395 42.1872 41.24L42.4064 41.244C42.7961 41.2513 43.1858 41.2585 43.5755 41.2573C43.6371 41.2573 43.7182 41.2062 43.7565 41.1543C43.9186 40.9334 44.0778 40.7105 44.237 40.4876C44.4009 40.258 44.5647 40.0285 44.7317 39.8013C44.9187 39.5474 44.939 39.2845 44.8909 38.9757C44.4274 36.0052 43.1766 33.4209 41.0888 31.258C38.8043 28.8916 36.0156 27.5025 32.7559 27.063C32.6642 27.051 32.5463 27.063 32.4726 27.1118C31.928 27.4777 31.3908 27.8533 30.8552 28.2319C30.8056 28.2665 30.7553 28.3401 30.7545 28.3972C30.7487 28.7795 30.7492 29.1614 30.7497 29.5484L30.75 29.8832C33.9106 29.9088 36.6181 30.9538 38.8268 33.167C41.04 35.3847 42.0827 38.099 42.1038 41.2212L42.106 41.2205Z" fill="white"/>
<path d="M37.6844 43.6126C37.7756 43.6467 37.8693 43.6823 37.9651 43.7186C38.2275 43.8182 38.5048 43.9236 38.7855 44.0204C38.8846 44.0542 39.0116 44.0685 39.1085 44.0377C39.408 43.9404 39.705 43.8354 40.0021 43.7304C40.1937 43.6626 40.3857 43.5947 40.578 43.5291C40.7079 43.4847 40.7575 43.3976 40.7846 43.2714C41.2812 40.9237 41.064 38.6451 39.9424 36.5206C38.0845 33.0017 35.1306 31.1363 31.1452 30.9816C29.5277 30.9184 28.0823 32.1708 27.7983 33.762C27.6638 34.514 27.6811 35.2457 28.029 35.9414C28.6705 37.2215 29.7275 37.8578 31.1414 37.9577C32.3637 38.0441 33.266 38.6504 33.7731 39.7608C34.2869 40.8854 34.1314 41.968 33.4004 42.9656L33.3521 43.0314C33.3313 43.0598 33.3094 43.0896 33.2855 43.1219L33.4937 43.3059L33.4944 43.3066C33.7216 43.5076 33.9445 43.7047 34.169 43.8987C34.2096 43.934 34.2659 43.9603 34.3192 43.9708C34.5524 44.0184 34.7859 44.0643 35.0194 44.1101C35.2942 44.1641 35.5699 44.2182 35.8443 44.2751C36.0156 44.3104 36.1012 44.2375 36.1824 44.0948C36.8322 42.9423 37.0981 41.7125 36.9629 40.3941C36.7173 37.9968 35.0006 35.9173 32.6785 35.26C32.3181 35.1579 31.943 35.1066 31.5682 35.0555C31.4219 35.0355 31.2755 35.0155 31.1301 34.9925C30.8154 34.9429 30.623 34.7236 30.6433 34.4126C30.6651 34.082 30.9341 33.8919 31.3533 33.9197C32.9595 34.0257 34.3966 34.5726 35.6046 35.6409C37.452 37.2741 38.2679 39.3378 38.0365 41.7929C37.9981 42.2008 37.9071 42.6035 37.813 43.0194C37.7691 43.2136 37.7246 43.4107 37.6844 43.6126Z" fill="white"/>
<path d="M30.0108 42.4074C33.7851 46.006 39.9214 46.1412 43.879 42.2249L44.1275 42.4663L44.1283 42.467C44.2493 42.5847 44.3724 42.7043 44.5056 42.8334C41.8769 45.3081 38.79 46.4026 35.2102 45.867C30.9746 45.2329 27.5797 42.1813 26.4355 38.123C25.2921 34.0655 26.6557 29.9741 29.1866 27.522L29.4432 27.7868C29.5515 27.8988 29.6608 28.0116 29.7719 28.126C27.7623 30.2273 26.7526 32.7643 26.9096 35.7107C27.0501 38.3394 28.1003 40.5856 30.0108 42.4074Z" fill="white"/>
<path d="M30.9574 39.4332C31.8559 39.4452 32.5635 40.1567 32.5635 41.0477C32.5635 41.9341 31.8551 42.6493 30.9731 42.6531C30.0889 42.6576 29.3617 41.9304 29.3632 41.0439C29.3647 40.1664 30.1017 39.4219 30.9574 39.4332Z" fill="white"/>
</svg>
