<svg width="72" height="72" viewBox="0 0 72 72" fill="none" xmlns="http://www.w3.org/2000/svg">
<path d="M0 2C0 0.895431 0.895431 0 2 0H70C71.1046 0 72 0.895431 72 2V70C72 71.1046 71.1046 72 70 72H2C0.895431 72 0 71.1046 0 70V2Z" fill="#2231EF"/>
<path d="M44.6288 18.8494L47.1276 21.3319L50.8433 21.6078C51.0137 21.624 51.2165 21.7538 51.2489 21.981L56.2789 56.0307L42.6736 58.9757L44.6369 18.8494H44.6288ZM41.3918 58.9919L15.7227 54.181L19.2274 27.1651C19.3978 25.9481 19.4384 25.9076 20.7283 25.5019L24.8902 24.212C25.7745 20.4314 28.6221 13 34.5689 13C35.3477 13 36.2482 13.4138 36.9703 14.3792C39.6881 14.2494 41.189 16.5453 42.0084 18.9143L43.3713 18.4924L41.3918 59V58.9919ZM36.1671 16.2695C34.7149 16.8942 33.0599 18.5411 32.1756 21.9566L36.7675 20.5369C36.7837 18.533 36.5322 17.1862 36.1671 16.2695ZM26.7237 23.6441L30.3583 22.5164C31.2183 18.0056 33.2627 15.7503 35.1692 14.8497C34.9258 14.6794 34.6662 14.5901 34.4066 14.5901C30.1311 14.5901 27.7378 20.1961 26.7237 23.636V23.6441ZM37.1812 29.4772C37.1812 29.4772 35.9967 28.7877 33.5872 28.7877C27.3484 28.7877 24.2574 32.9577 24.2574 37.2575C24.2574 42.3767 29.3604 42.5146 29.3604 45.63C29.3604 46.3845 28.825 47.4148 27.5188 47.4148C25.5149 47.4148 23.1459 45.3785 23.1459 45.3785L21.9371 49.37C21.9371 49.37 24.2493 52.1771 28.76 52.1771C32.5244 52.1771 35.3153 49.3457 35.3153 44.9485C35.3153 39.3587 29.0927 38.442 29.0927 36.0568C29.0927 35.6187 29.2306 33.8825 31.9971 33.8825C33.8874 33.8825 35.4207 34.7019 35.4207 34.7019L37.1812 29.4772ZM38.3332 20.0501L40.5562 19.3605C39.9964 17.6406 39.1202 16.1397 37.7978 15.9774C38.2034 17.1457 38.3495 18.5249 38.3251 20.0501H38.3332Z" fill="white"/>
</svg>
