<svg width="72" height="72" viewBox="0 0 72 72" fill="none" xmlns="http://www.w3.org/2000/svg">
<path d="M0 2C0 0.895431 0.895431 0 2 0H70C71.1046 0 72 0.895431 72 2V70C72 71.1046 71.1046 72 70 72H2C0.895431 72 0 71.1046 0 70V2Z" fill="#2231EF"/>
<g clip-path="url(#clip0_4157_438)">
<path d="M45.2378 47.6903L56.3906 36.5375C56.6776 36.2505 56.6776 35.783 56.3906 35.4878L43.0564 22.1536L38.0786 27.1314L46.4268 35.4796C46.7139 35.7666 46.7139 36.2341 46.4268 36.5293L40.26 42.6961L45.2378 47.6739V47.6903Z" fill="white"/>
<path d="M42.1215 50.8065L27.8524 36.5375C27.5654 36.2504 27.5654 35.783 27.8524 35.4878L42.1215 21.2188H32.4694C32.2726 21.2188 32.0839 21.2926 31.9445 21.432L17.8969 35.496C17.6099 35.783 17.6099 36.2504 17.8969 36.5457L31.9445 50.5933C32.0839 50.7327 32.2726 50.8065 32.4694 50.8065H42.1215Z" fill="white"/>
<path d="M18.3158 18.3157L21.0876 15.5439L15.544 9.99207L9.99219 15.5439L15.544 21.0875L18.3158 18.3157ZM18.3158 18.3157L25.5322 25.5322M18.3158 53.0945L15.544 50.3227L9.99219 55.8663L15.544 61.4181L21.0876 55.8663L18.3158 53.0945ZM18.3158 53.0945L24.909 46.5011M53.0943 18.3157L55.8661 21.0875L61.4179 15.5439L55.8661 9.99207L50.3225 15.5439L53.0943 18.3157ZM53.0943 18.3157L47.4607 23.9495M53.0943 53.0945L50.3225 55.8663L55.8661 61.4181L61.4179 55.8663L55.8661 50.3227L53.0943 53.0945ZM53.0943 53.0945L48.0837 48.0839" stroke="white" stroke-miterlimit="10"/>
</g>
<defs>
<clipPath id="clip0_4157_438">
<rect width="52" height="52" fill="white" transform="translate(9.70508 9.70496)"/>
</clipPath>
</defs>
</svg>
