<svg width="72" height="72" viewBox="0 0 72 72" fill="none" xmlns="http://www.w3.org/2000/svg">
<path d="M0 2C0 0.895431 0.895431 0 2 0H70C71.1046 0 72 0.895431 72 2V70C72 71.1046 71.1046 72 70 72H2C0.895431 72 0 71.1046 0 70V2Z" fill="#2231EF"/>
<g clip-path="url(#clip0_4034_8388)">
<path d="M59.624 46.8453C59.2348 45.6777 57.8467 44.6529 55.1483 45.3145L45.5613 47.6496C45.1851 47.2474 44.6402 46.9231 43.9267 46.7156L31.8618 43.1739C29.5916 42.5123 27.464 42.4474 25.1678 42.9664L22.0543 43.6799V42.5902C22.0543 41.6302 21.2759 40.8647 20.3289 40.8647H13.0899C12.1299 40.8647 11.3516 41.6431 11.3516 42.5902V56.4712C11.3516 57.4312 12.1299 58.1966 13.0899 58.1966H20.3289C21.2889 58.1966 22.0543 57.4183 22.0543 56.4712V55.4464L32.2899 58.4172C33.5613 58.7934 34.8197 58.975 36.0521 58.975C37.8035 58.975 39.5289 58.5988 41.2672 57.8464L57.4316 50.841C59.157 50.0885 60.117 48.3502 59.624 46.8583V46.8453ZM20.4975 56.4583C20.4975 56.5491 20.4197 56.6399 20.3159 56.6399H13.0899C12.9991 56.6399 12.9083 56.562 12.9083 56.4583V42.5772C12.9083 42.4864 12.9862 42.3956 13.0899 42.3956H20.3289C20.4197 42.3956 20.5105 42.4734 20.5105 42.5772V56.4583H20.4975ZM56.8218 49.401L40.6575 56.4064C38.0499 57.535 35.4554 57.7037 32.731 56.9123L22.0543 53.8118V45.2626L25.5181 44.4712C27.5808 44.0042 29.397 44.0561 31.4337 44.6529L43.4986 48.1945C44.0564 48.3631 44.3937 48.6096 44.5883 48.882C44.5883 48.908 44.6143 48.921 44.6272 48.9469C44.7829 49.2064 44.8089 49.4918 44.744 49.7383C44.5754 50.3869 43.8229 50.9577 42.5516 50.6853L30.3699 48.0388C29.9548 47.948 29.5397 48.2074 29.4489 48.6356C29.3581 49.0507 29.6175 49.4658 30.0456 49.5566L42.2272 52.2031C42.5645 52.281 42.8759 52.3069 43.1872 52.3069C44.8348 52.3069 45.9505 51.295 46.2489 50.1145C46.3397 49.7772 46.3527 49.4139 46.2878 49.0507L55.5245 46.8064C56.9256 46.4691 57.9375 46.6637 58.1581 47.3253C58.3656 47.948 57.8856 48.921 56.8218 49.375V49.401Z" fill="white"/>
<path d="M36.8733 24.4722L36.1339 27.4544C37.0458 27.6762 39.8801 28.5881 40.2991 26.9122C40.7304 25.1623 37.7975 24.7063 36.8856 24.4845L36.8733 24.4722Z" fill="white"/>
<path d="M37.8837 20.4056L37.206 23.1043C37.97 23.2892 40.3237 24.0655 40.7057 22.5375C41.1001 20.9478 38.6478 20.5904 37.8837 20.3932V20.4056Z" fill="white"/>
<path d="M40.9276 12.3709C34.3224 10.7196 27.6433 14.7369 25.992 21.3421C24.3407 27.9473 28.358 34.6264 34.9632 36.2777C41.5684 37.929 48.2475 33.9117 49.8988 27.3065C51.5501 20.7013 47.5328 14.0222 40.9276 12.3709ZM43.3799 22.5744C43.2074 23.7698 42.5419 24.3613 41.6547 24.5585C42.8623 25.1869 43.4785 26.1605 42.8993 27.8364C42.1722 29.919 40.4347 30.0915 38.1303 29.6602L37.5757 31.903L36.2202 31.5703L36.7747 29.3522C36.4297 29.2659 36.06 29.1673 35.7026 29.0687L35.1481 31.2869L33.7925 30.9542L34.3471 28.7114C34.0267 28.6251 33.7063 28.5388 33.3859 28.4649L31.6237 28.0213L32.2891 26.4685C32.2891 26.4685 33.2873 26.7273 33.275 26.715C33.657 26.8136 33.8295 26.5548 33.8911 26.3946L34.7784 22.8455L34.9263 22.8825C34.9263 22.8825 34.8277 22.8455 34.7907 22.8332L35.4192 20.307C35.4315 20.0236 35.3329 19.6539 34.7907 19.5183C34.8153 19.506 33.8049 19.2718 33.8049 19.2718L34.1622 17.83L36.023 18.2983C36.3064 18.3723 36.5899 18.4462 36.8856 18.5078L37.4402 16.2897L38.7957 16.6224L38.2535 18.8036C38.6109 18.8898 38.9806 18.9761 39.3379 19.0624L39.8801 16.9058L41.2357 17.2385L40.6811 19.4567C42.3941 20.0482 43.6387 20.9231 43.3922 22.5621L43.3799 22.5744Z" fill="white"/>
</g>
<defs>
<clipPath id="clip0_4034_8388">
<rect width="49.2973" height="48" fill="white" transform="translate(11.3516 12)"/>
</clipPath>
</defs>
</svg>
