<svg width="72" height="72" viewBox="0 0 72 72" fill="none" xmlns="http://www.w3.org/2000/svg">
<path d="M0 2C0 0.895431 0.895431 0 2 0H70C71.1046 0 72 0.895431 72 2V70C72 71.1046 71.1046 72 70 72H2C0.895431 72 0 71.1046 0 70V2Z" fill="#2231EF"/>
<path fill-rule="evenodd" clip-rule="evenodd" d="M54.7176 21.6421H17.2733C14.9036 21.6421 12.9854 23.579 13.004 25.9301V40.2233C13.004 42.5931 14.9223 44.5113 17.292 44.5113H35.0262L43.1319 49.0251L41.2884 44.5113H54.7159C57.0857 44.5113 59.0039 42.5931 59.0039 40.2233V25.9301C59.0039 23.5603 57.0857 21.6421 54.7159 21.6421H54.7176ZM16.484 24.9523C15.9578 24.9896 15.5622 25.1781 15.2991 25.5345C15.036 25.8724 14.9426 26.3052 14.9986 26.7941C16.1088 33.8474 17.1426 38.6039 18.1017 41.0687C18.4786 41.9718 18.9098 42.4047 19.419 42.3656C20.2084 42.3096 21.1488 41.2181 22.259 39.0928C22.8413 37.8892 23.7444 36.083 24.9666 33.6759C25.9817 37.2306 27.3737 39.9008 29.1222 41.6883C29.611 42.1959 30.1186 42.4216 30.6075 42.3843C31.0404 42.347 31.3782 42.1212 31.604 41.707C31.7924 41.3505 31.8671 40.9363 31.8297 40.4661C31.7177 38.755 31.8857 36.3665 32.356 33.3008C32.8449 30.1417 33.4475 27.8653 34.1808 26.5123C34.3319 26.2305 34.3879 25.9487 34.3692 25.6092C34.3319 25.1764 34.1435 24.8199 33.787 24.5381C33.4305 24.2563 33.035 24.1239 32.6021 24.1612C32.0572 24.1986 31.643 24.4617 31.3612 24.9879C30.195 27.1133 29.3683 30.5542 28.8794 35.331C28.1647 33.5249 27.5621 31.4012 27.0919 28.8991C26.8848 27.7889 26.3772 27.2626 25.5505 27.3187C24.987 27.356 24.5167 27.7329 24.1399 28.4475L20.0217 36.2901C19.3443 33.5639 18.7044 30.235 18.1221 26.3035C17.9897 25.3257 17.4448 24.8742 16.4857 24.9489L16.484 24.9523ZM52.7247 26.3069C54.0607 26.5887 55.0571 27.3034 55.7344 28.4883C56.3371 29.5034 56.6375 30.7256 56.6375 32.194C56.6375 34.1309 56.1486 35.8997 55.1709 37.5158C54.042 39.3966 52.5753 40.3371 50.7522 40.3371C50.433 40.3371 50.0935 40.2997 49.737 40.225C48.4011 39.9432 47.4046 39.2286 46.7273 38.0437C46.1264 37.0099 45.8242 35.7673 45.8242 34.3193C45.8242 32.3824 46.3131 30.6136 47.2909 29.0162C48.4384 27.1353 49.9051 26.1949 51.7113 26.1949C52.0304 26.1949 52.3699 26.2322 52.7264 26.3069H52.7247ZM51.9337 36.4803C52.6297 35.859 53.0999 34.9389 53.363 33.6963C53.4377 33.2634 53.4954 32.7932 53.4954 32.3043C53.4954 31.7594 53.3834 31.1755 53.1576 30.5932C52.8758 29.8599 52.4989 29.4643 52.0474 29.371C51.3701 29.2386 50.7114 29.6154 50.0918 30.5372C49.5843 31.2518 49.2634 32.0039 49.0954 32.7745C49.002 33.2074 48.963 33.6776 48.963 34.1478C48.963 34.6928 49.075 35.2767 49.3008 35.859C49.5826 36.5923 49.9594 36.9878 50.411 37.0812C50.8812 37.1746 51.3888 36.9692 51.9337 36.4786V36.4803ZM43.9417 28.4883C43.2643 27.3034 42.2492 26.5887 40.9319 26.3069C40.5737 26.2322 40.2359 26.1949 39.9168 26.1949C38.1106 26.1949 36.6439 27.1353 35.4981 29.0162C34.5203 30.6153 34.0314 32.3824 34.0314 34.3193C34.0314 35.7673 34.3319 37.0082 34.9345 38.0437C35.6118 39.2286 36.6083 39.9432 37.9443 40.225C38.3007 40.2997 38.6402 40.3371 38.9594 40.3371C40.7842 40.3371 42.2509 39.3966 43.3781 37.5158C44.3559 35.898 44.8447 34.1309 44.8447 32.194C44.8447 30.7273 44.5443 29.5051 43.9417 28.4883ZM41.5719 33.698C41.3088 34.9389 40.8386 35.8607 40.1426 36.482C39.5977 36.9709 39.0901 37.178 38.6199 37.0846C38.1683 36.9912 37.7915 36.5957 37.5097 35.8624C37.2839 35.2801 37.1719 34.6962 37.1719 34.1512C37.1719 33.681 37.2092 33.2108 37.3043 32.7779C37.474 32.0073 37.7932 31.2552 38.3007 30.5406C38.922 29.6188 39.579 29.2437 40.2563 29.3744C40.7078 29.4677 41.0847 29.8633 41.3665 30.5966C41.5923 31.1789 41.7043 31.7628 41.7043 32.3077C41.7043 32.7966 41.667 33.2668 41.5719 33.6997V33.698Z" fill="white"/>
</svg>
