<svg width="72" height="72" viewBox="0 0 72 72" fill="none" xmlns="http://www.w3.org/2000/svg">
<path d="M0 2C0 0.895431 0.895431 0 2 0H70C71.1046 0 72 0.895431 72 2V70C72 71.1046 71.1046 72 70 72H2C0.895431 72 0 71.1046 0 70V2Z" fill="#2231EF"/>
<g clip-path="url(#clip0_4017_8939)">
<path d="M16.6346 42.4775C18.1504 42.4775 19.3697 41.725 20.2924 40.0005L22.3354 36.1779V39.4183C22.3354 41.3296 23.5712 42.472 25.4825 42.472C26.9818 42.472 28.0858 41.8184 29.1567 39.995L33.8635 32.0478C34.8961 30.3068 34.1656 28.9941 31.8973 28.9941C30.6781 28.9941 29.8927 29.3896 29.1787 30.7187L25.9383 36.8095V31.3997C25.9383 29.785 25.1694 28.9996 23.7469 28.9996C22.621 28.9996 21.7203 29.4884 21.0283 30.834L17.9747 36.815V31.4546C17.9747 29.7301 17.2607 28.9996 15.5361 28.9996H12.0046C10.6755 28.9996 10 29.6202 10 30.7626C10 31.905 10.714 32.5641 12.0046 32.5641H13.4491V39.4073C13.4491 41.3406 14.7452 42.4829 16.6346 42.4829V42.4775Z" fill="white"/>
<path fill-rule="evenodd" clip-rule="evenodd" d="M40.7454 29C36.9008 29 33.957 31.8669 33.957 35.7499C33.957 39.6329 36.9173 42.4778 40.7454 42.4778C44.5734 42.4778 47.4953 39.6109 47.5117 35.7499C47.5117 31.8669 44.5679 29 40.7454 29ZM40.7454 38.3367C39.3009 38.3367 38.3068 37.2493 38.3068 35.7499C38.3068 34.2505 39.3009 33.1466 40.7454 33.1466C42.1898 33.1466 43.1839 34.2505 43.1839 35.7499C43.1839 37.2493 42.2118 38.3367 40.7454 38.3367Z" fill="white"/>
<path fill-rule="evenodd" clip-rule="evenodd" d="M48.4688 35.7499C48.4688 31.8669 51.4126 29 55.2351 29C59.0577 29 62.0015 31.8889 62.0015 35.7499C62.0015 39.6109 59.0577 42.4778 55.2351 42.4778C51.4126 42.4778 48.4688 39.6274 48.4688 35.7499ZM52.8186 35.7499C52.8186 37.2493 53.7742 38.3367 55.2351 38.3367C56.696 38.3367 57.6737 37.2493 57.6737 35.7499C57.6737 34.2505 56.6796 33.1466 55.2351 33.1466C53.7907 33.1466 52.8186 34.2505 52.8186 35.7499Z" fill="white"/>
</g>
<defs>
<clipPath id="clip0_4017_8939">
<rect width="52" height="13.4778" fill="white" transform="translate(10 29)"/>
</clipPath>
</defs>
</svg>
