<svg width="72" height="72" viewBox="0 0 72 72" fill="none" xmlns="http://www.w3.org/2000/svg">
<path d="M0 2C0 0.895431 0.895431 0 2 0H70C71.1046 0 72 0.895431 72 2V70C72 71.1046 71.1046 72 70 72H2C0.895431 72 0 71.1046 0 70V2Z" fill="#2231EF"/>
<path fill-rule="evenodd" clip-rule="evenodd" d="M50.1206 36.0001C50.1206 43.7988 43.7985 50.121 35.9998 50.121C28.201 50.121 21.8789 43.7988 21.8789 36.0001C21.8789 28.2014 28.201 21.8793 35.9998 21.8793C43.7985 21.8793 50.1206 28.2014 50.1206 36.0001ZM35.187 43.3429V45.7081L35.1693 45.7258H36.652V43.2547C39.0879 42.884 40.3941 41.1189 40.3941 39.2302C40.3941 37.1297 39.1585 35.9118 36.7226 34.9234C34.6751 34.0408 33.7926 33.423 33.7926 32.2227C33.7926 31.2519 34.481 30.1576 36.299 30.1576C37.817 30.1576 38.7878 30.7047 39.282 30.9872L39.8822 29.4339C39.1761 29.0279 38.2053 28.6572 36.8109 28.6043V26.3096H35.3282V28.6749C33.1748 29.0279 31.7803 30.44 31.7803 32.4875C31.7803 34.535 33.263 35.647 35.6812 36.6002C37.4463 37.3239 38.3642 38.0829 38.3642 39.4244C38.3642 40.7659 37.2169 41.7367 35.54 41.7367C34.2162 41.7367 32.9806 41.2601 32.151 40.7129L31.5862 42.3015C32.4158 42.884 33.8102 43.3253 35.187 43.3429Z" fill="white"/>
<path fill-rule="evenodd" clip-rule="evenodd" d="M37.7643 14.0244L33.4045 10L33.4169 12.8372C23.6359 13.9332 15.2333 21.1709 13.1529 31.3548L13.1526 31.3564C10.7834 43.0345 17.611 54.4475 28.6528 58.1032L29.4385 55.7299C19.5817 52.4665 13.4888 42.275 15.6025 31.8542C17.4405 22.8591 24.8058 16.4327 33.4279 15.3534L33.4398 18.0842L37.7643 14.0244ZM42.5605 16.2701C52.4168 19.5334 58.5107 29.7247 56.3964 40.1641C54.5734 49.1459 47.2062 55.5848 38.5699 56.6521L38.558 53.9159L34.2335 57.9756L38.5933 62.0001L38.5809 59.1678C48.3784 58.0841 56.7822 50.8318 58.8465 40.6614L58.8466 40.6609C61.2154 28.9661 54.3887 17.5528 43.3463 13.8968L42.5605 16.2701Z" fill="white"/>
</svg>
