<svg width="72" height="72" viewBox="0 0 72 72" fill="none" xmlns="http://www.w3.org/2000/svg">
<path d="M0 2C0 0.895431 0.895431 0 2 0H70C71.1046 0 72 0.895431 72 2V70C72 71.1046 71.1046 72 70 72H2C0.895431 72 0 71.1046 0 70V2Z" fill="#2231EF"/>
<path d="M57.2892 27.0171V22.2857C57.2892 20.4457 55.8435 19 54.0035 19H15.8892C14.0492 19 12.6035 20.4457 12.6035 22.2857V47.6514C12.6035 48.9657 13.3921 50.1486 14.5749 50.6743V52.2514H23.7749V50.9371H25.2207V52.2514H34.5521V50.9371H36.5892V52.3172H41.9121V50.9371H53.9378C55.7778 50.9371 57.2235 49.4914 57.2235 47.6514H58.6035V38.32H57.2892V34.9686H58.6035V27.0171H57.2892ZM55.9749 38.32H47.3007V47.6514H55.9092C55.9092 48.7029 55.0549 49.6229 53.9378 49.6229H41.9121V44.3H36.5892V49.6229H34.5521V44.3H25.2207V49.6229H22.4607V50.9371H21.1464V49.6229H19.8321V50.9371H18.5178V49.6229H17.2035V50.9371H15.8892V49.6229C14.8378 49.6229 13.9178 48.7686 13.9178 47.6514V22.2857C13.9178 21.2343 14.7721 20.3143 15.8892 20.3143H54.0035C55.0549 20.3143 55.9749 21.1686 55.9749 22.2857V27.0171H48.6149V34.9686H55.9749V38.32Z" fill="white"/>
<path d="M23.3149 40.7514C23.6779 40.7514 23.9721 40.4572 23.9721 40.0943C23.9721 39.7314 23.6779 39.4371 23.3149 39.4371C22.952 39.4371 22.6578 39.7314 22.6578 40.0943C22.6578 40.4572 22.952 40.7514 23.3149 40.7514Z" fill="white"/>
<path d="M18.5178 28.7257H15.8892V30.6971H18.5178V28.7257Z" fill="white"/>
<path d="M18.5178 41.3429H17.2035V39.9629H18.5178V38.6486H17.2035V37.2686H18.5178V35.9543H17.2035V34.64H18.5178V33.3257H15.8892V42.7229H18.5178V41.3429Z" fill="white"/>
<path d="M17.2692 47.6514C17.9951 47.6514 18.5835 47.063 18.5835 46.3371C18.5835 45.6113 17.9951 45.0229 17.2692 45.0229C16.5434 45.0229 15.9549 45.6113 15.9549 46.3371C15.9549 47.063 16.5434 47.6514 17.2692 47.6514Z" fill="white"/>
<path d="M17.2692 22.3514C16.5464 22.3514 15.9549 22.9429 15.9549 23.6657C15.9549 24.3886 16.5464 24.98 17.2692 24.98C17.9921 24.98 18.5835 24.3229 18.5835 23.6657C18.5835 22.9429 17.9921 22.3514 17.2692 22.3514Z" fill="white"/>
<path d="M35.5378 21.6286H34.2235V22.9429H35.5378V21.6286Z" fill="white"/>
<path d="M35.5378 24.2571H34.2235V25.5714H35.5378V24.2571Z" fill="white"/>
<path d="M32.9092 21.6286H31.5949V22.9429H32.9092V21.6286Z" fill="white"/>
<path d="M22.3949 21.6286H21.0807V22.9429H22.3949V21.6286Z" fill="white"/>
<path d="M22.3949 24.2571H21.0807V25.5714H22.3949V24.2571Z" fill="white"/>
<path d="M23.2492 28.7257H20.6207V30.1057H21.9349V31.42H20.6207V32.8H21.9349V34.1143H20.6207V35.3629H23.2492V28.7257Z" fill="white"/>
<path d="M20.6207 42.7229H25.9435V37.4H20.6207V42.7229ZM21.9349 38.7143H24.6292V41.4086H21.9349V38.7143Z" fill="white"/>
<path d="M25.0235 24.2571H23.7092V25.5714H25.0235V24.2571Z" fill="white"/>
<path d="M25.0235 21.6286H23.7092V22.9429H25.0235V21.6286Z" fill="white"/>
<path d="M27.6521 24.2571H26.3378V25.5714H27.6521V24.2571Z" fill="white"/>
<path d="M27.6521 21.6286H26.3378V22.9429H27.6521V21.6286Z" fill="white"/>
<path d="M30.2807 24.2571H28.9664V25.5714H30.2807V24.2571Z" fill="white"/>
<path d="M30.2807 21.6286H28.9664V22.9429H30.2807V21.6286Z" fill="white"/>
<path d="M32.9092 24.2571H31.5949V25.5714H32.9092V24.2571Z" fill="white"/>
<path d="M32.7778 28.7257L30.6749 30.8286V37.3343H39.2835V28.7257H32.7778Z" fill="white"/>
<path d="M38.1664 24.2571H36.8521V25.5714H38.1664V24.2571Z" fill="white"/>
<path d="M38.1664 21.6286H36.8521V22.9429H38.1664V21.6286Z" fill="white"/>
<path d="M40.7949 24.2571H39.4807V25.5714H40.7949V24.2571Z" fill="white"/>
<path d="M40.7949 21.6286H39.4807V22.9429H40.7949V21.6286Z" fill="white"/>
<path d="M44.6064 47.6514C45.3322 47.6514 45.9207 47.063 45.9207 46.3371C45.9207 45.6113 45.3322 45.0229 44.6064 45.0229C43.8805 45.0229 43.2921 45.6113 43.2921 46.3371C43.2921 47.063 43.8805 47.6514 44.6064 47.6514Z" fill="white"/>
<path d="M44.6064 22.3514C43.8835 22.3514 43.2921 22.9429 43.2921 23.6657C43.2921 24.3886 43.8835 24.98 44.6064 24.98C45.3292 24.98 45.9207 24.3229 45.9207 23.6657C45.9207 22.9429 45.3292 22.3514 44.6064 22.3514Z" fill="white"/>
</svg>
