<svg width="100" height="64" viewBox="0 0 100 64" fill="none" xmlns="http://www.w3.org/2000/svg">
<g clip-path="url(#clip0_8791_27594)">
<path d="M95.2403 7.97511C94.5321 8.07667 93.8239 8.17555 92.998 8.29314C93.1183 7.08514 93.2252 6.01343 93.3428 4.85353C94.7326 4.65843 96.0982 4.46601 97.496 4.26824C97.5869 3.41301 97.7018 1.89766 97.7018 1.89766L100 1.63574L99.5111 5.80497C99.5111 5.80497 96.8519 6.10697 95.4194 6.45708C95.3606 6.94616 95.3018 7.46197 95.2403 7.97511Z" fill="#F4921D"/>
<path d="M49.5791 15.4694L49.5844 15.4747C49.6005 15.3197 49.5337 15.2529 49.3786 15.2716L49.384 15.2769C49.4027 15.1193 49.3279 15.0578 49.1782 15.0738L49.1835 15.0792C49.1969 14.9295 49.1354 14.852 48.9778 14.8734L48.9831 14.8787C48.7346 14.1625 48.2241 13.505 48.5074 12.6739C49.106 12.444 49.7314 12.4333 50.3622 12.436C50.421 13.0186 50.0976 13.6012 50.3274 14.232C51.7305 14.0422 53.0989 13.8578 54.4913 13.6707C54.649 12.3131 54.665 11.0623 54.208 9.84626C53.8472 8.88146 53.2111 8.21599 52.1448 8.05831C51.6878 7.29662 51.1051 6.68994 50.2098 6.44941C47.6147 5.75721 44.699 6.90642 43.3707 9.15407C41.7698 11.8587 41.9702 14.9963 43.8892 17.0221C44.7364 17.9148 45.6237 18.77 46.4789 19.6573C47.0749 20.2774 47.4571 20.9963 47.3796 21.8943C46.7622 21.9664 46.1448 22.0386 45.5275 22.1107C45.5569 21.5228 45.5863 20.9375 45.6183 20.2827C44.2232 20.4618 42.9244 20.6275 41.5239 20.8065C41.4384 22.2978 41.1605 23.725 41.2968 25.1949C41.4491 26.8466 42.1573 28.0278 43.825 28.4875C44.1163 29.177 44.6615 29.594 45.335 29.8479C47.4918 30.6603 50.7951 29.7543 52.0833 27.8568C53.5612 25.6813 54.0476 23.2065 53.6468 20.6194C53.302 18.4039 51.5755 17.1424 50.0254 15.7901C49.9746 15.6885 49.9158 15.6084 49.7849 15.6698L49.7902 15.6752C49.8143 15.5148 49.7368 15.4533 49.5844 15.4694H49.5791Z" fill="#FDFCFC"/>
<path d="M64.3768 42.7345L64.3821 42.7398C64.3928 42.5875 64.3153 42.5287 64.171 42.5367L64.179 42.5447C64.187 42.395 64.1202 42.3255 63.9705 42.3362L63.9786 42.3443C63.9866 42.1919 63.9144 42.1251 63.7648 42.1411L63.7755 42.1492C63.7835 41.9995 63.714 41.93 63.5643 41.9434L63.5723 41.9514C63.591 41.8017 63.5349 41.7215 63.3746 41.7349L63.3799 41.7456C63.1153 41.0534 62.8694 40.3559 62.9844 39.5915C63.5964 39.5247 64.2057 39.4605 64.8178 39.3937C64.8979 39.971 64.6307 40.5697 64.9247 41.1977C66.277 41.0187 67.6133 40.8423 68.9763 40.6605C69.0805 39.6102 69.1286 38.6427 68.9549 37.6966C68.7117 36.3764 68.0997 35.318 66.6298 35.0481C66.1621 34.2437 65.542 33.661 64.5959 33.4259C62.0971 32.7978 59.1733 33.9016 57.9252 36.0931C56.5087 38.5786 56.1853 41.8178 58.3341 43.9612C59.1813 44.8084 60.0205 45.6636 60.865 46.5135C61.5225 47.1763 61.9314 47.946 61.9127 48.9054C61.2819 48.9776 60.6539 49.0524 60.0231 49.1246C60.0632 48.542 60.1033 47.962 60.1488 47.2725C58.7403 47.4569 57.4094 47.6306 56.0544 47.807C55.9688 48.5928 55.8726 49.3143 55.8218 50.0359C55.7791 50.6319 55.7711 51.2306 55.7898 51.8266C55.8459 53.8658 56.49 54.7664 58.3715 55.4773C58.6708 56.3753 59.3924 56.7842 60.2343 56.9499C62.7732 57.4497 66.2797 56.7548 67.5064 53.1816C67.7897 52.3557 67.9981 51.5192 68.1451 50.6667C68.5861 48.093 68.0837 45.8159 65.975 44.0841C65.7612 43.9077 65.6382 43.4507 65.1999 43.7073L65.208 43.718C65.3977 43.4267 65.224 43.3572 64.9754 43.3278L64.9835 43.3358C65.0316 43.1808 64.9354 43.114 64.8178 43.0578C64.7723 42.9536 64.7082 42.8761 64.5772 42.9296H64.5826C64.6039 42.7719 64.5238 42.7157 64.3741 42.7291L64.3768 42.7345Z" fill="#FDFCFC"/>
<path d="M84.7927 52.1556C84.7526 52.7115 84.7125 53.2701 84.6644 53.9569C86.0435 53.7779 87.3637 53.6041 88.7 53.4278C89.4136 46.1423 90.1138 38.9744 90.8221 31.7424C90.0042 31.8226 89.3174 31.8894 88.6305 31.9589C88.6653 31.3736 88.7 30.7883 88.7374 30.1309C87.3397 30.3554 85.9927 30.3874 84.6938 30.7135C83.9829 37.9829 83.2827 45.1508 82.5771 52.348C83.4083 52.2759 84.0978 52.2171 84.79 52.1556H84.7927Z" fill="#FDFCFC"/>
<path d="M40.9708 38.1352V36.3125C37.9054 36.7134 34.888 37.1063 31.8493 37.5018C31.7237 38.9129 31.6061 40.2252 31.4805 41.6229C32.2983 41.5454 33.0092 41.4759 33.8136 41.3984C33.533 47.2834 32.7018 53.0429 32.2689 58.8825C33.0466 58.7996 33.7335 58.7248 34.423 58.6499C34.4631 59.2085 34.2733 59.7698 34.4551 60.4085C35.8127 60.3524 37.141 60.1439 38.5067 59.9141C39.0866 54.0237 39.6612 48.2001 40.2305 42.4087C41.1525 42.267 41.9303 42.1467 42.7347 42.0211C42.8657 40.6314 42.9913 39.3192 43.1222 37.9214C42.3472 37.9962 41.6603 38.063 40.9762 38.1299L40.9708 38.1352Z" fill="#FDFCFC"/>
<path d="M63.6504 14.6642C63.5515 14.0655 63.923 13.4669 63.6878 12.8281C63.1453 12.8869 62.6348 12.9404 62.1217 12.9938C62.2072 12.2402 62.111 11.4651 62.3782 10.682C63.7226 10.4923 65.0615 10.3025 66.4593 10.1048C66.5849 8.72036 66.7052 7.4108 66.8254 6.08787C66.0076 5.93019 65.3368 6.18141 64.6499 6.22684C64.5698 5.6362 64.8851 5.05892 64.7007 4.37207C61.9319 4.72752 59.1765 5.08298 56.3649 5.44378C55.654 12.6945 54.9511 19.8784 54.2402 27.1451C55.0554 27.065 55.7449 26.9981 56.4344 26.9287C56.4531 27.5086 56.258 28.0966 56.4718 28.738C59.3208 28.3665 62.1324 28.0004 64.984 27.6262C65.123 26.2097 65.2539 24.8734 65.3929 23.4409C64.5778 23.5291 63.8936 23.604 63.2121 23.6788C63.2415 23.0988 63.2682 22.5162 63.2976 21.9256C62.5493 21.7759 61.8838 22.1608 61.1889 22.0565C61.2905 21.041 61.3947 20.0281 61.4963 19.0045C62.878 18.812 64.1502 18.6356 65.4704 18.4539C65.5907 17.0936 65.7056 15.8161 65.8285 14.4317C65.0107 14.5172 64.3266 14.5894 63.6451 14.6615L63.6504 14.6642Z" fill="#FDFCFC"/>
<path d="M18.5771 60.7424C18.5931 61.325 18.219 61.8809 18.4381 62.5491C19.729 62.3807 21.0011 62.215 22.3267 62.0439C22.4871 61.0872 22.6394 60.1731 22.7944 59.2618C22.8532 58.9063 22.8345 58.4947 23.361 58.476V60.0288C24.12 59.9513 24.7721 59.8845 25.4243 59.8177V61.5789C26.806 61.5522 28.0594 61.2876 29.4358 61.1059V39.7546C28.7837 39.6343 28.177 39.9043 27.549 39.915C27.5115 39.3297 27.4741 38.7417 27.4314 38.0869C25.0474 38.3943 22.7196 38.6963 20.357 39.0009C18.9673 46.3345 17.5909 53.6093 16.2012 60.9455C17.0644 60.8733 17.8208 60.8119 18.5744 60.7504L18.5771 60.7424Z" fill="#FDFCFC"/>
<path d="M33.6048 10.2389V8.40822C32.3086 8.57392 31.0017 8.74229 29.6734 8.91067C29.6387 9.09507 29.6066 9.22068 29.5932 9.34897C29.2725 12.5721 28.9411 15.7926 28.6338 19.0157C28.4093 21.3756 28.1367 23.7328 28.0324 26.098C27.9469 28.0437 28.6284 29.6392 30.7023 30.2673C31.0525 31.1252 31.7687 31.5127 32.6079 31.7131C35.2992 32.3572 38.2738 30.9568 39.4898 28.4766C40.0243 27.3836 40.2702 26.2156 40.3878 25.013C40.6978 21.862 41.0212 18.711 41.3285 15.56C41.5316 13.4835 41.7161 11.4042 41.9138 9.29284C41.1308 9.14051 40.4626 9.4532 39.7731 9.44251V7.60645C38.4448 7.77749 37.1459 7.94319 35.8391 8.10889C35.7402 8.78238 35.6466 9.40242 35.5558 10.0225C34.9036 10.0946 34.2542 10.1668 33.6021 10.2389H33.6048Z" fill="#FDFCFC"/>
<path d="M44.9957 57.1875C45.4981 58.2164 46.372 58.6815 47.4678 58.7884C51.0464 59.1411 53.8553 57.0325 54.5715 53.363C55.0526 50.9069 55.1461 48.3974 55.384 45.9092C55.5764 43.886 55.9613 41.8709 55.7982 39.8264C55.678 38.3057 55.0152 37.1538 53.4223 36.7502C52.7622 35.6197 51.76 35.0906 50.4718 35.0024C47.0055 34.7645 44.2741 36.777 43.5765 40.1845C43.1142 42.4402 43.034 44.7493 42.8229 47.0343C42.6197 49.2205 42.2162 51.3987 42.3498 53.6089C42.4567 55.3675 43.2211 56.6583 44.9957 57.1875Z" fill="#FDFCFC"/>
<path d="M17.0828 31.9428C17.6039 32.9531 18.4699 33.4261 19.5683 33.5384C23.3393 33.9205 26.3005 31.4243 26.7843 27.3994C27.0782 24.9514 27.3108 22.4926 27.5513 20.0391C27.7063 18.4463 27.9014 16.8534 27.9442 15.2552C27.9976 13.2054 27.1905 12.0428 25.5789 11.551C24.9215 10.5702 24.0903 9.92342 22.8475 9.78178C19.1861 9.36485 16.1688 11.5697 15.5942 15.2232C15.3456 16.8026 15.1986 18.4009 15.0677 19.9937C14.8512 22.6529 14.3915 25.2934 14.3995 27.966C14.4049 29.8448 15.1078 31.3522 17.0855 31.9428H17.0828Z" fill="#FDFCFC"/>
<path d="M76.7643 24.2399C77.6275 25.8274 79.1054 26.0065 80.6422 25.8114C83.8466 25.4052 85.9499 23.2217 86.3909 19.8328C86.725 17.2565 86.9548 14.6641 87.19 12.0743C87.3343 10.4815 87.6256 8.89931 87.5829 7.29309C87.5321 5.35814 86.7624 4.26505 85.1882 3.81606C84.5816 2.81918 83.7317 2.18311 82.5557 2.04948C78.7179 1.61118 75.7246 3.90425 75.1928 7.73139C74.971 9.31623 74.8293 10.9144 74.6823 12.5073C74.4471 15.0329 74.1451 17.5558 74.0409 20.0867C73.9607 22.0324 74.7117 23.6119 76.7669 24.2426L76.7643 24.2399Z" fill="#FDFCFC"/>
<path d="M8.38702 33.1533C8.35495 33.7119 8.32021 34.2704 8.28279 34.9225C9.66986 34.9038 10.9928 34.6312 12.4226 34.4308C13.1282 27.2362 13.8311 20.0657 14.5393 12.8524C13.7402 12.7642 13.0614 12.9192 12.3799 13.0154V11.1553C11.0222 11.3263 9.69124 11.4947 8.38702 11.6604C8.1064 12.3205 8.26943 12.9806 8.08502 13.5873C7.45162 13.6622 6.82089 13.737 6.18749 13.8118V11.9677C4.83516 12.1415 3.49353 12.3125 2.11982 12.4889C1.40891 19.7369 0.706024 26.9208 -0.00488281 34.1742C0.812927 34.0887 1.50245 34.0192 2.19198 33.947C2.23207 34.5243 2.02361 35.1123 2.2294 35.7697C3.5737 35.596 4.87258 35.4277 6.16076 35.2593C6.37724 34.6098 6.36121 34.0085 6.39328 33.4152C7.05608 33.327 7.71888 33.2388 8.37901 33.1506L8.38702 33.1533Z" fill="#FDFCFC"/>
<path d="M70.9782 53.9512C71.0183 54.5312 70.7377 55.1058 70.8873 55.7525C72.2744 55.5708 73.6027 55.3944 74.963 55.2153C75.0405 54.5525 75.11 53.9646 75.1795 53.3766C75.8343 53.243 76.4891 53.096 77.1652 53.1468C77.2027 53.7294 76.8686 54.3093 77.1171 54.9481C78.4801 54.7663 79.8164 54.5873 81.1821 54.4056C81.893 47.1228 82.5933 39.9442 83.2961 32.7229C82.4356 32.8031 81.7781 32.8645 81.1153 32.926C81.0619 32.3407 81.3184 31.7554 81.1287 31.1113C79.763 31.2957 78.4107 31.4775 77.0984 31.6565C76.9915 32.3567 76.9007 32.942 76.8098 33.5247C76.1871 33.5915 75.567 33.6583 74.9443 33.7251V31.9131C73.5786 32.0948 72.2423 32.2739 70.874 32.4556C70.1631 39.7304 69.4575 46.9303 68.752 54.1463C69.5938 54.0715 70.286 54.0127 70.9782 53.9512Z" fill="#FDFCFC"/>
<path d="M89.5879 22.6718C88.8957 22.7252 88.2008 22.7813 87.375 22.8455C88.0806 15.6456 88.7835 8.45898 89.497 1.16016C90.8494 0.983767 92.1963 0.84212 93.53 0.620296C94.6872 0.42787 97.8996 0.00292969 97.8996 0.00292969C97.8996 0.00292969 97.603 3.44789 97.4934 4.27104C96.093 4.46881 94.7299 4.66124 93.3402 4.85634C93.2253 6.01624 93.1184 7.08794 92.9954 8.29595C93.8213 8.17836 94.5295 8.0768 95.2377 7.97791C95.7883 8.00464 96.3228 7.74005 96.9188 7.89774C96.8867 8.4857 96.8573 9.06298 96.8279 9.64026C96.7264 10.3913 96.6221 11.1423 96.5126 11.9467C95.1896 12.1311 93.8934 12.3128 92.5865 12.4946C92.2551 15.8273 91.9318 19.0611 91.6084 22.3003C90.8814 22.4339 90.2347 22.5542 89.5879 22.6744V22.6718Z" fill="#040303"/>
<path d="M7.98066 63.7707C7.41941 63.2683 6.5722 63.0598 6.3584 62.1993C6.75661 62.2073 7.1575 62.2287 7.55572 62.2233C10.8858 62.1832 12.7726 60.7855 13.7 57.5837C14.4456 55.0154 14.6113 52.4791 12.9811 50.1299C14.9427 51.3379 16.2309 53.0029 16.2897 55.3815C16.3325 57.1187 16.0144 58.8211 15.3009 60.422C14.6193 61.9561 13.5049 63.0278 11.8719 63.5168C11.6955 63.5703 11.4577 63.5168 11.3802 63.7707H7.98066Z" fill="#F4921D"/>
<path d="M76.8098 33.5247C76.9007 32.9394 76.9889 32.3567 77.0984 31.6565C78.4107 31.4801 79.763 31.2957 81.1287 31.1113C81.3184 31.7554 81.0619 32.3407 81.1153 32.926C80.8106 35.9086 80.4979 38.8912 80.1986 41.8738C79.8378 45.4871 79.4877 49.1031 79.1323 52.7004C78.4989 53.096 77.7666 52.8261 77.1626 53.1441C76.4864 53.0933 75.8316 53.243 75.1768 53.3739C74.8027 53.1281 74.9951 52.7646 75.0165 52.4626C75.0886 51.4978 75.2116 50.5383 75.3025 49.5762C75.4949 47.5958 75.6793 45.6128 75.8771 43.5121C75.1341 43.6163 74.5354 43.6992 73.91 43.7874C73.5813 47.096 73.2633 50.3112 72.9479 53.5102C72.3118 53.8844 71.5849 53.6385 70.9782 53.9485C70.286 54.01 69.5938 54.0688 68.752 54.1436C69.4575 46.9277 70.1604 39.7277 70.874 32.453C72.2423 32.2712 73.5786 32.0922 74.9443 31.9104V33.7224C74.6477 35.6708 74.4552 37.6298 74.367 39.6556C75.0619 39.5059 75.6659 39.5941 76.3341 39.3055C76.4917 37.3999 76.6521 35.4596 76.8098 33.5193V33.5247Z" fill="#030201"/>
<path d="M8.08749 13.5873C8.2719 12.9806 8.10887 12.3232 8.38949 11.6604C9.69104 11.4947 11.0247 11.3263 12.3823 11.1553V13.0154C12.3315 13.2426 12.2594 13.4671 12.238 13.6969C11.8157 18.0051 11.4042 22.316 10.9819 26.6242C10.7788 28.7034 10.5676 30.78 10.3619 32.8406C9.63224 32.9555 9.00953 33.0517 8.38949 33.1506C7.72669 33.2388 7.06389 33.327 6.40376 33.4152C6.14185 33.2682 6.19797 33.0197 6.22203 32.7952C6.37436 31.2718 6.53739 29.7511 6.68706 28.2251C6.83939 26.6883 6.98104 25.1516 7.13071 23.5641C6.40376 23.6523 5.81847 23.7244 5.1717 23.8019C4.83763 27.1266 4.5089 30.3898 4.18285 33.6317C3.44254 33.7493 2.81983 33.8455 2.19979 33.9444C1.51027 34.0165 0.82074 34.086 0.00292969 34.1715C0.713836 26.9155 1.41673 19.7316 2.12763 12.4862C3.50134 12.3098 4.84298 12.1388 6.1953 11.9651V13.8091C5.87192 15.7361 5.757 17.679 5.57259 19.7182C6.3129 19.606 6.92224 19.5151 7.56634 19.4189C7.74807 17.4198 7.91912 15.5009 8.09283 13.5847L8.08749 13.5873Z" fill="#030201"/>
<path d="M76.7646 24.2406C74.7121 23.6099 73.9611 22.0277 74.0386 20.0848C74.1402 17.5538 74.4448 15.0309 74.68 12.5053C74.8297 10.9098 74.9713 9.31428 75.1905 7.72944C75.7223 3.9023 78.7156 1.60922 82.5534 2.04753C83.7294 2.18116 84.5819 2.8199 85.1859 3.8141C85.4051 4.72011 85.6216 5.62344 85.5254 6.56953C85.1539 10.2791 84.8064 13.9913 84.4136 17.6982C83.9405 22.1721 81.2653 24.4411 76.762 24.238L76.7646 24.2406ZM78.8653 20.2505C80.0466 20.1062 80.0973 19.128 80.1909 18.2487C80.533 15.0977 80.8483 11.9468 81.145 8.79045C81.2252 7.94324 81.3909 7.07733 81.1102 6.24348C80.4287 5.85061 79.9824 6.14192 79.6216 6.64169C79.341 7.03189 79.2902 7.51563 79.2394 7.97531C79.1058 9.16728 79.0069 10.3646 78.892 11.5592C78.6595 13.9833 78.4109 16.4046 78.1971 18.8287C78.149 19.3792 78.0742 20.0019 78.8653 20.2451V20.2505Z" fill="#030201"/>
<path d="M17.0835 31.9428C15.1058 31.3495 14.4029 29.8422 14.3976 27.966C14.3895 25.2934 14.8492 22.6529 15.0657 19.9937C15.1967 18.3982 15.3437 16.8 15.5922 15.2232C16.1668 11.5697 19.1842 9.36485 22.8456 9.78178C24.0883 9.92342 24.9195 10.5702 25.577 11.551C25.7774 12.5639 25.9485 13.5662 25.8389 14.6165C25.4727 18.1309 25.1494 21.648 24.8099 25.1625C24.3556 29.8742 21.7579 32.154 17.0808 31.9428H17.0835ZM21.4158 13.943C20.328 13.7399 19.7882 14.1114 19.6519 15.3728C19.251 19.1144 18.9116 22.8641 18.5641 26.6137C18.5267 27.0333 18.4759 27.4903 18.8421 27.8244C19.9859 27.9981 20.4055 27.5732 20.5632 26.0257C20.9053 22.677 21.242 19.3309 21.5521 15.9795C21.6162 15.3007 21.7685 14.5898 21.4131 13.9457L21.4158 13.943Z" fill="#030201"/>
<path d="M44.9957 57.1881C43.2211 56.6589 42.4567 55.368 42.3498 53.6095C42.2162 51.3992 42.6197 49.2211 42.8229 47.0349C43.034 44.7472 43.1142 42.4408 43.5765 40.1851C44.2741 36.7802 47.0055 34.7678 50.4718 35.003C51.7626 35.0912 52.7622 35.6203 53.4223 36.7508C53.866 37.9374 53.858 39.1615 53.7404 40.3962C53.4223 43.6782 53.0749 46.9574 52.7809 50.242C52.3533 55.034 49.6299 57.482 44.9957 57.1907V57.1881ZM46.7542 53.0803C47.8607 53.2353 48.2616 52.9387 48.4059 51.6505C48.8201 47.9089 49.1863 44.1619 49.5578 40.4149C49.6032 39.9579 49.6192 39.4769 49.2264 39.1267C48.1066 39.084 47.7083 39.4475 47.5747 40.741C47.2273 44.0871 46.8959 47.4358 46.5778 50.7872C46.5083 51.5302 46.217 52.3026 46.7542 53.0776V53.0803Z" fill="#030201"/>
<path d="M35.5587 10.0225C35.6496 9.40242 35.7431 8.78505 35.842 8.10889C37.1489 7.94052 38.4451 7.77482 39.776 7.60645V9.44251C39.7333 9.60286 39.6664 9.76055 39.6504 9.92357C39.2228 14.3039 38.7631 18.6816 38.3916 23.0673C38.0175 27.4744 36.1386 29.7434 32.2981 30.2192C31.7716 30.2833 31.2371 30.2539 30.7053 30.2673C28.6314 29.6392 27.9498 28.0437 28.0354 26.098C28.1396 23.7328 28.4122 21.3756 28.6367 19.0157C28.944 15.7926 29.2728 12.5721 29.5962 9.34897C29.6095 9.22068 29.6416 9.09507 29.6763 8.91067C31.0046 8.73962 32.3115 8.57392 33.6077 8.40822V10.2389C33.0545 15.4825 32.3649 20.7155 32.1538 25.935C33.4928 26.2985 33.9979 25.8816 34.1689 24.4437C34.3721 22.7226 34.5351 20.9988 34.7008 19.2749C34.9948 16.1908 35.2754 13.1066 35.564 10.0251L35.5587 10.0225Z" fill="#040303"/>
<path d="M25.4272 59.8152C24.7751 59.882 24.123 59.9488 23.3639 60.0263V58.4736C23.3907 57.8535 23.4922 57.2282 23.2971 56.5841C22.4927 56.7818 21.6749 56.6829 20.8811 57.0063C20.6807 58.1342 20.4802 59.27 20.2851 60.3711C19.6998 60.6785 19.0825 60.4459 18.5774 60.7426C17.821 60.8041 17.0673 60.8655 16.2041 60.9377C17.5938 53.6015 18.9702 46.3267 20.36 38.9931C22.7225 38.6884 25.0503 38.3864 27.4343 38.0791C27.4771 38.7366 27.5145 39.3219 27.5519 39.9072C27.5252 40.2706 27.4744 40.6314 27.4717 40.9949C27.4396 46.7997 27.4156 52.6046 27.3808 58.4094C27.3808 58.7676 27.4637 59.1417 27.2739 59.5159C26.6646 59.6121 26.0445 59.7137 25.4245 59.8125L25.4272 59.8152ZM23.5056 53.083V42.4541C23.4548 42.4488 23.4067 42.4434 23.3559 42.4381C22.7546 46.0541 22.1559 49.6728 21.5519 53.3128C22.2682 53.3903 22.8134 53.2674 23.5056 53.083Z" fill="#030201"/>
<path d="M43.8221 28.4895C42.1517 28.0298 41.4462 26.8485 41.2938 25.1969C41.1575 23.7269 41.4355 22.2998 41.521 20.8085C42.9188 20.6294 44.2203 20.4637 45.6154 20.2846C45.5833 20.9394 45.5539 21.5247 45.5245 22.1127C45.3695 22.9145 45.145 23.7243 45.7597 24.4378C46.6711 24.5822 47.1414 24.1706 47.3205 23.3795C47.4301 22.8931 47.4648 22.396 47.3766 21.8962C47.4515 20.9982 47.0719 20.2766 46.476 19.6593C45.6234 18.772 44.7334 17.9194 43.8862 17.0241C41.9646 14.9956 41.7669 11.8607 43.3678 9.15602C44.696 6.90838 47.6145 5.75917 50.2069 6.45137C51.1022 6.6919 51.6848 7.2959 52.1418 8.06026C52.4706 9.38319 52.7485 10.7088 52.353 12.0638C51.6528 12.1947 51.006 12.315 50.3592 12.4353C49.7312 12.4326 49.1031 12.4433 48.5045 12.6731C47.9726 12.4994 48.2425 12.0665 48.2265 11.7431C48.2051 11.3235 48.4109 10.8825 48.0742 10.4789C47.5717 10.1689 47.1147 10.3507 46.7486 10.7248C46.3103 11.1738 46.2595 11.7618 46.508 12.307C47.0265 13.4455 47.9138 14.2526 48.9802 14.8753L48.9748 14.87C48.924 15.0598 49.0042 15.1159 49.1806 15.0758L49.1753 15.0704C49.1325 15.2522 49.2047 15.3136 49.3811 15.2736L49.3757 15.2682C49.3383 15.4446 49.4158 15.5034 49.5815 15.4713L49.5762 15.466C49.5468 15.6344 49.6162 15.7012 49.7819 15.6718L49.7766 15.6664C49.7044 15.8776 49.8595 15.947 49.9984 16.0246C51.0862 17.2219 51.781 18.5956 51.7383 20.2499C51.6982 21.7546 51.455 23.2272 50.9231 24.6463C50.0198 27.0623 48.2345 28.281 45.7116 28.4708C45.0835 28.5189 44.4501 28.4815 43.8194 28.4841L43.8221 28.4895Z" fill="#040303"/>
<path d="M12.983 50.1294C14.6133 52.4786 14.4476 55.0148 13.7019 57.5832C12.7719 60.7823 10.8877 62.1827 7.55767 62.2228C7.15945 62.2281 6.75857 62.2068 6.36035 62.1987C4.543 61.7497 3.90692 60.4215 3.792 58.7137C3.69846 57.3427 3.93365 55.993 4.04857 54.5578C5.40624 54.3761 6.73986 54.197 8.08951 54.0153C8.27927 54.6727 7.93985 55.2527 8.02537 55.846C7.96925 56.5917 7.72337 57.356 8.16969 58.0429C9.21734 58.2513 9.57814 58.0482 9.81333 57.1288C9.93894 56.6424 10.0191 56.1507 9.91756 55.6482C9.95497 54.7209 9.56478 53.9699 8.93939 53.3284C8.07882 52.4438 7.21558 51.5619 6.33897 50.6933C4.20091 48.5712 4.51894 45.284 5.95679 42.8092C7.2236 40.631 10.1688 39.5139 12.665 40.1686C13.5549 40.4012 14.183 40.9677 14.6213 41.7588C14.6213 41.8684 14.632 41.97 14.787 41.9272L14.779 41.9192C14.9634 43.2074 15.1745 44.4956 14.9046 45.8105C14.1777 45.9307 13.5015 46.043 12.8253 46.1552C12.216 46.0991 11.636 46.2995 11.0427 46.3717C10.5429 46.2354 10.7861 45.8425 10.7648 45.5459C10.7327 45.0996 10.9465 44.6158 10.5296 44.1615C10.0245 44.0145 9.514 44.0706 9.17458 44.5757C8.78706 45.1503 8.82447 45.8025 9.17191 46.3664C9.72513 47.2697 10.4628 48.01 11.3902 48.5418L11.3821 48.5338C11.3527 48.7022 11.4302 48.7637 11.5906 48.7423L11.5826 48.7343C11.5612 48.8973 11.636 48.9588 11.791 48.9427L11.783 48.9347C11.767 49.0897 11.8391 49.1565 11.9942 49.1405L11.9861 49.1325C11.9701 49.2875 12.0423 49.3543 12.1946 49.3383L12.1893 49.3329C12.1732 49.4853 12.2427 49.5548 12.395 49.5387L12.3897 49.5334C12.3763 49.6857 12.4405 49.7579 12.5955 49.7392L12.5901 49.7338C12.5394 49.8594 12.6062 49.9236 12.7104 49.969C12.7692 50.0839 12.8253 50.2015 12.991 50.1454L12.9857 50.1347L12.983 50.1294Z" fill="#040303"/>
<path d="M58.3688 55.4803C56.4873 54.7693 55.8432 53.8714 55.787 51.8295C55.771 51.2335 55.779 50.6322 55.8191 50.0389C55.8699 49.3146 55.9688 48.5957 56.0516 47.8099C57.4066 47.6336 58.7349 47.4598 60.146 47.2754C60.0979 47.965 60.0605 48.5449 60.0204 49.1275C59.9135 49.8384 59.6863 50.5547 60.0952 51.2389C60.9612 51.6104 61.5518 51.3939 61.7736 50.568C61.9153 50.0335 62.0569 49.475 61.9126 48.9084C61.9313 47.9489 61.5224 47.1792 60.8649 46.5164C60.0204 45.6665 59.1812 44.8113 58.334 43.9641C56.1879 41.818 56.5086 38.5815 57.9251 36.096C59.1759 33.9045 62.097 32.8007 64.5959 33.4288C65.542 33.6666 66.162 34.2466 66.6297 35.051C67.06 36.3633 67.1134 37.6996 66.9157 39.0706C66.1834 39.1855 65.5019 39.2898 64.8177 39.3967C64.2057 39.4635 63.5963 39.5276 62.9843 39.5944C62.3616 39.0011 63.1206 38.1726 62.6048 37.5125C62.1558 37.1463 61.6934 37.296 61.3032 37.6675C60.7687 38.1753 60.7714 38.8595 61.0681 39.4314C61.5839 40.4283 62.3429 41.2434 63.3772 41.7485L63.3718 41.7378C63.2943 41.941 63.3798 41.9944 63.5696 41.9543L63.5616 41.9463C63.5135 42.1387 63.5883 42.2029 63.7727 42.1521L63.762 42.1441C63.7166 42.3338 63.7941 42.398 63.9758 42.3472L63.9678 42.3392C63.9197 42.5262 63.9919 42.5931 64.1763 42.5476L64.1683 42.5396C64.1282 42.724 64.1896 42.7988 64.3794 42.7427L64.374 42.7374C64.3233 42.9271 64.3901 42.9993 64.5825 42.9405H64.5772C64.4622 43.1703 64.644 43.2452 64.791 43.336C64.8551 43.336 64.9192 43.3414 64.9834 43.3441L64.9754 43.336C64.799 43.6167 65.0128 43.6674 65.2079 43.7262L65.1999 43.7155C66.3518 45.5864 66.3758 47.5935 65.991 49.6807C65.3228 53.2994 63.607 55.0794 60.2609 55.4749C59.6382 55.5471 58.9995 55.4856 58.3688 55.4829V55.4803Z" fill="#030201"/>
<path d="M56.4393 26.9316C55.7498 26.9984 55.0603 27.0679 54.2451 27.1481C54.956 19.8813 55.6589 12.6974 56.3698 5.4467C59.1814 5.08591 61.9368 4.73045 64.7056 4.375C64.8873 5.06185 64.572 5.63913 64.6548 6.22977C64.564 6.98344 64.4731 7.73711 64.3769 8.53354C62.9818 8.73131 61.6241 8.92373 60.2504 9.11883C60.1141 10.5433 59.9885 11.8743 59.8522 13.3068C60.6941 13.1918 61.4103 13.093 62.1239 12.9941C62.637 12.9406 63.1475 12.8845 63.69 12.8284C63.9252 13.4671 63.5537 14.0631 63.6526 14.6644C63.5644 15.3834 63.4789 16.1023 63.3827 16.8854C62.0517 17.0724 60.7582 17.2515 59.4513 17.4359C59.3016 19.1196 59.0237 20.7018 59.0077 22.3241C59.8281 22.3107 60.5177 22.2385 61.1938 22.0621C61.8887 22.1664 62.5542 21.7815 63.3025 21.9312C63.2731 22.5218 63.2464 23.1018 63.217 23.6844C63.1127 24.4675 63.0085 25.2532 62.9016 26.0443C60.7128 26.3463 58.5774 26.6403 56.4393 26.9369V26.9316Z" fill="#040303"/>
<path d="M34.4201 58.6529C33.7305 58.7277 33.0437 58.7999 32.266 58.8854C32.6989 53.0458 33.5301 47.2864 33.8107 41.4014C33.0036 41.4789 32.2953 41.5457 31.4775 41.6258C31.6032 40.2281 31.7207 38.9159 31.8464 37.5047C34.8851 37.1092 37.9024 36.7136 40.9679 36.3154V38.1381C40.6391 38.8758 40.9518 39.7337 40.5697 40.4686C39.7652 40.5889 38.9848 40.7065 38.1724 40.8267C37.5951 46.6957 37.0231 52.4952 36.4485 58.3322C35.7189 58.4471 35.0695 58.5513 34.4174 58.6529H34.4201Z" fill="#040303"/>
<path d="M84.793 52.1556C84.1008 52.2144 83.4113 52.2759 82.5801 52.348C83.283 45.1508 83.9859 37.9829 84.6968 30.7135C85.9956 30.3874 87.3426 30.3554 88.7404 30.1309C88.7003 30.7883 88.6682 31.3736 88.6335 31.9589C87.9653 38.5816 87.2999 45.2015 86.6317 51.8162C85.9609 51.9391 85.3756 52.0487 84.793 52.1556Z" fill="#040303"/>
<path d="M30.7021 30.2666C31.234 30.2532 31.7712 30.2826 32.295 30.2185C36.1328 29.7454 38.0143 27.4737 38.3885 23.0667C38.76 18.6809 39.2197 14.3033 39.6473 9.9229C39.6633 9.75987 39.7301 9.60219 39.7729 9.44183C40.4624 9.44985 41.1332 9.13983 41.9136 9.29217C41.7185 11.4035 41.5315 13.4828 41.3283 15.5594C41.021 18.7103 40.6976 21.8613 40.3876 25.0123C40.27 26.215 40.0241 27.3829 39.4896 28.476C38.2736 30.9561 35.299 32.3592 32.6077 31.7125C31.7685 31.512 31.0523 31.1245 30.7021 30.2666Z" fill="#F4921D"/>
<path d="M17.083 31.9426C21.7574 32.1537 24.3578 29.874 24.8121 25.1622C25.1515 21.6451 25.4749 18.128 25.8411 14.6162C25.9506 13.5659 25.7796 12.5637 25.5791 11.5508C27.1907 12.0425 27.9978 13.2051 27.9444 15.255C27.9043 16.8505 27.7065 18.446 27.5515 20.0389C27.311 22.495 27.0785 24.9511 26.7845 27.3992C26.3007 31.4241 23.3422 33.9203 19.5685 33.5381C18.4701 33.4259 17.6068 32.9528 17.083 31.9426Z" fill="#F4921D"/>
<path d="M34.4205 58.6529C35.0726 58.5487 35.7221 58.4471 36.4517 58.3322C37.0263 52.4953 37.5982 46.6958 38.1755 40.8268C38.9906 40.7038 39.7684 40.5889 40.5728 40.4686C40.955 39.731 40.6423 38.8758 40.971 38.1381C41.6579 38.0713 42.3447 38.0045 43.1171 37.9297C42.9862 39.3274 42.8605 40.6397 42.7296 42.0294C41.9278 42.1524 41.1474 42.2726 40.2254 42.417C39.6561 48.2058 39.0815 54.032 38.5016 59.9224C37.1385 60.1522 35.8103 60.3607 34.4499 60.4168C34.2682 59.778 34.4553 59.2141 34.4179 58.6582L34.4205 58.6529Z" fill="#F4921D"/>
<path d="M76.7646 24.2403C81.2679 24.4434 83.9432 22.1717 84.4162 17.7005C84.8091 13.9936 85.1565 10.2814 85.528 6.57184C85.6216 5.62574 85.4078 4.71974 85.1886 3.81641C86.7601 4.2654 87.5298 5.35849 87.5833 7.29344C87.626 8.89966 87.3374 10.4818 87.1904 12.0747C86.9552 14.6644 86.7254 17.2568 86.3913 19.8332C85.953 23.222 83.847 25.4055 80.6426 25.8118C79.1058 26.0069 77.6252 25.8278 76.7646 24.2403Z" fill="#F4921D"/>
<path d="M44.9951 57.188C49.6294 57.4793 52.3527 55.0312 52.7803 50.2392C53.0743 46.9546 53.4218 43.6754 53.7398 40.3934C53.8601 39.1614 53.8654 37.9347 53.4218 36.748C55.0146 37.1516 55.6801 38.3062 55.7977 39.8242C55.958 41.866 55.5759 43.8838 55.3834 45.907C55.1456 48.3952 55.052 50.9047 54.571 53.3608C53.8521 57.0303 51.0458 59.1389 47.4673 58.7862C46.3715 58.6793 45.5002 58.2142 44.9951 57.1853V57.188Z" fill="#F4921D"/>
<path d="M77.1624 53.1468C77.7637 52.8287 78.496 53.096 79.1321 52.7031C79.4849 49.1058 79.835 45.4898 80.1984 41.8765C80.4978 38.8939 80.8078 35.9113 81.1151 32.9287C81.7753 32.8672 82.4354 32.8058 83.296 32.7256C82.5904 39.9496 81.8902 47.1255 81.1819 54.4082C79.8163 54.59 78.4826 54.769 77.1169 54.9508C76.8711 54.312 77.2025 53.7321 77.1651 53.1495L77.1624 53.1468Z" fill="#F4921D"/>
<path d="M8.38646 33.1535C9.00917 33.0546 9.62921 32.9584 10.3588 32.8435C10.5646 30.7856 10.7784 28.7063 10.9789 26.627C11.3985 22.3188 11.8127 18.008 12.235 13.6998C12.2564 13.4699 12.3312 13.2454 12.3793 13.0182C13.0608 12.922 13.7396 12.7697 14.5387 12.8552C13.8305 20.0685 13.1276 27.2391 12.4221 34.4336C10.9896 34.6314 9.6693 34.9067 8.28223 34.9254C8.31964 34.2733 8.35439 33.7147 8.38646 33.1561V33.1535Z" fill="#F4921D"/>
<path d="M84.7926 52.1554C85.3752 52.0485 85.9605 51.9389 86.6313 51.816C87.2968 45.2013 87.965 38.5787 88.6331 31.9587C89.32 31.8919 90.0041 31.8224 90.8246 31.7422C90.1164 38.9742 89.4162 46.1421 88.7026 53.4275C87.3663 53.6012 86.0434 53.775 84.667 53.9567C84.7151 53.2698 84.7552 52.7139 84.7953 52.1554H84.7926Z" fill="#F4921D"/>
<path d="M25.4268 59.8151C26.0468 59.7162 26.6668 59.6173 27.2762 59.5184C27.4659 59.1443 27.3804 58.7701 27.3831 58.412C27.4178 52.6071 27.4419 46.8023 27.474 40.9974C27.474 40.634 27.5274 40.2732 27.5541 39.9097C28.1822 39.9017 28.7889 39.6291 29.441 39.7493V61.1006C28.0619 61.2823 26.8112 61.5469 25.4294 61.5736V59.8124L25.4268 59.8151Z" fill="#F4921D"/>
<path d="M89.5874 22.672C90.2342 22.5517 90.881 22.4314 91.6079 22.2978C91.9313 19.0613 92.2547 15.8248 92.5861 12.4921C93.8903 12.3104 95.1892 12.1286 96.5121 11.9442C96.6217 11.1398 96.7259 10.3888 96.8275 9.6378C97.517 9.64314 98.1878 9.33045 99.0056 9.50951C98.8693 10.8244 98.7357 12.1367 98.594 13.5157C97.2684 13.7001 95.9936 13.8792 94.6413 14.0689C94.3179 17.3348 93.9945 20.574 93.6631 23.9014C92.2734 24.0884 90.9317 24.2702 89.5473 24.4546C89.3255 23.8292 89.6703 23.2493 89.5874 22.6666V22.672Z" fill="#F4921D"/>
<path d="M43.822 28.4894C44.4527 28.4894 45.0861 28.5242 45.7142 28.4761C48.2344 28.2836 50.0197 27.0649 50.9257 24.6516C51.4576 23.2351 51.7008 21.7599 51.7409 20.2552C51.7863 18.6009 51.0914 17.2298 50.001 16.0299C50.0064 15.9497 50.0144 15.8722 50.0197 15.792C51.5725 17.1443 53.299 18.4085 53.6411 20.6213C54.042 23.2084 53.5555 25.6832 52.0776 27.8587C50.7894 29.7562 47.4861 30.6622 45.3293 29.8498C44.6559 29.5959 44.1106 29.179 43.8193 28.4894H43.822Z" fill="#F4921D"/>
<path d="M58.3691 55.4805C58.9999 55.4805 59.6386 55.5447 60.2613 55.4725C63.6074 55.077 65.3232 53.297 65.9913 49.6784C66.3762 47.5911 66.3521 45.584 65.2003 43.7132C65.6386 43.4566 65.7615 43.9136 65.9753 44.09C68.0813 45.8192 68.5837 48.0989 68.1454 50.6726C67.9985 51.5251 67.79 52.3643 67.5067 53.1875C66.28 56.7607 62.7736 57.4582 60.2346 56.9558C59.3927 56.7901 58.6711 56.3812 58.3718 55.4832L58.3691 55.4805Z" fill="#F4921D"/>
<path d="M35.5587 10.0222C35.2727 13.1064 34.9894 16.1905 34.6954 19.272C34.5297 20.9958 34.3694 22.7223 34.1636 24.4408C33.9925 25.8786 33.4874 26.2956 32.1484 25.9321C32.3596 20.7099 33.0491 15.4796 33.6023 10.236C34.2544 10.1639 34.9039 10.0917 35.556 10.0195L35.5587 10.0222Z" fill="#F4921D"/>
<path d="M2.19638 33.9496C2.81642 33.8508 3.43646 33.7545 4.17944 33.637C4.50549 30.3951 4.83422 27.1292 5.16829 23.8072C5.81506 23.7297 6.40035 23.6575 7.1273 23.5693C6.97763 25.1595 6.83598 26.6963 6.68365 28.2303C6.53398 29.7537 6.37095 31.2771 6.21862 32.8004C6.19724 33.0249 6.13844 33.2735 6.40035 33.4205C6.36828 34.0138 6.38432 34.6124 6.16784 35.2646C4.87965 35.4329 3.58078 35.6013 2.23647 35.775C2.03068 35.1176 2.23647 34.5296 2.19905 33.9523L2.19638 33.9496Z" fill="#F4921D"/>
<path d="M70.9786 53.9511C71.5826 53.6411 72.3122 53.8869 72.9483 53.5128C73.2663 50.3137 73.5844 47.0986 73.9104 43.7899C74.5358 43.7017 75.1371 43.6189 75.8774 43.5146C75.6797 45.6153 75.4953 47.5957 75.3028 49.5787C75.2093 50.5409 75.0864 51.5003 75.0169 52.4651C74.9955 52.7671 74.8031 53.1333 75.1772 53.3765C75.1077 53.9644 75.0383 54.5524 74.9608 55.2152C73.6031 55.3943 72.2721 55.568 70.8851 55.7524C70.7381 55.1056 71.016 54.531 70.9759 53.9511H70.9786Z" fill="#F4921D"/>
<path d="M61.194 22.0592C60.5178 22.2383 59.8283 22.3104 59.0078 22.3211C59.0238 20.7015 59.2991 19.1167 59.4515 17.433C60.7584 17.2512 62.0519 17.0695 63.3828 16.8824C63.4764 16.0993 63.5646 15.3804 63.6528 14.6615C64.3369 14.5893 65.0185 14.5172 65.8363 14.4316C65.7133 15.816 65.5984 17.0935 65.4781 18.4539C64.1579 18.6356 62.8857 18.812 61.504 19.0044C61.3998 20.028 61.2982 21.0436 61.1967 22.0565L61.194 22.0592Z" fill="#F4921D"/>
<path d="M62.1242 12.9944C61.4107 13.0933 60.6971 13.1895 59.8525 13.3071C59.9888 11.8746 60.1145 10.5436 60.2508 9.11914C61.6245 8.92404 62.9821 8.73161 64.3772 8.53384C64.4734 7.73474 64.5643 6.98107 64.6552 6.23008C65.342 6.18732 66.0128 5.93342 66.8306 6.0911C66.7104 7.41403 66.5901 8.7236 66.4645 10.108C65.0641 10.3058 63.7278 10.4955 62.3835 10.6853C62.1162 11.4657 62.2124 12.2407 62.1269 12.9971L62.1242 12.9944Z" fill="#F4921D"/>
<path d="M56.4393 26.9318C58.5747 26.6378 60.7128 26.3412 62.9016 26.0392C63.0085 25.2481 63.1128 24.465 63.217 23.6793C63.9012 23.6044 64.5827 23.5296 65.3978 23.4414C65.2589 24.8739 65.1279 26.2102 64.9889 27.6267C62.1373 27.9982 59.3257 28.367 56.4768 28.7385C56.2656 28.097 56.458 27.5091 56.4393 26.9291V26.9318Z" fill="#F4921D"/>
<path d="M18.5775 60.7425C19.0826 60.4459 19.7 60.6784 20.2853 60.371C20.4804 59.2699 20.6808 58.1341 20.8813 57.0063C21.675 56.6855 22.4928 56.7818 23.2973 56.584C23.4924 57.2281 23.3908 57.8535 23.3641 58.4735C22.8376 58.4922 22.859 58.9065 22.7975 59.2592C22.6425 60.1733 22.4902 61.0846 22.3298 62.0414C21.0042 62.2151 19.7321 62.3781 18.4412 62.5465C18.2194 61.8784 18.5962 61.3225 18.5802 60.7398L18.5775 60.7425Z" fill="#F4921D"/>
<path d="M50.3599 12.4356C51.0067 12.3153 51.6561 12.195 52.3537 12.0641C52.7492 10.7064 52.4713 9.3808 52.1425 8.06055C53.2089 8.21823 53.845 8.8837 54.2058 9.8485C54.6601 11.0619 54.6468 12.3126 54.4891 13.673C53.0967 13.86 51.7283 14.0445 50.3252 14.2342C50.098 13.6008 50.4214 13.0209 50.3599 12.4382V12.4356Z" fill="#F4921D"/>
<path d="M12.8235 46.156C13.4996 46.0437 14.1731 45.9315 14.9027 45.8112C15.1727 44.4963 14.9615 43.2108 14.7771 41.9199C15.8942 41.944 16.3994 42.7297 16.7308 43.6143C17.1824 44.817 17.1664 46.0758 16.9446 47.4121C15.5922 47.5911 14.2533 47.7702 12.8876 47.9493C12.6604 47.3319 12.8876 46.7359 12.8261 46.156H12.8235Z" fill="#F4921D"/>
<path d="M64.815 39.3964C65.4992 39.2895 66.1833 39.1826 66.913 39.0703C67.1134 37.6993 67.06 36.3657 66.627 35.0508C68.0969 35.3207 68.7089 36.3791 68.9521 37.6993C69.1259 38.6454 69.0777 39.6129 68.9735 40.6632C67.6105 40.8449 66.2742 41.0213 64.9219 41.2004C64.6279 40.575 64.8925 39.9737 64.815 39.3964Z" fill="#F4921D"/>
<path d="M76.8099 33.5244C76.6496 35.4647 76.4892 37.405 76.3342 39.3106C75.6661 39.5992 75.0621 39.511 74.3672 39.6607C74.4554 37.6322 74.6505 35.6758 74.9445 33.7275C75.5672 33.6607 76.1872 33.5939 76.8099 33.5271V33.5244Z" fill="#E68918"/>
<path d="M8.08763 13.5879C7.91391 15.5068 7.74019 17.423 7.56113 19.4221C6.91704 19.5183 6.30769 19.6092 5.56738 19.7215C5.75179 17.6823 5.86671 15.7393 6.19009 13.8124C6.8235 13.7376 7.45423 13.6627 8.08763 13.5879Z" fill="#E68918"/>
<path d="M63.3774 41.7453C62.3431 41.2375 61.5841 40.425 61.0683 39.4282C60.7717 38.8562 60.7663 38.172 61.3035 37.6643C61.6937 37.2928 62.1561 37.1458 62.605 37.5093C63.1209 38.1694 62.3618 38.9979 62.9846 39.5912C62.8696 40.3555 63.1155 41.0504 63.3801 41.7453H63.3774Z" fill="#E68918"/>
<path d="M11.3882 48.5391C10.4608 48.0072 9.72049 47.2669 9.16994 46.3636C8.82517 45.7997 8.78508 45.1476 9.17261 44.573C9.51203 44.0679 10.0225 44.0117 10.5276 44.1587C10.9472 44.6157 10.7307 45.0968 10.7628 45.5431C10.7842 45.8371 10.541 46.2327 11.0407 46.369C10.7681 47.1547 11.2305 47.8202 11.3882 48.5364V48.5391Z" fill="#E68918"/>
<path d="M48.9805 14.876C47.9141 14.2533 47.0269 13.4435 46.5084 12.3076C46.2598 11.7624 46.3106 11.1745 46.7489 10.7255C47.1177 10.3486 47.5747 10.1696 48.0745 10.4796C48.4112 10.8831 48.2055 11.3241 48.2268 11.7437C48.2429 12.0671 47.9729 12.4974 48.5048 12.6738C48.2188 13.5049 48.732 14.1624 48.9805 14.8787V14.876Z" fill="#E68918"/>
<path d="M61.9105 48.9082C62.0575 49.4775 61.9159 50.0334 61.7716 50.5679C61.5497 51.3937 60.9591 51.6129 60.0932 51.2387C59.6869 50.5545 59.9141 49.8383 60.0184 49.1274C60.6491 49.0552 61.2771 48.9804 61.9079 48.9082H61.9105Z" fill="#E68918"/>
<path d="M47.3767 21.8965C47.4649 22.3936 47.4328 22.8934 47.3205 23.3798C47.1415 24.1709 46.6711 24.5824 45.7597 24.4381C45.1477 23.7245 45.3695 22.9147 45.5246 22.113C46.1419 22.0408 46.7593 21.9686 47.3767 21.8965Z" fill="#E68918"/>
<path d="M9.91554 55.6514C10.0171 56.1538 9.93692 56.6456 9.81131 57.132C9.57612 58.0487 9.21533 58.2545 8.16767 58.046C7.72135 57.3565 7.96723 56.5948 8.02335 55.8491C8.65408 55.7823 9.28481 55.7182 9.91554 55.6514Z" fill="#F4921D"/>
<path d="M65.2083 43.7203C65.0132 43.6615 64.7994 43.6134 64.9758 43.3301C65.2243 43.3568 65.3981 43.429 65.2083 43.7203Z" fill="#F4921D"/>
<path d="M12.7083 49.9643C12.6014 49.9189 12.5372 49.8548 12.588 49.7292C12.8179 49.6116 12.882 49.7933 12.9675 49.9376C12.882 49.9456 12.7965 49.9563 12.7083 49.9643Z" fill="#E68918"/>
<path d="M50.0225 15.7926C50.0172 15.8728 50.0092 15.9503 50.0038 16.0305C49.8648 15.9503 49.7098 15.8808 49.782 15.6723C49.9129 15.6135 49.9717 15.6937 50.0225 15.7926Z" fill="#E68918"/>
<path d="M64.7911 43.3336C64.6441 43.2427 64.4624 43.1679 64.5773 42.9353C64.7083 42.8819 64.7697 42.9594 64.8178 43.0636C64.8098 43.1545 64.7991 43.2454 64.7911 43.3336Z" fill="#E68918"/>
<path d="M63.7733 42.1517C63.5888 42.2025 63.5113 42.1384 63.5621 41.946C63.7118 41.9326 63.7813 42.0021 63.7733 42.1517Z" fill="#E68918"/>
<path d="M64.179 42.5474C63.9946 42.5929 63.9224 42.526 63.9706 42.339C64.1175 42.3283 64.187 42.3978 64.179 42.5474Z" fill="#E68918"/>
<path d="M64.383 42.7395C64.1932 42.7956 64.1317 42.7207 64.1718 42.5363C64.3161 42.5256 64.3936 42.5871 64.383 42.7395Z" fill="#E68918"/>
<path d="M64.5831 42.9374C64.3907 42.9962 64.3266 42.9241 64.3747 42.7343C64.5243 42.721 64.6019 42.7771 64.5831 42.9374Z" fill="#E68918"/>
<path d="M63.9785 42.347C63.7967 42.3978 63.7192 42.3337 63.7647 42.1439C63.9143 42.1279 63.9865 42.1947 63.9785 42.347Z" fill="#E68918"/>
<path d="M64.791 43.3334C64.799 43.2425 64.8097 43.1517 64.8177 43.0635C64.9353 43.1196 65.0315 43.1864 64.9834 43.3414C64.9193 43.3414 64.8552 43.3361 64.791 43.3334Z" fill="#F4921D"/>
<path d="M63.5671 41.9542C63.3773 41.9943 63.2918 41.9408 63.3693 41.7377C63.527 41.7244 63.5831 41.8072 63.5671 41.9542Z" fill="#E68918"/>
<path d="M14.7848 41.9301C14.6298 41.9702 14.6191 41.8713 14.6191 41.7617C14.7207 41.7724 14.8383 41.7697 14.7848 41.9301Z" fill="#F4921D"/>
<path d="M49.1808 15.0756C49.0044 15.1157 48.9242 15.0596 48.975 14.8698C49.1327 14.8484 49.1941 14.9233 49.1808 15.0756Z" fill="#E68918"/>
<path d="M11.5888 48.7396C11.4284 48.761 11.3536 48.6969 11.3803 48.5312C11.5727 48.4777 11.6262 48.5659 11.5888 48.7396Z" fill="#E68918"/>
<path d="M11.7889 48.9403C11.6339 48.9563 11.5564 48.8949 11.5805 48.7318C11.7622 48.6891 11.8183 48.7719 11.7889 48.9403Z" fill="#E68918"/>
<path d="M11.9891 49.1376C11.8367 49.1537 11.7646 49.0869 11.7779 48.9319C11.9436 48.9025 12.0211 48.9639 11.9891 49.1376Z" fill="#E68918"/>
<path d="M49.3838 15.2762C49.2074 15.3163 49.1353 15.2521 49.178 15.0731C49.3277 15.0597 49.4025 15.1212 49.3838 15.2762Z" fill="#E68918"/>
<path d="M12.1892 49.3356C12.0368 49.3517 11.9647 49.2849 11.9807 49.1298C12.1544 49.0924 12.2346 49.1512 12.1892 49.3356Z" fill="#E68918"/>
<path d="M12.3897 49.5366C12.2373 49.5527 12.1679 49.4832 12.1839 49.3308C12.3656 49.2881 12.4351 49.3549 12.3897 49.5366Z" fill="#E68918"/>
<path d="M12.5909 49.7369C12.4359 49.7556 12.3691 49.6834 12.3851 49.5311C12.5642 49.4883 12.647 49.5445 12.5909 49.7369Z" fill="#E68918"/>
<path d="M12.708 49.9642C12.7935 49.9562 12.8791 49.9455 12.9672 49.9375C12.9913 49.9803 13.0207 50.0203 13.0341 50.0685C13.0394 50.0872 13.0047 50.1166 12.9886 50.1406C12.8229 50.1967 12.7668 50.0791 12.708 49.9642Z" fill="#F4921D"/>
<path d="M49.5842 15.4747C49.4185 15.5041 49.341 15.4453 49.3784 15.2715C49.5334 15.2528 49.6002 15.3223 49.5842 15.4747Z" fill="#E68918"/>
<path d="M49.7848 15.6748C49.6164 15.7069 49.5496 15.6374 49.579 15.4691C49.7313 15.4504 49.8088 15.5118 49.7848 15.6748Z" fill="#E68918"/>
<path d="M78.8653 20.2501C78.0742 20.0069 78.1491 19.3842 78.1972 18.8336C78.411 16.4096 78.6569 13.9855 78.8921 11.5642C79.007 10.3695 79.1059 9.17223 79.2395 7.98026C79.2903 7.52057 79.3411 7.03683 79.6217 6.64664C79.9798 6.14954 80.4288 5.85555 81.1103 6.24842C81.3909 7.07959 81.2252 7.94551 81.145 8.79539C80.8511 11.949 80.533 15.1027 80.1909 18.2537C80.0947 19.1329 80.0439 20.1111 78.8653 20.2554V20.2501Z" fill="#E68918"/>
<path d="M21.4152 13.9424C21.7706 14.5865 21.6156 15.2974 21.5541 15.9763C21.2441 19.3277 20.9074 22.6738 20.5653 26.0225C20.4076 27.5699 19.988 27.9949 18.8441 27.8212C18.478 27.4871 18.5261 27.0301 18.5662 26.6105C18.9136 22.8609 19.2531 19.1112 19.6539 15.3696C19.7876 14.1108 20.3301 13.7393 21.4178 13.9398L21.4152 13.9424Z" fill="#E68918"/>
<path d="M46.7541 53.0802C46.2169 52.3051 46.5055 51.5327 46.5777 50.7898C46.8931 47.441 47.2245 44.0923 47.5746 40.7435C47.7082 39.45 48.1064 39.0865 49.2262 39.1293C49.6164 39.4767 49.6031 39.9605 49.5576 40.4175C49.1888 44.1644 48.82 47.9114 48.4057 51.653C48.2641 52.9412 47.8605 53.2378 46.7541 53.0828V53.0802Z" fill="#E68918"/>
<path d="M23.5054 53.0824C22.8132 53.2668 22.268 53.3871 21.5518 53.3122C22.1558 49.6722 22.7571 46.0535 23.3558 42.4375C23.4065 42.4428 23.4546 42.4482 23.5054 42.4535V53.0824Z" fill="#E68918"/>
</g>
<defs>
<clipPath id="clip0_8791_27594">
<rect width="100" height="63.7705" fill="white"/>
</clipPath>
</defs>
</svg>
