<svg width="52" height="52" viewBox="0 0 52 52" fill="none" xmlns="http://www.w3.org/2000/svg">
<rect width="52" height="52" rx="6" fill="#190066"/>
<rect x="0.5" y="0.5" width="51" height="51" rx="5.5" stroke="white" stroke-opacity="0.3"/>
<g clip-path="url(#clip0_4216_2517)">
<path d="M39.2682 39.7044L32.664 37.7379L27.6837 40.7151L24.2088 40.7136L19.2255 37.7379L12.6243 39.7044L10.6162 32.9257L12.6243 25.4024L10.6162 19.0417L12.6243 11.1583L22.9391 17.321H28.9531L39.2682 11.1583L41.2763 19.0417L39.2682 25.4024L41.2763 32.9257L39.2682 39.7044Z" fill="#FF5C16"/>
<path d="M12.626 11.1583L22.941 17.3253L22.5309 21.5577L12.626 11.1583ZM19.2274 32.9286L23.7659 36.3859L19.2274 37.7379V32.9286ZM23.4032 27.2127L22.5309 21.5605L16.9474 25.4042L16.9444 25.4026V25.4055L16.9617 29.3618L19.2259 27.2129L23.4032 27.2127ZM39.2686 11.1583L28.9535 17.3253L29.3624 21.5577L39.2686 11.1583ZM32.6674 32.9286L28.1287 36.3859L32.6674 37.7379V32.9286ZM34.9487 25.4052V25.4024L34.9474 25.4039L29.3639 21.5605L28.4916 27.2127H32.6672L34.9329 29.3614L34.9487 25.4052Z" fill="#FF5C16"/>
<path d="M19.2255 37.7379L12.6243 39.7044L10.6162 32.9286H19.2255V37.7379ZM23.4013 27.2112L24.6623 35.3825L22.9146 30.839L16.9585 29.3614L19.2239 27.2114H23.4013V27.2112ZM32.6668 37.7379L39.2682 39.7044L41.2763 32.9286H32.6668V37.7379ZM28.4912 27.2112L27.2302 35.3825L28.9776 30.839L34.934 29.3614L32.667 27.2114H28.4912V27.2112Z" fill="#E34807"/>
<path d="M10.6162 32.9257L12.6243 25.4024H16.9424L16.9583 29.36L22.9149 30.8377L24.6623 35.381L23.764 36.3815L19.2255 32.9242H10.6162V32.9257ZM41.2763 32.9257L39.2682 25.4024H34.9498L34.934 29.36L28.9778 30.8377L27.2302 35.381L28.1283 36.3815L32.667 32.9242H41.2763V32.9257ZM28.9531 17.3209H22.9391L22.5307 21.5533L24.6625 35.3766H27.2302L29.3633 21.5533L28.9531 17.3209Z" fill="#FF8D5D"/>
<path d="M12.6243 11.1583L10.6162 19.0417L12.6243 25.4024H16.9424L22.529 21.5577L12.6243 11.1583ZM22.1533 28.8524H20.197L19.1319 29.8965L22.9162 30.8347L22.1533 28.8511V28.8524ZM39.2682 11.1583L41.2763 19.0417L39.2682 25.4024H34.9498L29.3635 21.5577L39.2682 11.1583ZM29.742 28.8524H31.7011L32.7663 29.8978L28.9776 30.8377L29.742 28.8509V28.8524ZM27.6822 38.0185L28.1285 36.3844L27.2302 35.3838H24.6605L23.7625 36.3844L24.2086 38.0185" fill="#661800"/>
<path d="M27.6824 38.0182V40.7163H24.209V38.0182H27.6824Z" fill="#C0C4CD"/>
<path d="M19.2275 37.7351L24.2122 40.7151V38.0169L23.7658 36.3831L19.2275 37.7351ZM32.6676 37.7351L27.6827 40.7151V38.0169L28.1291 36.3831L32.6676 37.7351Z" fill="#E7EBF6"/>
</g>
<defs>
<clipPath id="clip0_4216_2517">
<rect width="30.7667" height="29.6833" fill="white" transform="translate(10.6162 11.1583)"/>
</clipPath>
</defs>
</svg>
