<svg xmlns="http://www.w3.org/2000/svg" width="42" height="42" fill="none"><path fill="#190066" d="M0 4a4 4 0 0 1 4-4h34a4 4 0 0 1 4 4v34a4 4 0 0 1-4 4H4a4 4 0 0 1-4-4z"/><g clip-path="url(#a)"><path fill="#FF5C16" d="m31.716 32.07-5.334-1.59-4.023 2.406-2.806-.002-4.025-2.403-5.332 1.588-1.622-5.475 1.622-6.077-1.622-5.137 1.622-6.367 8.331 4.977h4.858l8.331-4.977 1.622 6.367-1.622 5.137 1.622 6.077z"/><path fill="#FF5C16" d="m10.195 9.013 8.332 4.98-.332 3.42zm5.332 17.583 3.666 2.793-3.666 1.092zM18.9 21.98l-.705-4.566-4.51 3.105-.002-.001v.002l.014 3.195 1.829-1.735zM31.714 9.013l-8.331 4.98.33 3.42zm-5.331 17.583-3.666 2.793 3.666 1.092zm1.842-6.076v-.003.002l-4.51-3.105-.705 4.566h3.372l1.83 1.735z"/><path fill="#E34807" d="m15.528 30.48-5.332 1.589-1.622-5.473h6.954zm3.373-8.502 1.018 6.6-1.411-3.67-4.811-1.193 1.83-1.737zm7.483 8.503 5.332 1.588 1.622-5.473h-6.954zm-3.372-8.503-1.019 6.6 1.412-3.67 4.81-1.193-1.83-1.737z"/><path fill="#FF8D5D" d="m8.574 26.594 1.622-6.077h3.488l.013 3.197 4.81 1.193 1.412 3.67-.725.808-3.666-2.792zm24.764 0-1.622-6.077h-3.488l-.013 3.197-4.81 1.193-1.412 3.67.726.808 3.665-2.792zM23.385 13.99h-4.858l-.33 3.418 1.722 11.165h2.074l1.723-11.165z"/><path fill="#661800" d="M10.196 9.013 8.574 15.38l1.622 5.137h3.488l4.512-3.105zm7.697 14.291h-1.58l-.86.843 3.056.758zM31.716 9.013l1.622 6.367-1.622 5.137h-3.488l-4.512-3.105zm-7.694 14.291h1.582l.86.844-3.06.76zm-1.664 7.403.36-1.32-.725-.808h-2.075l-.726.809.36 1.32"/><path fill="#C0C4CD" d="M22.36 30.707v2.18h-2.805v-2.18z"/><path fill="#E7EBF6" d="m15.527 30.479 4.026 2.406v-2.179l-.36-1.32zm10.856 0-4.026 2.406v-2.179l.36-1.32z"/></g><defs><clipPath id="a"><path fill="#fff" d="M8.574 9.013h24.85v23.975H8.574z"/></clipPath></defs></svg>