<svg width="350" height="233" viewBox="0 0 350 233" fill="none" xmlns="http://www.w3.org/2000/svg">
<g clip-path="url(#clip0_4118_22844)">
<path d="M350 0.0380859H0V232.415H350V0.0380859Z" fill="#F2F4F9"/>
<path d="M180.437 153.221H144.863V179.055H180.437V153.221Z" fill="#374169"/>
<path d="M262.185 29.5587C264.136 29.5587 265.714 31.1365 265.714 33.0874V143.667H59.6011V33.0874C59.6011 31.1365 61.179 29.5587 63.1298 29.5587H262.171M262.185 25.0259H63.1298C58.6831 25.0259 55.0684 28.6406 55.0684 33.0874V148.2H270.232V33.0874C270.232 28.6406 266.618 25.0259 262.171 25.0259H262.185Z" fill="#374169"/>
<path d="M55.0684 143.667H270.232V150.338C270.232 154.713 266.689 158.256 262.314 158.256H62.9864C58.6114 158.256 55.0684 154.713 55.0684 150.338V143.667Z" fill="#1971BA"/>
<path d="M118.842 178.782H206.486C209.498 178.782 211.936 181.221 211.936 184.233V185.122H113.377V184.233C113.377 181.221 115.815 178.782 118.828 178.782H118.842Z" fill="#1971BA"/>
<path d="M262.184 29.5586C264.134 29.5586 265.712 31.1365 265.712 33.0873V143.667H59.5996V33.0873C59.5996 31.1365 61.1775 29.5586 63.1283 29.5586H262.169" fill="#F2F4F9"/>
<path opacity="0.16" d="M100.251 62.3208H80.054C78.6359 62.3208 77.4863 63.4704 77.4863 64.8884V79.8351C77.4863 81.2532 78.6359 82.4028 80.054 82.4028H100.251C101.669 82.4028 102.818 81.2532 102.818 79.8351V64.8884C102.818 63.4704 101.669 62.3208 100.251 62.3208Z" fill="#374169"/>
<path opacity="0.16" d="M156.324 62.3208H110.236C109.642 62.3208 109.16 62.8025 109.16 63.3966V64.5155C109.16 65.1096 109.642 65.5913 110.236 65.5913H156.324C156.918 65.5913 157.4 65.1096 157.4 64.5155V63.3966C157.4 62.8025 156.918 62.3208 156.324 62.3208Z" fill="#374169"/>
<path opacity="0.16" d="M147.574 67.6426H110.136C109.597 67.6426 109.16 68.0793 109.16 68.618V69.9377C109.16 70.4764 109.597 70.9131 110.136 70.9131H147.574C148.113 70.9131 148.549 70.4764 148.549 69.9377V68.618C148.549 68.0793 148.113 67.6426 147.574 67.6426Z" fill="#374169"/>
<path opacity="0.16" d="M122.959 75.5176H110.021C109.545 75.5176 109.16 75.9029 109.16 76.3782V81.5422C109.16 82.0175 109.545 82.4028 110.021 82.4028H122.959C123.435 82.4028 123.82 82.0175 123.82 81.5422V76.3782C123.82 75.9029 123.435 75.5176 122.959 75.5176Z" fill="#374169"/>
<path opacity="0.16" d="M100.251 92.7598H80.054C78.6359 92.7598 77.4863 93.9093 77.4863 95.3274V110.274C77.4863 111.692 78.6359 112.842 80.054 112.842H100.251C101.669 112.842 102.818 111.692 102.818 110.274V95.3274C102.818 93.9093 101.669 92.7598 100.251 92.7598Z" fill="#374169"/>
<path opacity="0.16" d="M156.324 92.7598H110.236C109.642 92.7598 109.16 93.2414 109.16 93.8356V94.9544C109.16 95.5486 109.642 96.0303 110.236 96.0303H156.324C156.918 96.0303 157.4 95.5486 157.4 94.9544V93.8356C157.4 93.2414 156.918 92.7598 156.324 92.7598Z" fill="#374169"/>
<path opacity="0.16" d="M147.574 98.0815H110.136C109.597 98.0815 109.16 98.5182 109.16 99.057V100.377C109.16 100.915 109.597 101.352 110.136 101.352H147.574C148.113 101.352 148.549 100.915 148.549 100.377V99.057C148.549 98.5182 148.113 98.0815 147.574 98.0815Z" fill="#374169"/>
<path opacity="0.16" d="M122.959 105.971H110.021C109.545 105.971 109.16 106.356 109.16 106.831V111.995C109.16 112.471 109.545 112.856 110.021 112.856H122.959C123.435 112.856 123.82 112.471 123.82 111.995V106.831C123.82 106.356 123.435 105.971 122.959 105.971Z" fill="#374169"/>
<path d="M121.036 43.8028C118.885 43.8028 117.135 42.0528 117.135 39.9012C117.135 37.7495 118.885 35.9995 121.036 35.9995H204.276C206.428 35.9995 208.178 37.7495 208.178 39.9012C208.178 42.0528 206.428 43.8028 204.276 43.8028H121.036Z" fill="white"/>
<path d="M204.277 36.3864C206.213 36.3864 207.791 37.9643 207.791 39.9008C207.791 41.8372 206.213 43.4151 204.277 43.4151H121.037C119.101 43.4151 117.523 41.8372 117.523 39.9008C117.523 37.9643 119.101 36.3864 121.037 36.3864H204.277ZM204.277 35.6118H121.037C118.67 35.6118 116.748 37.534 116.748 39.9008C116.748 42.2676 118.67 44.1897 121.037 44.1897H204.277C206.644 44.1897 208.566 42.2676 208.566 39.9008C208.566 37.534 206.644 35.6118 204.277 35.6118Z" fill="#ADB9E0"/>
<mask id="mask0_4118_22844" style="mask-type:luminance" maskUnits="userSpaceOnUse" x="0" y="0" width="350" height="233">
<path d="M350 0.0380859H0V232.415H350V0.0380859Z" fill="white"/>
</mask>
<g mask="url(#mask0_4118_22844)">
<path fill-rule="evenodd" clip-rule="evenodd" d="M163.883 129.18C163.883 129.18 172.877 120.746 188.125 117.877C203.387 115.008 195.627 159.776 185.83 163.305C176.004 166.834 163.883 129.18 163.883 129.18Z" fill="#F6B08D"/>
<path d="M174.541 144.529C174.541 144.529 167.311 136.381 168.659 126.168C170.022 115.969 175.487 107.406 174.541 93.2621C173.608 79.1187 169.879 77.0818 166.336 76.6658C165.618 76.5797 164.686 77.34 163.653 78.6023C164.758 80.4957 165.877 83.5654 164.944 87.5961C164.227 90.7232 162.936 93.1904 161.057 94.3092C159.952 94.9691 156.969 94.7396 154.702 94.424C153.698 96.4609 152.895 98.0531 152.45 98.756C150.543 101.725 147.731 109.141 140.659 139.221C139.971 160.278 141.592 182.656 138.895 189.225C137.561 192.467 85.1614 280.455 70.3008 305.399H161.559C172.446 280.154 196.057 224.197 197.405 222.848C211.534 208.705 241.141 189.326 241.141 189.326C234.184 175.799 174.541 144.5 174.541 144.5V144.529Z" fill="#FFCDB4"/>
<path fill-rule="evenodd" clip-rule="evenodd" d="M189.443 36.8747H241.126C249.331 36.8747 256.073 43.5735 256.073 51.7927V174.451C256.073 182.641 249.331 189.369 241.126 189.369H189.443C181.239 189.369 174.525 182.641 174.525 174.451V51.7784C174.525 43.5591 181.239 36.8604 189.443 36.8604V36.8747Z" fill="#373435"/>
<path fill-rule="evenodd" clip-rule="evenodd" d="M189.443 41.4504H241.125C246.82 41.4504 251.453 46.0979 251.453 51.7926V174.45C251.453 180.131 246.82 184.764 241.125 184.764H189.443C183.748 184.764 179.115 180.145 179.115 174.45V51.7782C179.115 46.0979 183.748 41.436 189.443 41.436V41.4504Z" fill="#FEFEFE"/>
<path fill-rule="evenodd" clip-rule="evenodd" d="M198.566 40.5898H232.06V43.9607C232.06 45.8112 230.54 47.3316 228.689 47.3316H201.909C200.058 47.3316 198.566 45.8112 198.566 43.9607V40.5898Z" fill="#373435"/>
<path fill-rule="evenodd" clip-rule="evenodd" d="M263.073 129.553C261.008 129.495 258.196 129.883 254.912 131.575C247.897 135.19 250.623 140.942 251.985 143.897C253.362 146.809 259.086 147.971 264.465 146.192C265.928 145.719 267.434 144.901 268.668 143.811C271.436 141.372 272.297 137.958 269.528 133.124C267.477 129.553 265.412 129.639 263.073 129.567V129.553Z" fill="#FFCDB4"/>
<path fill-rule="evenodd" clip-rule="evenodd" d="M256.13 132.852C254.251 133.397 252.831 134.143 252.2 136.237C252.014 137.801 252.702 142.248 255.872 143.453C257.579 144.084 259.358 143.811 260.763 142.907C261.997 142.119 263.962 139.221 262.714 136.424C261.28 133.168 257.966 132.307 256.13 132.852Z" fill="#FFEEE3"/>
<path fill-rule="evenodd" clip-rule="evenodd" d="M263.304 104.508C261.64 105.01 254.195 107.133 251.943 108.281C244.929 111.895 247.654 117.647 249.017 120.602C250.15 122.998 254.209 124.217 258.613 123.572C259.56 123.428 260.535 123.213 261.496 122.883C262.959 122.41 272.24 119.154 273.488 118.078C276.515 115.41 277.433 111.58 273.273 106.129C271.996 104.451 269.873 102.529 263.304 104.508Z" fill="#FFCDB4"/>
<path fill-rule="evenodd" clip-rule="evenodd" d="M254.052 109.686C252.015 109.93 249.907 110.747 249.247 112.942C249.06 114.506 249.749 118.952 252.919 120.157C254.396 120.702 255.228 120.631 257.093 119.698C259.101 118.708 261.396 115.868 260.134 112.928C259.015 110.317 256.362 109.399 254.067 109.672L254.052 109.686Z" fill="#FFEEE3"/>
<path fill-rule="evenodd" clip-rule="evenodd" d="M248.17 158.041C248.17 158.041 244.469 162.344 247.667 166.031C250.838 169.703 254.409 168.899 255.313 169.918C256.231 170.936 256.088 171.051 256.059 172.615C256.001 174.192 255.973 176.043 255.973 176.043C255.973 176.043 267.534 170.75 269.198 167.365C270.891 163.951 269.17 160.279 266.545 157.998C263.92 155.731 261.409 155.731 258.397 155.731C255.385 155.731 250.895 155.014 248.155 158.041H248.17Z" fill="#FFCDB4"/>
<path fill-rule="evenodd" clip-rule="evenodd" d="M251.798 157.983C251.798 157.983 249.761 159.002 249.589 161.684C249.388 164.323 249.861 166.059 251.41 166.719C252.988 167.407 261.466 167.996 261.709 162.043C261.709 159.475 258.941 156.276 251.798 157.998V157.983Z" fill="#FFEEE3"/>
<path fill-rule="evenodd" clip-rule="evenodd" d="M256.287 74.5999C256.287 74.5999 277.087 62.9667 278.664 71.315C280.214 79.6921 272.898 84.5835 256.072 97.063C256.072 86.1757 256.287 74.5999 256.287 74.5999Z" fill="#FFCDB4"/>
<path fill-rule="evenodd" clip-rule="evenodd" d="M226.797 224.828C227.701 226.033 228.676 227.467 229.651 229.131C229.651 229.131 231.444 234.61 236.135 255.596C232.578 249.615 226.854 225.086 226.797 224.828Z" fill="#E5B489"/>
<path d="M211.32 85.6019H213.314V83.5938H211.32V85.6019Z" fill="black"/>
<path d="M217.287 85.6019H219.281V83.5938H217.287V85.6019Z" fill="black"/>
<path d="M195.383 81.5715H197.377V79.5776H195.383V81.5715Z" fill="black"/>
<path d="M197.375 81.5715H199.369V79.5776H197.375V81.5715Z" fill="black"/>
<path d="M199.355 81.5715H201.349V79.5776H199.355V81.5715Z" fill="black"/>
<path d="M201.35 81.5715H203.343V79.5776H201.35V81.5715Z" fill="black"/>
<path d="M203.33 81.5715H205.324V79.5776H203.33V81.5715Z" fill="black"/>
<path d="M205.324 81.5715H207.332V79.5776H205.324V81.5715Z" fill="black"/>
<path d="M207.33 81.5715H209.324V79.5776H207.33V81.5715Z" fill="black"/>
<path d="M195.383 83.58H197.377V81.5718H195.383V83.58Z" fill="black"/>
<path d="M207.33 83.5795H209.324V81.5713H207.33V83.5795Z" fill="black"/>
<path d="M195.383 85.6019H197.377V83.5938H195.383V85.6019Z" fill="black"/>
<path d="M199.355 85.6019H201.349V83.5938H199.355V85.6019Z" fill="black"/>
<path d="M201.35 85.6019H203.343V83.5938H201.35V85.6019Z" fill="black"/>
<path d="M203.33 85.6019H205.324V83.5938H203.33V85.6019Z" fill="black"/>
<path d="M207.33 85.6019H209.324V83.5938H207.33V85.6019Z" fill="black"/>
<path d="M195.383 87.6102H197.377V85.6021H195.383V87.6102Z" fill="black"/>
<path d="M199.355 87.6102H201.349V85.6021H199.355V87.6102Z" fill="black"/>
<path d="M201.35 87.6102H203.343V85.6021H201.35V87.6102Z" fill="black"/>
<path d="M203.33 87.6102H205.324V85.6021H203.33V87.6102Z" fill="black"/>
<path d="M207.33 87.6102H209.324V85.6021H207.33V87.6102Z" fill="black"/>
<path d="M195.383 89.6186H197.377V87.6104H195.383V89.6186Z" fill="black"/>
<path d="M199.355 89.6186H201.349V87.6104H199.355V89.6186Z" fill="black"/>
<path d="M201.35 89.6181H203.343V87.6099H201.35V89.6181Z" fill="black"/>
<path d="M203.33 89.6186H205.324V87.6104H203.33V89.6186Z" fill="black"/>
<path d="M207.33 89.6181H209.324V87.6099H207.33V89.6181Z" fill="black"/>
<path d="M195.383 91.641H197.377V89.6328H195.383V91.641Z" fill="black"/>
<path d="M207.33 91.641H209.324V89.6328H207.33V91.641Z" fill="black"/>
<path d="M195.383 93.6206H197.377V91.6411H195.383V93.6206Z" fill="black"/>
<path d="M197.375 93.6206H199.369V91.6411H197.375V93.6206Z" fill="black"/>
<path d="M199.355 93.6206H201.349V91.6411H199.355V93.6206Z" fill="black"/>
<path d="M201.35 93.6206H203.343V91.6411H201.35V93.6206Z" fill="black"/>
<path d="M203.33 93.6206H205.324V91.6411H203.33V93.6206Z" fill="black"/>
<path d="M205.324 93.6206H207.332V91.6411H205.324V93.6206Z" fill="black"/>
<path d="M207.33 93.6206H209.324V91.6411H207.33V93.6206Z" fill="black"/>
<path d="M209.324 87.6102H211.318V85.6021H209.324V87.6102Z" fill="black"/>
<path d="M213.299 87.6102H215.293V85.6021H213.299V87.6102Z" fill="black"/>
<path d="M217.287 87.6102H219.281V85.6021H217.287V87.6102Z" fill="black"/>
<path d="M221.287 81.5715H223.281V79.5776H221.287V81.5715Z" fill="black"/>
<path d="M223.268 81.5715H225.261V79.5776H223.268V81.5715Z" fill="black"/>
<path d="M225.262 81.5715H227.256V79.5776H225.262V81.5715Z" fill="black"/>
<path d="M227.24 81.5715H229.234V79.5776H227.24V81.5715Z" fill="black"/>
<path d="M229.234 81.5715H231.228V79.5776H229.234V81.5715Z" fill="black"/>
<path d="M231.229 81.5715H233.222V79.5776H231.229V81.5715Z" fill="black"/>
<path d="M233.207 81.5715H235.201V79.5776H233.207V81.5715Z" fill="black"/>
<path d="M221.287 83.5795H223.281V81.5713H221.287V83.5795Z" fill="black"/>
<path d="M233.207 83.5795H235.201V81.5713H233.207V83.5795Z" fill="black"/>
<path d="M221.287 85.6019H223.281V83.5938H221.287V85.6019Z" fill="black"/>
<path d="M225.262 85.6019H227.256V83.5938H225.262V85.6019Z" fill="black"/>
<path d="M227.24 85.6019H229.234V83.5938H227.24V85.6019Z" fill="black"/>
<path d="M229.234 85.6019H231.228V83.5938H229.234V85.6019Z" fill="black"/>
<path d="M233.207 85.6019H235.201V83.5938H233.207V85.6019Z" fill="black"/>
<path d="M221.287 87.6102H223.281V85.6021H221.287V87.6102Z" fill="black"/>
<path d="M225.262 87.6102H227.256V85.6021H225.262V87.6102Z" fill="black"/>
<path d="M227.24 87.6102H229.234V85.6021H227.24V87.6102Z" fill="black"/>
<path d="M229.234 87.6102H231.228V85.6021H229.234V87.6102Z" fill="black"/>
<path d="M233.207 87.6102H235.201V85.6021H233.207V87.6102Z" fill="black"/>
<path d="M221.287 89.6181H223.281V87.6099H221.287V89.6181Z" fill="black"/>
<path d="M225.262 89.6181H227.256V87.6099H225.262V89.6181Z" fill="black"/>
<path d="M227.24 89.6186H229.234V87.6104H227.24V89.6186Z" fill="black"/>
<path d="M229.234 89.6181H231.228V87.6099H229.234V89.6181Z" fill="black"/>
<path d="M233.207 89.6181H235.201V87.6099H233.207V89.6181Z" fill="black"/>
<path d="M217.287 91.641H219.281V89.6328H217.287V91.641Z" fill="black"/>
<path d="M221.287 91.641H223.281V89.6328H221.287V91.641Z" fill="black"/>
<path d="M233.207 91.641H235.201V89.6328H233.207V91.641Z" fill="black"/>
<path d="M217.287 93.6206H219.281V91.6411H217.287V93.6206Z" fill="black"/>
<path d="M221.287 93.6206H223.281V91.6411H221.287V93.6206Z" fill="black"/>
<path d="M223.268 93.6206H225.261V91.6411H223.268V93.6206Z" fill="black"/>
<path d="M225.262 93.6206H227.256V91.6411H225.262V93.6206Z" fill="black"/>
<path d="M227.24 93.6206H229.234V91.6411H227.24V93.6206Z" fill="black"/>
<path d="M229.234 93.6206H231.228V91.6411H229.234V93.6206Z" fill="black"/>
<path d="M231.229 93.6206H233.222V91.6411H231.229V93.6206Z" fill="black"/>
<path d="M233.207 93.6206H235.201V91.6411H233.207V93.6206Z" fill="black"/>
<path d="M213.299 89.6181H215.293V87.6099H213.299V89.6181Z" fill="black"/>
<path d="M215.293 89.6186H217.287V87.6104H215.293V89.6186Z" fill="black"/>
<path d="M213.299 91.641H215.293V89.6328H213.299V91.641Z" fill="black"/>
<path d="M217.287 91.641H219.281V89.6328H217.287V91.641Z" fill="black"/>
<path d="M209.324 93.6206H211.318V91.6411H209.324V93.6206Z" fill="black"/>
<path d="M215.293 93.6206H217.287V91.6411H215.293V93.6206Z" fill="black"/>
<path d="M217.287 93.6206H219.281V91.6411H217.287V93.6206Z" fill="black"/>
<path d="M223.268 93.6206H225.261V91.6411H223.268V93.6206Z" fill="black"/>
<path d="M227.24 93.6206H229.234V91.6411H227.24V93.6206Z" fill="black"/>
<path d="M229.234 93.6206H231.228V91.6411H229.234V93.6206Z" fill="black"/>
<path d="M233.207 93.6206H235.215V91.6411H233.207V93.6206Z" fill="black"/>
<path d="M213.299 95.6291H215.293V93.6353H213.299V95.6291Z" fill="black"/>
<path d="M203.33 97.6371H205.324V95.6289H203.33V97.6371Z" fill="black"/>
<path d="M205.324 97.6371H207.332V95.6289H205.324V97.6371Z" fill="black"/>
<path d="M219.266 97.6371H221.274V95.6289H219.266V97.6371Z" fill="black"/>
<path d="M227.24 97.6371H229.234V95.6289H227.24V97.6371Z" fill="black"/>
<path d="M231.229 97.6371H233.222V95.6289H231.229V97.6371Z" fill="black"/>
<path d="M233.207 97.6371H235.215V95.6289H233.207V97.6371Z" fill="black"/>
<path d="M195.383 99.6596H197.377V97.6514H195.383V99.6596Z" fill="black"/>
<path d="M201.35 99.6596H203.343V97.6514H201.35V99.6596Z" fill="black"/>
<path d="M205.324 99.6596H207.332V97.6514H205.324V99.6596Z" fill="black"/>
<path d="M207.33 99.6596H209.324V97.6514H207.33V99.6596Z" fill="black"/>
<path d="M209.324 99.6596H211.318V97.6514H209.324V99.6596Z" fill="black"/>
<path d="M217.287 99.6596H219.281V97.6514H217.287V99.6596Z" fill="black"/>
<path d="M225.262 95.6289H227.256V97.6371H225.262V95.6289Z" fill="black"/>
<path d="M199.355 101.667H201.349V99.6592H199.355V101.667Z" fill="black"/>
<path d="M203.33 101.667H205.324V99.6592H203.33V101.667Z" fill="black"/>
<path d="M209.324 101.667H211.318V99.6592H209.324V101.667Z" fill="black"/>
<path d="M213.299 101.667H215.293V99.6592H213.299V101.667Z" fill="black"/>
<path d="M217.287 101.667H219.281V99.6592H217.287V101.667Z" fill="black"/>
<path d="M221.287 101.667H223.281V99.6592H221.287V101.667Z" fill="black"/>
<path d="M223.268 101.667H225.261V99.6592H223.268V101.667Z" fill="black"/>
<path d="M229.234 101.667H231.228V99.6592H229.234V101.667Z" fill="black"/>
<path d="M195.383 103.676H197.377V101.667H195.383V103.676Z" fill="black"/>
<path d="M197.375 103.676H199.369V101.667H197.375V103.676Z" fill="black"/>
<path d="M199.355 103.676H201.349V101.667H199.355V103.676Z" fill="black"/>
<path d="M201.35 103.676H203.343V101.667H201.35V103.676Z" fill="black"/>
<path d="M203.33 103.676H205.324V101.667H203.33V103.676Z" fill="black"/>
<path d="M207.33 103.676H209.324V101.667H207.33V103.676Z" fill="black"/>
<path d="M217.287 103.676H219.281V101.667H217.287V103.676Z" fill="black"/>
<path d="M219.266 103.676H221.274V101.667H219.266V103.676Z" fill="black"/>
<path d="M223.268 103.676H225.261V101.667H223.268V103.676Z" fill="black"/>
<path d="M225.262 103.676H227.256V101.667H225.262V103.676Z" fill="black"/>
<path d="M229.234 103.676H231.228V101.667H229.234V103.676Z" fill="black"/>
<path d="M231.229 103.676H233.222V101.667H231.229V103.676Z" fill="black"/>
<path d="M233.207 103.676H235.215V101.667H233.207V103.676Z" fill="black"/>
<path d="M213.299 105.684H215.293V103.676H213.299V105.684Z" fill="black"/>
<path d="M217.287 105.684H219.281V103.676H217.287V105.684Z" fill="black"/>
<path d="M221.287 105.684H223.281V103.676H221.287V105.684Z" fill="black"/>
<path d="M227.24 105.684H229.234V103.676H227.24V105.684Z" fill="black"/>
<path d="M231.229 105.684H233.222V103.676H231.229V105.684Z" fill="black"/>
<path d="M233.207 105.684H235.215V103.676H233.207V105.684Z" fill="black"/>
<path d="M195.383 107.678H197.377V105.684H195.383V107.678Z" fill="black"/>
<path d="M197.375 107.678H199.369V105.684H197.375V107.678Z" fill="black"/>
<path d="M201.35 107.678H203.343V105.684H201.35V107.678Z" fill="black"/>
<path d="M211.32 107.678H213.314V105.684H211.32V107.678Z" fill="black"/>
<path d="M213.299 107.678H215.293V105.684H213.299V107.678Z" fill="black"/>
<path d="M215.293 107.678H217.287V105.684H215.293V107.678Z" fill="black"/>
<path d="M219.266 107.678H221.274V105.684H219.266V107.678Z" fill="black"/>
<path d="M221.287 107.678H223.281V105.684H221.287V107.678Z" fill="black"/>
<path d="M223.268 107.678H225.261V105.684H223.268V107.678Z" fill="black"/>
<path d="M225.262 107.678H227.256V105.684H225.262V107.678Z" fill="black"/>
<path d="M227.24 107.678H229.234V105.684H227.24V107.678Z" fill="black"/>
<path d="M229.234 107.678H231.228V105.684H229.234V107.678Z" fill="black"/>
<path d="M233.207 107.678H235.215V105.684H233.207V107.678Z" fill="black"/>
<path d="M211.32 109.686H213.314V107.678H211.32V109.686Z" fill="black"/>
<path d="M221.287 109.686H223.281V107.678H221.287V109.686Z" fill="black"/>
<path d="M229.234 109.686H231.228V107.678H229.234V109.686Z" fill="black"/>
<path d="M233.207 109.686H235.215V107.678H233.207V109.686Z" fill="black"/>
<path d="M213.299 111.694H215.293V109.686H213.299V111.694Z" fill="black"/>
<path d="M217.287 111.695H219.281V109.687H217.287V111.695Z" fill="black"/>
<path d="M221.287 111.694H223.281V109.686H221.287V111.694Z" fill="black"/>
<path d="M225.262 111.694H227.256V109.686H225.262V111.694Z" fill="black"/>
<path d="M229.234 111.694H231.228V109.686H229.234V111.694Z" fill="black"/>
<path d="M211.32 113.717H213.314V111.708H211.32V113.717Z" fill="black"/>
<path d="M215.293 113.717H217.287V111.708H215.293V113.717Z" fill="black"/>
<path d="M219.266 113.717H221.274V111.708H219.266V113.717Z" fill="black"/>
<path d="M221.287 113.717H223.281V111.708H221.287V113.717Z" fill="black"/>
<path d="M229.234 113.717H231.228V111.708H229.234V113.717Z" fill="black"/>
<path d="M211.32 115.725H213.314V113.717H211.32V115.725Z" fill="black"/>
<path d="M213.299 115.725H215.293V113.717H213.299V115.725Z" fill="black"/>
<path d="M217.287 115.725H219.281V113.717H217.287V115.725Z" fill="black"/>
<path d="M219.266 115.725H221.274V113.717H219.266V115.725Z" fill="black"/>
<path d="M221.287 115.725H223.281V113.717H221.287V115.725Z" fill="black"/>
<path d="M223.268 115.725H225.261V113.717H223.268V115.725Z" fill="black"/>
<path d="M225.262 115.725H227.256V113.717H225.262V115.725Z" fill="black"/>
<path d="M227.24 115.725H229.234V113.717H227.24V115.725Z" fill="black"/>
<path d="M229.234 115.725H231.228V113.717H229.234V115.725Z" fill="black"/>
<path d="M213.299 117.733H215.293V115.725H213.299V117.733Z" fill="black"/>
<path d="M215.293 117.733H217.287V115.725H215.293V117.733Z" fill="black"/>
<path d="M217.287 117.733H219.281V115.725H217.287V117.733Z" fill="black"/>
<path d="M225.262 117.733H227.256V115.725H225.262V117.733Z" fill="black"/>
<path d="M211.32 119.713H213.314V117.733H211.32V119.713Z" fill="black"/>
<path d="M215.293 119.713H217.287V117.733H215.293V119.713Z" fill="black"/>
<path d="M219.266 119.713H221.274V117.733H219.266V119.713Z" fill="black"/>
<path d="M223.268 119.713H225.261V117.733H223.268V119.713Z" fill="black"/>
<path d="M229.234 119.713H231.228V117.733H229.234V119.713Z" fill="black"/>
<path d="M231.229 119.713H233.222V117.733H231.229V119.713Z" fill="black"/>
<path d="M195.383 107.678H197.377V105.684H195.383V107.678Z" fill="black"/>
<path d="M197.375 107.678H199.369V105.684H197.375V107.678Z" fill="black"/>
<path d="M199.355 107.678H201.349V105.684H199.355V107.678Z" fill="black"/>
<path d="M201.35 107.678H203.343V105.684H201.35V107.678Z" fill="black"/>
<path d="M203.33 107.678H205.324V105.684H203.33V107.678Z" fill="black"/>
<path d="M205.324 107.678H207.332V105.684H205.324V107.678Z" fill="black"/>
<path d="M207.33 107.678H209.324V105.684H207.33V107.678Z" fill="black"/>
<path d="M195.383 109.686H197.377V107.678H195.383V109.686Z" fill="black"/>
<path d="M207.33 109.686H209.324V107.678H207.33V109.686Z" fill="black"/>
<path d="M195.383 111.695H197.377V109.687H195.383V111.695Z" fill="black"/>
<path d="M199.355 111.695H201.349V109.687H199.355V111.695Z" fill="black"/>
<path d="M201.35 111.694H203.343V109.686H201.35V111.694Z" fill="black"/>
<path d="M203.33 111.695H205.324V109.687H203.33V111.695Z" fill="black"/>
<path d="M207.33 111.694H209.324V109.686H207.33V111.694Z" fill="black"/>
<path d="M195.383 113.717H197.377V111.708H195.383V113.717Z" fill="black"/>
<path d="M199.355 113.717H201.349V111.708H199.355V113.717Z" fill="black"/>
<path d="M201.35 113.717H203.343V111.708H201.35V113.717Z" fill="black"/>
<path d="M203.33 113.717H205.324V111.708H203.33V113.717Z" fill="black"/>
<path d="M207.33 113.717H209.324V111.708H207.33V113.717Z" fill="black"/>
<path d="M195.383 115.725H197.377V113.717H195.383V115.725Z" fill="black"/>
<path d="M199.355 115.725H201.349V113.717H199.355V115.725Z" fill="black"/>
<path d="M201.35 115.725H203.343V113.717H201.35V115.725Z" fill="black"/>
<path d="M203.33 115.725H205.324V113.717H203.33V115.725Z" fill="black"/>
<path d="M207.33 115.725H209.324V113.717H207.33V115.725Z" fill="black"/>
<path d="M195.383 117.733H197.377V115.725H195.383V117.733Z" fill="black"/>
<path d="M207.33 117.733H209.324V115.725H207.33V117.733Z" fill="black"/>
<path d="M195.383 119.713H197.377V117.733H195.383V119.713Z" fill="black"/>
<path d="M197.375 119.713H199.369V117.733H197.375V119.713Z" fill="black"/>
<path d="M199.355 119.713H201.349V117.733H199.355V119.713Z" fill="black"/>
<path d="M201.35 119.713H203.343V117.733H201.35V119.713Z" fill="black"/>
<path d="M203.33 119.713H205.324V117.733H203.33V119.713Z" fill="black"/>
<path d="M205.324 119.713H207.332V117.733H205.324V119.713Z" fill="black"/>
<path d="M207.33 119.713H209.324V117.733H207.33V119.713Z" fill="black"/>
<path d="M207.33 99.6592H209.324V101.667H207.33V99.6592Z" fill="black"/>
<path d="M211.32 81.5718H213.314V83.58H211.32V81.5718Z" fill="black"/>
<path d="M213.299 79.5918H215.293V81.5856H213.299V79.5918Z" fill="black"/>
<path d="M233.207 117.733H235.201V119.713H233.207V117.733Z" fill="black"/>
<path d="M235.201 115.725H233.207V117.733H235.201V115.725Z" fill="black"/>
<path d="M215.293 99.6592H217.287V101.667H215.293V99.6592Z" fill="black"/>
<path d="M213.299 79.5918H217.272V81.5856H213.299V79.5918Z" fill="black"/>
<path d="M213.299 79.5918H217.272V81.5856H213.299V79.5918Z" fill="black"/>
<path d="M217.287 81.5715H219.281V79.5776H217.287V81.5715Z" fill="black"/>
<path d="M217.287 81.5718H215.293V83.58H217.287V81.5718Z" fill="black"/>
<path d="M195.383 95.6289H197.377V97.6371H195.383V95.6289Z" fill="black"/>
<path d="M199.357 95.6289H197.363V97.6371H199.357V95.6289Z" fill="black"/>
<path d="M201.349 95.6289H199.355V97.6371H201.349V95.6289Z" fill="black"/>
<path d="M225.261 95.6289H223.268V97.6371H225.261V95.6289Z" fill="black"/>
<path d="M223.268 97.6372H225.261V99.6454H223.268V97.6372Z" fill="black"/>
<path d="M231.229 97.6372H233.222V99.6454H231.229V97.6372Z" fill="black"/>
<path d="M211.32 95.6289H213.314V97.6371H211.32V95.6289Z" fill="black"/>
<path d="M213.299 97.6372H215.293V99.6454H213.299V97.6372Z" fill="black"/>
<path d="M233.207 113.717H235.201V115.725H233.207V113.717Z" fill="black"/>
<path d="M231.229 111.694H233.222V113.703H231.229V111.694Z" fill="black"/>
<path d="M211.32 85.6019H213.314V83.5938H211.32V85.6019Z" fill="black"/>
<path d="M217.287 85.6019H219.281V83.5938H217.287V85.6019Z" fill="black"/>
<path d="M195.383 81.5715H197.377V79.5776H195.383V81.5715Z" fill="black"/>
<path d="M197.375 81.5715H199.369V79.5776H197.375V81.5715Z" fill="black"/>
<path d="M199.355 81.5715H201.349V79.5776H199.355V81.5715Z" fill="black"/>
<path d="M201.35 81.5715H203.343V79.5776H201.35V81.5715Z" fill="black"/>
<path d="M203.33 81.5715H205.324V79.5776H203.33V81.5715Z" fill="black"/>
<path d="M205.324 81.5715H207.332V79.5776H205.324V81.5715Z" fill="black"/>
<path d="M207.33 81.5715H209.324V79.5776H207.33V81.5715Z" fill="black"/>
<path d="M195.383 83.58H197.377V81.5718H195.383V83.58Z" fill="black"/>
<path d="M207.33 83.5795H209.324V81.5713H207.33V83.5795Z" fill="black"/>
<path d="M195.383 85.6019H197.377V83.5938H195.383V85.6019Z" fill="black"/>
<path d="M199.355 85.6019H201.349V83.5938H199.355V85.6019Z" fill="black"/>
<path d="M201.35 85.6019H203.343V83.5938H201.35V85.6019Z" fill="black"/>
<path d="M203.33 85.6019H205.324V83.5938H203.33V85.6019Z" fill="black"/>
<path d="M207.33 85.6019H209.324V83.5938H207.33V85.6019Z" fill="black"/>
<path d="M195.383 87.6102H197.377V85.6021H195.383V87.6102Z" fill="black"/>
<path d="M199.355 87.6102H201.349V85.6021H199.355V87.6102Z" fill="black"/>
<path d="M201.35 87.6102H203.343V85.6021H201.35V87.6102Z" fill="black"/>
<path d="M203.33 87.6102H205.324V85.6021H203.33V87.6102Z" fill="black"/>
<path d="M207.33 87.6102H209.324V85.6021H207.33V87.6102Z" fill="black"/>
<path d="M195.383 89.6186H197.377V87.6104H195.383V89.6186Z" fill="black"/>
<path d="M199.355 89.6186H201.349V87.6104H199.355V89.6186Z" fill="black"/>
<path d="M201.35 89.6181H203.343V87.6099H201.35V89.6181Z" fill="black"/>
<path d="M203.33 89.6186H205.324V87.6104H203.33V89.6186Z" fill="black"/>
<path d="M207.33 89.6181H209.324V87.6099H207.33V89.6181Z" fill="black"/>
<path d="M195.383 91.641H197.377V89.6328H195.383V91.641Z" fill="black"/>
<path d="M207.33 91.641H209.324V89.6328H207.33V91.641Z" fill="black"/>
<path d="M195.383 93.6206H197.377V91.6411H195.383V93.6206Z" fill="black"/>
<path d="M197.375 93.6206H199.369V91.6411H197.375V93.6206Z" fill="black"/>
<path d="M199.355 93.6206H201.349V91.6411H199.355V93.6206Z" fill="black"/>
<path d="M201.35 93.6206H203.343V91.6411H201.35V93.6206Z" fill="black"/>
<path d="M203.33 93.6206H205.324V91.6411H203.33V93.6206Z" fill="black"/>
<path d="M205.324 93.6206H207.332V91.6411H205.324V93.6206Z" fill="black"/>
<path d="M207.33 93.6206H209.324V91.6411H207.33V93.6206Z" fill="black"/>
<path d="M209.324 87.6102H211.318V85.6021H209.324V87.6102Z" fill="black"/>
<path d="M213.299 87.6102H215.293V85.6021H213.299V87.6102Z" fill="black"/>
<path d="M217.287 87.6102H219.281V85.6021H217.287V87.6102Z" fill="black"/>
<path d="M221.287 81.5715H223.281V79.5776H221.287V81.5715Z" fill="black"/>
<path d="M223.268 81.5715H225.261V79.5776H223.268V81.5715Z" fill="black"/>
<path d="M225.262 81.5715H227.256V79.5776H225.262V81.5715Z" fill="black"/>
<path d="M227.24 81.5715H229.234V79.5776H227.24V81.5715Z" fill="black"/>
<path d="M229.234 81.5715H231.228V79.5776H229.234V81.5715Z" fill="black"/>
<path d="M231.229 81.5715H233.222V79.5776H231.229V81.5715Z" fill="black"/>
<path d="M233.207 81.5715H235.201V79.5776H233.207V81.5715Z" fill="black"/>
<path d="M221.287 83.5795H223.281V81.5713H221.287V83.5795Z" fill="black"/>
<path d="M233.207 83.5795H235.201V81.5713H233.207V83.5795Z" fill="black"/>
<path d="M221.287 85.6019H223.281V83.5938H221.287V85.6019Z" fill="black"/>
<path d="M225.262 85.6019H227.256V83.5938H225.262V85.6019Z" fill="black"/>
<path d="M227.24 85.6019H229.234V83.5938H227.24V85.6019Z" fill="black"/>
<path d="M229.234 85.6019H231.228V83.5938H229.234V85.6019Z" fill="black"/>
<path d="M233.207 85.6019H235.201V83.5938H233.207V85.6019Z" fill="black"/>
<path d="M221.287 87.6102H223.281V85.6021H221.287V87.6102Z" fill="black"/>
<path d="M225.262 87.6102H227.256V85.6021H225.262V87.6102Z" fill="black"/>
<path d="M227.24 87.6102H229.234V85.6021H227.24V87.6102Z" fill="black"/>
<path d="M229.234 87.6102H231.228V85.6021H229.234V87.6102Z" fill="black"/>
<path d="M233.207 87.6102H235.201V85.6021H233.207V87.6102Z" fill="black"/>
<path d="M221.287 89.6181H223.281V87.6099H221.287V89.6181Z" fill="black"/>
<path d="M225.262 89.6181H227.256V87.6099H225.262V89.6181Z" fill="black"/>
<path d="M227.24 89.6186H229.234V87.6104H227.24V89.6186Z" fill="black"/>
<path d="M229.234 89.6181H231.228V87.6099H229.234V89.6181Z" fill="black"/>
<path d="M233.207 89.6181H235.201V87.6099H233.207V89.6181Z" fill="black"/>
<path d="M217.287 91.641H219.281V89.6328H217.287V91.641Z" fill="black"/>
<path d="M221.287 91.641H223.281V89.6328H221.287V91.641Z" fill="black"/>
<path d="M233.207 91.641H235.201V89.6328H233.207V91.641Z" fill="black"/>
<path d="M217.287 93.6206H219.281V91.6411H217.287V93.6206Z" fill="black"/>
<path d="M221.287 93.6206H223.281V91.6411H221.287V93.6206Z" fill="black"/>
<path d="M223.268 93.6206H225.261V91.6411H223.268V93.6206Z" fill="black"/>
<path d="M225.262 93.6206H227.256V91.6411H225.262V93.6206Z" fill="black"/>
<path d="M227.24 93.6206H229.234V91.6411H227.24V93.6206Z" fill="black"/>
<path d="M229.234 93.6206H231.228V91.6411H229.234V93.6206Z" fill="black"/>
<path d="M231.229 93.6206H233.222V91.6411H231.229V93.6206Z" fill="black"/>
<path d="M233.207 93.6206H235.201V91.6411H233.207V93.6206Z" fill="black"/>
<path d="M213.299 89.6181H215.293V87.6099H213.299V89.6181Z" fill="black"/>
<path d="M215.293 89.6186H217.287V87.6104H215.293V89.6186Z" fill="black"/>
<path d="M213.299 91.641H215.293V89.6328H213.299V91.641Z" fill="black"/>
<path d="M217.287 91.641H219.281V89.6328H217.287V91.641Z" fill="black"/>
<path d="M209.324 93.6206H211.318V91.6411H209.324V93.6206Z" fill="black"/>
<path d="M215.293 93.6206H217.287V91.6411H215.293V93.6206Z" fill="black"/>
<path d="M217.287 93.6206H219.281V91.6411H217.287V93.6206Z" fill="black"/>
<path d="M223.268 93.6206H225.261V91.6411H223.268V93.6206Z" fill="black"/>
<path d="M227.24 93.6206H229.234V91.6411H227.24V93.6206Z" fill="black"/>
<path d="M229.234 93.6206H231.228V91.6411H229.234V93.6206Z" fill="black"/>
<path d="M233.207 93.6206H235.215V91.6411H233.207V93.6206Z" fill="black"/>
<path d="M213.299 95.6291H215.293V93.6353H213.299V95.6291Z" fill="black"/>
<path d="M203.33 97.6371H205.324V95.6289H203.33V97.6371Z" fill="black"/>
<path d="M205.324 97.6371H207.332V95.6289H205.324V97.6371Z" fill="black"/>
<path d="M219.266 97.6371H221.274V95.6289H219.266V97.6371Z" fill="black"/>
<path d="M227.24 97.6371H229.234V95.6289H227.24V97.6371Z" fill="black"/>
<path d="M231.229 97.6371H233.222V95.6289H231.229V97.6371Z" fill="black"/>
<path d="M233.207 97.6371H235.215V95.6289H233.207V97.6371Z" fill="black"/>
<path d="M195.383 99.6596H197.377V97.6514H195.383V99.6596Z" fill="black"/>
<path d="M201.35 99.6596H203.343V97.6514H201.35V99.6596Z" fill="black"/>
<path d="M205.324 99.6596H207.332V97.6514H205.324V99.6596Z" fill="black"/>
<path d="M207.33 99.6596H209.324V97.6514H207.33V99.6596Z" fill="black"/>
<path d="M209.324 99.6596H211.318V97.6514H209.324V99.6596Z" fill="black"/>
<path d="M217.287 99.6596H219.281V97.6514H217.287V99.6596Z" fill="black"/>
<path d="M225.262 95.6289H227.256V97.6371H225.262V95.6289Z" fill="black"/>
<path d="M199.355 101.667H201.349V99.6592H199.355V101.667Z" fill="black"/>
<path d="M203.33 101.667H205.324V99.6592H203.33V101.667Z" fill="black"/>
<path d="M209.324 101.667H211.318V99.6592H209.324V101.667Z" fill="black"/>
<path d="M213.299 101.667H215.293V99.6592H213.299V101.667Z" fill="black"/>
<path d="M217.287 101.667H219.281V99.6592H217.287V101.667Z" fill="black"/>
<path d="M221.287 101.667H223.281V99.6592H221.287V101.667Z" fill="black"/>
<path d="M223.268 101.667H225.261V99.6592H223.268V101.667Z" fill="black"/>
<path d="M229.234 101.667H231.228V99.6592H229.234V101.667Z" fill="black"/>
<path d="M195.383 103.676H197.377V101.667H195.383V103.676Z" fill="black"/>
<path d="M197.375 103.676H199.369V101.667H197.375V103.676Z" fill="black"/>
<path d="M199.355 103.676H201.349V101.667H199.355V103.676Z" fill="black"/>
<path d="M201.35 103.676H203.343V101.667H201.35V103.676Z" fill="black"/>
<path d="M203.33 103.676H205.324V101.667H203.33V103.676Z" fill="black"/>
<path d="M207.33 103.676H209.324V101.667H207.33V103.676Z" fill="black"/>
<path d="M217.287 103.676H219.281V101.667H217.287V103.676Z" fill="black"/>
<path d="M219.266 103.676H221.274V101.667H219.266V103.676Z" fill="black"/>
<path d="M223.268 103.676H225.261V101.667H223.268V103.676Z" fill="black"/>
<path d="M225.262 103.676H227.256V101.667H225.262V103.676Z" fill="black"/>
<path d="M229.234 103.676H231.228V101.667H229.234V103.676Z" fill="black"/>
<path d="M231.229 103.676H233.222V101.667H231.229V103.676Z" fill="black"/>
<path d="M233.207 103.676H235.215V101.667H233.207V103.676Z" fill="black"/>
<path d="M213.299 105.684H215.293V103.676H213.299V105.684Z" fill="black"/>
<path d="M217.287 105.684H219.281V103.676H217.287V105.684Z" fill="black"/>
<path d="M221.287 105.684H223.281V103.676H221.287V105.684Z" fill="black"/>
<path d="M227.24 105.684H229.234V103.676H227.24V105.684Z" fill="black"/>
<path d="M231.229 105.684H233.222V103.676H231.229V105.684Z" fill="black"/>
<path d="M233.207 105.684H235.215V103.676H233.207V105.684Z" fill="black"/>
<path d="M195.383 107.678H197.377V105.684H195.383V107.678Z" fill="black"/>
<path d="M197.375 107.678H199.369V105.684H197.375V107.678Z" fill="black"/>
<path d="M201.35 107.678H203.343V105.684H201.35V107.678Z" fill="black"/>
<path d="M211.32 107.678H213.314V105.684H211.32V107.678Z" fill="black"/>
<path d="M213.299 107.678H215.293V105.684H213.299V107.678Z" fill="black"/>
<path d="M215.293 107.678H217.287V105.684H215.293V107.678Z" fill="black"/>
<path d="M219.266 107.678H221.274V105.684H219.266V107.678Z" fill="black"/>
<path d="M221.287 107.678H223.281V105.684H221.287V107.678Z" fill="black"/>
<path d="M223.268 107.678H225.261V105.684H223.268V107.678Z" fill="black"/>
<path d="M225.262 107.678H227.256V105.684H225.262V107.678Z" fill="black"/>
<path d="M227.24 107.678H229.234V105.684H227.24V107.678Z" fill="black"/>
<path d="M229.234 107.678H231.228V105.684H229.234V107.678Z" fill="black"/>
<path d="M233.207 107.678H235.215V105.684H233.207V107.678Z" fill="black"/>
<path d="M211.32 109.686H213.314V107.678H211.32V109.686Z" fill="black"/>
<path d="M221.287 109.686H223.281V107.678H221.287V109.686Z" fill="black"/>
<path d="M229.234 109.686H231.228V107.678H229.234V109.686Z" fill="black"/>
<path d="M233.207 109.686H235.215V107.678H233.207V109.686Z" fill="black"/>
<path d="M213.299 111.694H215.293V109.686H213.299V111.694Z" fill="black"/>
<path d="M217.287 111.695H219.281V109.687H217.287V111.695Z" fill="black"/>
<path d="M221.287 111.694H223.281V109.686H221.287V111.694Z" fill="black"/>
<path d="M225.262 111.694H227.256V109.686H225.262V111.694Z" fill="black"/>
<path d="M229.234 111.694H231.228V109.686H229.234V111.694Z" fill="black"/>
<path d="M211.32 113.717H213.314V111.708H211.32V113.717Z" fill="black"/>
<path d="M215.293 113.717H217.287V111.708H215.293V113.717Z" fill="black"/>
<path d="M219.266 113.717H221.274V111.708H219.266V113.717Z" fill="black"/>
<path d="M221.287 113.717H223.281V111.708H221.287V113.717Z" fill="black"/>
<path d="M229.234 113.717H231.228V111.708H229.234V113.717Z" fill="black"/>
<path d="M211.32 115.725H213.314V113.717H211.32V115.725Z" fill="black"/>
<path d="M213.299 115.725H215.293V113.717H213.299V115.725Z" fill="black"/>
<path d="M217.287 115.725H219.281V113.717H217.287V115.725Z" fill="black"/>
<path d="M219.266 115.725H221.274V113.717H219.266V115.725Z" fill="black"/>
<path d="M221.287 115.725H223.281V113.717H221.287V115.725Z" fill="black"/>
<path d="M223.268 115.725H225.261V113.717H223.268V115.725Z" fill="black"/>
<path d="M225.262 115.725H227.256V113.717H225.262V115.725Z" fill="black"/>
<path d="M227.24 115.725H229.234V113.717H227.24V115.725Z" fill="black"/>
<path d="M229.234 115.725H231.228V113.717H229.234V115.725Z" fill="black"/>
<path d="M213.299 117.733H215.293V115.725H213.299V117.733Z" fill="black"/>
<path d="M215.293 117.733H217.287V115.725H215.293V117.733Z" fill="black"/>
<path d="M217.287 117.733H219.281V115.725H217.287V117.733Z" fill="black"/>
<path d="M225.262 117.733H227.256V115.725H225.262V117.733Z" fill="black"/>
<path d="M211.32 119.713H213.314V117.733H211.32V119.713Z" fill="black"/>
<path d="M215.293 119.713H217.287V117.733H215.293V119.713Z" fill="black"/>
<path d="M219.266 119.713H221.274V117.733H219.266V119.713Z" fill="black"/>
<path d="M223.268 119.713H225.261V117.733H223.268V119.713Z" fill="black"/>
<path d="M229.234 119.713H231.228V117.733H229.234V119.713Z" fill="black"/>
<path d="M231.229 119.713H233.222V117.733H231.229V119.713Z" fill="black"/>
<path d="M195.383 107.678H197.377V105.684H195.383V107.678Z" fill="black"/>
<path d="M197.375 107.678H199.369V105.684H197.375V107.678Z" fill="black"/>
<path d="M199.355 107.678H201.349V105.684H199.355V107.678Z" fill="black"/>
<path d="M201.35 107.678H203.343V105.684H201.35V107.678Z" fill="black"/>
<path d="M203.33 107.678H205.324V105.684H203.33V107.678Z" fill="black"/>
<path d="M205.324 107.678H207.332V105.684H205.324V107.678Z" fill="black"/>
<path d="M207.33 107.678H209.324V105.684H207.33V107.678Z" fill="black"/>
<path d="M195.383 109.686H197.377V107.678H195.383V109.686Z" fill="black"/>
<path d="M207.33 109.686H209.324V107.678H207.33V109.686Z" fill="black"/>
<path d="M195.383 111.695H197.377V109.687H195.383V111.695Z" fill="black"/>
<path d="M199.355 111.695H201.349V109.687H199.355V111.695Z" fill="black"/>
<path d="M201.35 111.694H203.343V109.686H201.35V111.694Z" fill="black"/>
<path d="M203.33 111.695H205.324V109.687H203.33V111.695Z" fill="black"/>
<path d="M207.33 111.694H209.324V109.686H207.33V111.694Z" fill="black"/>
<path d="M195.383 113.717H197.377V111.708H195.383V113.717Z" fill="black"/>
<path d="M199.355 113.717H201.349V111.708H199.355V113.717Z" fill="black"/>
<path d="M201.35 113.717H203.343V111.708H201.35V113.717Z" fill="black"/>
<path d="M203.33 113.717H205.324V111.708H203.33V113.717Z" fill="black"/>
<path d="M207.33 113.717H209.324V111.708H207.33V113.717Z" fill="black"/>
<path d="M195.383 115.725H197.377V113.717H195.383V115.725Z" fill="black"/>
<path d="M199.355 115.725H201.349V113.717H199.355V115.725Z" fill="black"/>
<path d="M201.35 115.725H203.343V113.717H201.35V115.725Z" fill="black"/>
<path d="M203.33 115.725H205.324V113.717H203.33V115.725Z" fill="black"/>
<path d="M207.33 115.725H209.324V113.717H207.33V115.725Z" fill="black"/>
<path d="M195.383 117.733H197.377V115.725H195.383V117.733Z" fill="black"/>
<path d="M207.33 117.733H209.324V115.725H207.33V117.733Z" fill="black"/>
<path d="M195.383 119.713H197.377V117.733H195.383V119.713Z" fill="black"/>
<path d="M197.375 119.713H199.369V117.733H197.375V119.713Z" fill="black"/>
<path d="M199.355 119.713H201.349V117.733H199.355V119.713Z" fill="black"/>
<path d="M201.35 119.713H203.343V117.733H201.35V119.713Z" fill="black"/>
<path d="M203.33 119.713H205.324V117.733H203.33V119.713Z" fill="black"/>
<path d="M205.324 119.713H207.332V117.733H205.324V119.713Z" fill="black"/>
<path d="M207.33 119.713H209.324V117.733H207.33V119.713Z" fill="black"/>
<path d="M207.33 99.6592H209.324V101.667H207.33V99.6592Z" fill="black"/>
<path d="M211.32 81.5718H213.314V83.58H211.32V81.5718Z" fill="black"/>
<path d="M213.299 79.5918H215.293V81.5856H213.299V79.5918Z" fill="black"/>
<path d="M233.207 117.733H235.201V119.713H233.207V117.733Z" fill="black"/>
<path d="M235.201 115.725H233.207V117.733H235.201V115.725Z" fill="black"/>
<path d="M215.293 99.6592H217.287V101.667H215.293V99.6592Z" fill="black"/>
<path d="M213.299 79.5918H217.272V81.5856H213.299V79.5918Z" fill="black"/>
<path d="M213.299 79.5918H217.272V81.5856H213.299V79.5918Z" fill="black"/>
<path d="M217.287 81.5715H219.281V79.5776H217.287V81.5715Z" fill="black"/>
<path d="M217.287 81.5718H215.293V83.58H217.287V81.5718Z" fill="black"/>
<path d="M195.383 95.6289H197.377V97.6371H195.383V95.6289Z" fill="black"/>
<path d="M199.357 95.6289H197.363V97.6371H199.357V95.6289Z" fill="black"/>
<path d="M201.349 95.6289H199.355V97.6371H201.349V95.6289Z" fill="black"/>
<path d="M225.261 95.6289H223.268V97.6371H225.261V95.6289Z" fill="black"/>
<path d="M223.268 97.6372H225.261V99.6454H223.268V97.6372Z" fill="black"/>
<path d="M231.229 97.6372H233.222V99.6454H231.229V97.6372Z" fill="black"/>
<path d="M211.32 95.6289H213.314V97.6371H211.32V95.6289Z" fill="black"/>
<path d="M213.299 97.6372H215.293V99.6454H213.299V97.6372Z" fill="black"/>
<path d="M233.207 113.717H235.201V115.725H233.207V113.717Z" fill="black"/>
<path d="M231.229 111.694H233.222V113.703H231.229V111.694Z" fill="black"/>
<path d="M189.316 72.7785H199.974V74.6863H190.277V84.3687H188.369V72.7928H189.302L189.316 72.7785ZM230.613 72.7785H242.232V84.3543H240.295V74.6719H230.599V72.7642L230.613 72.7785ZM242.246 114.951V126.526H230.627V124.619H240.324V114.951H242.261H242.246ZM199.974 126.526H188.383V114.951H190.291V124.619H199.988V126.526H199.974Z" fill="#373435"/>
<path fill-rule="evenodd" clip-rule="evenodd" d="M191.38 140.871H239.232C240.552 140.871 241.628 141.975 241.628 143.295V150.137C241.628 151.457 240.552 152.561 239.232 152.561H191.38C190.017 152.561 188.941 151.457 188.941 150.137V143.295C188.941 141.975 190.017 140.871 191.38 140.871Z" fill="#0F80F0"/>
<path fill-rule="evenodd" clip-rule="evenodd" d="M250.766 290.424C246.52 286.838 214.217 264.518 212.754 251.336C211.319 238.182 212.424 232.373 211.061 227.467C209.742 222.561 218.133 209.379 229.651 229.117C224.258 204.115 198.008 155.33 209.196 147.641C220.385 139.953 235.561 179.672 241.614 192.625C247.223 187.059 256.389 180.246 267.133 196.426C274.291 191.291 283.342 187.49 292.293 203.899C299.766 196.211 309.75 198.664 316.448 218.201C332.055 263.6 315.272 266.326 328.526 305.414H259.201C256.604 299.604 253.563 292.733 250.809 290.424H250.766Z" fill="#FFCDB4"/>
<path fill-rule="evenodd" clip-rule="evenodd" d="M241.6 192.625C242.202 192.051 242.819 191.448 243.507 190.86L255.858 224.483L252.487 223.709L241.6 192.625Z" fill="#F6B08D"/>
<path fill-rule="evenodd" clip-rule="evenodd" d="M267.117 196.44C267.892 195.881 268.695 195.336 269.498 194.833L278.664 223.565H275.925L267.117 196.44Z" fill="#F6B08D"/>
<path fill-rule="evenodd" clip-rule="evenodd" d="M292.277 203.899C292.837 203.34 293.382 202.824 293.97 202.379L300.181 225.444L297.728 224.899L292.292 203.899H292.277Z" fill="#F6B08D"/>
<path d="M161.056 94.3237C162.935 93.1905 164.226 90.7233 164.943 87.6106C165.861 83.5798 164.756 80.5101 163.652 78.6167C160.797 82.1024 157.14 89.547 154.701 94.4528C156.982 94.7683 159.951 94.9978 161.056 94.338V94.3237Z" fill="#FFEEE3"/>
<path fill-rule="evenodd" clip-rule="evenodd" d="M218.334 152.561C219.869 155.817 220.342 160.02 216.756 161.713C212.654 163.649 210.402 160.278 208.867 157.022C207.332 153.766 208.422 150.352 211.061 149.176C214.131 147.799 216.785 149.305 218.32 152.561H218.334Z" fill="#FFEEE3"/>
<path fill-rule="evenodd" clip-rule="evenodd" d="M212.022 224.957C211.922 224.943 211.491 224.914 211.09 224.885C210.889 225.832 210.86 226.75 211.061 227.467C211.936 230.623 211.792 234.166 211.95 239.775C215.536 238.871 218.333 238.484 218.003 235.371C217.473 230.236 215.665 225.617 212.008 224.957H212.022Z" fill="#FFEEE3"/>
<path d="M184.539 99.6592H246.033" stroke="#FF0000" stroke-width="2.02254" stroke-miterlimit="10" stroke-linecap="round"/>
</g>
</g>
<defs>
<clipPath id="clip0_4118_22844">
<rect width="350" height="232.453" rx="7.92453" fill="white"/>
</clipPath>
</defs>
</svg>
