<svg width="80" height="80" viewBox="0 0 80 80" fill="none" xmlns="http://www.w3.org/2000/svg">
<g clip-path="url(#clip0_8714_32355)">
<path d="M79.5 39.9999C79.5 61.8152 61.8153 79.4999 40 79.4999C18.1848 79.4999 0.5 61.8152 0.5 39.9999C0.5 18.1847 18.1848 0.499939 40 0.499939C61.8153 0.499939 79.5 18.1847 79.5 39.9999Z" stroke="#0F80F0"/>
<path fill-rule="evenodd" clip-rule="evenodd" d="M57.8822 30.9725V36.1771H63.467C63.8812 36.1771 64.217 36.5129 64.217 36.9271C64.217 37.3413 63.8812 37.6771 63.467 37.6771H57.8822V42.8817H63.467C63.8812 42.8817 64.217 43.2174 64.217 43.6317C64.217 44.0459 63.8812 44.3817 63.467 44.3817H57.8822V49.5862H63.467C63.8812 49.5862 64.217 49.922 64.217 50.3362C64.217 50.7504 63.8812 51.0862 63.467 51.0862H57.8822V54.5994C57.8822 56.2563 56.5391 57.5994 54.8822 57.5994H50.249V57.5995V63.1866C50.249 63.6008 49.9132 63.9366 49.499 63.9366C49.0848 63.9366 48.749 63.6008 48.749 63.1866V57.5995V57.5994H43.5412V57.5995V63.1866C43.5412 63.6008 43.2054 63.9366 42.7912 63.9366C42.377 63.9366 42.0412 63.6008 42.0412 63.1866V57.5995V57.5994H36.8427V57.5995V63.1866C36.8427 63.6008 36.5069 63.9366 36.0927 63.9366C35.6785 63.9366 35.3427 63.6008 35.3427 63.1866V57.5995V57.5994H30.1359V57.5995L30.1359 63.1866C30.1359 63.6008 29.8002 63.9366 29.3859 63.9366C28.9717 63.9366 28.6359 63.6008 28.6359 63.1866L28.6359 57.5995V57.5994H25.1245C23.4676 57.5994 22.1245 56.2563 22.1245 54.5994V51.0862H22.1213H16.5342C16.12 51.0862 15.7842 50.7504 15.7842 50.3362C15.7842 49.922 16.12 49.5862 16.5342 49.5862H22.1213H22.1245V44.3817H22.1213H16.5342C16.12 44.3817 15.7842 44.0459 15.7842 43.6317C15.7842 43.2174 16.12 42.8817 16.5342 42.8817H22.1213H22.1245V37.6771H22.1213H16.5342C16.12 37.6771 15.7842 37.3413 15.7842 36.9271C15.7842 36.5129 16.12 36.1771 16.5342 36.1771H22.1213H22.1245V30.9725H22.1213L16.5342 30.9725C16.12 30.9725 15.7842 30.6367 15.7842 30.2225C15.7842 29.8083 16.12 29.4725 16.5342 29.4725L22.1213 29.4725H22.1245V24.8417C22.1245 23.1849 23.4676 21.8417 25.1245 21.8417H29.1943V21.2831L29.1943 16.8134C29.1943 16.3991 29.5301 16.0634 29.9443 16.0634C30.3586 16.0634 30.6943 16.3991 30.6943 16.8134L30.6943 21.2831V21.8417H35.9014V21.2831V16.8134C35.9014 16.3991 36.2372 16.0634 36.6514 16.0634C37.0656 16.0634 37.4014 16.3991 37.4014 16.8134V21.2831V21.8417H42.5996V21.2831V16.8134C42.5996 16.3991 42.9354 16.0634 43.3496 16.0634C43.7638 16.0634 44.0996 16.3991 44.0996 16.8134V21.2831V21.8417H49.3076V21.2831V16.8134C49.3076 16.3991 49.6434 16.0634 50.0576 16.0634C50.4718 16.0634 50.8076 16.3991 50.8076 16.8134V21.2831V21.8417H54.8822C56.5391 21.8417 57.8822 23.1849 57.8822 24.8417V29.4725L63.467 29.4725C63.8812 29.4725 64.217 29.8083 64.217 30.2225C64.217 30.6367 63.8812 30.9725 63.467 30.9725L57.8822 30.9725ZM25.1245 23.3417H54.8822C55.7106 23.3417 56.3822 24.0133 56.3822 24.8417V54.5994C56.3822 55.4279 55.7106 56.0994 54.8822 56.0994H25.1245C24.2961 56.0994 23.6245 55.4279 23.6245 54.5994V24.8417C23.6245 24.0133 24.2961 23.3417 25.1245 23.3417Z" fill="#0F80F0"/>
<path fill-rule="evenodd" clip-rule="evenodd" d="M49.4808 40.0837L49.4809 40.0837C49.5979 40.0431 49.7109 40.0038 49.826 39.9713C49.9372 39.9397 49.9755 39.8721 49.9717 39.7662C49.9641 39.5696 49.9618 39.3722 49.9596 39.1748C49.9548 38.7522 49.95 38.3296 49.8921 37.9143C49.5285 35.3165 48.2694 33.2348 46.1456 31.6992C44.3861 30.4266 42.3998 29.8947 40.2369 30.0171C40.1746 30.0209 40.0807 30.0622 40.0596 30.1118C40.0016 30.2445 39.9569 30.3834 39.9128 30.5206L39.9128 30.5206L39.9128 30.5207C39.897 30.5698 39.8813 30.6186 39.8651 30.667C44.471 32.3791 47.6105 35.5261 49.3182 40.1396C49.3736 40.121 49.4276 40.1022 49.4808 40.0837ZM46.1065 45.2203C46.1191 45.2234 46.1303 45.2267 46.1404 45.2297C46.1581 45.235 46.1729 45.2394 46.1877 45.2399L46.4069 45.2439C46.7966 45.2512 47.1863 45.2584 47.576 45.2571C47.6376 45.2571 47.7187 45.2061 47.757 45.1542C47.9191 44.9333 48.0783 44.7103 48.2375 44.4874L48.2375 44.4874L48.2375 44.4874L48.2375 44.4874C48.4014 44.2578 48.5652 44.0284 48.7322 43.8012C48.9192 43.5473 48.9395 43.2843 48.8914 42.9756C48.4279 40.0051 47.1771 37.4208 45.0893 35.2579C42.8047 32.8914 40.0161 31.5024 36.7564 31.0629C36.6647 31.0508 36.5468 31.0629 36.4731 31.1117C35.9285 31.4776 35.3913 31.8532 34.8557 32.2318C34.8061 32.2664 34.7558 32.34 34.755 32.3971C34.7492 32.7794 34.7497 33.1613 34.7502 33.5483L34.7505 33.8831C37.911 33.9086 40.6186 34.9536 42.8273 37.1668C45.0405 39.3846 46.0832 42.0989 46.1043 45.2211L46.1065 45.2203ZM41.6846 47.6123L41.6849 47.6124L41.6846 47.6138V47.6123ZM41.6849 47.6124C41.7761 47.6466 41.8698 47.6822 41.9656 47.7185C42.2279 47.8181 42.5053 47.9234 42.786 48.0203C42.8851 48.0541 43.0121 48.0684 43.109 48.0376C43.4085 47.9403 43.7055 47.8353 44.0026 47.7302L44.0026 47.7302L44.0027 47.7302L44.0027 47.7302L44.0029 47.7302L44.0029 47.7301L44.003 47.7301C44.1946 47.6624 44.3862 47.5946 44.5785 47.529C44.7084 47.4846 44.758 47.3975 44.7851 47.2713C45.2816 44.9236 45.0645 42.645 43.9429 40.5205C42.085 37.0016 39.1311 35.1362 35.1457 34.9814C33.5282 34.9183 32.0828 36.1707 31.7988 37.7618C31.6643 38.5139 31.6816 39.2456 32.0294 39.9412C32.671 41.2214 33.728 41.8577 35.1419 41.9576C36.3642 42.044 37.2665 42.6503 37.7736 43.7606C38.2874 44.8853 38.1319 45.9678 37.4009 46.9655L37.3526 47.0312L37.3525 47.0314C37.3316 47.0598 37.3099 47.0895 37.286 47.1218L37.4942 47.3058L37.4942 47.3058L37.4949 47.3065L37.4955 47.307C37.7227 47.508 37.945 47.7046 38.1695 47.8986C38.21 47.9339 38.2664 47.9602 38.3197 47.9707C38.5529 48.0183 38.7864 48.0641 39.0199 48.11L39.0202 48.1101L39.0204 48.1101L39.0207 48.1102C39.2955 48.1641 39.5704 48.2181 39.8448 48.275C40.0161 48.3103 40.1017 48.2374 40.1828 48.0946C40.8327 46.9422 41.0986 45.7124 40.9634 44.3939C40.7177 41.9967 39.0011 39.9172 36.679 39.2599C36.3186 39.1577 35.9435 39.1065 35.5687 39.0554L35.5686 39.0553C35.4222 39.0354 35.276 39.0154 35.1306 38.9924C34.8159 38.9428 34.6235 38.7235 34.6438 38.4124C34.6656 38.0819 34.9346 37.8918 35.3538 37.9196C36.9599 38.0255 38.3971 38.5724 39.6051 39.6407C41.4525 41.274 42.2683 43.3377 42.037 45.7928C41.9986 46.2007 41.9075 46.6034 41.8135 47.0193C41.7696 47.2135 41.7251 47.4106 41.6849 47.6124ZM34.0113 46.4073C37.7856 50.0059 43.9219 50.1411 47.8795 46.2248L48.128 46.4662L48.1287 46.4669C48.2498 46.5845 48.3729 46.7042 48.506 46.8333C45.8774 49.3079 42.7905 50.4025 39.2107 49.8669C34.9751 49.2328 31.5802 46.1812 30.436 42.1229C29.2926 38.0653 30.6561 33.974 33.1871 31.5219L33.4436 31.7867L33.4437 31.7867C33.552 31.8986 33.6613 32.0115 33.7724 32.1259C31.7627 34.2272 30.7531 36.7642 30.9101 39.7106C31.0506 42.3393 32.1008 44.5855 34.0113 46.4073ZM34.9578 43.4331C35.8564 43.4451 36.564 44.1565 36.564 45.0475V45.0468C36.564 45.9333 35.8556 46.6492 34.9736 46.653C34.0894 46.6575 33.3622 45.9303 33.3637 45.0438C33.3652 44.1663 34.1022 43.4218 34.9578 43.4331Z" fill="#0F80F0"/>
</g>
<defs>
<clipPath id="clip0_8714_32355">
<rect width="80" height="80" fill="white"/>
</clipPath>
</defs>
</svg>
