<svg width="52" height="52" viewBox="0 0 52 52" fill="none" xmlns="http://www.w3.org/2000/svg">
<path d="M0 6C0 2.68629 2.68629 0 6 0H46C49.3137 0 52 2.68629 52 6V46C52 49.3137 49.3137 52 46 52H6C2.68629 52 0 49.3137 0 46V6Z" fill="white"/>
<path d="M41.6715 20.2593C45.9255 22.8007 44.5182 28.9328 39.6377 29.6954C41.0157 35.3286 33.2714 37.3894 29.1045 37.7902C25.9293 38.0955 23.5313 37.5414 20.5229 37.4249C17.1773 37.295 16.0176 42.3838 11.8236 42.2036C5.57382 41.9364 8.24391 31.5269 9.12168 27.7363C10.4298 22.0897 12.292 14.0659 18.0514 11.4142C22.6143 9.31417 34.2031 9.68809 38.7734 11.82C42.0945 13.3696 44.3992 17.0082 41.6715 20.2593ZM27.7253 18.9427C27.8283 18.8397 28.0967 18.7858 28.2451 18.7894C31.5416 18.8581 35.1005 19.753 38.3627 18.7294C41.0647 17.8822 39.764 15.8398 37.9962 14.8039C34.5586 12.7873 24.4201 12.4955 20.6541 13.6491C15.5149 15.2232 13.893 21.1138 12.6512 25.7515C11.8948 28.5785 10.4665 34.1688 11.2291 36.9125C11.4828 37.8258 11.972 38.1752 12.9233 38.169C14.6065 38.1592 16.0262 36.3461 17.4078 35.5345C19.9896 34.018 21.2805 34.8235 23.958 34.9718C26.9799 35.1385 34.6432 34.6408 36.5238 31.9707C36.72 31.6924 36.937 31.2633 36.8413 30.925C36.5287 29.8143 33.166 29.2001 32.1313 29.0052C30.1293 28.6264 27.7179 28.6153 25.8484 28.1777C25.0111 27.9815 24.951 27.0915 25.9109 26.9971C27.4029 26.8512 29.406 27.2165 30.9397 27.2545C33.3082 27.3134 38.1555 27.4482 40.1869 26.3155C41.6715 25.488 41.4435 23.8378 40.2592 22.8387C37.5058 20.5143 31.3553 20.5879 27.9055 19.9909C27.4972 19.8928 27.4789 19.1903 27.7253 18.9427Z" fill="#50B338"/>
</svg>
