<svg width="141" height="40" viewBox="0 0 141 40" fill="none" xmlns="http://www.w3.org/2000/svg">
<g clip-path="url(#clip0_4363_3712)">
<path d="M30.08 7.604C30.052 7.408 29.88 7.3 29.74 7.288C29.6 7.276 26.596 7.052 26.596 7.052C26.596 7.052 24.512 4.984 24.284 4.752C24.056 4.524 23.608 4.592 23.436 4.644C23.412 4.652 22.98 4.784 22.268 5.004C21.572 3 20.344 1.16 18.18 1.16C18.12 1.16 18.06 1.16 17.996 1.168C17.38 0.356 16.62 0 15.96 0C10.924 0 8.516 6.296 7.764 9.496C5.808 10.104 4.416 10.532 4.24 10.588C3.148 10.932 3.112 10.964 2.968 11.996C2.86 12.776 0 34.88 0 34.88L22.276 39.052L34.344 36.44C34.344 36.44 30.108 7.796 30.08 7.6V7.604ZM21.032 5.388C20.472 5.56 19.836 5.756 19.148 5.972C19.148 5.84 19.148 5.708 19.148 5.564C19.148 4.32 18.976 3.316 18.696 2.52C19.812 2.66 20.552 3.928 21.028 5.388H21.032ZM17.32 2.768C17.628 3.544 17.832 4.66 17.832 6.16C17.832 6.236 17.832 6.308 17.832 6.38C16.604 6.76 15.276 7.172 13.94 7.584C14.688 4.692 16.096 3.296 17.324 2.768H17.32ZM15.82 1.352C16.036 1.352 16.256 1.424 16.468 1.572C14.852 2.332 13.124 4.244 12.392 8.064C11.324 8.396 10.28 8.72 9.316 9.016C10.172 6.1 12.204 1.352 15.824 1.352H15.82Z" fill="#95BF47"/>
<path d="M29.7412 7.288C29.6012 7.276 26.5972 7.052 26.5972 7.052C26.5972 7.052 24.5132 4.984 24.2852 4.752C24.2012 4.668 24.0852 4.624 23.9652 4.604L22.2812 39.052L34.3493 36.44C34.3493 36.44 30.1132 7.796 30.0852 7.6C30.0572 7.404 29.8853 7.296 29.7453 7.284L29.7412 7.288Z" fill="#5E8E3E"/>
<path d="M18.1776 13.9561L16.6896 18.3841C16.6896 18.3841 15.3856 17.6881 13.7856 17.6881C11.4416 17.6881 11.3256 19.1601 11.3256 19.5281C11.3256 21.5481 16.5936 22.3241 16.5936 27.0601C16.5936 30.7841 14.2296 33.1841 11.0456 33.1841C7.22163 33.1841 5.26562 30.8041 5.26562 30.8041L6.28963 27.4201C6.28963 27.4201 8.29763 29.1441 9.99763 29.1441C11.1056 29.1441 11.5576 28.2721 11.5576 27.6361C11.5576 25.0001 7.23363 24.8801 7.23363 20.5481C7.23363 16.9001 9.84963 13.3721 15.1376 13.3721C17.1736 13.3721 18.1816 13.9561 18.1816 13.9561H18.1776Z" fill="white"/>
<path d="M48.4126 22.256C47.2086 21.604 46.5886 21.052 46.5886 20.296C46.5886 19.332 47.4486 18.716 48.7886 18.716C50.3526 18.716 51.7446 19.368 51.7446 19.368L52.8446 15.996C52.8446 15.996 51.8326 15.204 48.8566 15.204C44.7126 15.204 41.8406 17.576 41.8406 20.912C41.8406 22.804 43.1806 24.248 44.9686 25.28C46.4126 26.104 46.9286 26.692 46.9286 27.548C46.9286 28.404 46.2046 29.164 44.8646 29.164C42.8646 29.164 40.9766 28.132 40.9766 28.132L39.8086 31.504C39.8086 31.504 41.5526 32.672 44.4846 32.672C48.7486 32.672 51.8086 30.576 51.8086 26.792C51.8086 24.764 50.2606 23.32 48.4046 22.252L48.4126 22.256Z" fill="#231F20"/>
<path d="M65.4012 15.172C63.3052 15.172 61.6532 16.168 60.3812 17.684L60.3132 17.648L62.1372 8.12402H57.3932L52.7852 32.368H57.5292L59.1092 24.08C59.7292 20.952 61.3452 19.024 62.8572 19.024C63.9212 19.024 64.3372 19.748 64.3372 20.776C64.3372 21.428 64.2692 22.22 64.1292 22.872L62.3412 32.364H67.0852L68.9412 22.564C69.1492 21.532 69.2852 20.296 69.2852 19.468C69.2852 16.784 67.8732 15.168 65.3972 15.168L65.4012 15.172Z" fill="#231F20"/>
<path d="M80.0154 15.172C74.3074 15.172 70.5234 20.332 70.5234 26.072C70.5234 29.752 72.7914 32.708 77.0554 32.708C82.6594 32.708 86.4434 27.688 86.4434 21.808C86.4434 18.404 84.4474 15.172 80.0114 15.172H80.0154ZM77.6794 29.064C76.0634 29.064 75.3754 27.688 75.3754 25.968C75.3754 23.252 76.7834 18.816 79.3634 18.816C81.0474 18.816 81.5994 20.26 81.5994 21.672C81.5994 24.596 80.1914 29.064 77.6794 29.064Z" fill="#231F20"/>
<path d="M98.5884 15.172C95.3844 15.172 93.5684 17.992 93.5684 17.992H93.5004L93.7764 15.448H89.5804C89.3724 17.168 88.9964 19.78 88.6164 21.74L85.3164 39.108H90.0604L91.3684 32.092H91.4724C91.4724 32.092 92.4484 32.712 94.2564 32.712C99.8284 32.712 103.472 27.004 103.472 21.224C103.472 18.024 102.064 15.172 98.5884 15.172ZM94.0484 29.132C92.8164 29.132 92.0884 28.444 92.0884 28.444L92.8804 24.008C93.4324 21.052 94.9764 19.092 96.6284 19.092C98.0724 19.092 98.5204 20.432 98.5204 21.704C98.5204 24.764 96.6964 29.132 94.0484 29.132Z" fill="#231F20"/>
<path d="M110.247 8.35999C108.735 8.35999 107.531 9.56399 107.531 11.112C107.531 12.524 108.427 13.484 109.767 13.484H109.835C111.315 13.484 112.587 12.488 112.619 10.732C112.619 9.35599 111.691 8.35999 110.247 8.35999Z" fill="#231F20"/>
<path d="M103.609 32.364H108.357L111.589 15.548H106.809L103.609 32.364Z" fill="#231F20"/>
<path d="M123.66 15.516H120.36L120.532 14.724C120.808 13.108 121.772 11.664 123.352 11.664C124.196 11.664 124.864 11.904 124.864 11.904L125.792 8.188C125.792 8.188 124.968 7.776 123.212 7.776C121.456 7.776 119.84 8.256 118.568 9.36C116.952 10.736 116.196 12.732 115.816 14.724L115.68 15.516H113.48L112.792 19.092H114.992L112.48 32.368H117.224L119.736 19.092H123.004L123.656 15.516H123.66Z" fill="#231F20"/>
<path d="M135.079 15.548C135.079 15.548 132.111 23.024 130.779 27.104H130.711C130.619 25.792 129.543 15.548 129.543 15.548H124.555L127.411 30.988C127.479 31.332 127.447 31.54 127.307 31.78C126.755 32.848 125.827 33.876 124.727 34.636C123.831 35.288 122.835 35.704 122.043 35.976L123.351 40C124.315 39.792 126.307 39.004 127.995 37.42C130.163 35.392 132.155 32.26 134.219 27.996L140.031 15.548H135.079Z" fill="#231F20"/>
</g>
<defs>
<clipPath id="clip0_4363_3712">
<rect width="140.028" height="40" fill="white"/>
</clipPath>
</defs>
</svg>
