<svg width="187" height="40" viewBox="0 0 187 40" fill="none" xmlns="http://www.w3.org/2000/svg">
<g clip-path="url(#clip0_4363_3682)">
<path d="M54.6158 20.1818C52.9067 19.4545 51.5249 18.7636 51.5249 17.6727C51.5249 16.9091 52.3976 16.1454 53.8885 16.1454C55.2339 16.1454 56.3612 16.4727 57.5612 16.9818C57.8885 17.1272 58.3976 17.1636 58.6885 16.6545L59.2703 15.4545C59.4885 15.0181 59.3067 14.4727 58.9067 14.1818C58.0703 13.6363 56.2885 12.9091 53.9249 12.9091C49.7794 12.9091 48.0703 15.4181 48.0703 17.5636C48.0703 20.3636 50.2521 21.7818 52.8703 22.9818C55.2339 24.0363 56.543 24.8 56.543 25.9272C56.543 26.9091 55.743 27.6 54.2885 27.6C52.2521 27.6 51.0521 26.9091 50.034 26.3272C49.5976 26.0727 49.1249 26.1818 48.9067 26.5454L48.143 28.1454C47.9612 28.5091 48.1794 28.8363 48.4339 29.0182C49.3794 29.6727 51.343 30.7636 54.0703 30.7636C57.8885 30.7636 60.1794 28.4363 60.1794 25.7818C60.1067 22.6909 57.743 21.5272 54.6158 20.1818Z" fill="#189EFF"/>
<path d="M31.9273 35.6364C30.1818 34.3273 27.6364 33.3455 24.9091 32.2909C21.6727 31.0545 18 29.6364 15.2727 27.4182C12.1455 24.9455 10.6182 21.8182 10.6182 17.8545C10.6182 14.2909 12.0727 11.2727 14.8727 9.09091C18 6.61818 22.7273 5.34545 28.5455 5.34545C30.1455 5.34545 31.7091 5.45455 33.1273 5.63636C33.2364 5.63636 33.3818 5.6 33.4182 5.45455C33.4909 5.34545 33.4545 5.2 33.3455 5.12727C29.7091 1.81818 24.9455 0 20 0C14.6545 0 9.63636 2.07273 5.85455 5.85455C2.07273 9.63636 0 14.6545 0 20C0 25.3455 2.07273 30.3636 5.85455 34.1455C9.63636 37.9273 14.6545 40 20 40C24.3273 40 28.4364 38.6545 31.8909 36.0727C31.9636 36 32 35.9273 32 35.8545C32.0364 35.7818 32 35.7091 31.9273 35.6364Z" fill="#189EFF"/>
<path d="M39.9252 18.1455C39.9252 18.0728 39.8888 18 39.8161 17.9637C35.6707 14.5091 32.2888 13.0909 28.1798 13.0909C25.9979 13.0909 24.3252 13.5273 23.1979 14.4C22.2161 15.1637 21.707 16.1819 21.707 17.4182C21.707 20.8364 25.9252 22.4364 30.7616 24.2546C33.2707 25.2 35.8525 26.1455 38.2525 27.4909C38.2888 27.5273 38.3252 27.5273 38.3979 27.5273C38.4343 27.5273 38.4707 27.5273 38.507 27.4909C38.5798 27.4546 38.6525 27.4182 38.6889 27.3091C39.5979 24.9819 40.0707 22.5091 40.0707 20C40.0343 19.4182 39.9979 18.8 39.9252 18.1455Z" fill="#189EFF"/>
<path d="M154.944 30.6545C155.453 30.5818 155.816 30.2181 155.816 29.7454V21.0545C155.816 16.6181 155.271 13.1636 149.562 13.1636C146.289 13.1636 143.744 14.0363 143.416 14.1818C142.98 14.3272 142.726 14.6181 142.835 15.2363L143.198 16.6908C143.307 17.1999 143.671 17.5272 144.216 17.4181C145.126 17.1636 147.162 16.5818 149.198 16.5818C151.453 16.5818 152.144 17.8545 152.071 20.6908C152.071 20.6908 150.326 20.1454 148.471 20.1454C143.889 20.1454 141.344 22.6181 141.344 25.8908C141.344 29.5999 143.707 30.8727 147.053 30.8727C149.78 30.8727 152.616 30.8363 153.78 30.7636L154.944 30.6545ZM151.998 27.4908C151.453 28.3636 149.526 28.1454 147.853 28.109C145.998 28.0727 145.089 27.4181 145.089 25.8545C145.089 23.9999 146.689 22.909 148.762 22.909C150.398 22.909 151.78 23.3818 151.998 23.5272V27.4908Z" fill="#189EFF"/>
<path d="M184.107 12.9818C185.234 12.9818 186.143 12.0727 186.143 10.9454C186.143 9.81815 185.234 8.90906 184.107 8.90906C182.979 8.90906 182.07 9.81815 182.07 10.9454C182.07 12.0727 182.979 12.9818 184.107 12.9818ZM184.107 9.23633C185.052 9.23633 185.816 9.99997 185.816 10.9818C185.816 11.9636 185.052 12.7272 184.107 12.7272C183.161 12.7272 182.398 11.9636 182.398 10.9818C182.398 9.99997 183.161 9.23633 184.107 9.23633Z" fill="#189EFF"/>
<path d="M183.418 11.9636H183.599C183.636 11.9636 183.672 11.9273 183.672 11.8909V11.1636H184.109L184.472 11.9273C184.472 11.9636 184.509 11.9636 184.545 11.9636H184.763C184.8 11.9636 184.836 11.9273 184.8 11.8909L184.4 11.1636C184.654 11.0545 184.836 10.8364 184.836 10.5818C184.836 10.2182 184.545 9.96362 184.181 9.96362H183.381C183.345 9.96362 183.309 9.99999 183.309 10.0364V11.9636C183.357 11.9636 183.393 11.9636 183.418 11.9636ZM183.672 10.2182H184.181C184.363 10.2182 184.545 10.3636 184.545 10.5818C184.545 10.8 184.363 10.9454 184.181 10.9454H183.672V10.2182Z" fill="#189EFF"/>
<path d="M71.4905 12.9818C68.7996 12.9818 66.945 14.4727 66.545 14.7636V7.12727C66.545 6.72727 66.145 6.32727 65.745 6.32727H63.6359C63.1996 6.32727 62.8359 6.72727 62.8359 7.12727V30.0364C62.8359 30.4727 63.1996 30.8364 63.6359 30.8364H65.6723C66.1814 30.8364 66.5087 30.5091 66.5087 30.0364V18.9818C66.8723 18.2545 68.3632 16.5091 70.9814 16.5091C73.1996 16.5091 74.3996 18.1818 74.3996 20.9818V30.0364C74.3996 30.4727 74.7632 30.8364 75.1996 30.8364H77.2723C77.6723 30.8364 78.0723 30.4727 78.0723 30.0364V21.0545C78.1087 16.4 76.3268 12.9818 71.4905 12.9818Z" fill="#189EFF"/>
<path d="M114.836 21.2364C114.617 15.4182 112.217 12.9818 106.581 12.9818C103.89 12.9818 100.69 13.7818 100.217 14C99.6356 14.2545 99.1992 14.5454 99.1992 14.9454V36.7273C99.1992 37.1636 99.5629 37.5273 99.9992 37.5273H101.708C102.254 37.5273 102.581 37.2 102.581 36.7273V30.5818C103.09 30.7273 105.745 30.9454 107.963 30.8727C111.926 30.7636 114.581 27.8909 114.799 23.0182C114.872 22.3273 114.836 21.2364 114.836 21.2364ZM111.236 22.9818C111.163 26.2909 110.217 27.7454 107.417 27.8909C106.036 27.9636 102.799 27.6 102.799 27.6C102.654 27.5636 102.581 27.4909 102.581 27.3818V16.9091C102.581 16.8 102.654 16.7273 102.763 16.7273C103.126 16.6909 104.545 16.2545 106.545 16.2545C109.926 16.2545 111.09 16.7636 111.236 21.0182C111.272 21.5636 111.272 22.3636 111.236 22.9818Z" fill="#189EFF"/>
<path d="M139.341 13.3454H137.777C137.341 13.3454 136.686 13.3454 136.468 13.8545L133.741 23.7091H133.668L129.086 13.3818C129.014 13.1636 128.759 12.9818 128.359 12.9818H128.104C127.777 12.9818 127.523 13.1636 127.414 13.3818L122.795 23.6727H122.723L119.923 13.8545C119.85 13.5273 119.486 13.3454 119.195 13.3454H116.977C116.395 13.3454 116.141 13.7818 116.395 14.3273L121.377 30.4364C121.45 30.6909 121.704 30.8727 122.068 30.8727H122.286C122.65 30.8727 122.868 30.6909 122.941 30.4727L128.214 18.8364H128.286L133.45 30.4364C133.559 30.6545 133.814 30.8364 134.177 30.8364H134.323C134.686 30.8364 135.014 30.6545 135.086 30.4L139.995 14.3273C140.25 13.7818 139.923 13.3454 139.341 13.3454Z" fill="#189EFF"/>
<path d="M166.616 13.2H165.925C165.052 13.2 164.179 13.2363 163.379 13.2727C161.852 13.3454 160.943 13.4545 160.288 13.5272C160.288 13.5272 159.888 13.5636 159.379 13.6363C159.052 13.6727 158.834 13.8181 158.688 14C158.579 14.109 158.543 14.2545 158.543 14.4V30.0363C158.543 30.4727 158.907 30.8363 159.343 30.8363H161.052C161.743 30.8363 162.252 30.7636 162.252 30.0363V19.4545V17.0181C162.252 16.909 162.398 16.8 162.507 16.7272C162.907 16.4727 163.925 16.2909 165.961 16.2909H166.434C166.907 16.3272 167.634 16.4727 167.852 16.6181C168.216 16.8 168.652 16.6909 168.907 16.2181L169.779 14.7636C170.288 13.6363 168.252 13.2 166.616 13.2Z" fill="#189EFF"/>
<path d="M178.325 12.9818C173.198 12.9818 169.816 17.0909 169.816 21.8909C169.816 26.6909 173.198 30.8364 178.362 30.8364C181.198 30.8364 183.453 29.8182 184.689 28.7273C185.198 28.2909 185.053 27.9636 184.762 27.5636L183.744 26C183.453 25.5636 183.125 25.6727 182.725 25.9273C181.707 26.6545 180.507 27.3818 178.544 27.3818C175.562 27.3818 173.489 25.0182 173.453 22.7273H185.271C185.635 22.7273 185.998 22.4364 186.035 22C186.071 21.7091 186.107 21.1273 186.107 20.8C186.144 16.2909 182.762 12.9818 178.325 12.9818ZM173.671 20C173.925 17.8545 175.562 16.1091 178.253 16.1091C180.762 16.1091 182.398 17.9273 182.471 20H173.671Z" fill="#189EFF"/>
<path d="M96.2142 18.2545C95.8142 17.1636 95.3051 16.2182 94.5778 15.4182C93.8506 14.6182 93.0506 14.0363 92.1051 13.6C91.1597 13.1636 89.7778 12.9454 88.6506 12.9454C87.5233 12.9454 86.1415 13.1636 85.196 13.6C84.2506 14.0363 83.4142 14.6182 82.6869 15.4182C81.996 16.2182 81.4506 17.1636 81.0506 18.2545C80.6506 19.3454 80.4688 20.5818 80.4688 21.8909C80.4688 23.2 80.6506 24.4727 81.0506 25.5636C81.4506 26.6545 81.996 27.6 82.6869 28.3636C83.3778 29.1636 84.2142 29.7454 85.196 30.1818C86.1778 30.6182 87.5233 30.8363 88.6506 30.8363C89.7778 30.8363 91.1597 30.6182 92.1051 30.1818C93.0506 29.7454 93.8869 29.1636 94.5778 28.3636C95.2688 27.5636 95.8142 26.6545 96.2142 25.5636C96.6142 24.4727 96.796 23.2363 96.796 21.8909C96.796 20.5454 96.6142 19.3818 96.2142 18.2545ZM88.5415 27.8909C85.4506 27.8909 83.8869 25.2727 83.8869 22.0363C83.8869 18.8 85.4506 16.1818 88.5415 16.1818C91.6324 16.1818 93.196 18.8 93.196 22.0363C93.196 25.2727 91.6324 27.8909 88.5415 27.8909Z" fill="#189EFF"/>
</g>
<defs>
<clipPath id="clip0_4363_3682">
<rect width="186.145" height="40" fill="white"/>
</clipPath>
</defs>
</svg>
