<svg width="214" height="30" viewBox="0 0 214 30" fill="none" xmlns="http://www.w3.org/2000/svg">
<path d="M18.8519 3.81481L20.4815 5.43386L22.9048 5.61376C23.0159 5.62434 23.1482 5.70899 23.1693 5.85714L26.4497 28.0635L17.5767 29.9841L18.8571 3.81481H18.8519ZM16.7407 29.9947L0 26.8571L2.28571 9.2381C2.39683 8.44444 2.42328 8.41799 3.26455 8.15344L5.97884 7.31217C6.55556 4.84656 8.4127 0 12.291 0C12.7989 0 13.3862 0.269841 13.8571 0.899471C15.6296 0.814815 16.6085 2.31217 17.1429 3.85714L18.0318 3.58201L16.7407 30V29.9947ZM13.3333 2.13228C12.3862 2.53968 11.3069 3.61376 10.7302 5.84127L13.7249 4.91534C13.7355 3.60847 13.5714 2.73016 13.3333 2.13228ZM7.1746 6.9418L9.54498 6.20635C10.1058 3.26455 11.4392 1.79365 12.6825 1.20635C12.5238 1.09524 12.3545 1.03704 12.1852 1.03704C9.39683 1.03704 7.83598 4.69312 7.1746 6.93651V6.9418ZM13.9947 10.746C13.9947 10.746 13.2222 10.2963 11.6508 10.2963C7.58201 10.2963 5.56614 13.0159 5.56614 15.8201C5.56614 19.1587 8.89418 19.2487 8.89418 21.2804C8.89418 21.7725 8.54498 22.4444 7.69312 22.4444C6.38624 22.4444 4.84127 21.1164 4.84127 21.1164L4.05291 23.7196C4.05291 23.7196 5.56085 25.5503 8.50265 25.5503C10.9577 25.5503 12.7778 23.7037 12.7778 20.836C12.7778 17.1905 8.71958 16.5926 8.71958 15.037C8.71958 14.7513 8.80953 13.619 10.6138 13.619C11.8466 13.619 12.8466 14.1534 12.8466 14.1534L13.9947 10.746ZM14.746 4.59788L16.1958 4.14815C15.8307 3.02646 15.2593 2.04762 14.3968 1.9418C14.6614 2.7037 14.7566 3.60317 14.7407 4.59788H14.746Z" fill="#1E2129"/>
<path d="M47.4217 9.09C47.0924 8.674 46.6417 8.37067 46.0697 8.18C45.515 7.972 44.9864 7.868 44.4837 7.868C44.189 7.868 43.8857 7.90267 43.5737 7.972C43.2617 8.04133 42.967 8.154 42.6897 8.31C42.4124 8.44867 42.187 8.63933 42.0137 8.882C41.8404 9.12467 41.7537 9.41933 41.7537 9.766C41.7537 10.3207 41.9617 10.7453 42.3777 11.04C42.7937 11.3347 43.3137 11.586 43.9377 11.794C44.579 12.002 45.2637 12.21 45.9917 12.418C46.7197 12.626 47.3957 12.9207 48.0197 13.302C48.661 13.6833 49.1897 14.1947 49.6057 14.836C50.0217 15.4773 50.2297 16.3353 50.2297 17.41C50.2297 18.4327 50.039 19.3253 49.6577 20.088C49.2764 20.8507 48.7564 21.4833 48.0977 21.986C47.4564 22.4887 46.7024 22.8613 45.8357 23.104C44.9864 23.3467 44.085 23.468 43.1317 23.468C41.9357 23.468 40.8264 23.286 39.8037 22.922C38.781 22.558 37.8277 21.9687 36.9437 21.154L39.8297 17.982C40.2457 18.5367 40.7657 18.97 41.3897 19.282C42.031 19.5767 42.6897 19.724 43.3657 19.724C43.695 19.724 44.0244 19.6893 44.3537 19.62C44.7004 19.5333 45.0037 19.412 45.2637 19.256C45.541 19.1 45.7577 18.9007 45.9137 18.658C46.087 18.4153 46.1737 18.1293 46.1737 17.8C46.1737 17.2453 45.957 16.812 45.5237 16.5C45.1077 16.1707 44.579 15.8933 43.9377 15.668C43.2964 15.4427 42.603 15.2173 41.8577 14.992C41.1124 14.7667 40.419 14.4633 39.7777 14.082C39.1364 13.7007 38.599 13.198 38.1657 12.574C37.7497 11.95 37.5417 11.1267 37.5417 10.104C37.5417 9.116 37.7324 8.24933 38.1137 7.504C38.5124 6.75867 39.0324 6.13467 39.6737 5.632C40.3324 5.12933 41.0864 4.75667 41.9357 4.514C42.785 4.254 43.6604 4.124 44.5617 4.124C45.6017 4.124 46.607 4.27133 47.5777 4.566C48.5484 4.86067 49.4237 5.35467 50.2037 6.048L47.4217 9.09ZM56.6574 3.344V12.08H56.7094C56.7961 11.8373 56.9434 11.5947 57.1514 11.352C57.3594 11.1093 57.6107 10.8927 57.9054 10.702C58.2001 10.5113 58.5467 10.3553 58.9454 10.234C59.3441 10.1127 59.7774 10.052 60.2454 10.052C61.2334 10.052 62.0307 10.208 62.6374 10.52C63.2441 10.8147 63.7121 11.2307 64.0414 11.768C64.3881 12.3053 64.6221 12.938 64.7434 13.666C64.8647 14.394 64.9254 15.1827 64.9254 16.032V23H61.0254V16.812C61.0254 16.448 61.0081 16.0753 60.9734 15.694C60.9561 15.2953 60.8781 14.9313 60.7394 14.602C60.6181 14.2727 60.4187 14.004 60.1414 13.796C59.8814 13.588 59.5001 13.484 58.9974 13.484C58.4947 13.484 58.0874 13.5793 57.7754 13.77C57.4634 13.9433 57.2207 14.186 57.0474 14.498C56.8914 14.7927 56.7874 15.1307 56.7354 15.512C56.6834 15.8933 56.6574 16.292 56.6574 16.708V23H52.7574V3.344H56.6574ZM67.2191 16.682C67.2191 15.6767 67.4011 14.7667 67.7651 13.952C68.1291 13.1373 68.6231 12.444 69.2471 11.872C69.8884 11.2827 70.6337 10.832 71.4831 10.52C72.3497 10.208 73.2684 10.052 74.2391 10.052C75.2097 10.052 76.1197 10.208 76.9691 10.52C77.8357 10.832 78.5811 11.2827 79.2051 11.872C79.8464 12.444 80.3491 13.1373 80.7131 13.952C81.0771 14.7667 81.2591 15.6767 81.2591 16.682C81.2591 17.6873 81.0771 18.5973 80.7131 19.412C80.3491 20.2267 79.8464 20.9287 79.2051 21.518C78.5811 22.09 77.8357 22.532 76.9691 22.844C76.1197 23.156 75.2097 23.312 74.2391 23.312C73.2684 23.312 72.3497 23.156 71.4831 22.844C70.6337 22.532 69.8884 22.09 69.2471 21.518C68.6231 20.9287 68.1291 20.2267 67.7651 19.412C67.4011 18.5973 67.2191 17.6873 67.2191 16.682ZM71.1191 16.682C71.1191 17.6353 71.3877 18.4067 71.9251 18.996C72.4797 19.5853 73.2511 19.88 74.2391 19.88C75.2271 19.88 75.9897 19.5853 76.5271 18.996C77.0817 18.4067 77.3591 17.6353 77.3591 16.682C77.3591 15.7287 77.0817 14.9573 76.5271 14.368C75.9897 13.7787 75.2271 13.484 74.2391 13.484C73.2511 13.484 72.4797 13.7787 71.9251 14.368C71.3877 14.9573 71.1191 15.7287 71.1191 16.682ZM83.9202 10.364H87.5082V12.028H87.5602C87.7162 11.8027 87.9156 11.5773 88.1582 11.352C88.4182 11.1093 88.7129 10.8927 89.0422 10.702C89.3889 10.5113 89.7616 10.3553 90.1602 10.234C90.5589 10.1127 90.9836 10.052 91.4342 10.052C92.3702 10.052 93.2196 10.2167 93.9822 10.546C94.7449 10.858 95.3949 11.3087 95.9322 11.898C96.4869 12.47 96.9116 13.1547 97.2062 13.952C97.5009 14.7493 97.6482 15.6247 97.6482 16.578C97.6482 17.462 97.5096 18.3113 97.2322 19.126C96.9722 19.9233 96.5909 20.634 96.0882 21.258C95.6029 21.882 95.0049 22.3847 94.2942 22.766C93.5836 23.13 92.7776 23.312 91.8762 23.312C91.0616 23.312 90.2989 23.1907 89.5882 22.948C88.8949 22.688 88.3229 22.2547 87.8722 21.648H87.8202V28.928H83.9202V10.364ZM87.5082 16.682C87.5082 17.6353 87.7769 18.4067 88.3142 18.996C88.8689 19.5853 89.6402 19.88 90.6282 19.88C91.6162 19.88 92.3789 19.5853 92.9162 18.996C93.4709 18.4067 93.7482 17.6353 93.7482 16.682C93.7482 15.7287 93.4709 14.9573 92.9162 14.368C92.3789 13.7787 91.6162 13.484 90.6282 13.484C89.6402 13.484 88.8689 13.7787 88.3142 14.368C87.7769 14.9573 87.5082 15.7287 87.5082 16.682ZM99.9852 10.364H103.885V23H99.9852V10.364ZM99.6732 6.386C99.6732 5.762 99.8898 5.23333 100.323 4.8C100.774 4.34933 101.311 4.124 101.935 4.124C102.559 4.124 103.088 4.34933 103.521 4.8C103.972 5.23333 104.197 5.762 104.197 6.386C104.197 7.01 103.972 7.54733 103.521 7.998C103.088 8.43133 102.559 8.648 101.935 8.648C101.311 8.648 100.774 8.43133 100.323 7.998C99.8898 7.54733 99.6732 7.01 99.6732 6.386ZM108.039 13.484H105.465V10.364H108.039V8.128C108.039 7.43467 108.1 6.78467 108.221 6.178C108.342 5.554 108.576 5.008 108.923 4.54C109.27 4.072 109.764 3.708 110.405 3.448C111.064 3.17067 111.922 3.032 112.979 3.032C113.378 3.032 113.768 3.04933 114.149 3.084C114.53 3.11867 114.903 3.17933 115.267 3.266L115.085 6.568C114.86 6.48133 114.652 6.42067 114.461 6.386C114.27 6.334 114.054 6.308 113.811 6.308C113.187 6.308 112.719 6.44667 112.407 6.724C112.095 6.984 111.939 7.53 111.939 8.362V10.364H114.825V13.484H111.939V23H108.039V13.484ZM123.59 25.054C123.33 25.73 123.079 26.328 122.836 26.848C122.593 27.368 122.281 27.8013 121.9 28.148C121.536 28.512 121.068 28.7807 120.496 28.954C119.924 29.1447 119.17 29.24 118.234 29.24C117.229 29.24 116.258 29.084 115.322 28.772L115.842 25.574C116.431 25.834 117.038 25.964 117.662 25.964C118.095 25.964 118.451 25.912 118.728 25.808C119.005 25.7213 119.231 25.5827 119.404 25.392C119.595 25.2187 119.751 25.002 119.872 24.742C119.993 24.482 120.123 24.1787 120.262 23.832L120.548 23.104L115.01 10.364H119.222L122.472 18.71H122.524L125.306 10.364H129.31L123.59 25.054ZM138.945 4.592H145.783C146.736 4.592 147.637 4.67867 148.487 4.852C149.336 5.02533 150.073 5.32867 150.697 5.762C151.338 6.178 151.841 6.75 152.205 7.478C152.586 8.18867 152.777 9.09 152.777 10.182C152.777 11.2567 152.603 12.158 152.257 12.886C151.91 13.614 151.433 14.1947 150.827 14.628C150.22 15.0613 149.501 15.3733 148.669 15.564C147.837 15.7373 146.935 15.824 145.965 15.824H143.001V23H138.945V4.592ZM143.001 12.392H145.705C146.069 12.392 146.415 12.3573 146.745 12.288C147.091 12.2187 147.395 12.106 147.655 11.95C147.932 11.7767 148.149 11.5513 148.305 11.274C148.478 10.9793 148.565 10.6153 148.565 10.182C148.565 9.714 148.452 9.34133 148.227 9.064C148.019 8.76933 147.741 8.544 147.395 8.388C147.065 8.232 146.693 8.13667 146.277 8.102C145.861 8.05 145.462 8.024 145.081 8.024H143.001V12.392ZM154.88 3.344H158.78V23H154.88V3.344ZM173.75 23H170.006V21.284H169.954C169.815 21.5267 169.633 21.7693 169.408 22.012C169.2 22.2547 168.94 22.4713 168.628 22.662C168.316 22.8527 167.96 23.0087 167.562 23.13C167.163 23.2513 166.73 23.312 166.262 23.312C165.274 23.312 164.468 23.1647 163.844 22.87C163.237 22.558 162.76 22.1333 162.414 21.596C162.084 21.0587 161.859 20.426 161.738 19.698C161.634 18.97 161.582 18.1813 161.582 17.332V10.364H165.482V16.552C165.482 16.916 165.49 17.2973 165.508 17.696C165.542 18.0773 165.62 18.4327 165.742 18.762C165.88 19.0913 166.08 19.36 166.34 19.568C166.617 19.776 167.007 19.88 167.51 19.88C168.012 19.88 168.42 19.7933 168.732 19.62C169.044 19.4293 169.278 19.1867 169.434 18.892C169.607 18.58 169.72 18.2333 169.772 17.852C169.824 17.4707 169.85 17.072 169.85 16.656V10.364H173.75V23ZM189.771 21.934C189.771 24.326 189.165 26.1373 187.951 27.368C186.755 28.616 184.927 29.24 182.465 29.24C181.339 29.24 180.229 29.11 179.137 28.85C178.045 28.6073 177.04 28.122 176.121 27.394L178.279 24.17C178.886 24.6727 179.519 25.0713 180.177 25.366C180.853 25.6607 181.59 25.808 182.387 25.808C183.583 25.808 184.459 25.5133 185.013 24.924C185.585 24.352 185.871 23.6153 185.871 22.714V21.492H185.819C185.369 22.0987 184.805 22.532 184.129 22.792C183.471 23.0347 182.847 23.156 182.257 23.156C181.321 23.156 180.472 23 179.709 22.688C178.947 22.3587 178.288 21.908 177.733 21.336C177.196 20.7467 176.78 20.0533 176.485 19.256C176.191 18.4587 176.043 17.5833 176.043 16.63C176.043 15.798 176.173 14.9833 176.433 14.186C176.711 13.3887 177.092 12.6867 177.577 12.08C178.08 11.4733 178.687 10.988 179.397 10.624C180.108 10.2427 180.914 10.052 181.815 10.052C182.37 10.052 182.873 10.1127 183.323 10.234C183.791 10.3553 184.207 10.5113 184.571 10.702C184.935 10.8927 185.247 11.1093 185.507 11.352C185.767 11.5773 185.975 11.8027 186.131 12.028H186.183V10.364H189.771V21.934ZM179.943 16.604C179.943 17.02 180.021 17.4187 180.177 17.8C180.333 18.164 180.55 18.4933 180.827 18.788C181.122 19.0653 181.451 19.2907 181.815 19.464C182.197 19.6373 182.613 19.724 183.063 19.724C183.497 19.724 183.904 19.6373 184.285 19.464C184.667 19.2907 184.996 19.0653 185.273 18.788C185.568 18.4933 185.793 18.164 185.949 17.8C186.105 17.4187 186.183 17.02 186.183 16.604C186.183 16.188 186.105 15.798 185.949 15.434C185.793 15.0527 185.568 14.7233 185.273 14.446C184.996 14.1513 184.667 13.9173 184.285 13.744C183.904 13.5707 183.497 13.484 183.063 13.484C182.613 13.484 182.197 13.5707 181.815 13.744C181.451 13.9173 181.122 14.1513 180.827 14.446C180.55 14.7233 180.333 15.0527 180.177 15.434C180.021 15.798 179.943 16.188 179.943 16.604ZM192.94 10.364H196.84V23H192.94V10.364ZM192.628 6.386C192.628 5.762 192.845 5.23333 193.278 4.8C193.729 4.34933 194.266 4.124 194.89 4.124C195.514 4.124 196.043 4.34933 196.476 4.8C196.927 5.23333 197.152 5.762 197.152 6.386C197.152 7.01 196.927 7.54733 196.476 7.998C196.043 8.43133 195.514 8.648 194.89 8.648C194.266 8.648 193.729 8.43133 193.278 7.998C192.845 7.54733 192.628 7.01 192.628 6.386ZM199.642 10.364H203.386V12.08H203.438C203.559 11.8373 203.733 11.5947 203.958 11.352C204.183 11.1093 204.452 10.8927 204.764 10.702C205.076 10.5113 205.431 10.3553 205.83 10.234C206.229 10.1127 206.662 10.052 207.13 10.052C208.118 10.052 208.915 10.208 209.522 10.52C210.129 10.8147 210.597 11.2307 210.926 11.768C211.273 12.3053 211.507 12.938 211.628 13.666C211.749 14.394 211.81 15.1827 211.81 16.032V23H207.91V16.812C207.91 16.448 207.893 16.0753 207.858 15.694C207.841 15.2953 207.763 14.9313 207.624 14.602C207.503 14.2727 207.303 14.004 207.026 13.796C206.766 13.588 206.385 13.484 205.882 13.484C205.379 13.484 204.972 13.5793 204.66 13.77C204.348 13.9433 204.105 14.186 203.932 14.498C203.776 14.7927 203.672 15.1307 203.62 15.512C203.568 15.8933 203.542 16.292 203.542 16.708V23H199.642V10.364Z" fill="#272B38"/>
</svg>
