<svg width="24" height="24" viewBox="0 0 24 24" fill="none" xmlns="http://www.w3.org/2000/svg">
<path d="M12 0C10.4241 0 8.86371 0.310298 7.4078 0.913177C5.95189 1.51606 4.62902 2.39971 3.51472 3.51368C1.26428 5.76346 0 8.81481 0 11.9965C0 17.2989 3.444 21.7976 8.208 23.3931C8.808 23.4891 9 23.1172 9 22.7933V20.7659C5.676 21.4857 4.968 19.1584 4.968 19.1584C4.416 17.7668 3.636 17.3949 3.636 17.3949C2.544 16.6511 3.72 16.6751 3.72 16.6751C4.92 16.7591 5.556 17.9107 5.556 17.9107C6.6 19.7342 8.364 19.1944 9.048 18.9064C9.156 18.1267 9.46801 17.5988 9.80401 17.2989C7.14 16.999 4.344 15.9673 4.344 11.3966C4.344 10.065 4.8 8.99735 5.58 8.1456C5.46 7.84569 5.04 6.59806 5.7 4.97854C5.7 4.97854 6.708 4.65463 9 6.20218C9.94801 5.93825 10.98 5.80629 12 5.80629C13.02 5.80629 14.052 5.93825 15 6.20218C17.292 4.65463 18.3 4.97854 18.3 4.97854C18.96 6.59806 18.54 7.84569 18.42 8.1456C19.2 8.99735 19.656 10.065 19.656 11.3966C19.656 15.9793 16.848 16.987 14.172 17.2869C14.604 17.6588 15 18.3906 15 19.5063V22.7933C15 23.1172 15.192 23.5011 15.804 23.3931C20.568 21.7856 24 17.2989 24 11.9965C24 10.4211 23.6896 8.8611 23.0866 7.40562C22.4835 5.95014 21.5996 4.62766 20.4853 3.51368C19.371 2.39971 18.0481 1.51606 16.5922 0.913177C15.1363 0.310298 13.5759 0 12 0Z" fill="#ADB2C2"/>
</svg>
