<svg width="243" height="40" viewBox="0 0 243 40" fill="none" xmlns="http://www.w3.org/2000/svg">
<g clip-path="url(#clip0_7407_25932)">
<path fill-rule="evenodd" clip-rule="evenodd" d="M193.44 40.0001H0.0239258V0.539551H193.482L193.439 40.0001H193.44Z" fill="#CC2229"/>
<path fill-rule="evenodd" clip-rule="evenodd" d="M237.15 13.8571C239.406 19.187 238.071 26.3088 233.919 30.4727C231.912 32.1742 229.753 33.9628 226.97 33.4027C225.451 33.0468 224.361 31.989 223.983 30.5508C223.655 29.3023 223.737 28.1007 223.9 26.8053L235.195 26.7852L234.889 26.3969C229.189 19.6712 224.667 12.0775 221.64 4.08093C218.386 12.1801 213.823 20.1811 208.39 26.8265L219.457 26.8031C219.393 28.2836 219.736 30.0923 219.053 31.3642C218.366 32.7578 216.749 33.4495 215.258 33.4808C210.792 33.0624 207.823 29.1338 206.125 25.4173C204.15 20.8506 204.877 14.5801 207.985 10.6761C212.306 4.93224 219.941 2.61149 227.052 4.81286C231.39 6.17741 235.245 9.55588 237.15 13.856V13.8571ZM240.302 10.7609C244.009 17.3527 242.837 26.2697 238.202 31.9366C232.823 38.3599 223.414 41.1705 215.094 38.5373C207.259 36.2657 201.201 29.0178 200.795 20.6999C200.312 12.9366 204.897 5.79248 211.541 2.37384C218.022 -1.08943 227.231 -0.762515 233.434 3.35012C236.196 5.09849 238.638 7.84656 240.302 10.7609Z" fill="#27824D"/>
<path fill-rule="evenodd" clip-rule="evenodd" d="M70.8804 11.1692C71.2129 11.8532 71.387 12.5974 71.3646 13.5123L49.9848 13.519C49.3321 13.519 48.3089 13.8939 47.934 14.753C47.4665 15.8219 48.0054 17.0514 49.0643 17.5223C49.4871 17.7108 50.2347 17.6863 50.2347 17.6863H65.7882C68.5708 17.8849 71.0511 19.6857 72.0096 22.6547C72.843 25.2376 72.4134 27.3866 70.7164 29.4976C68.7572 31.9343 66.076 31.9645 63.1215 31.9589L45.9123 31.9388C44.0445 31.9388 42.4725 30.0856 42.2058 28.1787L42.1946 27.2147L64.9145 27.2382C65.6744 27.2382 66.6484 26.1816 66.6741 25.0982C66.7031 23.9278 65.9009 22.8176 64.7427 22.8176H48.3759C45.5452 22.8176 42.6599 20.1376 42.1958 16.7903C41.8198 14.0813 42.7034 12.0328 44.7887 10.2822C46.3631 8.96229 47.5603 8.58517 49.7605 8.58182L64.8967 8.56174C67.2397 8.51822 69.7836 8.92324 70.8793 11.1681L70.8804 11.1692ZM106.266 8.66439C109.926 8.66773 112.893 12.4601 112.792 16.4277C112.696 20.257 109.385 23.7939 106.347 23.7939H93.5813C91.7136 23.5618 90.2787 22.1961 89.5412 20.6173C89.2891 19.9992 89.2746 19.1312 89.2054 18.4863L89.8648 18.4997H105.296C105.962 18.4997 106.596 17.886 106.912 17.115C107.2 16.4088 107.183 15.8375 106.831 15.1602C106.443 14.4105 105.743 13.9385 105.053 13.9385H87.8442L87.6835 14.1025V29.4619C87.6835 30.8911 86.4462 31.9433 84.9856 31.9143C83.7059 31.8908 82.512 30.8465 82.512 29.4886V13.0437C82.512 11.6847 83.0242 10.8814 83.9837 9.96534C84.8797 9.12965 86.0545 8.65881 87.2785 8.64542L106.263 8.66439H106.266ZM133.97 14.8657C135.666 17.2422 137.532 19.5328 139.148 22.0031H127.735L133.413 14.8356C133.413 14.8356 133.565 14.5934 133.712 14.6068C133.854 14.6202 133.97 14.8657 133.97 14.8657ZM138.637 12.2013C141.582 16.3284 147.526 24.0717 150.542 28.4342C150.922 29.4239 150.478 30.4839 149.977 31.2861C149.163 32.0515 147.832 32.2133 146.905 31.7748C145.449 30.4638 144.44 28.8326 143.27 27.3765L123.637 27.3341L121.316 30.5051C120.585 31.5048 119.655 32.1921 118.224 31.9343C117.479 31.7837 116.773 31.1511 116.528 30.4694C116.147 29.5857 116.19 28.75 116.688 27.9422L129.132 11.3277C130.175 9.75447 131.302 8.62868 133.25 8.64096C136.319 8.68112 136.526 9.4588 138.638 12.1979L138.637 12.2013ZM182.776 8.66439C185.475 8.66773 188.001 10.7296 189.014 13.6997C190.102 16.8852 189.1 19.7047 186.654 22.002C186.112 22.5141 185.119 23.1412 185.119 23.1412L188.494 28.0103C188.802 28.4543 188.9 29.3391 188.613 30.1045C188.346 30.8141 187.993 31.2292 187.302 31.5282C186.361 31.9343 185.119 31.5583 184.719 31.0618C184.719 31.0618 181.493 27.1021 179.708 24.8494C179.394 24.518 179.23 24.2112 178.899 23.8742L170.299 23.9166C168.168 23.9255 165.649 21.3549 165.649 19.3086V18.5175L181.663 18.4974C182.262 18.4963 182.935 17.9318 183.261 17.1931C183.558 16.527 183.553 15.9892 183.261 15.3209C182.911 14.522 182.122 13.9552 181.501 13.9564L164.082 14.0066L164.034 14.1817V29.8278C164.034 30.871 162.607 32.2122 161.208 32.0783C159.918 31.9567 158.859 30.6311 158.862 29.7095L158.882 13.124C158.886 11.3957 159.383 10.7252 160.466 9.77344C161.52 8.84737 162.473 8.64207 163.872 8.6443L182.777 8.66327L182.776 8.66439Z" fill="white"/>
</g>
<defs>
<clipPath id="clip0_7407_25932">
<rect width="242.475" height="40" fill="white" transform="translate(0.0239258)"/>
</clipPath>
</defs>
</svg>
