<svg width="42" height="42" viewBox="0 0 42 42" fill="none" xmlns="http://www.w3.org/2000/svg">
<path d="M4 0.25H38C40.0711 0.25 41.75 1.92893 41.75 4V38C41.75 40.0711 40.0711 41.75 38 41.75H4C1.92893 41.75 0.25 40.0711 0.25 38V4C0.25 1.92893 1.92893 0.25 4 0.25Z" fill="white"/>
<path d="M4 0.25H38C40.0711 0.25 41.75 1.92893 41.75 4V38C41.75 40.0711 40.0711 41.75 38 41.75H4C1.92893 41.75 0.25 40.0711 0.25 38V4C0.25 1.92893 1.92893 0.25 4 0.25Z" stroke="#DFE0E6" stroke-width="0.5"/>
<g clip-path="url(#clip0_4217_2648)">
<path d="M9.09766 11.4373L20.9974 7.55225V34.4479C12.4975 30.8616 9.09766 23.9883 9.09766 20.1038V11.4373Z" fill="#0500FF"/>
<path d="M32.9003 11.4373L21 7.55225V34.4479C29.4999 30.8616 32.8997 23.9883 32.8997 20.1038V11.4373H32.9003Z" fill="url(#paint0_linear_4217_2648)"/>
</g>
<defs>
<linearGradient id="paint0_linear_4217_2648" x1="29.7643" y1="5.67741" x2="20.7018" y2="34.0648" gradientUnits="userSpaceOnUse">
<stop offset="0.02" stop-color="#0000FF"/>
<stop offset="0.08" stop-color="#0094FF"/>
<stop offset="0.16" stop-color="#48FF91"/>
<stop offset="0.42" stop-color="#0094FF"/>
<stop offset="0.68" stop-color="#0038FF"/>
<stop offset="0.9" stop-color="#0500FF"/>
</linearGradient>
<clipPath id="clip0_4217_2648">
<rect width="23.8" height="26.8957" fill="white" transform="translate(9.09766 7.55225)"/>
</clipPath>
</defs>
</svg>
