<svg width="51" height="49" viewBox="0 0 51 49" fill="none" xmlns="http://www.w3.org/2000/svg">
<g clip-path="url(#clip0_9001_41432)">
<path d="M49.2781 35.5714C48.8808 34.3795 47.4638 33.3332 44.7092 34.0087L34.9224 36.3924C34.5384 35.9819 33.9822 35.6508 33.2538 35.4389L20.9376 31.8235C18.62 31.1481 16.4481 31.0819 14.1041 31.6116L10.9257 32.34V31.2276C10.9257 30.2476 10.1311 29.4662 9.16432 29.4662H1.77459C0.794595 29.4662 0 30.2608 0 31.2276V45.3978C0 46.3778 0.794595 47.1592 1.77459 47.1592H9.16432C10.1443 47.1592 10.9257 46.3646 10.9257 45.3978V44.3516L21.3746 47.3843C22.6724 47.7684 23.957 47.9538 25.2151 47.9538C27.003 47.9538 28.7643 47.5697 30.5389 46.8016L47.04 39.6503C48.8014 38.8822 49.7814 37.1076 49.2781 35.5846V35.5714ZM9.33649 45.3846C9.33649 45.4773 9.25703 45.57 9.15108 45.57H1.77459C1.68189 45.57 1.58919 45.4905 1.58919 45.3846V31.2143C1.58919 31.1216 1.66865 31.0289 1.77459 31.0289H9.16432C9.25703 31.0289 9.34973 31.1084 9.34973 31.2143V45.3846H9.33649ZM46.4176 38.1803L29.9165 45.3316C27.2546 46.4838 24.6059 46.656 21.8249 45.8481L10.9257 42.683V33.9557L14.4616 33.1478C16.5673 32.6711 18.4214 32.7241 20.5005 33.3332L32.8168 36.9487C33.3862 37.1208 33.7305 37.3724 33.9292 37.6505C33.9292 37.677 33.9557 37.6903 33.9689 37.7168C34.1278 37.9816 34.1543 38.273 34.0881 38.5246C33.9159 39.1868 33.1478 39.7695 31.85 39.4914L19.4146 36.7897C18.9908 36.697 18.567 36.9619 18.4743 37.3989C18.3816 37.8227 18.6465 38.2465 19.0835 38.3392L31.5189 41.0408C31.8632 41.1203 32.1811 41.1468 32.4989 41.1468C34.1808 41.1468 35.3197 40.1138 35.6243 38.9087C35.717 38.5643 35.7303 38.1935 35.6641 37.8227L45.0932 35.5316C46.5235 35.1873 47.5565 35.3859 47.7816 36.0614C47.9935 36.697 47.5035 37.6903 46.4176 38.1538V38.1803Z" fill="#0F80F0"/>
<path d="M26.0541 12.732L25.2994 15.7763C26.2303 16.0028 29.1236 16.9337 29.5513 15.2228C29.9916 13.4365 26.9976 12.971 26.0667 12.7446L26.0541 12.732Z" fill="#0F80F0"/>
<path d="M27.0857 8.58068L26.3938 11.3357C27.1738 11.5244 29.5765 12.3169 29.9665 10.757C30.369 9.13419 27.8656 8.76938 27.0857 8.5681V8.58068Z" fill="#0F80F0"/>
<path d="M30.193 0.378634C23.4502 -1.30707 16.6319 2.79396 14.9462 9.53676C13.2605 16.2796 17.3615 23.0978 24.1043 24.7835C30.8471 26.4692 37.6654 22.3682 39.3511 15.6254C41.0368 8.88261 36.9358 2.06433 30.193 0.378634ZM32.6964 10.7947C32.5202 12.015 31.8409 12.6188 30.9352 12.8201C32.168 13.4617 32.797 14.4555 32.2057 16.1663C31.4635 18.2923 29.6898 18.4684 27.3373 18.0282L26.7713 20.3177L25.3875 19.978L25.9536 17.7137C25.6013 17.6256 25.2239 17.525 24.8591 17.4243L24.293 19.6887L22.9092 19.349L23.4753 17.0595C23.1483 16.9714 22.8212 16.8834 22.4941 16.8079L20.6952 16.355L21.3745 14.77C21.3745 14.77 22.3935 15.0341 22.3809 15.0216C22.7709 15.1222 22.947 14.858 23.0099 14.6945L23.9156 11.0715L24.0666 11.1092C24.0666 11.1092 23.9659 11.0715 23.9282 11.0589L24.5698 8.48005C24.5824 8.19071 24.4817 7.81332 23.9282 7.67494C23.9534 7.66236 22.9218 7.42334 22.9218 7.42334L23.2866 5.9515L25.1862 6.42954C25.4755 6.50502 25.7649 6.5805 26.0668 6.64339L26.6329 4.37902L28.0167 4.71868L27.4631 6.94531C27.828 7.03337 28.2054 7.12143 28.5702 7.20949L29.1237 5.00802L30.5075 5.34767L29.9414 7.61204C31.69 8.21587 32.9605 9.10904 32.7089 10.7822L32.6964 10.7947Z" fill="#0F80F0"/>
</g>
<defs>
<clipPath id="clip0_9001_41432">
<rect width="50.3243" height="49" fill="white"/>
</clipPath>
</defs>
</svg>
