<svg width="80" height="80" viewBox="0 0 80 80" fill="none" xmlns="http://www.w3.org/2000/svg">
<g clip-path="url(#clip0_9001_41654)">
<g clip-path="url(#clip1_9001_41654)">
<path d="M79.2587 40C79.2587 61.8459 61.5491 79.5556 39.7031 79.5556C17.8572 79.5556 0.147569 61.8459 0.147569 40C0.147569 18.1541 17.8572 0.444444 39.7031 0.444444C61.5491 0.444444 79.2587 18.1541 79.2587 40Z" stroke="#0F80F0" stroke-width="0.888889"/>
<path d="M48.9062 22.8494L51.4049 25.3319L55.1206 25.6078C55.291 25.624 55.4938 25.7538 55.5263 25.981L60.5563 60.0307L46.951 62.9757L48.9143 22.8494H48.9062ZM45.6691 62.9919L20 58.181L23.5048 31.1651C23.6751 29.9481 23.7157 29.9076 25.0056 29.5019L29.1676 28.212C30.0519 24.4314 32.8995 17 38.8462 17C39.625 17 40.5256 17.4138 41.2476 18.3792C43.9654 18.2494 45.4663 20.5453 46.2857 22.9143L47.6487 22.4924L45.6691 63V62.9919ZM40.4444 20.2695C38.9922 20.8942 37.3372 22.5411 36.4529 25.9566L41.0448 24.5369C41.061 22.533 40.8095 21.1862 40.4444 20.2695ZM31.0011 27.6441L34.6356 26.5164C35.4956 22.0056 37.54 19.7503 39.4466 18.8497C39.2032 18.6794 38.9436 18.5901 38.684 18.5901C34.4085 18.5901 32.0152 24.1961 31.0011 27.636V27.6441ZM41.4586 33.4772C41.4586 33.4772 40.2741 32.7877 37.8646 32.7877C31.6258 32.7877 28.5347 36.9577 28.5347 41.2575C28.5347 46.3767 33.6377 46.5146 33.6377 49.63C33.6377 50.3845 33.1023 51.4148 31.7961 51.4148C29.7922 51.4148 27.4233 49.3785 27.4233 49.3785L26.2145 53.37C26.2145 53.37 28.5266 56.1771 33.0374 56.1771C36.8018 56.1771 39.5926 53.3457 39.5926 48.9485C39.5926 43.3587 33.37 42.442 33.37 40.0568C33.37 39.6187 33.5079 37.8825 36.2744 37.8825C38.1647 37.8825 39.6981 38.7019 39.6981 38.7019L41.4586 33.4772ZM42.6106 24.0501L44.8335 23.3605C44.2737 21.6406 43.3975 20.1397 42.0751 19.9774C42.4808 21.1457 42.6268 22.5249 42.6025 24.0501H42.6106Z" fill="#0F80F0"/>
</g>
</g>
<defs>
<clipPath id="clip0_9001_41654">
<rect width="80" height="80" fill="white"/>
</clipPath>
<clipPath id="clip1_9001_41654">
<rect width="80" height="80" fill="white"/>
</clipPath>
</defs>
</svg>
