<svg width="46" height="52" viewBox="0 0 46 52" fill="none" xmlns="http://www.w3.org/2000/svg">
<g clip-path="url(#clip0_9001_41430)">
<g clip-path="url(#clip1_9001_41430)">
<path d="M41.0068 11.5437H37.5314L36.3811 13.1869H41.0068C42.4036 13.1869 43.5456 14.3207 43.5456 15.7257V18.1659H32.8975L28.1486 24.9524H43.5456V36.2825C43.5456 37.6792 42.4118 38.8213 41.0068 38.8213H18.4371L17.2868 40.4645H41.0068C43.3156 40.4645 45.1889 38.5912 45.1889 36.2825V15.7257C45.1889 13.4252 43.3156 11.5437 41.0068 11.5437Z" fill="#0F80F0"/>
<path d="M4.18202 40.4563H7.65745L8.80771 38.8131H4.18202C2.78528 38.8131 1.64323 37.6792 1.64323 36.2743V24.9442H18.511L23.2599 18.1577H1.64323V15.7175C1.64323 14.3207 2.78528 13.1787 4.18202 13.1787H26.7518L27.902 11.5355H4.18202C1.87328 11.5355 0 13.4087 0 15.7175V36.2743C0 38.5748 1.87328 40.4563 4.18202 40.4563Z" fill="#0F80F0"/>
<path d="M40.1441 0.944855L5.04474 51.0634" stroke="#0F80F0" stroke-width="4" stroke-miterlimit="10"/>
</g>
</g>
<defs>
<clipPath id="clip0_9001_41430">
<rect width="45.1888" height="52" fill="white"/>
</clipPath>
<clipPath id="clip1_9001_41430">
<rect width="45.1888" height="52" fill="white"/>
</clipPath>
</defs>
</svg>
