<svg width="80" height="80" viewBox="0 0 80 80" fill="none" xmlns="http://www.w3.org/2000/svg">
<g clip-path="url(#clip0_9001_41656)">
<g clip-path="url(#clip1_9001_41656)">
<path d="M79.2031 40C79.2031 61.8153 61.5184 79.5 39.7031 79.5C17.8879 79.5 0.203125 61.8153 0.203125 40C0.203125 18.1848 17.8879 0.5 39.7031 0.5C61.5184 0.5 79.2031 18.1848 79.2031 40Z" stroke="#0F80F0"/>
<path d="M34.0956 35.0417C34.2265 35.0417 34.3574 35.0417 34.3574 34.9108C35.8626 33.4056 37.5642 32.6202 39.4621 32.6202C41.36 32.6202 43.1271 33.4056 44.5669 34.9108C44.7632 35.1071 45.0904 35.1071 45.2868 34.9108C45.4831 34.7145 45.4831 34.3872 45.2868 34.1909C43.7161 32.5548 41.6218 31.6385 39.5276 31.6385C37.4333 31.6385 35.4045 32.5548 33.7684 34.1909C33.572 34.3872 33.572 34.7145 33.7684 34.9108C33.8338 34.9762 33.9647 35.0417 34.0956 35.0417Z" fill="#0F80F0"/>
<path d="M39.5276 34.1909C38.0223 34.1909 36.5825 34.7799 35.47 35.8925C35.2736 36.0888 35.2736 36.416 35.47 36.6124C35.6663 36.8087 35.9935 36.8087 36.1898 36.6124C37.1061 35.6961 38.2841 35.1726 39.5276 35.1726C40.771 35.1726 41.949 35.6961 42.8653 36.6124C42.9307 36.6778 43.0616 36.7433 43.1925 36.7433C43.3234 36.7433 43.4543 36.6778 43.5852 36.6124C43.7815 36.416 43.7815 36.0888 43.5852 35.8925C42.4072 34.7799 41.0328 34.1909 39.5276 34.1909Z" fill="#0F80F0"/>
<path d="M39.4621 36.6124C38.6768 36.6124 37.8914 36.9396 37.3679 37.5286C37.1715 37.725 37.1715 38.0522 37.3679 38.2485C37.5642 38.4449 37.8914 38.4449 38.0878 38.2485C38.8077 37.4632 40.182 37.4632 40.9019 38.2485C41.0328 38.314 41.1637 38.3794 41.2946 38.3794C41.4255 38.3794 41.4909 38.3794 41.5564 38.2485C41.7527 38.0522 41.7527 37.725 41.5564 37.5286C41.0328 36.9396 40.2475 36.6124 39.4621 36.6124Z" fill="#0F80F0"/>
<path d="M39.5276 39.3611C38.6768 39.3611 37.9569 40.081 37.9569 40.9318C37.9569 41.7826 38.6768 42.5025 39.5276 42.5025C40.3784 42.5025 41.0983 41.848 41.0983 40.9318C41.0983 40.081 40.3784 39.3611 39.5276 39.3611Z" fill="#0F80F0"/>
<path d="M51.4452 21.5599V21.5468C51.0394 20.9906 50.4242 20.6568 49.796 20.6568H44.6716V13.9028C44.6716 13.7196 44.593 13.5232 44.4752 13.4054L43.3561 12.2209C43.1074 11.9722 42.6035 11.9722 42.3548 12.2209L41.8116 12.7641L41.2684 12.2209C41.0197 11.9722 40.4896 11.9918 40.2867 12.2012L39.5407 12.7837L38.9778 12.2209C38.6833 11.9264 38.2056 11.9264 37.9111 12.2209L37.3679 12.7641L36.8247 12.2209C36.576 11.9722 36.072 11.9722 35.8168 12.2209L34.7108 13.3924C34.5864 13.5167 34.5079 13.713 34.5079 13.8963V20.6568H29.3835C28.6833 20.6568 28.1008 20.9775 27.7408 21.5534C27.3351 22.1686 26 24.4199 26 27.7118C26 28.7917 26.1243 32.1817 26.288 36.4684C26.3599 38.471 26.445 40.7027 26.5301 43.0326L26.6872 46.9266C26.9686 53.962 27.2631 61.2395 27.3155 64.8783C27.3155 66.5733 28.7749 68 30.5092 68H48.703C50.4308 68 51.8968 66.5667 51.8968 64.8783C51.9491 61.2329 52.2436 53.962 52.525 46.9266L52.6821 43.0195C52.7672 40.6962 52.8457 38.4841 52.9177 36.4815C53.0748 32.1752 53.2057 28.7786 53.2057 27.6987C53.2057 24.9173 52.2632 22.8165 51.4648 21.5468L51.4452 21.5599ZM35.843 22.9539V14.2039L36.2488 13.7981L36.7919 14.3413C37.0865 14.6358 37.5642 14.6358 37.8587 14.3413L38.4019 13.7981L38.9451 14.3413C39.2396 14.6358 39.7174 14.6358 40.0119 14.3413L40.5551 13.7981L41.0983 14.3479C41.3469 14.5965 41.8705 14.5769 42.0865 14.3609L42.7671 13.785L43.1925 14.2104V22.9605H35.8299L35.843 22.9539ZM31.9294 23.0194C31.5498 23.0194 31.1636 23.3073 31.1636 23.7851C31.1636 24.2628 31.4712 24.5573 31.9294 24.5573H47.0472C47.4268 24.5573 47.813 24.2694 47.813 23.7851C47.813 23.3008 47.5054 23.0194 47.0472 23.0194H44.6061V22.2013H49.7305C49.8941 22.2013 50.0185 22.2733 50.1101 22.4173C50.8104 23.5037 51.6415 25.3165 51.6415 27.7903C51.707 29.2498 51.5172 35.4867 51.1834 42.954C50.8627 51.0235 50.5355 60.4345 50.3981 64.8913C50.3981 65.7879 49.6127 66.5406 48.6834 66.5406H30.3652C29.4359 66.5406 28.6505 65.7814 28.6505 64.8848C28.5982 61.2329 28.3037 53.9554 28.0223 46.92L27.8652 43.0195C27.7801 40.6438 27.695 38.3794 27.623 36.3506C27.466 32.1294 27.3416 28.7982 27.3416 27.7773C27.3416 25.0874 28.4149 23.1306 28.8731 22.4173C28.9581 22.2864 29.1479 22.2013 29.2592 22.2013H34.3836V23.0194H31.9294Z" fill="#0F80F0"/>
<path d="M30.9542 46.331H48.1009C48.9713 46.331 49.7043 45.598 49.7043 44.7276V29.4134C49.7043 28.543 48.9713 27.81 48.1009 27.81H30.9542C30.0838 27.81 29.3508 28.543 29.3508 29.4134V44.7276C29.3508 45.598 30.0838 46.331 30.9542 46.331ZM30.6597 44.7276V29.4134C30.6597 29.2432 30.7841 29.1189 30.9542 29.1189H48.1009C48.2711 29.1189 48.3954 29.2432 48.3954 29.4134V44.7276C48.3954 44.8978 48.2711 45.0221 48.1009 45.0221H30.9542C30.7841 45.0221 30.6597 44.8978 30.6597 44.7276Z" fill="#0F80F0"/>
<path d="M34.1676 58.2748C34.9987 58.2748 35.6925 57.5615 35.6794 56.7172L35.6663 55.7355C35.6597 54.8782 34.9398 54.1518 34.1021 54.1518H31.1964C30.3587 54.1518 29.6649 54.8782 29.6911 55.7355L29.7173 56.7172C29.7369 57.5615 30.4634 58.2748 31.288 58.2748H34.1676ZM34.1152 55.14C34.4359 55.14 34.6977 55.4018 34.7042 55.729L34.7173 56.7107C34.7173 57.0379 34.4686 57.2997 34.148 57.2997H31.2684C30.9477 57.2997 30.6859 57.0379 30.6793 56.7107L30.6532 55.729C30.6466 55.4018 30.8953 55.14 31.216 55.14H34.1152Z" fill="#0F80F0"/>
<path d="M42.4792 55.729C42.4857 54.8717 41.7789 54.1452 40.9412 54.1452H38.0354C37.1977 54.1452 36.4909 54.8717 36.4974 55.729V56.7107C36.5105 57.5549 37.2173 58.2683 38.0485 58.2683H40.9216C41.8116 58.2683 42.4595 57.5549 42.4661 56.7107V55.729H42.4792ZM41.576 56.7107C41.576 57.0379 41.3142 57.2997 41.0001 57.2997H38.1205C37.7998 57.2997 37.5446 57.0379 37.5446 56.7107V55.729C37.538 55.4018 37.7933 55.14 38.1139 55.14H41.0066C41.3273 55.14 41.5826 55.4018 41.5826 55.729V56.7107H41.576Z" fill="#0F80F0"/>
<path d="M47.8457 54.1518H44.9399C44.1022 54.1518 43.3823 54.8782 43.3758 55.7355L43.3627 56.7172C43.3561 57.5615 44.0498 58.2748 44.8745 58.2748H47.7475C48.5787 58.2748 49.2986 57.5615 49.3182 56.7172L49.3444 55.7355C49.3706 54.8782 48.6768 54.1518 47.8391 54.1518H47.8457ZM48.3692 56.7107C48.3627 57.0379 48.1009 57.2997 47.7802 57.2997H44.9006C44.58 57.2997 44.3313 57.0379 44.3313 56.7107L44.3443 55.729C44.3443 55.4018 44.6127 55.14 44.9334 55.14H47.826C48.1467 55.14 48.402 55.4018 48.3889 55.729L48.3627 56.7107H48.3692Z" fill="#0F80F0"/>
<path d="M35.7317 61.6649L35.7186 60.7094C35.7121 59.8782 35.0053 59.1714 34.1741 59.1714H31.3076C30.483 59.1714 29.8024 59.8782 29.822 60.7094L29.8482 61.6649C29.8678 62.4895 30.5812 63.1832 31.3992 63.1832H34.233C35.0511 63.1832 35.7383 62.4895 35.7252 61.6649H35.7317ZM31.3862 62.2408C31.072 62.2408 30.8102 61.9856 30.8037 61.6714L30.7775 60.7159C30.771 60.3952 31.0197 60.14 31.3338 60.14H34.1872C34.5014 60.14 34.7631 60.3952 34.7631 60.7159L34.7762 61.6714C34.7762 61.9856 34.5341 62.2408 34.2134 62.2408H31.3731H31.3862Z" fill="#0F80F0"/>
<path d="M38.055 59.178C37.2304 59.178 36.5367 59.8848 36.5433 60.7159V61.6714C36.5563 62.496 37.2566 63.1898 38.0747 63.1898H40.9085C41.792 63.1898 42.4268 62.496 42.4333 61.6714V60.7159C42.4464 59.8848 41.7527 59.178 40.9281 59.178H38.055ZM41.5498 61.6649C41.5498 61.979 41.2946 62.2343 40.9805 62.2343H38.1401C37.826 62.2343 37.5707 61.979 37.5707 61.6649V60.7094C37.5642 60.3887 37.8194 60.1335 38.1336 60.1335H40.987C41.3011 60.1335 41.5564 60.3887 41.5564 60.7094V61.6649H41.5498Z" fill="#0F80F0"/>
<path d="M47.7344 59.178H44.8679C44.0433 59.178 43.3299 59.8848 43.3234 60.7159L43.3103 61.6714C43.3038 62.496 43.9844 63.1898 44.8025 63.1898H47.6363C48.4543 63.1898 49.1677 62.496 49.1873 61.6714L49.2135 60.7159C49.2331 59.8848 48.5525 59.178 47.7279 59.178H47.7344ZM48.2449 61.6649C48.2384 61.979 47.9766 62.2343 47.6624 62.2343H44.8221C44.508 62.2343 44.2593 61.979 44.2593 61.6649L44.2724 60.7094C44.2724 60.3887 44.5341 60.1335 44.8483 60.1335H47.7017C48.0158 60.1335 48.2645 60.3887 48.258 60.7094L48.2318 61.6649H48.2449Z" fill="#0F80F0"/>
<path d="M31.1767 53.2028H34.0891C34.9333 53.2028 35.6336 52.4698 35.627 51.5994L35.6139 50.5915C35.6074 49.7146 34.8744 48.9685 34.0236 48.9685H31.0786C30.2278 48.9685 29.5275 49.7146 29.5537 50.5915L29.5799 51.5994C29.606 52.4698 30.3325 53.2028 31.1767 53.2028ZM31.1047 49.9829H34.0432C34.3705 49.9829 34.6322 50.2512 34.6388 50.5915L34.6519 51.5994C34.6519 51.9332 34.4032 52.2015 34.076 52.2015H31.1571C30.8299 52.2015 30.5681 51.9332 30.5615 51.5994L30.5354 50.5915C30.5288 50.2512 30.7841 49.9829 31.1047 49.9829Z" fill="#0F80F0"/>
<path d="M42.525 50.5915C42.5315 49.7146 41.8182 48.9685 40.9674 48.9685H38.0223C37.1715 48.9685 36.4582 49.7146 36.4647 50.5915V51.5994C36.4778 52.4698 37.1977 53.2028 38.042 53.2028H40.9543C41.8574 53.2028 42.5119 52.4698 42.5184 51.5994V50.5915H42.525ZM41.6022 51.5994C41.6022 51.9332 41.3404 52.2015 41.0132 52.2015H38.0943C37.7671 52.2015 37.5118 51.9332 37.5053 51.5994V50.5915C37.4988 50.2512 37.7605 49.9829 38.0812 49.9829H41.0197C41.3469 49.9829 41.6087 50.2512 41.6022 50.5915V51.5994Z" fill="#0F80F0"/>
<path d="M47.97 48.9619H45.025C44.1742 48.9619 43.4477 49.708 43.4347 50.585L43.4216 51.5928C43.415 52.4633 44.1153 53.1963 44.9595 53.1963H47.8719C48.7161 53.1963 49.4425 52.4633 49.4687 51.5928L49.4949 50.585C49.5211 49.708 48.8208 48.9619 47.97 48.9619ZM48.4936 51.5994C48.487 51.9332 48.2187 52.2015 47.898 52.2015H44.9792C44.6519 52.2015 44.3967 51.9332 44.4032 51.5994L44.4163 50.5915C44.4163 50.2512 44.6847 49.9829 45.0119 49.9829H47.9504C48.2776 49.9829 48.5329 50.2512 48.5198 50.5915L48.4936 51.5994Z" fill="#0F80F0"/>
</g>
</g>
<defs>
<clipPath id="clip0_9001_41656">
<rect width="80" height="80" fill="white"/>
</clipPath>
<clipPath id="clip1_9001_41656">
<rect width="80" height="80" fill="white"/>
</clipPath>
</defs>
</svg>
