<svg width="46" height="52" viewBox="0 0 46 52" fill="none" xmlns="http://www.w3.org/2000/svg">
<g clip-path="url(#clip0_9001_41426)">
<g clip-path="url(#clip1_9001_41426)">
<path fill-rule="evenodd" clip-rule="evenodd" d="M37.0672 26C37.0672 33.7987 30.7451 40.1208 22.9464 40.1208C15.1477 40.1208 8.82556 33.7987 8.82556 26C8.82556 18.2013 15.1477 11.8792 22.9464 11.8792C30.7451 11.8792 37.0672 18.2013 37.0672 26ZM22.1344 33.3428V35.7081L22.1167 35.7257H23.5994V33.2546C26.0353 32.8839 27.3414 31.1188 27.3414 29.2301C27.3414 27.1297 26.1059 25.9117 23.67 24.9233C21.6225 24.0407 20.7399 23.4229 20.7399 22.2227C20.7399 21.2519 21.4283 20.1575 23.2464 20.1575C24.7644 20.1575 25.7352 20.7047 26.2294 20.9871L26.8296 19.4338C26.1235 19.0278 25.1527 18.6572 23.7583 18.6042V16.3096H22.2756V18.6748C20.1222 19.0278 18.7277 20.4399 18.7277 22.4874C18.7277 24.535 20.2104 25.647 22.6286 26.6001C24.3937 27.3238 25.3116 28.0828 25.3116 29.4243C25.3116 30.7658 24.1642 31.7366 22.4874 31.7366C21.1636 31.7366 19.928 31.26 19.0984 30.7128L18.5336 32.3014C19.3632 32.8839 20.7576 33.3252 22.1344 33.3428Z" fill="#0F80F0"/>
<path fill-rule="evenodd" clip-rule="evenodd" d="M23.2711 2.69489L20.3517 0L20.3641 2.8371C10.5817 3.93283 2.17951 11.171 0.0991558 21.3547L0.0988187 21.3564C-2.27038 33.0344 4.55721 44.4474 15.599 48.1031L16.3848 45.7298C6.52796 42.4664 0.435038 32.2749 2.54875 21.8542C4.38687 12.8582 11.7535 6.4321 20.375 5.35322L20.387 8.08418L23.4604 5.19892C23.5112 5.20016 23.5619 5.20159 23.6128 5.2032L23.6176 5.05136L24.7115 4.02444L23.6804 3.07272L23.6921 2.70446C23.5516 2.7 23.4113 2.69681 23.2711 2.69489ZM29.508 6.27016C39.3644 9.53343 45.4584 19.725 43.3438 30.1646C41.5206 39.1464 34.1532 45.5847 25.5178 46.652L25.5058 43.9158L22.4321 46.8013C22.3821 46.8 22.3321 46.7985 22.2821 46.7969L22.2771 46.9469L21.1813 47.9756L22.211 48.926L22.1986 49.2955C22.34 49.3002 22.4813 49.3036 22.6223 49.3058L25.5411 52L25.5287 49.1678C35.3266 48.0839 43.7298 40.8313 45.794 30.6614L45.7941 30.6609C48.1629 18.9661 41.3362 7.55279 30.2938 3.89685L29.508 6.27016Z" fill="#0F80F0"/>
</g>
</g>
<defs>
<clipPath id="clip0_9001_41426">
<rect width="45.8927" height="52" fill="white"/>
</clipPath>
<clipPath id="clip1_9001_41426">
<rect width="45.8927" height="52" fill="white"/>
</clipPath>
</defs>
</svg>
