<svg width="80" height="81" viewBox="0 0 80 81" fill="none" xmlns="http://www.w3.org/2000/svg">
<g clip-path="url(#clip0_9001_41657)">
<g clip-path="url(#clip1_9001_41657)">
<path d="M79.2031 40.5C79.2031 62.3153 61.5184 80 39.7031 80C17.8879 80 0.203125 62.3153 0.203125 40.5C0.203125 18.6848 17.8879 1 39.7031 1C61.5184 1 79.2031 18.6848 79.2031 40.5Z" stroke="#0F80F0"/>
<path d="M61.6857 31.5171V26.7857C61.6857 24.9457 60.24 23.5 58.4 23.5H20.2857C18.4457 23.5 17 24.9457 17 26.7857V52.1514C17 53.4657 17.7886 54.6486 18.9714 55.1743V56.7514H28.1714V55.4371H29.6171V56.7514H38.9486V55.4371H40.9857V56.8172H46.3086V55.4371H58.3343C60.1743 55.4371 61.62 53.9914 61.62 52.1514H63V42.82H61.6857V39.4686H63V31.5171H61.6857ZM60.3714 42.82H51.6971V52.1514H60.3057C60.3057 53.2029 59.4514 54.1229 58.3343 54.1229H46.3086V48.8H40.9857V54.1229H38.9486V48.8H29.6171V54.1229H26.8571V55.4371H25.5429V54.1229H24.2286V55.4371H22.9143V54.1229H21.6V55.4371H20.2857V54.1229C19.2343 54.1229 18.3143 53.2686 18.3143 52.1514V26.7857C18.3143 25.7343 19.1686 24.8143 20.2857 24.8143H58.4C59.4514 24.8143 60.3714 25.6686 60.3714 26.7857V31.5171H53.0114V39.4686H60.3714V42.82Z" fill="#0F80F0"/>
<path d="M27.7114 45.2514C28.0744 45.2514 28.3686 44.9572 28.3686 44.5943C28.3686 44.2314 28.0744 43.9371 27.7114 43.9371C27.3485 43.9371 27.0543 44.2314 27.0543 44.5943C27.0543 44.9572 27.3485 45.2514 27.7114 45.2514Z" fill="#0F80F0"/>
<path d="M22.9143 33.2257H20.2857V35.1971H22.9143V33.2257Z" fill="#0F80F0"/>
<path d="M22.9143 45.8429H21.6V44.4629H22.9143V43.1486H21.6V41.7686H22.9143V40.4543H21.6V39.14H22.9143V37.8257H20.2857V47.2229H22.9143V45.8429Z" fill="#0F80F0"/>
<path d="M21.6657 52.1514C22.3916 52.1514 22.98 51.563 22.98 50.8371C22.98 50.1113 22.3916 49.5229 21.6657 49.5229C20.9399 49.5229 20.3514 50.1113 20.3514 50.8371C20.3514 51.563 20.9399 52.1514 21.6657 52.1514Z" fill="#0F80F0"/>
<path d="M21.6657 26.8514C20.9429 26.8514 20.3514 27.4429 20.3514 28.1657C20.3514 28.8886 20.9429 29.48 21.6657 29.48C22.3886 29.48 22.98 28.8229 22.98 28.1657C22.98 27.4429 22.3886 26.8514 21.6657 26.8514Z" fill="#0F80F0"/>
<path d="M39.9343 26.1286H38.62V27.4429H39.9343V26.1286Z" fill="#0F80F0"/>
<path d="M39.9343 28.7571H38.62V30.0714H39.9343V28.7571Z" fill="#0F80F0"/>
<path d="M37.3057 26.1286H35.9914V27.4429H37.3057V26.1286Z" fill="#0F80F0"/>
<path d="M26.7914 26.1286H25.4771V27.4429H26.7914V26.1286Z" fill="#0F80F0"/>
<path d="M26.7914 28.7571H25.4771V30.0714H26.7914V28.7571Z" fill="#0F80F0"/>
<path d="M27.6457 33.2257H25.0171V34.6057H26.3314V35.92H25.0171V37.3H26.3314V38.6143H25.0171V39.8629H27.6457V33.2257Z" fill="#0F80F0"/>
<path d="M25.0171 47.2229H30.34V41.9H25.0171V47.2229ZM26.3314 43.2143H29.0257V45.9086H26.3314V43.2143Z" fill="#0F80F0"/>
<path d="M29.42 28.7571H28.1057V30.0714H29.42V28.7571Z" fill="#0F80F0"/>
<path d="M29.42 26.1286H28.1057V27.4429H29.42V26.1286Z" fill="#0F80F0"/>
<path d="M32.0486 28.7571H30.7343V30.0714H32.0486V28.7571Z" fill="#0F80F0"/>
<path d="M32.0486 26.1286H30.7343V27.4429H32.0486V26.1286Z" fill="#0F80F0"/>
<path d="M34.6771 28.7571H33.3629V30.0714H34.6771V28.7571Z" fill="#0F80F0"/>
<path d="M34.6771 26.1286H33.3629V27.4429H34.6771V26.1286Z" fill="#0F80F0"/>
<path d="M37.3057 28.7571H35.9914V30.0714H37.3057V28.7571Z" fill="#0F80F0"/>
<path d="M37.1743 33.2257L35.0714 35.3286V41.8343H43.68V33.2257H37.1743Z" fill="#0F80F0"/>
<path d="M42.5629 28.7571H41.2486V30.0714H42.5629V28.7571Z" fill="#0F80F0"/>
<path d="M42.5629 26.1286H41.2486V27.4429H42.5629V26.1286Z" fill="#0F80F0"/>
<path d="M45.1914 28.7571H43.8771V30.0714H45.1914V28.7571Z" fill="#0F80F0"/>
<path d="M45.1914 26.1286H43.8771V27.4429H45.1914V26.1286Z" fill="#0F80F0"/>
<path d="M49.0029 52.1514C49.7287 52.1514 50.3171 51.563 50.3171 50.8371C50.3171 50.1113 49.7287 49.5229 49.0029 49.5229C48.277 49.5229 47.6886 50.1113 47.6886 50.8371C47.6886 51.563 48.277 52.1514 49.0029 52.1514Z" fill="#0F80F0"/>
<path d="M49.0029 26.8514C48.28 26.8514 47.6886 27.4429 47.6886 28.1657C47.6886 28.8886 48.28 29.48 49.0029 29.48C49.7257 29.48 50.3171 28.8229 50.3171 28.1657C50.3171 27.4429 49.7257 26.8514 49.0029 26.8514Z" fill="#0F80F0"/>
</g>
</g>
<defs>
<clipPath id="clip0_9001_41657">
<rect width="80" height="80" fill="white" transform="translate(0 0.5)"/>
</clipPath>
<clipPath id="clip1_9001_41657">
<rect width="80" height="80" fill="white" transform="translate(0 0.5)"/>
</clipPath>
</defs>
</svg>
