<svg width="54" height="54" viewBox="0 0 54 54" fill="none" xmlns="http://www.w3.org/2000/svg">
<g clip-path="url(#clip0_9001_41663)">
<path fill-rule="evenodd" clip-rule="evenodd" d="M14.7222 10.6295C14.7222 9.81546 15.0456 9.03472 15.6212 8.45909C16.1968 7.88345 16.9776 7.56006 17.7916 7.56006H36.2085C37.0226 7.56006 37.8033 7.88345 38.3789 8.45909C38.9546 9.03472 39.278 9.81546 39.278 10.6295V43.3706C39.278 44.1847 38.9546 44.9654 38.3789 45.541C37.8033 46.1167 37.0226 46.4401 36.2085 46.4401H17.7916C16.9776 46.4401 16.1968 46.1167 15.6212 45.541C15.0456 44.9654 14.7222 44.1847 14.7222 43.3706V10.6295ZM17.7916 9.60637C17.5203 9.60637 17.26 9.71417 17.0682 9.90605C16.8763 10.0979 16.7685 10.3582 16.7685 10.6295V43.3706C16.7685 43.6419 16.8763 43.9022 17.0682 44.0941C17.26 44.2859 17.5203 44.3937 17.7916 44.3937H36.2085C36.4798 44.3937 36.7401 44.2859 36.932 44.0941C37.1238 43.9022 37.2316 43.6419 37.2316 43.3706V10.6295C37.2316 10.3582 37.1238 10.0979 36.932 9.90605C36.7401 9.71417 36.4798 9.60637 36.2085 9.60637H17.7916Z" fill="#0F80F0"/>
<path fill-rule="evenodd" clip-rule="evenodd" d="M14.7222 10.6295C14.7222 9.81546 15.0456 9.03472 15.6212 8.45909C16.1968 7.88345 16.9776 7.56006 17.7916 7.56006H36.2085C37.0226 7.56006 37.8033 7.88345 38.3789 8.45909C38.9546 9.03472 39.278 9.81546 39.278 10.6295V43.3706C39.278 44.1847 38.9546 44.9654 38.3789 45.541C37.8033 46.1167 37.0226 46.4401 36.2085 46.4401H17.7916C16.9776 46.4401 16.1968 46.1167 15.6212 45.541C15.0456 44.9654 14.7222 44.1847 14.7222 43.3706V10.6295ZM17.7916 9.60637C17.5203 9.60637 17.26 9.71417 17.0682 9.90605C16.8763 10.0979 16.7685 10.3582 16.7685 10.6295V43.3706C16.7685 43.6419 16.8763 43.9022 17.0682 44.0941C17.26 44.2859 17.5203 44.3937 17.7916 44.3937H36.2085C36.4798 44.3937 36.7401 44.2859 36.932 44.0941C37.1238 43.9022 37.2316 43.6419 37.2316 43.3706V10.6295C37.2316 10.3582 37.1238 10.0979 36.932 9.90605C36.7401 9.71417 36.4798 9.60637 36.2085 9.60637H17.7916Z" fill="#0F80F0"/>
<path fill-rule="evenodd" clip-rule="evenodd" d="M23.0364 13.0986C23.0364 12.7809 23.1626 12.4763 23.3872 12.2517C23.6118 12.0271 23.9165 11.9009 24.2341 11.9009H29.7658C30.0834 11.9009 30.3881 12.0271 30.6127 12.2517C30.8373 12.4763 30.9635 12.7809 30.9635 13.0986C30.9635 13.4162 30.8373 13.7209 30.6127 13.9455C30.3881 14.1701 30.0834 14.2963 29.7658 14.2963H24.2341C23.9165 14.2963 23.6118 14.1701 23.3872 13.9455C23.1626 13.7209 23.0364 13.4162 23.0364 13.0986Z" fill="#0F80F0"/>
</g>
<defs>
<clipPath id="clip0_9001_41663">
<rect width="54" height="54" fill="white"/>
</clipPath>
</defs>
</svg>
