<svg width="30" height="30" viewBox="0 0 30 30" fill="none" xmlns="http://www.w3.org/2000/svg">
<g clip-path="url(#clip0_9001_9763)">
<path d="M15.1031 0C13.1338 0 11.1839 0.387872 9.36451 1.14147C7.54516 1.89507 5.89206 2.99964 4.49959 4.39211C1.68737 7.20432 0.107483 11.0185 0.107483 14.9956C0.107483 21.6236 4.41122 27.247 10.3645 29.2414C11.1142 29.3614 11.3542 28.8965 11.3542 28.4916V25.9574C7.2004 26.8571 6.31566 23.948 6.31566 23.948C5.62586 22.2085 4.65115 21.7436 4.65115 21.7436C3.28655 20.8139 4.75611 20.8439 4.75611 20.8439C6.25567 20.9488 7.05044 22.3884 7.05044 22.3884C8.35506 24.6677 10.5594 23.9929 11.4142 23.633C11.5491 22.6583 11.939 21.9985 12.3589 21.6236C9.02986 21.2487 5.53589 19.9591 5.53589 14.2458C5.53589 12.5813 6.10572 11.2467 7.08043 10.182C6.93048 9.80711 6.40563 8.24757 7.23039 6.22317C7.23039 6.22317 8.49002 5.81829 11.3542 7.75272C12.5388 7.42282 13.8284 7.25786 15.1031 7.25786C16.3777 7.25786 17.6673 7.42282 18.852 7.75272C21.7161 5.81829 22.9758 6.22317 22.9758 6.22317C23.8005 8.24757 23.2757 9.80711 23.1257 10.182C24.1004 11.2467 24.6703 12.5813 24.6703 14.2458C24.6703 19.9741 21.1613 21.2338 17.8173 21.6086C18.3571 22.0735 18.852 22.9882 18.852 24.3828V28.4916C18.852 28.8965 19.0919 29.3764 19.8567 29.2414C25.8099 27.232 30.0987 21.6236 30.0987 14.9956C30.0987 13.0263 29.7108 11.0764 28.9572 9.25702C28.2036 7.43768 27.099 5.78457 25.7066 4.39211C24.3141 2.99964 22.661 1.89507 20.8416 1.14147C19.0223 0.387872 17.0723 0 15.1031 0Z" fill="white"/>
</g>
<defs>
<clipPath id="clip0_9001_9763">
<rect width="29.9912" height="30" fill="white" transform="translate(0.0088501)"/>
</clipPath>
</defs>
</svg>
