<svg width="56" height="56" viewBox="0 0 56 56" fill="none" xmlns="http://www.w3.org/2000/svg">
<g clip-path="url(#clip0_9001_41428)">
<g clip-path="url(#clip1_9001_41428)">
<path d="M27.5707 7.63467V16.24C27.72 16.24 27.8693 16.2213 28 16.2213C28.1307 16.2213 28.2987 16.2213 28.4293 16.24V7.63467C30.3333 7.41067 31.8267 5.80533 31.8267 3.84533C31.8267 1.71733 30.1093 0 27.9813 0C25.8533 0 24.136 1.71733 24.136 3.84533C24.136 5.80533 25.6293 7.42933 27.5333 7.63467H27.5707Z" fill="#0F80F0"/>
<path d="M16.2587 28.4293C16.2587 28.28 16.24 28.1307 16.24 28C16.24 27.8693 16.24 27.7013 16.2587 27.5707H7.65334C7.42934 25.6667 5.82401 24.1733 3.86401 24.1733C1.73601 24.1733 0.0186768 25.8907 0.0186768 28.0187C0.0186768 30.1467 1.73601 31.864 3.86401 31.864C5.82401 31.864 7.44801 30.3707 7.65334 28.4667H16.2587V28.4293Z" fill="#0F80F0"/>
<path d="M28 17.1173C21.9893 17.1173 17.1173 22.008 17.1173 28C17.1173 33.992 22.008 38.8827 28 38.8827C33.992 38.8827 38.8827 33.992 38.8827 28C38.8827 22.008 33.992 17.1173 28 17.1173ZM23.9493 31.8827L19.7307 28L23.9493 24.1173L24.5467 24.752L21.0187 28L24.5467 31.248L23.9493 31.9013V31.8827ZM27.7387 32.2187L26.88 32.0693L28.28 23.7813L29.1387 23.9307L27.7387 32.2187ZM32.0507 31.8827L31.4533 31.2293L34.9627 28L31.4533 24.752L32.0507 24.1173L36.2693 28L32.0507 31.8827Z" fill="#0F80F0"/>
<path d="M35.9893 19.3947C36.1947 19.6 36.4 19.8053 36.6053 20.0107L42.6907 13.9253C43.3627 14.4667 44.184 14.7653 45.0613 14.7653C46.088 14.7653 47.0587 14.3733 47.7867 13.6453C48.5147 12.9173 48.9067 11.9467 48.9067 10.92C48.9067 9.89334 48.5147 8.92267 47.7867 8.19467C47.0587 7.46667 46.088 7.07467 45.0613 7.07467C44.0347 7.07467 43.064 7.46667 42.336 8.19467C40.936 9.59467 40.8613 11.7787 42.056 13.2907L35.952 19.376L35.9893 19.3947Z" fill="#0F80F0"/>
<path d="M10.92 14.7653C11.7973 14.7653 12.6187 14.4667 13.2907 13.9253L19.376 20.0107C19.5813 19.8053 19.7867 19.6 19.992 19.3947L13.9067 13.3093C15.1013 11.7973 15.0267 9.61333 13.6267 8.21333C12.8987 7.48533 11.928 7.09333 10.9013 7.09333C9.87467 7.09333 8.904 7.48533 8.176 8.21333C6.68267 9.70667 6.68267 12.152 8.176 13.6453C8.904 14.3733 9.87467 14.7653 10.9013 14.7653H10.92Z" fill="#0F80F0"/>
<path d="M52.1547 24.1547C50.176 24.1547 48.5707 25.648 48.3467 27.552H39.7413C39.7413 27.7013 39.76 27.8507 39.76 27.9813C39.76 28.112 39.76 28.28 39.7413 28.4107H48.3467C48.5707 30.3147 50.176 31.808 52.1547 31.808C54.264 31.808 56 30.0907 56 27.9627C56 25.8347 54.2827 24.1173 52.1547 24.1173V24.1547Z" fill="#0F80F0"/>
<path d="M45.08 41.2347C44.2027 41.2347 43.3813 41.552 42.7093 42.0747L36.624 35.9893C36.4187 36.1947 36.2133 36.4 36.008 36.6053L42.0933 42.6907C41.552 43.3627 41.2533 44.184 41.2533 45.0613C41.2533 46.088 41.6453 47.0587 42.3733 47.7867C43.1013 48.5147 44.072 48.9067 45.0987 48.9067C46.1253 48.9067 47.096 48.5147 47.824 47.7867C48.552 47.0587 48.944 46.088 48.944 45.0613C48.944 44.0347 48.552 43.064 47.824 42.336C47.096 41.608 46.144 41.216 45.1173 41.216L45.08 41.2347Z" fill="#0F80F0"/>
<path d="M28.4293 48.3653V39.76C28.28 39.76 28.1307 39.7787 28 39.7787C27.8693 39.7787 27.7013 39.7787 27.5707 39.76V48.3653C25.6667 48.5893 24.1733 50.1947 24.1733 52.1733C24.1733 54.2827 25.8907 56.0187 28.0187 56.0187C30.1467 56.0187 31.864 54.3013 31.864 52.1733C31.864 50.1947 30.3707 48.5893 28.4667 48.384L28.4293 48.3653Z" fill="#0F80F0"/>
<path d="M20.0107 36.6053C19.8053 36.4 19.6 36.1947 19.3947 35.9893L13.3093 42.0747C12.6373 41.5333 11.816 41.2347 10.9387 41.2347C9.91199 41.2347 8.94132 41.6267 8.21332 42.3547C7.48532 43.0827 7.09332 44.0533 7.09332 45.08C7.09332 46.1067 7.48532 47.0773 8.21332 47.8053C8.94132 48.5333 9.91199 48.9253 10.9387 48.9253C11.9653 48.9253 12.936 48.5333 13.664 47.8053C14.392 47.0773 14.784 46.1067 14.784 45.08C14.784 44.2027 14.4853 43.3813 13.944 42.7093L20.0293 36.624L20.0107 36.6053Z" fill="#0F80F0"/>
</g>
</g>
<defs>
<clipPath id="clip0_9001_41428">
<rect width="56" height="56" fill="white"/>
</clipPath>
<clipPath id="clip1_9001_41428">
<rect width="56" height="56" fill="white"/>
</clipPath>
</defs>
</svg>
