<svg width="135" height="43" viewBox="0 0 135 43" fill="none" xmlns="http://www.w3.org/2000/svg">
<g clip-path="url(#clip0_9013_9403)">
<g clip-path="url(#clip1_9013_9403)">
<path fill-rule="evenodd" clip-rule="evenodd" d="M15.5198 0.856033H31.0208C42.4846 0.856033 51.779 9.88424 51.779 21.6187C51.779 33.3531 42.2672 42.8605 30.5372 42.8605H15.5198V34.3336H28.5009C35.3641 34.3336 40.9762 28.7215 40.9762 21.8583C40.9762 14.995 35.3641 9.38292 28.5009 9.38292H15.5198V0.856033ZM66.1041 8.65534V19.7554H83.9032V27.5547H66.1041V42.856H56.3838V0.856033H88.1267V8.65534H66.1041ZM122.807 42.856L112.665 28.2734L102.705 42.856H91.5428L107.084 21.4945L92.3281 0.856033H103.366L113.029 14.476L122.509 0.856033H133.01L118.37 21.1351L134.031 42.856H122.811H122.807Z" fill="#072440"/>
<path d="M21.611 32.0533C27.4572 32.0533 32.1964 27.314 32.1964 21.4679C32.1964 15.6217 27.4572 10.8825 21.611 10.8825C15.7649 10.8825 11.0256 15.6217 11.0256 21.4679C11.0256 27.314 15.7649 32.0533 21.611 32.0533Z" fill="url(#paint0_linear_9013_9403)"/>
<path d="M11.9707 33.504C18.4024 33.504 23.6164 28.29 23.6164 21.8583C23.6164 15.4265 18.4024 10.2125 11.9707 10.2125C5.53892 10.2125 0.324951 15.4265 0.324951 21.8583C0.324951 28.29 5.53892 33.504 11.9707 33.504Z" fill="url(#paint1_linear_9013_9403)"/>
</g>
</g>
<defs>
<linearGradient id="paint0_linear_9013_9403" x1="30.4935" y1="16.8353" x2="11.6801" y2="26.5376" gradientUnits="userSpaceOnUse">
<stop offset="0.04" stop-color="#F5516C"/>
<stop offset="0.14" stop-color="#C74863"/>
<stop offset="0.31" stop-color="#853B57"/>
<stop offset="0.44" stop-color="#55324E"/>
<stop offset="0.55" stop-color="#382D49"/>
<stop offset="0.61" stop-color="#2D2B47"/>
</linearGradient>
<linearGradient id="paint1_linear_9013_9403" x1="19.0735" y1="13.3935" x2="4.10039" y2="31.2325" gradientUnits="userSpaceOnUse">
<stop offset="0.2" stop-color="#F5516C"/>
<stop offset="1" stop-color="#6B3753"/>
</linearGradient>
<clipPath id="clip0_9013_9403">
<rect width="135" height="43" fill="white"/>
</clipPath>
<clipPath id="clip1_9013_9403">
<rect width="135" height="43" fill="white"/>
</clipPath>
</defs>
</svg>
