<svg width="255" height="30" viewBox="0 0 255 30" fill="none" xmlns="http://www.w3.org/2000/svg">
<g clip-path="url(#clip0_4366_3749)">
<path d="M97.934 10.3309C93.3934 10.3309 90.5431 13.2111 90.5431 17.8673C90.5431 22.5235 93.3934 25.1726 97.934 25.1726C101.863 25.1726 104.482 23.2211 104.597 20.0242H101.657C101.512 21.7104 100.087 22.6434 97.9896 22.6434C95.546 22.6434 94.0011 21.1583 93.8299 18.3937H104.597V17.2297C104.597 12.7489 102.008 10.3309 97.934 10.3309ZM101.657 16.4123H93.9155C94.2921 14.0242 95.7215 12.8602 97.9597 12.8602C100.318 12.8602 101.657 14.0542 101.657 16.2068V16.4123ZM69.6801 10.3309C65.576 10.3309 63.0767 12.0471 63.0767 14.9272C63.0767 15.1883 63.1066 15.5692 63.1366 15.7703H66.1323C66.1023 15.5392 66.1023 15.3038 66.1023 15.2183C66.1023 13.6177 67.352 12.7746 69.5645 12.7746C72.0981 12.7746 73.3477 13.7332 73.3477 15.8902V16.9087H68.0239C64.1851 16.9087 62.6401 18.6248 62.6401 20.8074C62.6401 23.602 64.8227 25.1726 68.1095 25.1726C71.3962 25.1726 72.9968 23.893 73.4633 21.766H73.4932C73.4932 22.9301 73.4076 24.2397 73.3477 24.9372H76.6088V16.1769C76.6088 12.3937 74.0496 10.3267 69.6844 10.3267L69.6801 10.3309ZM73.3434 19.1469C73.3434 21.3595 71.5974 22.7247 68.7771 22.7247C66.7999 22.7247 65.6359 21.9672 65.6359 20.6576C65.6359 19.5235 66.449 18.8816 68.3106 18.8816H73.3434V19.1426V19.1469ZM29.9868 8.43081C29.9739 7.88302 29.9397 7.15976 29.807 6.41939C29.6615 5.61911 29.4262 4.90014 29.0795 4.21968C28.72 3.51354 28.2535 2.8716 27.6929 2.31098C27.1323 1.75035 26.4904 1.28387 25.7842 0.924387C25.1038 0.577739 24.3848 0.338081 23.5845 0.196854C22.8441 0.0641869 22.1209 0.0299501 21.5731 0.0171113C21.2992 0.00855206 21.0253 0.00855206 20.7514 0.00427246C20.4818 0.00427246 20.2165 0.00427246 19.9468 0.00427246H10.0567C9.78707 0.00427246 9.52174 0.00427246 9.25212 0.00427246C8.97823 0.00427246 8.70433 0.00855206 8.43044 0.0171113C7.88265 0.0299501 7.1594 0.0641869 6.41903 0.196854C5.61874 0.342361 4.90405 0.577739 4.21931 0.924387C3.51318 1.28387 2.87124 1.75035 2.31061 2.31098C1.74998 2.8716 1.28351 3.51354 0.92402 4.21968C0.577373 4.90014 0.337715 5.61911 0.196488 6.41939C0.0638207 7.15976 0.0295839 7.88302 0.0167451 8.43081C0.00818585 8.7047 0.00818585 8.9786 0.00390625 9.25249C0.00390625 9.5435 0.00390625 9.83879 0.00390625 10.1298V19.8702C0.00390625 20.1612 0.00390625 20.4565 0.00390625 20.7475C0.00390625 21.0214 0.00818585 21.2953 0.0167451 21.5692C0.0295839 22.117 0.0638207 22.8402 0.196488 23.5806C0.341995 24.3809 0.577373 25.0999 0.92402 25.7803C1.28351 26.4864 1.74998 27.1284 2.31061 27.689C2.87124 28.2496 3.51318 28.7161 4.21931 29.0756C4.89977 29.4222 5.61874 29.6619 6.41903 29.8031C7.1594 29.9358 7.88265 29.97 8.43044 29.9829C8.70433 29.9914 8.97823 29.9914 9.25212 29.9957C9.52602 29.9957 9.79991 29.9957 10.0738 29.9957H19.9297C20.2036 29.9957 20.4775 29.9957 20.7514 29.9957C21.0253 29.9957 21.2992 29.9914 21.5731 29.9829C22.1209 29.97 22.8441 29.9358 23.5845 29.8031C24.3848 29.6576 25.0995 29.4222 25.7842 29.0756C26.4904 28.7161 27.1323 28.2496 27.6929 27.689C28.2535 27.1284 28.72 26.4864 29.0795 25.7803C29.4262 25.0999 29.6658 24.3809 29.807 23.5806C29.9397 22.8402 29.9739 22.117 29.9868 21.5692C29.9953 21.2953 29.9953 21.0214 29.9996 20.7475C29.9996 20.4522 29.9996 20.1612 29.9996 19.8702V10.1298C29.9996 9.83879 29.9996 9.5435 29.9996 9.25249C29.9996 8.9786 29.9953 8.7047 29.9868 8.43081ZM27.8598 19.8145C27.8598 20.1227 27.8598 20.4308 27.8598 20.7347C27.8598 20.9914 27.8555 21.2525 27.847 21.5093C27.8299 22.0742 27.7999 22.6391 27.6972 23.1997C27.5945 23.7646 27.4276 24.291 27.1665 24.8046C26.9098 25.3096 26.5717 25.7717 26.1737 26.174C25.7714 26.5763 25.3092 26.9101 24.8042 27.1669C24.2906 27.428 23.7642 27.5949 23.1993 27.6976C22.643 27.796 22.0738 27.8302 21.5089 27.8474C21.2521 27.8559 20.9911 27.8559 20.7343 27.8602C20.4647 27.8602 20.1951 27.8602 19.9254 27.8602H10.0695C9.79991 27.8602 9.5303 27.8602 9.26068 27.8602C9.00391 27.8602 8.74285 27.8559 8.48607 27.8474C7.92117 27.8302 7.35198 27.8003 6.79563 27.6976C6.23073 27.5949 5.70433 27.428 5.19078 27.1669C4.68579 26.9101 4.22359 26.572 3.82131 26.174C3.41903 25.7717 3.08522 25.3096 2.82844 24.8046C2.56739 24.291 2.40048 23.7646 2.29777 23.1997C2.19934 22.6434 2.1651 22.0742 2.14799 21.5093C2.13943 21.2525 2.13943 20.9914 2.13515 20.7347C2.13515 20.4265 2.13515 20.1184 2.13515 19.8145V10.1854C2.13515 9.87731 2.13515 9.56918 2.13515 9.26533C2.13515 9.00855 2.13943 8.7475 2.14799 8.49072C2.1651 7.92581 2.19506 7.36091 2.29777 6.80028C2.40048 6.23537 2.56739 5.70898 2.82844 5.19543C3.08522 4.69044 3.42331 4.22824 3.82131 3.82596C4.22359 3.42367 4.68579 3.08986 5.19078 2.83309C5.70433 2.57203 6.23073 2.40513 6.79563 2.30242C7.35198 2.20399 7.92117 2.16975 8.48607 2.15263C8.74285 2.14407 9.00391 2.14407 9.26068 2.13979C9.52602 2.13979 9.78707 2.13979 10.0524 2.13979H19.9426C20.2079 2.13979 20.469 2.13979 20.7343 2.13979C20.9911 2.13979 21.2521 2.14407 21.5089 2.15263C22.0738 2.16975 22.643 2.19971 23.1993 2.30242C23.7642 2.40513 24.2906 2.57203 24.8042 2.83309C25.3092 3.08986 25.7714 3.42795 26.1737 3.82596C26.5759 4.22824 26.9098 4.69044 27.1665 5.19543C27.4276 5.70898 27.5945 6.23537 27.6972 6.80028C27.7956 7.35663 27.8299 7.92581 27.847 8.49072C27.8555 8.7475 27.8555 9.00855 27.8598 9.26533C27.8598 9.57346 27.8598 9.88159 27.8598 10.1854V19.8145ZM20.867 12.5435H17.7899C17.3363 12.5435 17.0453 12.0642 17.255 11.6619L20.0196 6.3766C20.1865 6.05563 19.9554 5.67474 19.5959 5.67474H11.7985C11.5717 5.67474 11.3748 5.83309 11.3277 6.05563L9.33772 15.6505C9.2778 15.9501 9.50462 16.2282 9.80847 16.2282H12.5945C12.8983 16.2282 13.1252 16.5064 13.0652 16.806L11.409 24.8003L21.235 13.3352C21.5003 13.0228 21.2821 12.5435 20.8712 12.5435H20.867ZM85.0738 24.9372H88.3349V4.77175H85.0738V24.9372ZM59.6958 5.79029L55.3905 20.602H55.3049L51.1152 5.90584H47.623L43.3734 20.602H43.2878L38.9226 5.79029H35.1694L41.1651 24.9372H44.9483L49.138 10.8231H49.2236L53.2978 24.9372H57.1409L63.1623 5.79029H59.7001H59.6958ZM79.0781 24.9372H82.3391V4.77175H79.0781V24.9372ZM110.884 7.30099H108.179L108.034 9.45363C107.948 10.2668 107.743 10.5578 107.191 10.5578H105.359V13.2068H107.627V19.8103C107.627 22.9814 109.168 25.1084 113.097 25.1084C114.291 25.1084 115.279 24.903 115.716 24.7575V22.1683C115.309 22.2839 114.376 22.4294 113.563 22.4294C111.586 22.4294 110.888 21.4964 110.888 19.6348V13.2026H115.836V10.5535H110.888V7.29243L110.884 7.30099ZM208.433 10.3309C203.867 10.3309 200.927 13.1812 200.927 17.7817C200.927 22.3823 203.867 25.1726 208.433 25.1726C213 25.1726 215.97 22.3523 215.97 17.7817C215.97 13.2111 213.03 10.3309 208.433 10.3309ZM208.433 22.4936C205.784 22.4936 204.184 20.6876 204.184 17.7775C204.184 14.8673 205.784 13.0057 208.433 13.0057C211.082 13.0057 212.713 14.8374 212.713 17.7775C212.713 20.7175 211.082 22.4936 208.433 22.4936ZM242.567 10.3309C239.191 10.3309 237.329 11.816 236.572 14.4351H236.542C236.572 13.6476 236.627 11.9914 236.627 11.2939V4.77603H233.366V24.9415H236.627V18.1327C236.627 14.9016 238.433 13.1255 241.313 13.1255C243.903 13.1255 245.182 14.4051 245.182 16.6776V24.9415H248.443V15.9501C248.443 12.398 246.201 10.3352 242.563 10.3352L242.567 10.3309ZM229.673 17.7518C228.654 17.1698 227.49 16.9643 225.453 16.7632C223.707 16.5877 222.338 16.4422 221.64 16.2111C220.797 15.9201 220.652 15.3381 220.652 14.7261C220.652 13.5021 221.931 12.689 224.199 12.689C226.587 12.689 227.606 13.592 227.632 15.4536H230.572C230.572 12.1926 228.594 10.3309 224.114 10.3309C220.215 10.3309 217.42 12.077 217.42 14.9572C217.42 16.0613 217.887 17.1098 218.67 17.6919C219.543 18.3338 221.058 18.6248 223.296 18.826C224.897 18.9715 226.266 19.117 226.964 19.378C227.721 19.6391 227.923 20.1355 227.923 20.6876C227.923 21.9971 226.759 22.8103 224.109 22.8103C221.315 22.8103 220.356 21.7917 220.356 20.1312H217.416C217.416 22.9558 219.192 25.164 224.139 25.164C228.736 25.164 231.179 23.4479 231.179 20.5378C231.179 19.3737 230.627 18.2696 229.664 17.7432L229.673 17.7518ZM250.921 5.67474V8.87588H254.268V5.67474H250.921ZM250.947 24.9372H254.208V10.562H250.947V24.9372ZM181.63 10.3309C177.526 10.3309 175.027 12.0471 175.027 14.9272C175.027 15.1883 175.057 15.5692 175.087 15.7703H178.082C178.052 15.5392 178.052 15.3038 178.052 15.2183C178.052 13.6177 179.302 12.7746 181.515 12.7746C184.048 12.7746 185.298 13.7332 185.298 15.8902V16.9087H179.974C176.131 16.9087 174.59 18.6248 174.59 20.8074C174.59 23.602 176.773 25.1726 180.06 25.1726C183.346 25.1726 184.947 23.893 185.413 21.766H185.443C185.443 22.9301 185.358 24.2397 185.298 24.9372H188.559V16.1769C188.559 12.3937 186 10.3267 181.634 10.3267L181.63 10.3309ZM185.293 19.1469C185.293 21.3595 183.547 22.7247 180.727 22.7247C178.75 22.7247 177.586 21.9672 177.586 20.6576C177.586 19.5235 178.399 18.8816 180.261 18.8816H185.293V19.1426V19.1469ZM170.803 15.4793C169.609 14.8374 167.747 14.5207 165.74 14.1997C164.08 13.9686 161.927 13.6177 161.084 13.2111C160.326 12.8602 159.95 12.2225 159.95 11.1441C159.95 9.398 161.666 8.20399 164.546 8.20399C167.426 8.20399 169.087 9.5435 169.087 12.3638H172.228C172.228 7.99857 170.161 5.495 164.486 5.495C159.483 5.495 156.483 7.93865 156.483 11.4308C156.483 13.2368 157.211 14.5464 158.375 15.2739C159.423 15.9415 161.46 16.378 163.378 16.6434C165.038 16.8745 167.101 17.1398 168.064 17.5164C168.967 17.8374 169.403 18.4494 169.403 19.4936C169.403 21.0642 168.415 22.5193 164.516 22.5193C160.848 22.5193 159.684 20.8331 159.684 18.3894H156.543C156.543 21.8816 158.204 25.2282 164.546 25.2282C170.888 25.2282 172.87 22.3481 172.87 19.2625C172.87 17.4864 172.112 16.1469 170.803 15.4793ZM195.132 7.30099H192.428L192.282 9.45363C192.196 10.2668 191.991 10.5578 191.439 10.5578H189.607V13.2068H191.876V19.8103C191.876 22.9814 193.416 25.1084 197.345 25.1084C198.539 25.1084 199.527 24.903 199.964 24.7575V22.1683C199.557 22.2839 198.624 22.4294 197.811 22.4294C195.834 22.4294 195.132 21.4964 195.132 19.6348V13.2026H200.08V10.5535H195.132V7.29243V7.30099ZM144.235 9.28245C144.235 7.71183 145.138 6.83879 146.794 6.83879C147.783 6.83879 148.54 7.04422 149.007 7.18972V4.60056C148.54 4.4251 147.492 4.194 146.212 4.194C143.097 4.194 140.974 5.94008 140.974 9.14122V10.5663H138.676V13.2154H140.974V24.9415H144.235V13.2154H149.238V10.5663H144.235V9.28673V9.28245ZM130.733 10.3309C126.167 10.3309 123.226 13.1812 123.226 17.7817C123.226 22.3823 126.167 25.1726 130.733 25.1726C135.299 25.1726 138.269 22.3523 138.269 17.7817C138.269 13.2111 135.329 10.3309 130.733 10.3309ZM130.733 22.4936C128.084 22.4936 126.483 20.6876 126.483 17.7775C126.483 14.8673 128.084 13.0057 130.733 13.0057C133.382 13.0057 135.012 14.8374 135.012 17.7775C135.012 20.7175 133.382 22.4936 130.733 22.4936Z" fill="#DFAB29"/>
</g>
<defs>
<clipPath id="clip0_4366_3749">
<rect width="254.264" height="30" fill="white"/>
</clipPath>
</defs>
</svg>
