<svg width="52" height="52" viewBox="0 0 52 52" fill="none" xmlns="http://www.w3.org/2000/svg">
<path d="M0 6C0 2.68629 2.68629 0 6 0H46C49.3137 0 52 2.68629 52 6V46C52 49.3137 49.3137 52 46 52H6C2.68629 52 0 49.3137 0 46V6Z" fill="#070606"/>
<path d="M6 0.5H46C49.0376 0.5 51.5 2.96243 51.5 6V46C51.5 49.0376 49.0376 51.5 46 51.5H6C2.96244 51.5 0.5 49.0376 0.5 46V6C0.5 2.96244 2.96243 0.5 6 0.5Z" stroke="#DFAB29" stroke-opacity="0.4"/>
<g clip-path="url(#clip0_4219_620)">
<path d="M35.5699 21.337H30.244C29.4588 21.337 28.9551 20.5074 29.3181 19.8111L34.1032 10.6629C34.3921 10.1074 33.9921 9.44812 33.3699 9.44812H19.8736C19.481 9.44812 19.1403 9.72219 19.0588 10.1074L15.6143 26.7148C15.5106 27.2333 15.9032 27.7148 16.4292 27.7148H21.2514C21.7773 27.7148 22.1699 28.1963 22.0662 28.7148L19.1995 42.5518L36.2069 22.7074C36.6662 22.1666 36.2884 21.337 35.5773 21.337H35.5699Z" fill="#DFAB29"/>
</g>
<defs>
<clipPath id="clip0_4219_620">
<rect width="20.8" height="33.1037" fill="white" transform="translate(15.5996 9.44812)"/>
</clipPath>
</defs>
</svg>
