<svg width="147" height="38" viewBox="0 0 147 38" fill="none" xmlns="http://www.w3.org/2000/svg">
<g clip-path="url(#clip0_4363_3730)">
<path d="M18.7058 38C22.9796 38 26.4173 35.8785 29.0187 31.0163L34.7791 20.2388V29.3749C34.7791 34.7636 38.2632 37.9845 43.652 37.9845C47.8794 37.9845 50.9918 36.1418 54.0114 31.0008L67.282 8.59411C70.1932 3.68539 68.1337 -0.0155029 61.7384 -0.0155029C58.3007 -0.0155029 56.0864 1.09941 54.0733 4.84676L44.9372 22.0195V6.76689C44.9372 2.21433 42.7694 -1.80081e-05 38.7588 -1.80081e-05C35.5844 -1.80081e-05 33.0448 1.37814 31.0937 5.17195L22.4841 22.035V6.92174C22.4841 2.05948 20.4711 -1.80081e-05 15.6088 -1.80081e-05H5.652C1.90465 -1.80081e-05 0 1.74978 0 4.97064C0 8.19151 2.01304 10.0497 5.652 10.0497H9.72453V29.3439C9.72453 34.7946 13.379 38.0155 18.7058 38.0155V38Z" fill="#873EFF"/>
<path fill-rule="evenodd" clip-rule="evenodd" d="M86.6862 0C75.8468 0 67.5469 8.08313 67.5469 19.031C67.5469 29.9788 75.8932 38 86.6862 38C97.4792 38 105.717 29.9169 105.764 19.031C105.764 8.08313 97.4637 0 86.6862 0ZM86.6862 26.3244C82.6137 26.3244 79.8109 23.2584 79.8109 19.031C79.8109 14.8036 82.6137 11.6911 86.6862 11.6911C90.7588 11.6911 93.5615 14.8036 93.5615 19.031C93.5615 23.2584 90.8207 26.3244 86.6862 26.3244Z" fill="#873EFF"/>
<path fill-rule="evenodd" clip-rule="evenodd" d="M108.453 19.031C108.453 8.08313 116.753 0 127.531 0C138.308 0 146.608 8.14507 146.608 19.031C146.608 29.9169 138.308 38 127.531 38C116.753 38 108.453 29.9633 108.453 19.031ZM120.717 19.031C120.717 23.2584 123.412 26.3244 127.531 26.3244C131.65 26.3244 134.406 23.2584 134.406 19.031C134.406 14.8036 131.603 11.6911 127.531 11.6911C123.458 11.6911 120.717 14.8036 120.717 19.031Z" fill="#873EFF"/>
</g>
<defs>
<clipPath id="clip0_4363_3730">
<rect width="146.611" height="38" fill="white"/>
</clipPath>
</defs>
</svg>
