<svg width="474" height="129" viewBox="0 0 474 129" fill="none" xmlns="http://www.w3.org/2000/svg">
<g clip-path="url(#clip0_4021_8622)">
<path fill-rule="evenodd" clip-rule="evenodd" d="M44.0468 66.8663L105.78 128.6H105.762H63.9865C63.1376 128.6 62.3248 128.256 61.7288 127.66L0.934669 66.8663C-0.311556 65.602 -0.311556 63.5791 0.934669 62.3329L61.7469 1.53879C62.3429 0.942773 63.1556 0.599609 64.0045 0.599609H105.78L44.0468 62.3329C42.8006 63.5972 42.8006 65.6201 44.0468 66.8663ZM119.263 115.099L119.254 115.108H119.272L119.263 115.099ZM167.513 66.8484L119.263 115.099L97.7248 93.561L124.419 66.8665C125.666 65.6022 125.666 63.5793 124.419 62.3331L88.2788 26.1926L109.826 4.64551L167.513 62.315C168.76 63.5793 168.76 65.6022 167.513 66.8484Z" fill="#2231EF"/>
<path fill-rule="evenodd" clip-rule="evenodd" d="M194.515 50.5568C192.42 49.455 190.812 47.9017 189.674 45.8789C188.536 43.856 187.977 41.5442 187.977 38.9073V26.5895C187.977 23.9887 188.555 21.6949 189.71 19.6901C190.866 17.6853 192.474 16.1501 194.551 15.0484C196.628 13.9466 199.012 13.4048 201.703 13.4048C204.394 13.4048 206.851 13.9466 208.928 15.0484C211.005 16.1501 212.612 17.7034 213.768 19.6901C214.924 21.6768 215.502 23.9887 215.502 26.5895V38.9073C215.502 41.5442 214.924 43.856 213.768 45.8789C212.612 47.9017 211.005 49.455 208.928 50.5568C206.851 51.6585 204.448 52.2003 201.703 52.2003C198.958 52.2003 196.61 51.6585 194.515 50.5568ZM207.176 44.6868C208.548 43.2781 209.235 41.4178 209.235 39.124V26.5353C209.235 24.1873 208.548 22.327 207.176 20.9183C205.803 19.5095 203.979 18.8051 201.721 18.8051C199.464 18.8051 197.693 19.5095 196.321 20.9183C194.948 22.327 194.262 24.2054 194.262 26.5353V39.124C194.262 41.4358 194.948 43.2781 196.321 44.6868C197.693 46.0956 199.5 46.8 201.721 46.8C203.943 46.8 205.803 46.0956 207.176 44.6868ZM243.876 15.1744C245.61 16.1136 246.946 17.4321 247.904 19.1479C248.861 20.8637 249.331 22.8324 249.331 25.072C249.331 27.3116 248.843 29.208 247.868 30.9057C246.892 32.6035 245.52 33.9039 243.732 34.825C241.944 35.7462 239.885 36.1977 237.537 36.1977H228.885C228.705 36.1977 228.614 36.288 228.614 36.4686V51.0079C228.614 51.1885 228.56 51.333 228.434 51.4594C228.307 51.5859 228.163 51.64 227.982 51.64H223.015C222.835 51.64 222.69 51.5859 222.564 51.4594C222.437 51.333 222.383 51.1885 222.383 51.0079V14.4158C222.383 14.2352 222.437 14.0907 222.564 13.9643C222.69 13.8379 222.835 13.7837 223.015 13.7837H237.88C240.155 13.7837 242.142 14.2533 243.876 15.1925V15.1744ZM241.384 29.497C242.503 28.4133 243.063 26.9865 243.063 25.2345C243.063 23.4826 242.503 21.9654 241.384 20.8637C240.264 19.7439 238.783 19.184 236.959 19.184H228.903C228.723 19.184 228.632 19.2743 228.632 19.4549V30.8516C228.632 31.0322 228.723 31.1225 228.903 31.1225H236.959C238.801 31.1225 240.282 30.5806 241.384 29.497ZM279.926 19.2201C280.107 19.2201 280.251 19.166 280.378 19.0395C280.504 18.9131 280.558 18.7686 280.558 18.588V14.4881C280.558 14.3075 280.504 14.163 280.378 14.0366C280.251 13.9101 280.107 13.856 279.926 13.856H255.598C255.417 13.856 255.273 13.9101 255.146 14.0366C255.02 14.163 254.948 14.3075 254.948 14.4881V50.9537C254.948 51.1343 255.02 51.2788 255.146 51.4053C255.273 51.5317 255.417 51.5859 255.598 51.5859H279.926C280.107 51.5859 280.251 51.5317 280.378 51.4053C280.504 51.2788 280.558 51.1343 280.558 50.9537V46.8538C280.558 46.6732 280.504 46.5287 280.378 46.4023C280.251 46.2759 280.107 46.2217 279.926 46.2217H261.504C261.323 46.2217 261.233 46.1314 261.233 45.9508V35.5114C261.233 35.3308 261.323 35.2405 261.504 35.2405H273.876C274.038 35.2405 274.201 35.1863 274.327 35.0598C274.454 34.9334 274.508 34.7889 274.508 34.6083V30.5084C274.508 30.3278 274.454 30.1833 274.327 30.0569C274.201 29.9305 274.056 29.8763 273.876 29.8763H261.504C261.323 29.8763 261.233 29.786 261.233 29.6054V19.4911C261.233 19.3105 261.323 19.2201 261.504 19.2201H279.926ZM308.806 14.019C308.933 13.8926 309.077 13.8384 309.258 13.8384H314.225C314.405 13.8384 314.55 13.8926 314.676 14.019C314.803 14.1454 314.857 14.2899 314.857 14.4705V51.0084C314.857 51.189 314.803 51.3335 314.676 51.4599C314.55 51.5864 314.405 51.6406 314.225 51.6406H309.42C309.059 51.6406 308.806 51.4961 308.662 51.2071L293.093 25.7046C293.021 25.5962 292.948 25.5601 292.876 25.5782C292.804 25.5962 292.768 25.6866 292.768 25.813L292.876 51.0084C292.876 51.189 292.804 51.3335 292.678 51.4599C292.551 51.5864 292.407 51.6406 292.226 51.6406H287.259C287.079 51.6406 286.934 51.5864 286.808 51.4599C286.681 51.3335 286.609 51.189 286.609 51.0084V14.4886C286.609 14.308 286.681 14.1635 286.808 14.0371C286.934 13.9106 287.079 13.8564 287.259 13.8564H292.063C292.425 13.8564 292.678 14.0009 292.822 14.2899L308.337 39.7924C308.409 39.9007 308.481 39.9369 308.553 39.9188C308.626 39.9007 308.662 39.8285 308.662 39.684L308.608 14.4886C308.608 14.308 308.662 14.1635 308.806 14.0371V14.019ZM189.656 109.635C190.776 111.549 192.347 113.03 194.406 114.096C196.465 115.161 198.867 115.685 201.541 115.685C204.214 115.685 206.562 115.18 208.621 114.168C210.661 113.157 212.251 111.73 213.371 109.869C214.49 108.009 215.05 105.86 215.05 103.404C215.05 103.259 214.978 103.133 214.852 103.024C214.725 102.916 214.581 102.862 214.4 102.862L209.433 102.645C209 102.645 208.783 102.844 208.783 103.241C208.783 105.372 208.133 107.07 206.814 108.352C205.496 109.635 203.726 110.267 201.541 110.267C199.355 110.267 197.585 109.617 196.249 108.316C194.912 107.016 194.244 105.336 194.244 103.241V89.4603C194.244 87.3471 194.912 85.6313 196.249 84.3309C197.585 83.0305 199.337 82.3803 201.541 82.3803C203.744 82.3803 205.496 83.0305 206.814 84.3309C208.133 85.6313 208.783 87.3291 208.783 89.4603C208.783 89.8577 209 90.0563 209.433 90.0563L214.4 89.7854C214.581 89.7854 214.725 89.7312 214.852 89.6048C214.978 89.4784 215.05 89.3339 215.05 89.1533C215.05 86.7331 214.49 84.6199 213.371 82.7776C212.251 80.9535 210.68 79.5266 208.621 78.5152C206.562 77.5038 204.25 76.998 201.541 76.998C198.831 76.998 196.465 77.5218 194.406 78.5694C192.365 79.5989 190.776 81.0799 189.656 82.9944C188.536 84.9089 187.977 87.1123 187.977 89.6409V102.988C187.977 105.517 188.536 107.72 189.656 109.635ZM241.059 114.765L233.924 99.1959C233.852 99.0514 233.744 98.9792 233.599 98.9792H227.115C226.935 98.9792 226.844 99.0695 226.844 99.2501V114.602C226.844 114.783 226.772 114.927 226.646 115.054C226.519 115.18 226.375 115.234 226.194 115.234H221.227C221.047 115.234 220.902 115.18 220.776 115.054C220.649 114.927 220.577 114.783 220.577 114.602V78.0643C220.577 77.8837 220.649 77.7392 220.776 77.6127C220.902 77.4863 221.047 77.4321 221.227 77.4321H236.092C238.295 77.4321 240.228 77.8837 241.925 78.8048C243.623 79.7259 244.924 81.0263 245.863 82.688C246.802 84.3676 247.272 86.2821 247.272 88.4495C247.272 90.9419 246.639 93.0551 245.357 94.807C244.075 96.559 242.305 97.7691 240.029 98.4554C239.957 98.4554 239.903 98.4915 239.866 98.5638C239.83 98.636 239.83 98.7083 239.866 98.7805L247.488 114.512C247.561 114.656 247.597 114.765 247.597 114.837C247.597 115.126 247.398 115.27 247.001 115.27H241.817C241.456 115.27 241.203 115.108 241.059 114.783V114.765ZM226.844 83.0853V93.8317C226.844 94.0123 226.935 94.1027 227.115 94.1027H235.225C236.959 94.1027 238.349 93.5969 239.415 92.5674C240.481 91.5379 241.004 90.1834 241.004 88.4856C241.004 86.7878 240.463 85.4152 239.415 84.3857C238.349 83.3382 236.959 82.8144 235.225 82.8144H227.115C226.935 82.8144 226.844 82.9047 226.844 83.0853ZM261.107 114.566C261.107 114.747 261.179 114.891 261.305 115.018H261.323C261.45 115.144 261.594 115.198 261.775 115.198H266.742C266.922 115.198 267.067 115.144 267.193 115.018C267.32 114.891 267.392 114.747 267.392 114.566V100.081C267.392 100.009 267.428 99.9003 267.5 99.7558L278.68 78.1907C278.788 77.974 278.788 77.7934 278.698 77.6489C278.608 77.5044 278.445 77.4321 278.192 77.4321H272.792C272.467 77.4321 272.214 77.5947 272.034 77.9198L264.412 93.0009C264.303 93.1454 264.195 93.1454 264.087 93.0009L256.519 77.9198C256.374 77.5947 256.122 77.4321 255.76 77.4321H250.414C250.017 77.4321 249.818 77.5766 249.818 77.8656C249.818 77.9378 249.854 78.0462 249.927 78.1907L261.052 99.7558C261.106 99.8281 261.107 99.9364 261.107 100.081V114.566ZM305.537 78.7682C307.271 79.7073 308.608 81.0258 309.565 82.7416C310.522 84.4575 310.992 86.4261 310.992 88.6657C310.992 90.9053 310.504 92.8017 309.529 94.4995C308.553 96.1973 307.181 97.4977 305.393 98.4188C303.605 99.3399 301.546 99.7914 299.198 99.7914H290.546C290.366 99.7914 290.275 99.8817 290.275 100.062V114.602C290.275 114.782 290.221 114.927 290.095 115.053C289.968 115.18 289.824 115.234 289.643 115.234H284.676C284.496 115.234 284.351 115.18 284.225 115.053C284.098 114.927 284.044 114.782 284.044 114.602V78.0096C284.044 77.829 284.098 77.6845 284.225 77.5581C284.351 77.4316 284.496 77.3774 284.676 77.3774H299.541C301.817 77.3774 303.803 77.847 305.537 78.7862V78.7682ZM303.045 93.0907C304.165 92.007 304.724 90.5802 304.724 88.8283C304.724 87.0763 304.165 85.5592 303.045 84.4575C301.925 83.3377 300.444 82.7778 298.62 82.7778H290.564C290.384 82.7778 290.293 82.8681 290.293 83.0487V94.4453C290.293 94.6259 290.384 94.7162 290.564 94.7162H298.62C300.462 94.7162 301.943 94.1744 303.045 93.0907ZM342.382 78.0643C342.382 77.8837 342.328 77.7392 342.201 77.6127H342.183C342.057 77.4863 341.912 77.4321 341.732 77.4321H315.417C315.236 77.4321 315.091 77.4863 314.965 77.6127C314.839 77.7392 314.784 77.8837 314.784 78.0643V82.2184C314.784 82.399 314.839 82.5435 314.965 82.6699C315.091 82.7963 315.236 82.8505 315.417 82.8505H324.989C325.17 82.8505 325.26 82.9408 325.26 83.1214V114.584C325.26 114.765 325.332 114.909 325.459 115.036C325.585 115.162 325.73 115.216 325.91 115.216H330.877C331.058 115.216 331.202 115.162 331.329 115.036C331.455 114.909 331.527 114.765 331.527 114.584V83.1214C331.527 82.9408 331.618 82.8505 331.798 82.8505H341.75C341.912 82.8505 342.075 82.7963 342.201 82.6699C342.31 82.5435 342.382 82.399 342.382 82.2184V78.0643ZM352.027 114.15C349.932 113.048 348.324 111.495 347.186 109.472C346.048 107.449 345.489 105.137 345.489 102.501V90.1827C345.489 87.5819 346.066 85.2882 347.222 83.2834C348.378 81.2786 349.986 79.7434 352.063 78.6416C354.14 77.5399 356.524 76.998 359.215 76.998C361.906 76.998 364.363 77.5399 366.44 78.6416C368.517 79.7434 370.124 81.2966 371.28 83.2834C372.436 85.2701 373.014 87.5819 373.014 90.1827V102.501C373.014 105.137 372.436 107.449 371.28 109.472C370.124 111.495 368.517 113.048 366.44 114.15C364.363 115.252 361.96 115.794 359.215 115.794C356.47 115.794 354.122 115.252 352.027 114.15ZM364.67 108.28C366.042 106.871 366.729 105.011 366.729 102.717V90.1286C366.729 87.7806 366.042 85.9203 364.67 84.5115C363.297 83.1027 361.473 82.3984 359.215 82.3984C356.957 82.3984 355.187 83.1027 353.815 84.5115C352.442 85.9203 351.756 87.7987 351.756 90.1286V102.717C351.756 105.029 352.442 106.871 353.815 108.28C355.187 109.689 356.994 110.393 359.215 110.393C361.437 110.393 363.297 109.689 364.67 108.28ZM416.09 82.7416C415.133 81.0258 413.796 79.7073 412.062 78.7682V78.7862C410.328 77.847 408.342 77.3774 406.066 77.3774H391.202C391.021 77.3774 390.877 77.4316 390.75 77.5581C390.624 77.6845 390.569 77.829 390.569 78.0096V114.602C390.569 114.782 390.624 114.927 390.75 115.053C390.877 115.18 391.021 115.234 391.202 115.234H396.168C396.349 115.234 396.494 115.18 396.62 115.053C396.746 114.927 396.801 114.782 396.801 114.602V100.062C396.801 99.8817 396.891 99.7914 397.072 99.7914H405.723C408.071 99.7914 410.13 99.3399 411.918 98.4188C413.706 97.4977 415.079 96.1973 416.054 94.4995C417.029 92.8017 417.517 90.9053 417.517 88.6657C417.517 86.4261 417.047 84.4575 416.09 82.7416ZM411.268 88.8283C411.268 90.5802 410.708 92.007 409.588 93.0907C408.486 94.1744 407.005 94.7162 405.163 94.7162H397.108C396.927 94.7162 396.837 94.6259 396.837 94.4453V83.0487C396.837 82.8681 396.927 82.7778 397.108 82.7778H405.163C406.987 82.7778 408.468 83.3377 409.588 84.4575C410.708 85.5592 411.268 87.0763 411.268 88.8283ZM440.87 114.711L439.082 108.931C439.01 108.786 438.919 108.714 438.811 108.714H424.543C424.434 108.714 424.344 108.786 424.272 108.931L422.484 114.711C422.375 115.072 422.141 115.252 421.779 115.252H416.379C416.162 115.252 416 115.198 415.891 115.072C415.783 114.945 415.765 114.765 415.837 114.512L427.559 77.974C427.667 77.6127 427.902 77.4321 428.263 77.4321H435.018C435.379 77.4321 435.614 77.6127 435.723 77.974L447.498 114.512C447.498 114.512 447.553 114.674 447.553 114.783C447.553 115.108 447.354 115.27 446.957 115.27H441.556C441.195 115.27 440.96 115.09 440.852 114.729L440.87 114.711ZM426.186 103.802H437.149C437.366 103.802 437.438 103.693 437.366 103.476L431.803 85.361C431.767 85.2165 431.713 85.1443 431.641 85.1443C431.568 85.1443 431.514 85.2165 431.478 85.361L425.969 103.476C425.933 103.693 426.006 103.802 426.186 103.802ZM456.06 114.566C456.06 114.747 456.132 114.891 456.258 115.018H456.276C456.403 115.144 456.547 115.198 456.728 115.198H461.695C461.875 115.198 462.02 115.144 462.146 115.018C462.273 114.891 462.345 114.747 462.345 114.566V100.081C462.345 100.009 462.381 99.9003 462.453 99.7558L473.633 78.1907C473.741 77.974 473.741 77.7934 473.651 77.6489C473.561 77.5044 473.398 77.4321 473.145 77.4321H467.745C467.42 77.4321 467.167 77.5947 466.987 77.9198L459.365 93.0009C459.256 93.1454 459.148 93.1454 459.04 93.0009L451.472 77.9198C451.327 77.5947 451.075 77.4321 450.713 77.4321H445.367C444.97 77.4321 444.771 77.5766 444.771 77.8656C444.771 77.9378 444.807 78.0462 444.88 78.1907L456.005 99.7558C456.06 99.8281 456.06 99.9364 456.06 100.081V114.566Z" fill="#00083F"/>
</g>
<defs>
<clipPath id="clip0_4021_8622">
<rect width="474" height="128" fill="white" transform="translate(0 0.599609)"/>
</clipPath>
</defs>
</svg>
