<svg width="474" height="129" viewBox="0 0 474 129" fill="none" xmlns="http://www.w3.org/2000/svg">
<g clip-path="url(#clip0_4021_8644)">
<path fill-rule="evenodd" clip-rule="evenodd" d="M44.0468 66.3663L105.78 128.1H105.762H63.9865C63.1376 128.1 62.3248 127.756 61.7288 127.16L0.934669 66.3663C-0.311556 65.102 -0.311556 63.0791 0.934669 61.8329L61.7469 1.03879C62.3429 0.442773 63.1556 0.0996094 64.0045 0.0996094H105.78L44.0468 61.8329C42.8006 63.0972 42.8006 65.1201 44.0468 66.3663ZM119.263 114.599L119.254 114.608H119.272L119.263 114.599ZM167.513 66.3484L119.263 114.599L97.7248 93.061L124.419 66.3665C125.666 65.1022 125.666 63.0793 124.419 61.8331L88.2788 25.6926L109.826 4.14551L167.513 61.815C168.76 63.0793 168.76 65.1022 167.513 66.3484Z" fill="white"/>
<path fill-rule="evenodd" clip-rule="evenodd" d="M194.515 50.0568C192.42 48.955 190.812 47.4017 189.674 45.3789C188.536 43.356 187.977 41.0442 187.977 38.4073V26.0895C187.977 23.4887 188.555 21.1949 189.71 19.1901C190.866 17.1853 192.474 15.6501 194.551 14.5484C196.628 13.4466 199.012 12.9048 201.703 12.9048C204.394 12.9048 206.851 13.4466 208.928 14.5484C211.005 15.6501 212.612 17.2034 213.768 19.1901C214.924 21.1768 215.502 23.4887 215.502 26.0895V38.4073C215.502 41.0442 214.924 43.356 213.768 45.3789C212.612 47.4017 211.005 48.955 208.928 50.0568C206.851 51.1585 204.448 51.7003 201.703 51.7003C198.958 51.7003 196.61 51.1585 194.515 50.0568ZM207.176 44.1868C208.548 42.7781 209.235 40.9178 209.235 38.624V26.0353C209.235 23.6873 208.548 21.827 207.176 20.4183C205.803 19.0095 203.979 18.3051 201.721 18.3051C199.464 18.3051 197.693 19.0095 196.321 20.4183C194.948 21.827 194.262 23.7054 194.262 26.0353V38.624C194.262 40.9358 194.948 42.7781 196.321 44.1868C197.693 45.5956 199.5 46.3 201.721 46.3C203.943 46.3 205.803 45.5956 207.176 44.1868ZM243.876 14.6744C245.61 15.6136 246.946 16.9321 247.904 18.6479C248.861 20.3637 249.331 22.3324 249.331 24.572C249.331 26.8116 248.843 28.708 247.868 30.4057C246.892 32.1035 245.52 33.4039 243.732 34.325C241.944 35.2462 239.885 35.6977 237.537 35.6977H228.885C228.705 35.6977 228.614 35.788 228.614 35.9686V50.5079C228.614 50.6885 228.56 50.833 228.434 50.9594C228.307 51.0859 228.163 51.14 227.982 51.14H223.015C222.835 51.14 222.69 51.0859 222.564 50.9594C222.437 50.833 222.383 50.6885 222.383 50.5079V13.9158C222.383 13.7352 222.437 13.5907 222.564 13.4643C222.69 13.3379 222.835 13.2837 223.015 13.2837H237.88C240.155 13.2837 242.142 13.7533 243.876 14.6925V14.6744ZM241.384 28.997C242.503 27.9133 243.063 26.4865 243.063 24.7345C243.063 22.9826 242.503 21.4654 241.384 20.3637C240.264 19.2439 238.783 18.684 236.959 18.684H228.903C228.723 18.684 228.632 18.7743 228.632 18.9549V30.3516C228.632 30.5322 228.723 30.6225 228.903 30.6225H236.959C238.801 30.6225 240.282 30.0806 241.384 28.997ZM279.926 18.7201C280.107 18.7201 280.251 18.666 280.378 18.5395C280.504 18.4131 280.558 18.2686 280.558 18.088V13.9881C280.558 13.8075 280.504 13.663 280.378 13.5366C280.251 13.4101 280.107 13.356 279.926 13.356H255.598C255.417 13.356 255.273 13.4101 255.146 13.5366C255.02 13.663 254.948 13.8075 254.948 13.9881V50.4537C254.948 50.6343 255.02 50.7788 255.146 50.9053C255.273 51.0317 255.417 51.0859 255.598 51.0859H279.926C280.107 51.0859 280.251 51.0317 280.378 50.9053C280.504 50.7788 280.558 50.6343 280.558 50.4537V46.3538C280.558 46.1732 280.504 46.0287 280.378 45.9023C280.251 45.7759 280.107 45.7217 279.926 45.7217H261.504C261.323 45.7217 261.233 45.6314 261.233 45.4508V35.0114C261.233 34.8308 261.323 34.7405 261.504 34.7405H273.876C274.038 34.7405 274.201 34.6863 274.327 34.5598C274.454 34.4334 274.508 34.2889 274.508 34.1083V30.0084C274.508 29.8278 274.454 29.6833 274.327 29.5569C274.201 29.4305 274.056 29.3763 273.876 29.3763H261.504C261.323 29.3763 261.233 29.286 261.233 29.1054V18.9911C261.233 18.8105 261.323 18.7201 261.504 18.7201H279.926ZM308.806 13.519C308.933 13.3926 309.077 13.3384 309.258 13.3384H314.225C314.405 13.3384 314.55 13.3926 314.676 13.519C314.803 13.6454 314.857 13.7899 314.857 13.9705V50.5084C314.857 50.689 314.803 50.8335 314.676 50.9599C314.55 51.0864 314.405 51.1406 314.225 51.1406H309.42C309.059 51.1406 308.806 50.9961 308.662 50.7071L293.093 25.2046C293.021 25.0962 292.948 25.0601 292.876 25.0782C292.804 25.0962 292.768 25.1866 292.768 25.313L292.876 50.5084C292.876 50.689 292.804 50.8335 292.678 50.9599C292.551 51.0864 292.407 51.1406 292.226 51.1406H287.259C287.079 51.1406 286.934 51.0864 286.808 50.9599C286.681 50.8335 286.609 50.689 286.609 50.5084V13.9886C286.609 13.808 286.681 13.6635 286.808 13.5371C286.934 13.4106 287.079 13.3564 287.259 13.3564H292.063C292.425 13.3564 292.678 13.5009 292.822 13.7899L308.337 39.2924C308.409 39.4007 308.481 39.4369 308.553 39.4188C308.626 39.4007 308.662 39.3285 308.662 39.184L308.608 13.9886C308.608 13.808 308.662 13.6635 308.806 13.5371V13.519ZM189.656 109.135C190.776 111.049 192.347 112.53 194.406 113.596C196.465 114.661 198.867 115.185 201.541 115.185C204.214 115.185 206.562 114.68 208.621 113.668C210.661 112.657 212.251 111.23 213.371 109.369C214.49 107.509 215.05 105.36 215.05 102.904C215.05 102.759 214.978 102.633 214.852 102.524C214.725 102.416 214.581 102.362 214.4 102.362L209.433 102.145C209 102.145 208.783 102.344 208.783 102.741C208.783 104.872 208.133 106.57 206.814 107.852C205.496 109.135 203.726 109.767 201.541 109.767C199.355 109.767 197.585 109.117 196.249 107.816C194.912 106.516 194.244 104.836 194.244 102.741V88.9603C194.244 86.8471 194.912 85.1313 196.249 83.8309C197.585 82.5305 199.337 81.8803 201.541 81.8803C203.744 81.8803 205.496 82.5305 206.814 83.8309C208.133 85.1313 208.783 86.8291 208.783 88.9603C208.783 89.3577 209 89.5563 209.433 89.5563L214.4 89.2854C214.581 89.2854 214.725 89.2312 214.852 89.1048C214.978 88.9784 215.05 88.8339 215.05 88.6533C215.05 86.2331 214.49 84.1199 213.371 82.2776C212.251 80.4535 210.68 79.0266 208.621 78.0152C206.562 77.0038 204.25 76.498 201.541 76.498C198.831 76.498 196.465 77.0218 194.406 78.0694C192.365 79.0989 190.776 80.5799 189.656 82.4944C188.536 84.4089 187.977 86.6123 187.977 89.1409V102.488C187.977 105.017 188.536 107.22 189.656 109.135ZM241.059 114.265L233.924 98.6959C233.852 98.5514 233.744 98.4792 233.599 98.4792H227.115C226.935 98.4792 226.844 98.5695 226.844 98.7501V114.102C226.844 114.283 226.772 114.427 226.646 114.554C226.519 114.68 226.375 114.734 226.194 114.734H221.227C221.047 114.734 220.902 114.68 220.776 114.554C220.649 114.427 220.577 114.283 220.577 114.102V77.5643C220.577 77.3837 220.649 77.2392 220.776 77.1127C220.902 76.9863 221.047 76.9321 221.227 76.9321H236.092C238.295 76.9321 240.228 77.3837 241.925 78.3048C243.623 79.2259 244.924 80.5263 245.863 82.188C246.802 83.8676 247.272 85.7821 247.272 87.9495C247.272 90.4419 246.639 92.5551 245.357 94.307C244.075 96.059 242.305 97.2691 240.029 97.9554C239.957 97.9554 239.903 97.9915 239.866 98.0638C239.83 98.136 239.83 98.2083 239.866 98.2805L247.488 114.012C247.561 114.156 247.597 114.265 247.597 114.337C247.597 114.626 247.398 114.77 247.001 114.77H241.817C241.456 114.77 241.203 114.608 241.059 114.283V114.265ZM226.844 82.5853V93.3317C226.844 93.5123 226.935 93.6027 227.115 93.6027H235.225C236.959 93.6027 238.349 93.0969 239.415 92.0674C240.481 91.0379 241.004 89.6834 241.004 87.9856C241.004 86.2878 240.463 84.9152 239.415 83.8857C238.349 82.8382 236.959 82.3144 235.225 82.3144H227.115C226.935 82.3144 226.844 82.4047 226.844 82.5853ZM261.107 114.066C261.107 114.247 261.179 114.391 261.305 114.518H261.323C261.45 114.644 261.594 114.698 261.775 114.698H266.742C266.922 114.698 267.067 114.644 267.193 114.518C267.32 114.391 267.392 114.247 267.392 114.066V99.5809C267.392 99.5087 267.428 99.4003 267.5 99.2558L278.68 77.6907C278.788 77.474 278.788 77.2934 278.698 77.1489C278.608 77.0044 278.445 76.9321 278.192 76.9321H272.792C272.467 76.9321 272.214 77.0947 272.034 77.4198L264.412 92.5009C264.303 92.6454 264.195 92.6454 264.087 92.5009L256.519 77.4198C256.374 77.0947 256.122 76.9321 255.76 76.9321H250.414C250.017 76.9321 249.818 77.0766 249.818 77.3656C249.818 77.4378 249.854 77.5462 249.927 77.6907L261.052 99.2558C261.106 99.3281 261.107 99.4364 261.107 99.5809V114.066ZM305.537 78.2682C307.271 79.2073 308.608 80.5258 309.565 82.2416C310.522 83.9575 310.992 85.9261 310.992 88.1657C310.992 90.4053 310.504 92.3017 309.529 93.9995C308.553 95.6973 307.181 96.9977 305.393 97.9188C303.605 98.8399 301.546 99.2914 299.198 99.2914H290.546C290.366 99.2914 290.275 99.3817 290.275 99.5624V114.102C290.275 114.282 290.221 114.427 290.095 114.553C289.968 114.68 289.824 114.734 289.643 114.734H284.676C284.496 114.734 284.351 114.68 284.225 114.553C284.098 114.427 284.044 114.282 284.044 114.102V77.5096C284.044 77.329 284.098 77.1845 284.225 77.0581C284.351 76.9316 284.496 76.8774 284.676 76.8774H299.541C301.817 76.8774 303.803 77.347 305.537 78.2862V78.2682ZM303.045 92.5907C304.165 91.507 304.724 90.0802 304.724 88.3283C304.724 86.5763 304.165 85.0592 303.045 83.9575C301.925 82.8377 300.444 82.2778 298.62 82.2778H290.564C290.384 82.2778 290.293 82.3681 290.293 82.5487V93.9453C290.293 94.1259 290.384 94.2162 290.564 94.2162H298.62C300.462 94.2162 301.943 93.6744 303.045 92.5907ZM342.382 77.5643C342.382 77.3837 342.328 77.2392 342.201 77.1127H342.183C342.057 76.9863 341.912 76.9321 341.732 76.9321H315.417C315.236 76.9321 315.091 76.9863 314.965 77.1127C314.839 77.2392 314.784 77.3837 314.784 77.5643V81.7184C314.784 81.899 314.839 82.0435 314.965 82.1699C315.091 82.2963 315.236 82.3505 315.417 82.3505H324.989C325.17 82.3505 325.26 82.4408 325.26 82.6214V114.084C325.26 114.265 325.332 114.409 325.459 114.536C325.585 114.662 325.73 114.716 325.91 114.716H330.877C331.058 114.716 331.202 114.662 331.329 114.536C331.455 114.409 331.527 114.265 331.527 114.084V82.6214C331.527 82.4408 331.618 82.3505 331.798 82.3505H341.75C341.912 82.3505 342.075 82.2963 342.201 82.1699C342.31 82.0435 342.382 81.899 342.382 81.7184V77.5643ZM352.027 113.65C349.932 112.548 348.324 110.995 347.186 108.972C346.048 106.949 345.489 104.637 345.489 102.001V89.6827C345.489 87.0819 346.066 84.7882 347.222 82.7834C348.378 80.7786 349.986 79.2434 352.063 78.1416C354.14 77.0399 356.524 76.498 359.215 76.498C361.906 76.498 364.363 77.0399 366.44 78.1416C368.517 79.2434 370.124 80.7966 371.28 82.7834C372.436 84.7701 373.014 87.0819 373.014 89.6827V102.001C373.014 104.637 372.436 106.949 371.28 108.972C370.124 110.995 368.517 112.548 366.44 113.65C364.363 114.752 361.96 115.294 359.215 115.294C356.47 115.294 354.122 114.752 352.027 113.65ZM364.67 107.78C366.042 106.371 366.729 104.511 366.729 102.217V89.6286C366.729 87.2806 366.042 85.4203 364.67 84.0115C363.297 82.6027 361.473 81.8984 359.215 81.8984C356.957 81.8984 355.187 82.6027 353.815 84.0115C352.442 85.4203 351.756 87.2987 351.756 89.6286V102.217C351.756 104.529 352.442 106.371 353.815 107.78C355.187 109.189 356.994 109.893 359.215 109.893C361.437 109.893 363.297 109.189 364.67 107.78ZM416.09 82.2416C415.133 80.5258 413.796 79.2073 412.062 78.2682V78.2862C410.328 77.347 408.342 76.8774 406.066 76.8774H391.202C391.021 76.8774 390.877 76.9316 390.75 77.0581C390.624 77.1845 390.569 77.329 390.569 77.5096V114.102C390.569 114.282 390.624 114.427 390.75 114.553C390.877 114.68 391.021 114.734 391.202 114.734H396.168C396.349 114.734 396.494 114.68 396.62 114.553C396.746 114.427 396.801 114.282 396.801 114.102V99.5624C396.801 99.3817 396.891 99.2914 397.072 99.2914H405.723C408.071 99.2914 410.13 98.8399 411.918 97.9188C413.706 96.9977 415.079 95.6973 416.054 93.9995C417.029 92.3017 417.517 90.4053 417.517 88.1657C417.517 85.9261 417.047 83.9575 416.09 82.2416ZM411.268 88.3283C411.268 90.0802 410.708 91.507 409.588 92.5907C408.486 93.6744 407.005 94.2162 405.163 94.2162H397.108C396.927 94.2162 396.837 94.1259 396.837 93.9453V82.5487C396.837 82.3681 396.927 82.2778 397.108 82.2778H405.163C406.987 82.2778 408.468 82.8377 409.588 83.9575C410.708 85.0592 411.268 86.5763 411.268 88.3283ZM440.87 114.211L439.082 108.431C439.01 108.286 438.919 108.214 438.811 108.214H424.543C424.434 108.214 424.344 108.286 424.272 108.431L422.484 114.211C422.375 114.572 422.141 114.752 421.779 114.752H416.379C416.162 114.752 416 114.698 415.891 114.572C415.783 114.445 415.765 114.265 415.837 114.012L427.559 77.474C427.667 77.1127 427.902 76.9321 428.263 76.9321H435.018C435.379 76.9321 435.614 77.1127 435.723 77.474L447.498 114.012C447.498 114.012 447.553 114.174 447.553 114.283C447.553 114.608 447.354 114.77 446.957 114.77H441.556C441.195 114.77 440.96 114.59 440.852 114.229L440.87 114.211ZM426.186 103.302H437.149C437.366 103.302 437.438 103.193 437.366 102.976L431.803 84.861C431.767 84.7165 431.713 84.6443 431.641 84.6443C431.568 84.6443 431.514 84.7165 431.478 84.861L425.969 102.976C425.933 103.193 426.006 103.302 426.186 103.302ZM456.06 114.066C456.06 114.247 456.132 114.391 456.258 114.518H456.276C456.403 114.644 456.547 114.698 456.728 114.698H461.695C461.875 114.698 462.02 114.644 462.146 114.518C462.273 114.391 462.345 114.247 462.345 114.066V99.5809C462.345 99.5087 462.381 99.4003 462.453 99.2558L473.633 77.6907C473.741 77.474 473.741 77.2934 473.651 77.1489C473.561 77.0044 473.398 76.9321 473.145 76.9321H467.745C467.42 76.9321 467.167 77.0947 466.987 77.4198L459.365 92.5009C459.256 92.6454 459.148 92.6454 459.04 92.5009L451.472 77.4198C451.327 77.0947 451.075 76.9321 450.713 76.9321H445.367C444.97 76.9321 444.771 77.0766 444.771 77.3656C444.771 77.4378 444.807 77.5462 444.88 77.6907L456.005 99.2558C456.06 99.3281 456.06 99.4364 456.06 99.5809V114.066Z" fill="white"/>
</g>
<defs>
<clipPath id="clip0_4021_8644">
<rect width="474" height="128" fill="white" transform="translate(0 0.0996094)"/>
</clipPath>
</defs>
</svg>
