<svg width="256" height="256" viewBox="0 0 256 256" fill="none" xmlns="http://www.w3.org/2000/svg">
<rect width="256" height="256" rx="6" fill="#2231EF"/>
<path d="M163.032 178.53L211.295 130.267C212.541 129.021 212.541 126.998 211.295 125.733L153.603 68.0415L132.055 89.5901L168.198 125.733C169.444 126.979 169.444 129.002 168.198 130.267L141.501 156.963L163.05 178.512L163.032 178.53Z" fill="white"/>
<path d="M149.556 192.005L87.818 130.267C86.5717 129.021 86.5717 126.998 87.818 125.734L149.556 63.9961H107.777C106.928 63.9961 106.115 64.3393 105.519 64.9353L44.7209 125.734C43.4746 126.98 43.4746 129.003 44.7209 130.267L105.519 191.066C106.115 191.662 106.928 192.005 107.777 192.005H149.556Z" fill="white"/>
</svg>
