<?xml version="1.0" encoding="UTF-8"?><svg id="Ebene_2" xmlns="http://www.w3.org/2000/svg" viewBox="0 0 259.81 70.87"><defs><style>.cls-1{fill:#fff;}</style></defs><g id="Default"><path class="cls-1" d="M107.71,27.43c-1.16-.61-2.06-1.47-2.69-2.6-.63-1.12-.94-2.41-.94-3.87v-6.84c0-1.44.32-2.71.96-3.82.64-1.11,1.53-1.97,2.69-2.58,1.15-.61,2.47-.91,3.97-.91s2.85.31,4.01.91c1.15.61,2.04,1.47,2.69,2.58.64,1.11.96,2.39.96,3.82v6.84c0,1.46-.32,2.75-.96,3.87-.64,1.12-1.54,1.99-2.69,2.6-1.15.61-2.49.91-4.01.91s-2.83-.3-3.99-.91ZM114.73,24.18c.76-.78,1.14-1.81,1.14-3.09v-6.99c0-1.3-.38-2.34-1.14-3.12-.76-.78-1.77-1.17-3.03-1.17s-2.24.39-3,1.17c-.76.78-1.14,1.82-1.14,3.12v6.99c0,1.28.38,2.31,1.14,3.09.76.78,1.76,1.17,3,1.17s2.27-.39,3.03-1.17Z"/><path class="cls-1" d="M134.77,7.8c.96.52,1.7,1.26,2.23,2.2.53.95.79,2.05.79,3.29s-.27,2.3-.81,3.24c-.54.94-1.3,1.67-2.29,2.18-.99.51-2.14.76-3.44.76h-4.8c-.1,0-.15.05-.15.15v8.07c0,.1-.04.19-.11.26-.07.07-.15.1-.25.1h-2.76c-.1,0-.19-.03-.25-.1-.07-.07-.11-.15-.11-.26V7.38c0-.1.04-.18.11-.26s.15-.1.25-.1h8.25c1.26,0,2.37.26,3.33.78ZM133.39,15.75c.62-.6.93-1.39.93-2.37s-.31-1.81-.93-2.43c-.62-.62-1.44-.93-2.46-.93h-4.47c-.1,0-.15.05-.15.15v6.33c0,.1.05.15.15.15h4.47c1.02,0,1.84-.3,2.46-.9Z"/><path class="cls-1" d="M154.95,9.94c-.07.07-.16.1-.26.1h-10.23c-.1,0-.15.05-.15.15v5.61c0,.1.05.15.15.15h6.87c.1,0,.18.04.25.11.07.07.1.16.1.26v2.28c0,.1-.04.19-.1.26s-.15.1-.25.1h-6.87c-.1,0-.15.05-.15.15v5.79c0,.1.05.15.15.15h10.23c.1,0,.19.04.26.1.07.07.1.16.1.26v2.28c0,.1-.04.19-.1.26-.07.07-.16.1-.26.1h-13.5c-.1,0-.19-.03-.25-.1-.07-.07-.1-.15-.1-.26V7.41c0-.1.03-.18.1-.26s.15-.1.25-.1h13.5c.1,0,.19.04.26.1.07.07.1.16.1.26v2.28c0,.1-.04.19-.1.26Z"/><path class="cls-1" d="M170.63,7.15c.07-.07.15-.1.25-.1h2.76c.1,0,.18.04.25.1.07.07.1.16.1.26v20.28c0,.1-.04.19-.1.26-.07.07-.16.1-.25.1h-2.67c-.2,0-.34-.08-.42-.24l-8.64-14.16c-.04-.06-.08-.08-.12-.07-.04.01-.06.06-.06.13l.06,13.98c0,.1-.04.19-.1.26-.07.07-.16.1-.25.1h-2.76c-.1,0-.19-.03-.25-.1-.07-.07-.1-.15-.1-.26V7.41c0-.1.03-.18.1-.26s.15-.1.25-.1h2.67c.2,0,.34.08.42.24l8.61,14.16c.04.06.08.09.12.07.04,0,.06-.05.06-.14l-.03-13.98c0-.1.03-.18.1-.26Z"/><path class="cls-1" d="M107.65,62.83c-1.14-.59-2.02-1.41-2.64-2.47-.62-1.06-.93-2.29-.93-3.69v-7.41c0-1.4.31-2.63.93-3.69.62-1.06,1.5-1.88,2.64-2.46,1.14-.58,2.46-.87,3.96-.87s2.79.28,3.93.84c1.14.56,2.02,1.35,2.64,2.37.62,1.02.93,2.2.93,3.54,0,.1-.04.19-.1.26s-.16.1-.25.1l-2.76.15c-.24,0-.36-.11-.36-.33,0-1.18-.37-2.13-1.1-2.85-.73-.72-1.71-1.08-2.92-1.08s-2.2.36-2.94,1.08c-.74.72-1.11,1.67-1.11,2.85v7.65c0,1.16.37,2.1,1.11,2.82.74.72,1.72,1.08,2.94,1.08s2.19-.35,2.92-1.06c.73-.71,1.1-1.65,1.1-2.83,0-.22.12-.33.36-.33l2.76.12c.1,0,.18.03.25.09.07.06.1.13.1.21,0,1.36-.31,2.56-.93,3.58-.62,1.03-1.5,1.83-2.64,2.39-1.14.56-2.45.84-3.93.84s-2.82-.29-3.96-.89Z"/><path class="cls-1" d="M133.83,63.21l-3.96-8.64c-.04-.08-.1-.12-.18-.12h-3.6c-.1,0-.15.05-.15.15v8.52c0,.1-.04.19-.1.26s-.16.1-.25.1h-2.76c-.1,0-.19-.03-.25-.1-.07-.07-.1-.15-.1-.26v-20.28c0-.1.03-.18.1-.26s.15-.1.25-.1h8.25c1.22,0,2.3.26,3.24.77.94.51,1.67,1.23,2.19,2.16.52.93.78,1.99.78,3.19,0,1.38-.35,2.56-1.06,3.53-.71.97-1.69,1.65-2.95,2.03-.04,0-.07.02-.09.06-.02.04-.02.08,0,.12l4.23,8.73c.04.08.06.14.06.18,0,.16-.11.24-.33.24h-2.88c-.2,0-.34-.09-.42-.27ZM125.94,45.63v5.97c0,.1.05.15.15.15h4.5c.96,0,1.73-.29,2.33-.85.59-.57.88-1.32.88-2.27s-.29-1.7-.88-2.28c-.59-.58-1.37-.87-2.33-.87h-4.5c-.1,0-.15.05-.15.15Z"/><path class="cls-1" d="M145.39,63.34c-.07-.07-.1-.15-.1-.26v-8.04c0-.08-.01-.14-.03-.18l-6.18-11.97c-.04-.08-.06-.14-.06-.18,0-.16.11-.24.33-.24h2.97c.2,0,.34.09.42.27l4.2,8.37c.06.08.12.08.18,0l4.23-8.37c.1-.18.24-.27.42-.27h3c.14,0,.23.04.29.12.05.08.04.18-.02.3l-6.21,11.97c-.04.08-.06.14-.06.18v8.04c0,.1-.04.19-.1.26s-.16.1-.25.1h-2.76c-.1,0-.19-.03-.25-.1Z"/><path class="cls-1" d="M169.99,43.23c.96.52,1.7,1.26,2.23,2.21.53.95.79,2.05.79,3.28s-.27,2.3-.81,3.24c-.54.94-1.3,1.67-2.29,2.18s-2.14.77-3.44.77h-4.8c-.1,0-.15.05-.15.15v8.07c0,.1-.04.19-.11.26-.07.07-.15.1-.25.1h-2.76c-.1,0-.19-.03-.25-.1-.07-.07-.11-.15-.11-.26v-20.31c0-.1.04-.18.11-.26.07-.07.15-.11.25-.11h8.25c1.26,0,2.37.26,3.33.78ZM168.61,51.18c.62-.6.93-1.39.93-2.37s-.31-1.81-.93-2.43c-.62-.62-1.44-.93-2.46-.93h-4.47c-.1,0-.15.05-.15.15v6.33c0,.1.05.15.15.15h4.47c1.02,0,1.84-.3,2.46-.9Z"/><path class="cls-1" d="M190.38,42.58c.07.07.1.16.1.26v2.31c0,.1-.04.19-.1.26s-.16.1-.25.1h-5.52c-.1,0-.15.05-.15.15v17.46c0,.1-.04.19-.1.26s-.15.1-.25.1h-2.76c-.1,0-.19-.03-.26-.1-.07-.07-.1-.15-.1-.26v-17.46c0-.1-.05-.15-.15-.15h-5.31c-.1,0-.19-.03-.25-.1-.07-.07-.1-.15-.1-.26v-2.31c0-.1.03-.18.1-.26s.15-.1.25-.1h14.61c.1,0,.18.04.25.1Z"/><path class="cls-1" d="M196.48,62.86c-1.16-.61-2.06-1.47-2.69-2.59-.63-1.12-.94-2.41-.94-3.87v-6.84c0-1.44.32-2.72.96-3.83.64-1.11,1.53-1.97,2.69-2.58,1.15-.61,2.47-.92,3.97-.92s2.85.31,4.01.92c1.15.61,2.04,1.47,2.69,2.58.64,1.11.96,2.39.96,3.83v6.84c0,1.46-.32,2.75-.96,3.87-.64,1.12-1.54,1.99-2.69,2.59-1.15.61-2.49.92-4.01.92s-2.83-.3-3.99-.92ZM203.5,59.61c.76-.78,1.14-1.81,1.14-3.09v-6.99c0-1.3-.38-2.34-1.14-3.12-.76-.78-1.77-1.17-3.03-1.17s-2.24.39-3,1.17-1.14,1.82-1.14,3.12v6.99c0,1.28.38,2.31,1.14,3.09s1.76,1.17,3,1.17,2.27-.39,3.03-1.17Z"/><path class="cls-1" d="M224.24,43.23c.96.52,1.7,1.26,2.23,2.21.53.95.79,2.05.79,3.28s-.27,2.3-.81,3.24c-.54.94-1.3,1.67-2.29,2.18s-2.14.77-3.44.77h-4.8c-.1,0-.15.05-.15.15v8.07c0,.1-.04.19-.11.26-.07.07-.15.1-.25.1h-2.76c-.1,0-.19-.03-.25-.1-.07-.07-.11-.15-.11-.26v-20.31c0-.1.04-.18.11-.26.07-.07.15-.11.25-.11h8.25c1.26,0,2.37.26,3.33.78ZM222.86,51.18c.62-.6.93-1.39.93-2.37s-.31-1.81-.93-2.43c-.62-.62-1.44-.93-2.46-.93h-4.47c-.1,0-.15.05-.15.15v6.33c0,.1.05.15.15.15h4.47c1.02,0,1.84-.3,2.46-.9Z"/><path class="cls-1" d="M241.19,63.18l-.99-3.21c-.04-.08-.09-.12-.15-.12h-7.92c-.06,0-.11.04-.15.12l-.99,3.21c-.06.2-.19.3-.39.3h-3c-.12,0-.21-.03-.27-.1-.06-.07-.07-.17-.03-.31l6.51-20.28c.06-.2.19-.3.39-.3h3.75c.2,0,.33.1.39.3l6.54,20.28s.03.09.03.15c0,.18-.11.27-.33.27h-3c-.2,0-.33-.1-.39-.3ZM233.03,57.12h6.09c.12,0,.16-.06.12-.18l-3.09-10.05c-.02-.08-.05-.12-.09-.12s-.07.04-.09.12l-3.06,10.05c-.02.12.02.18.12.18Z"/><path class="cls-1" d="M250.11,63.34c-.07-.07-.1-.15-.1-.26v-8.04c0-.08-.01-.14-.03-.18l-6.18-11.97c-.04-.08-.06-.14-.06-.18,0-.16.11-.24.33-.24h2.97c.2,0,.34.09.42.27l4.2,8.37c.06.08.12.08.18,0l4.23-8.37c.1-.18.24-.27.42-.27h3c.14,0,.23.04.29.12.05.08.04.18-.02.3l-6.21,11.97c-.04.08-.06.14-.06.18v8.04c0,.1-.04.19-.1.26s-.16.1-.25.1h-2.76c-.1,0-.19-.03-.25-.1Z"/><path class="cls-1" d="M66.03,63.4l26.72-26.72c.69-.69.69-1.81,0-2.51L60.81,2.24l-11.93,11.93,20.01,20.01c.69.69.69,1.81,0,2.51l-14.78,14.78,11.93,11.93Z"/><path class="cls-1" d="M58.57,70.87L24.39,36.69c-.69-.69-.69-1.81,0-2.51L58.57,0h-23.13c-.47,0-.92.19-1.25.52L.52,34.18c-.69.69-.69,1.81,0,2.51l33.66,33.66c.33.33.78.52,1.25.52h23.13Z"/></g></svg>