<?xml version="1.0" encoding="UTF-8"?><svg id="Ebene_2" xmlns="http://www.w3.org/2000/svg" viewBox="0 0 235.19 70.87"><defs><style>.cls-1{fill:#fff;}</style></defs><g id="Default"><path class="cls-1" d="M66.03,63.4l26.72-26.72c.69-.69.69-1.81,0-2.51L60.81,2.24l-11.93,11.93,20.01,20.01c.69.69.69,1.81,0,2.51l-14.78,14.78,11.93,11.93Z"/><path class="cls-1" d="M58.57,70.87L24.39,36.69c-.69-.69-.69-1.81,0-2.51L58.57,0h-23.13c-.47,0-.92.19-1.25.52L.52,34.18c-.69.69-.69,1.81,0,2.51l33.66,33.66c.33.33.78.52,1.25.52h23.13Z"/><path class="cls-1" d="M108.52,17.57c-.85-.45-1.51-1.08-1.97-1.9-.46-.82-.69-1.77-.69-2.84v-5.02c0-1.06.23-1.99.7-2.8.47-.81,1.13-1.44,1.97-1.89.84-.45,1.82-.67,2.92-.67s2.09.22,2.94.67c.84.45,1.5,1.08,1.97,1.89.47.81.7,1.75.7,2.8v5.02c0,1.07-.23,2.02-.7,2.84-.47.82-1.13,1.46-1.97,1.9-.84.45-1.82.67-2.94.67s-2.08-.22-2.93-.67ZM113.67,15.19c.56-.57.84-1.33.84-2.27v-5.13c0-.95-.28-1.72-.84-2.29-.56-.57-1.3-.86-2.22-.86s-1.64.29-2.2.86c-.56.57-.84,1.33-.84,2.29v5.13c0,.94.28,1.69.84,2.27.56.57,1.29.86,2.2.86s1.66-.29,2.22-.86Z"/><path class="cls-1" d="M128.43,3.17c.7.38,1.25.92,1.64,1.62.39.7.58,1.5.58,2.41s-.2,1.69-.59,2.38c-.4.69-.96,1.22-1.68,1.59-.73.37-1.57.56-2.52.56h-3.52c-.07,0-.11.04-.11.11v5.92c0,.07-.03.14-.08.19-.05.05-.11.08-.19.08h-2.02c-.07,0-.14-.03-.19-.08-.05-.05-.08-.11-.08-.19V2.87c0-.07.03-.14.08-.19.05-.05.11-.08.19-.08h6.05c.92,0,1.74.19,2.44.57ZM127.42,9c.45-.44.68-1.02.68-1.74s-.23-1.33-.68-1.78c-.45-.45-1.06-.68-1.8-.68h-3.28c-.07,0-.11.04-.11.11v4.64c0,.07.04.11.11.11h3.28c.75,0,1.35-.22,1.8-.66Z"/><path class="cls-1" d="M143.29,4.75c-.05.05-.11.08-.19.08h-7.5c-.07,0-.11.04-.11.11v4.11c0,.07.04.11.11.11h5.04c.07,0,.14.03.19.08.05.05.08.11.08.19v1.67c0,.07-.03.14-.08.19-.05.05-.11.08-.19.08h-5.04c-.07,0-.11.04-.11.11v4.25c0,.07.04.11.11.11h7.5c.07,0,.14.03.19.08.05.05.08.11.08.19v1.67c0,.07-.03.14-.08.19-.05.05-.11.08-.19.08h-9.9c-.07,0-.14-.03-.19-.08-.05-.05-.08-.11-.08-.19V2.89c0-.07.03-.14.08-.19.05-.05.11-.08.19-.08h9.9c.07,0,.14.03.19.08.05.05.08.11.08.19v1.67c0,.07-.03.14-.08.19Z"/><path class="cls-1" d="M154.85,2.7c.05-.05.11-.08.19-.08h2.02c.07,0,.14.03.19.08.05.05.08.11.08.19v14.87c0,.07-.03.14-.08.19-.05.05-.11.08-.19.08h-1.96c-.15,0-.25-.06-.31-.18l-6.34-10.38s-.06-.06-.09-.05c-.03,0-.04.04-.04.1l.04,10.25c0,.07-.03.14-.08.19-.05.05-.11.08-.19.08h-2.02c-.07,0-.14-.03-.19-.08-.05-.05-.08-.11-.08-.19V2.89c0-.07.03-.14.08-.19.05-.05.11-.08.19-.08h1.96c.15,0,.25.06.31.18l6.31,10.38s.06.06.09.06c.03,0,.04-.04.04-.1l-.02-10.25c0-.07.03-.14.08-.19Z"/><path class="cls-1" d="M108.48,42.55c-.84-.43-1.48-1.04-1.94-1.82-.46-.78-.68-1.68-.68-2.71v-5.43c0-1.03.23-1.93.68-2.71.45-.78,1.1-1.38,1.94-1.8.84-.43,1.8-.64,2.9-.64s2.05.21,2.88.62c.84.41,1.48.99,1.94,1.74s.68,1.61.68,2.6c0,.07-.03.14-.08.19-.05.05-.11.08-.19.08l-2.02.11c-.18,0-.26-.08-.26-.24,0-.87-.27-1.56-.8-2.09-.54-.53-1.25-.79-2.15-.79s-1.61.26-2.16.79c-.54.53-.81,1.22-.81,2.09v5.61c0,.85.27,1.54.81,2.07.54.53,1.26.79,2.16.79s1.61-.26,2.15-.78c.54-.52.8-1.21.8-2.08,0-.16.09-.24.26-.24l2.02.09c.07,0,.14.02.19.07s.08.1.08.15c0,1-.23,1.87-.68,2.63-.45.76-1.1,1.34-1.94,1.75-.84.41-1.8.62-2.88.62s-2.07-.22-2.9-.65Z"/><path class="cls-1" d="M127.74,42.83l-2.9-6.34c-.03-.06-.07-.09-.13-.09h-2.64c-.07,0-.11.04-.11.11v6.25c0,.07-.03.14-.08.19-.05.05-.11.08-.19.08h-2.02c-.07,0-.14-.03-.19-.08-.05-.05-.08-.11-.08-.19v-14.87c0-.07.03-.14.08-.19.05-.05.11-.08.19-.08h6.05c.89,0,1.69.19,2.38.56.69.37,1.22.9,1.61,1.58s.57,1.46.57,2.34c0,1.01-.26,1.87-.78,2.58-.52.71-1.24,1.21-2.17,1.49-.03,0-.05.01-.07.04-.01.03-.01.06,0,.09l3.1,6.4c.03.06.04.1.04.13,0,.12-.08.18-.24.18h-2.11c-.15,0-.25-.07-.31-.2ZM121.96,29.93v4.38c0,.07.04.11.11.11h3.3c.7,0,1.27-.21,1.71-.63.43-.42.65-.97.65-1.66s-.22-1.25-.65-1.67c-.43-.43-1-.64-1.71-.64h-3.3c-.07,0-.11.04-.11.11Z"/><path class="cls-1" d="M136.29,42.93c-.05-.05-.08-.11-.08-.19v-5.9c0-.06,0-.1-.02-.13l-4.53-8.78c-.03-.06-.04-.1-.04-.13,0-.12.08-.18.24-.18h2.18c.15,0,.25.07.31.2l3.08,6.14c.04.06.09.06.13,0l3.1-6.14c.07-.13.18-.2.31-.2h2.2c.1,0,.17.03.21.09.04.06.03.13-.01.22l-4.55,8.78c-.03.06-.04.1-.04.13v5.9c0,.07-.03.14-.08.19-.05.05-.11.08-.19.08h-2.02c-.07,0-.14-.03-.19-.08Z"/><path class="cls-1" d="M154.39,28.17c.7.38,1.25.92,1.64,1.62.39.7.58,1.5.58,2.41s-.2,1.69-.59,2.38c-.4.69-.96,1.22-1.68,1.59-.73.37-1.57.56-2.52.56h-3.52c-.07,0-.11.04-.11.11v5.92c0,.07-.03.14-.08.19-.05.05-.11.08-.19.08h-2.02c-.07,0-.14-.03-.19-.08-.05-.05-.08-.11-.08-.19v-14.89c0-.07.03-.14.08-.19.05-.05.11-.08.19-.08h6.05c.92,0,1.74.19,2.44.57ZM153.38,34c.45-.44.68-1.02.68-1.74s-.23-1.33-.68-1.78c-.45-.45-1.06-.68-1.8-.68h-3.28c-.07,0-.11.04-.11.11v4.64c0,.07.04.11.11.11h3.28c.75,0,1.35-.22,1.8-.66Z"/><path class="cls-1" d="M169.41,27.7c.05.05.08.11.08.19v1.69c0,.07-.03.14-.08.19-.05.05-.11.08-.19.08h-4.05c-.07,0-.11.04-.11.11v12.8c0,.07-.03.14-.08.19-.05.05-.11.08-.19.08h-2.02c-.07,0-.14-.03-.19-.08-.05-.05-.08-.11-.08-.19v-12.8c0-.07-.04-.11-.11-.11h-3.89c-.07,0-.14-.03-.19-.08-.05-.05-.08-.11-.08-.19v-1.69c0-.07.03-.14.08-.19.05-.05.11-.08.19-.08h10.71c.07,0,.14.03.19.08Z"/><path class="cls-1" d="M173.94,42.57c-.85-.45-1.51-1.08-1.97-1.9-.46-.82-.69-1.77-.69-2.84v-5.02c0-1.06.23-1.99.7-2.8.47-.81,1.13-1.44,1.97-1.89.84-.45,1.82-.67,2.92-.67s2.09.22,2.94.67c.84.45,1.5,1.08,1.97,1.89.47.81.7,1.75.7,2.8v5.02c0,1.07-.23,2.02-.7,2.84-.47.82-1.13,1.46-1.97,1.9-.84.45-1.82.67-2.94.67s-2.08-.22-2.93-.67ZM179.09,40.19c.56-.57.84-1.33.84-2.27v-5.13c0-.95-.28-1.72-.84-2.29-.56-.57-1.3-.86-2.22-.86s-1.64.29-2.2.86c-.56.57-.84,1.33-.84,2.29v5.13c0,.94.28,1.69.84,2.27.56.57,1.29.86,2.2.86s1.66-.29,2.22-.86Z"/><path class="cls-1" d="M194.05,28.17c.7.38,1.25.92,1.64,1.62.39.7.58,1.5.58,2.41s-.2,1.69-.59,2.38c-.4.69-.96,1.22-1.68,1.59-.73.37-1.57.56-2.52.56h-3.52c-.07,0-.11.04-.11.11v5.92c0,.07-.03.14-.08.19-.05.05-.11.08-.19.08h-2.02c-.07,0-.14-.03-.19-.08-.05-.05-.08-.11-.08-.19v-14.89c0-.07.03-.14.08-.19.05-.05.11-.08.19-.08h6.05c.92,0,1.74.19,2.44.57ZM193.04,34c.45-.44.68-1.02.68-1.74s-.23-1.33-.68-1.78c-.45-.45-1.06-.68-1.8-.68h-3.28c-.07,0-.11.04-.11.11v4.64c0,.07.04.11.11.11h3.28c.75,0,1.35-.22,1.8-.66Z"/><path class="cls-1" d="M206.46,42.8l-.73-2.35c-.03-.06-.07-.09-.11-.09h-5.81s-.08.03-.11.09l-.73,2.35c-.04.15-.14.22-.29.22h-2.2c-.09,0-.15-.03-.2-.08-.04-.05-.05-.13-.02-.23l4.77-14.87c.04-.15.14-.22.29-.22h2.75c.15,0,.24.07.29.22l4.8,14.87s.02.07.02.11c0,.13-.08.2-.24.2h-2.2c-.15,0-.24-.07-.29-.22ZM200.47,38.36h4.47c.09,0,.12-.04.09-.13l-2.27-7.37c-.01-.06-.04-.09-.07-.09s-.05.03-.07.09l-2.24,7.37c-.01.09.01.13.09.13Z"/><path class="cls-1" d="M213.36,42.93c-.05-.05-.08-.11-.08-.19v-5.9c0-.06,0-.1-.02-.13l-4.53-8.78c-.03-.06-.04-.1-.04-.13,0-.12.08-.18.24-.18h2.18c.15,0,.25.07.31.2l3.08,6.14c.04.06.09.06.13,0l3.1-6.14c.07-.13.18-.2.31-.2h2.2c.1,0,.17.03.21.09.04.06.03.13-.01.22l-4.55,8.78c-.03.06-.04.1-.04.13v5.9c0,.07-.03.14-.08.19-.05.05-.11.08-.19.08h-2.02c-.07,0-.14-.03-.19-.08Z"/><path class="cls-1" d="M115.5,67.8l-.73-2.35c-.03-.06-.07-.09-.11-.09h-5.81s-.08.03-.11.09l-.73,2.35c-.04.15-.14.22-.29.22h-2.2c-.09,0-.15-.03-.2-.08-.04-.05-.05-.13-.02-.23l4.77-14.87c.04-.15.14-.22.29-.22h2.75c.15,0,.24.07.29.22l4.8,14.87s.02.07.02.11c0,.13-.08.2-.24.2h-2.2c-.15,0-.24-.07-.29-.22ZM109.51,63.36h4.47c.09,0,.12-.04.09-.13l-2.27-7.37c-.01-.06-.04-.09-.07-.09s-.05.03-.07.09l-2.24,7.37c-.01.09.01.13.09.13Z"/><path class="cls-1" d="M122.39,67.65c-.85-.37-1.51-.88-1.97-1.54-.46-.66-.69-1.44-.69-2.33v-.55c0-.07.03-.14.08-.19.05-.05.11-.08.19-.08h1.96c.07,0,.14.03.19.08.05.05.08.11.08.19v.42c0,.67.3,1.24.9,1.68.6.45,1.42.67,2.46.67.89,0,1.57-.19,2.02-.57.45-.38.68-.87.68-1.47,0-.41-.12-.76-.37-1.04s-.6-.55-1.07-.78c-.46-.23-1.15-.53-2.08-.88-1.04-.38-1.88-.74-2.53-1.08-.65-.34-1.18-.8-1.62-1.38-.43-.58-.65-1.3-.65-2.17,0-1.29.47-2.31,1.41-3.06.94-.75,2.19-1.12,3.76-1.12,1.1,0,2.07.19,2.92.57.84.38,1.5.91,1.97,1.6.47.68.7,1.47.7,2.36v.37c0,.07-.03.14-.08.19-.05.05-.11.08-.19.08h-1.98c-.07,0-.14-.03-.19-.08-.05-.05-.08-.11-.08-.19v-.24c0-.69-.28-1.27-.85-1.75-.56-.48-1.35-.71-2.34-.71-.81,0-1.43.17-1.88.51-.45.34-.67.81-.67,1.43,0,.44.12.8.35,1.08.23.28.59.53,1.06.76.47.23,1.2.52,2.18.87,1.04.4,1.87.76,2.5,1.08.62.32,1.16.77,1.61,1.35.45.58.67,1.3.67,2.17,0,1.32-.49,2.37-1.46,3.15-.98.78-2.31,1.17-3.99,1.17-1.14,0-2.14-.18-2.99-.55Z"/><path class="cls-1" d="M135.61,67.65c-.85-.37-1.51-.88-1.97-1.54-.46-.66-.69-1.44-.69-2.33v-.55c0-.07.03-.14.08-.19.05-.05.11-.08.19-.08h1.96c.07,0,.14.03.19.08.05.05.08.11.08.19v.42c0,.67.3,1.24.9,1.68.6.45,1.42.67,2.46.67.89,0,1.57-.19,2.02-.57.45-.38.68-.87.68-1.47,0-.41-.12-.76-.37-1.04s-.6-.55-1.07-.78c-.46-.23-1.15-.53-2.08-.88-1.04-.38-1.88-.74-2.53-1.08-.65-.34-1.18-.8-1.62-1.38-.43-.58-.65-1.3-.65-2.17,0-1.29.47-2.31,1.41-3.06.94-.75,2.19-1.12,3.76-1.12,1.1,0,2.07.19,2.92.57.84.38,1.5.91,1.97,1.6.47.68.7,1.47.7,2.36v.37c0,.07-.03.14-.08.19-.05.05-.11.08-.19.08h-1.98c-.07,0-.14-.03-.19-.08-.05-.05-.08-.11-.08-.19v-.24c0-.69-.28-1.27-.85-1.75-.56-.48-1.35-.71-2.34-.71-.81,0-1.43.17-1.88.51-.45.34-.67.81-.67,1.43,0,.44.12.8.35,1.08.23.28.59.53,1.06.76.47.23,1.2.52,2.18.87,1.04.4,1.87.76,2.5,1.08.62.32,1.16.77,1.61,1.35.45.58.67,1.3.67,2.17,0,1.32-.49,2.37-1.46,3.15-.98.78-2.31,1.17-3.99,1.17-1.14,0-2.14-.18-2.99-.55Z"/><path class="cls-1" d="M148.97,67.57c-.85-.45-1.51-1.08-1.97-1.9-.46-.82-.69-1.77-.69-2.84v-5.02c0-1.06.23-1.99.7-2.8.47-.81,1.13-1.44,1.97-1.89.84-.45,1.82-.67,2.92-.67s2.09.22,2.94.67c.84.45,1.5,1.08,1.97,1.89.47.81.7,1.75.7,2.8v5.02c0,1.07-.23,2.02-.7,2.84-.47.82-1.13,1.46-1.97,1.9-.84.45-1.82.67-2.94.67s-2.08-.22-2.93-.67ZM154.12,65.19c.56-.57.84-1.33.84-2.27v-5.13c0-.95-.28-1.72-.84-2.29-.56-.57-1.3-.86-2.22-.86s-1.64.29-2.2.86c-.56.57-.84,1.33-.84,2.29v5.13c0,.94.28,1.69.84,2.27.56.57,1.29.86,2.2.86s1.66-.29,2.22-.86Z"/><path class="cls-1" d="M162.51,67.55c-.84-.43-1.48-1.04-1.94-1.82-.46-.78-.68-1.68-.68-2.71v-5.43c0-1.03.23-1.93.68-2.71.45-.78,1.1-1.38,1.94-1.8.84-.43,1.8-.64,2.9-.64s2.05.21,2.88.62c.84.41,1.48.99,1.94,1.74s.68,1.61.68,2.6c0,.07-.03.14-.08.19-.05.05-.11.08-.19.08l-2.02.11c-.18,0-.26-.08-.26-.24,0-.87-.27-1.56-.8-2.09-.54-.53-1.25-.79-2.15-.79s-1.61.26-2.16.79c-.54.53-.81,1.22-.81,2.09v5.61c0,.85.27,1.54.81,2.07.54.53,1.26.79,2.16.79s1.61-.26,2.15-.78c.54-.52.8-1.21.8-2.08,0-.16.09-.24.26-.24l2.02.09c.07,0,.14.02.19.07s.08.1.08.15c0,1-.23,1.87-.68,2.63-.45.76-1.1,1.34-1.94,1.75-.84.41-1.8.62-2.88.62s-2.07-.22-2.9-.65Z"/><path class="cls-1" d="M173.51,67.95c-.05-.05-.08-.11-.08-.19v-14.87c0-.07.03-.14.08-.19.05-.05.11-.08.19-.08h2.02c.07,0,.14.03.19.08.05.05.08.11.08.19v14.87c0,.07-.03.14-.08.19-.05.05-.11.08-.19.08h-2.02c-.07,0-.14-.03-.19-.08Z"/><path class="cls-1" d="M188.48,67.8l-.73-2.35c-.03-.06-.07-.09-.11-.09h-5.81s-.08.03-.11.09l-.73,2.35c-.04.15-.14.22-.29.22h-2.2c-.09,0-.15-.03-.2-.08-.04-.05-.05-.13-.02-.23l4.77-14.87c.04-.15.14-.22.29-.22h2.75c.15,0,.24.07.29.22l4.8,14.87s.02.07.02.11c0,.13-.08.2-.24.2h-2.2c-.15,0-.24-.07-.29-.22ZM182.5,63.36h4.47c.09,0,.12-.04.09-.13l-2.27-7.37c-.01-.06-.04-.09-.07-.09s-.05.03-.07.09l-2.24,7.37c-.01.09.01.13.09.13Z"/><path class="cls-1" d="M202.16,52.7c.05.05.08.11.08.19v1.69c0,.07-.03.14-.08.19-.05.05-.11.08-.19.08h-4.05c-.07,0-.11.04-.11.11v12.8c0,.07-.03.14-.08.19-.05.05-.11.08-.19.08h-2.02c-.07,0-.14-.03-.19-.08-.05-.05-.08-.11-.08-.19v-12.8c0-.07-.04-.11-.11-.11h-3.89c-.07,0-.14-.03-.19-.08-.05-.05-.08-.11-.08-.19v-1.69c0-.07.03-.14.08-.19.05-.05.11-.08.19-.08h10.71c.07,0,.14.03.19.08Z"/><path class="cls-1" d="M204.64,67.95c-.05-.05-.08-.11-.08-.19v-14.87c0-.07.03-.14.08-.19.05-.05.11-.08.19-.08h2.02c.07,0,.14.03.19.08.05.05.08.11.08.19v14.87c0,.07-.03.14-.08.19-.05.05-.11.08-.19.08h-2.02c-.07,0-.14-.03-.19-.08Z"/><path class="cls-1" d="M212.47,67.57c-.85-.45-1.51-1.08-1.97-1.9-.46-.82-.69-1.77-.69-2.84v-5.02c0-1.06.23-1.99.7-2.8.47-.81,1.13-1.44,1.97-1.89.84-.45,1.82-.67,2.92-.67s2.09.22,2.94.67c.84.45,1.5,1.08,1.97,1.89.47.81.7,1.75.7,2.8v5.02c0,1.07-.23,2.02-.7,2.84-.47.82-1.13,1.46-1.97,1.9-.84.45-1.82.67-2.94.67s-2.08-.22-2.93-.67ZM217.62,65.19c.56-.57.84-1.33.84-2.27v-5.13c0-.95-.28-1.72-.84-2.29-.56-.57-1.3-.86-2.22-.86s-1.64.29-2.2.86c-.56.57-.84,1.33-.84,2.29v5.13c0,.94.28,1.69.84,2.27.56.57,1.29.86,2.2.86s1.66-.29,2.22-.86Z"/><path class="cls-1" d="M232.72,52.7c.05-.05.11-.08.19-.08h2.02c.07,0,.14.03.19.08.05.05.08.11.08.19v14.87c0,.07-.03.14-.08.19-.05.05-.11.08-.19.08h-1.96c-.15,0-.25-.06-.31-.18l-6.34-10.38s-.06-.06-.09-.05c-.03,0-.04.04-.04.1l.04,10.25c0,.07-.03.14-.08.19-.05.05-.11.08-.19.08h-2.02c-.07,0-.14-.03-.19-.08-.05-.05-.08-.11-.08-.19v-14.87c0-.07.03-.14.08-.19.05-.05.11-.08.19-.08h1.96c.15,0,.25.06.31.18l6.31,10.38s.06.06.09.06c.03,0,.04-.04.04-.1l-.02-10.25c0-.07.03-.14.08-.19Z"/></g></svg>